<svg id="Group_374" data-name="Group 374" xmlns="http://www.w3.org/2000/svg" viewBox="0 0 64.125 60.399">
  <g id="Group_373" data-name="Group 373" transform="translate(2.334)">
    <path id="Path_766" data-name="Path 766" d="M222.221,22.612a1.472,1.472,0,0,1-1.135-.486,1.567,1.567,0,0,1,0-2.27l12.97-12.97a1.6,1.6,0,0,1,2.27,2.27l-12.97,12.97A1.751,1.751,0,0,1,222.221,22.612Z" transform="translate(-184.608 -1.61)"/>
    <path id="Path_767" data-name="Path 767" d="M225.221,25.612a1.472,1.472,0,0,1-1.135-.486,1.567,1.567,0,0,1,0-2.27l12.97-12.97a1.6,1.6,0,0,1,2.27,2.27l-12.97,12.97A1.751,1.751,0,0,1,225.221,25.612Z" transform="translate(-182.745 0.254)"/>
    <path id="Path_768" data-name="Path 768" d="M206.506,63.682a7.629,7.629,0,0,1-5.35-2.27l-.486-.486a7.7,7.7,0,0,1-2.27-5.674,7.461,7.461,0,0,1,2.918-5.35l23.67-18c2.27-1.783,3.729-5.026,2.918-6.971-1.135-3.242.486-8.106,3.729-10.862L242.984,3.858a1.576,1.576,0,0,1,2.27.162,1.576,1.576,0,0,1-.162,2.27L233.743,16.5c-2.108,1.945-3.4,5.35-2.756,7.458,1.135,3.4-.648,7.944-4.053,10.538l-23.67,18.158a3.818,3.818,0,0,0-.324,6l.486.486a4.393,4.393,0,0,0,3.242,1.3,4.177,4.177,0,0,0,3.08-1.621l19.131-22.535c2.756-3.242,7.458-4.864,10.862-3.729,2.108.648,5.512-.648,7.458-2.756l10.214-11.349a1.609,1.609,0,0,1,2.432,2.108L249.631,31.906c-2.756,3.08-7.62,4.7-10.862,3.729-2.108-.648-5.512.648-7.3,2.756l-19.293,22.7a8.236,8.236,0,0,1-5.512,2.756A.159.159,0,0,0,206.506,63.682Z" transform="translate(-198.4 -3.445)"/>
  </g>
  <path id="Path_769" data-name="Path 769" d="M217.452,32.3h-1.459a10.753,10.753,0,0,1-3.567-3.242L204,18.685a18.747,18.747,0,0,1-3.4-7.782L200.1,7.661V7.5l.162.162,20.914,20.914,1.945,1.945,2.594-1.945-2.27-2.27L202.537,5.391c-1.945-1.945-3.4-1.621-4.053-1.3-.811.486-1.783,1.459-1.459,4.053l.486,3.242a20.349,20.349,0,0,0,4.053,9.4l8.43,10.376c.324.486,3.567,4.377,6,4.377h1.621a1.532,1.532,0,0,0,1.621-1.621A1.888,1.888,0,0,0,217.452,32.3Z" transform="translate(-196.961 -3.195)"/>
  <path id="Path_770" data-name="Path 770" d="M237.525,36.349,224.23,25l-2.108,2.432,13.132,11.349a4.813,4.813,0,0,1,1.621,3.08,4.82,4.82,0,0,1-1.3,3.242l-.486.486a3.847,3.847,0,0,1-3.242,1.3,4.177,4.177,0,0,1-3.08-1.621L217.908,32.458,215.8,35.052l10.538,12.321a8.236,8.236,0,0,0,5.512,2.756h.324a7.629,7.629,0,0,0,5.35-2.27l.486-.486a7.7,7.7,0,0,0,2.27-5.674A8.222,8.222,0,0,0,237.525,36.349Z" transform="translate(-185.257 9.945)"/>
</svg>
