<svg id="Group_372" data-name="Group 372" xmlns="http://www.w3.org/2000/svg" viewBox="0 0 71.366 71.335">
  <path id="Path_756" data-name="Path 756" d="M94.5,40.8a1.532,1.532,0,0,1-1.621-1.621v-22.7a3.252,3.252,0,0,0-3.242-3.242H70.185a3.252,3.252,0,0,0-3.242,3.242v22.7a1.621,1.621,0,1,1-3.242,0v-22.7A6.5,6.5,0,0,1,70.185,10H89.64a6.5,6.5,0,0,1,6.485,6.485v22.7A1.532,1.532,0,0,1,94.5,40.8Z" transform="translate(-63.7 6.212)"/>
  <path id="Path_757" data-name="Path 757" d="M121.4,35.832l-5.674-19.617A6.088,6.088,0,0,0,110.051,12H97.081a6.313,6.313,0,0,0-5.674,4.215L85.733,35.832a1.539,1.539,0,0,0,1.135,1.945h.486a1.952,1.952,0,0,0,1.621-1.135L94.65,17.026a3.008,3.008,0,0,1,2.594-1.945h12.97a3.008,3.008,0,0,1,2.594,1.945l5.674,19.617a1.611,1.611,0,0,0,1.621,1.135h.486A1.756,1.756,0,0,0,121.4,35.832Z" transform="translate(-50.065 7.455)"/>
  <path id="Path_758" data-name="Path 758" d="M82.291,60.152H72.564A4.777,4.777,0,0,1,67.7,55.289V19.621a1.621,1.621,0,1,1,3.242,0V55.289a1.532,1.532,0,0,0,1.621,1.621h9.727a1.532,1.532,0,0,0,1.621-1.621V19.621a1.621,1.621,0,1,1,3.242,0V55.289A4.777,4.777,0,0,1,82.291,60.152Z" transform="translate(-61.215 11.182)"/>
  <path id="Path_759" data-name="Path 759" d="M76.185,12.97A6.485,6.485,0,1,1,82.67,6.485,6.5,6.5,0,0,1,76.185,12.97Zm0-9.727a3.242,3.242,0,1,0,3.242,3.242A3.252,3.252,0,0,0,76.185,3.242Z" transform="translate(-59.973 0)"/>
  <path id="Path_760" data-name="Path 760" d="M99.185,14.97a6.485,6.485,0,1,1,6.485-6.485A6.5,6.5,0,0,1,99.185,14.97Zm0-9.727a3.242,3.242,0,1,0,3.242,3.242A3.252,3.252,0,0,0,99.185,5.242Z" transform="translate(-45.684 1.242)"/>
  <path id="Path_761" data-name="Path 761" d="M74.321,53.94A1.532,1.532,0,0,1,72.7,52.319v-22.7a1.621,1.621,0,1,1,3.242,0v22.7A1.532,1.532,0,0,1,74.321,53.94Z" transform="translate(-58.109 17.395)"/>
  <path id="Path_762" data-name="Path 762" d="M115.285,45.594H89.346a1.475,1.475,0,0,1-1.3-.648,1.555,1.555,0,0,1-.324-1.459l6.485-24.319a1.593,1.593,0,1,1,3.08.811L91.453,42.351h21.725l-6-22.211a1.593,1.593,0,1,1,3.08-.811l6.485,24.319a1.654,1.654,0,0,1-.324,1.459A1.262,1.262,0,0,1,115.285,45.594Z" transform="translate(-48.815 11.15)"/>
  <path id="Path_763" data-name="Path 763" d="M97.321,50.834A1.532,1.532,0,0,1,95.7,49.212V34.621a1.621,1.621,0,1,1,3.242,0V49.212A1.532,1.532,0,0,1,97.321,50.834Z" transform="translate(-43.82 20.501)"/>
  <path id="Path_764" data-name="Path 764" d="M99.806,50.834H96.564A4.777,4.777,0,0,1,91.7,45.97V34.621a1.621,1.621,0,0,1,3.242,0V45.97a1.532,1.532,0,0,0,1.621,1.621h3.242a1.621,1.621,0,1,1,0,3.242Z" transform="translate(-46.305 20.501)"/>
  <path id="Path_765" data-name="Path 765" d="M100.564,50.834H97.321a1.621,1.621,0,1,1,0-3.242h3.242a1.532,1.532,0,0,0,1.621-1.621V34.621a1.621,1.621,0,1,1,3.242,0V45.97A4.777,4.777,0,0,1,100.564,50.834Z" transform="translate(-43.82 20.501)"/>
</svg>
