<svg xmlns="http://www.w3.org/2000/svg" viewBox="0 0 61.607 61.607">
  <path id="Path_782" data-name="Path 782" d="M164.9,3a30.8,30.8,0,1,0,30.8,30.8A30.79,30.79,0,0,0,164.9,3Zm1.621,58.2V56.5a1.621,1.621,0,1,0-3.242,0v4.7A27.462,27.462,0,0,1,137.5,35.425h4.7a1.621,1.621,0,1,0,0-3.242h-4.7A27.462,27.462,0,0,1,163.282,6.4v4.7a1.621,1.621,0,1,0,3.242,0V6.4A27.462,27.462,0,0,1,192.3,32.182h-4.7a1.621,1.621,0,0,0,0,3.242h4.7A27.462,27.462,0,0,1,166.525,61.2Zm15.726-43.125a1.567,1.567,0,0,1,0,2.27L166.039,36.56a1.751,1.751,0,0,1-1.135.486,1.472,1.472,0,0,1-1.135-.486l-9.727-9.727a1.6,1.6,0,1,1,2.27-2.27l8.593,8.593,15.078-15.078A1.565,1.565,0,0,1,182.251,18.078Z" transform="translate(-134.1 -3)"/>
</svg>
