<svg id="Group_375" data-name="Group 375" xmlns="http://www.w3.org/2000/svg" viewBox="0 0 64.85 59.986">
  <path id="Path_771" data-name="Path 771" d="M26.212,14.5A16.26,16.26,0,0,0,10,30.712a16.586,16.586,0,0,0,2.756,9.079,1.475,1.475,0,0,0,1.3.648,2.3,2.3,0,0,0,.973-.324,1.6,1.6,0,0,0,.486-2.27,12.962,12.962,0,1,1,23.67-7.3,13.341,13.341,0,0,1-2.27,7.3,1.6,1.6,0,0,0,.486,2.27,2.3,2.3,0,0,0,.973.324,2,2,0,0,0,1.3-.648A16.24,16.24,0,0,0,26.212,14.5Z" transform="translate(6.212 3.334)"/>
  <path id="Path_772" data-name="Path 772" d="M20.621,16.47A1.532,1.532,0,0,1,19,14.849V5.121a1.621,1.621,0,1,1,3.242,0v9.727A1.532,1.532,0,0,1,20.621,16.47Z" transform="translate(11.804 -3.5)"/>
  <path id="Path_773" data-name="Path 773" d="M16.09,18.451a2,2,0,0,1-1.3-.648L8.308,8.075A1.715,1.715,0,0,1,8.633,5.8a1.6,1.6,0,0,1,2.27.486l6.485,9.727a1.6,1.6,0,0,1-.486,2.27A7.022,7.022,0,0,1,16.09,18.451Z" transform="translate(4.986 -2.238)"/>
  <path id="Path_774" data-name="Path 774" d="M11.349,26.742H1.621a1.621,1.621,0,0,1,0-3.242h9.727a1.621,1.621,0,0,1,0,3.242Z" transform="translate(0 8.925)"/>
  <path id="Path_775" data-name="Path 775" d="M43.349,26.742H33.621a1.621,1.621,0,0,1,0-3.242h9.727a1.621,1.621,0,0,1,0,3.242Z" transform="translate(19.88 8.925)"/>
  <path id="Path_776" data-name="Path 776" d="M10.469,21.028A2.3,2.3,0,0,1,9.5,20.7L4.633,17.461a1.715,1.715,0,0,1-.324-2.27,1.6,1.6,0,0,1,2.27-.486l4.864,3.242a1.965,1.965,0,0,1,.324,2.432A2,2,0,0,1,10.469,21.028Z" transform="translate(2.501 3.291)"/>
  <path id="Path_777" data-name="Path 777" d="M27.664,18.513a2.3,2.3,0,0,1-.973-.324,1.6,1.6,0,0,1-.486-2.27L32.69,6.191A1.6,1.6,0,0,1,34.96,5.7a1.816,1.816,0,0,1,.486,2.432l-6.485,9.727A2,2,0,0,1,27.664,18.513Z" transform="translate(16.11 -2.3)"/>
  <path id="Path_778" data-name="Path 778" d="M32.6,20.966a2,2,0,0,1-1.3-.648,1.6,1.6,0,0,1,.486-2.27L36.655,14.8a1.641,1.641,0,0,1,1.783,2.756L33.575,20.8C33.25,20.8,32.926,20.966,32.6,20.966Z" transform="translate(19.278 3.353)"/>
  <path id="Path_779" data-name="Path 779" d="M56.5,31.742H4.621a1.621,1.621,0,1,1,0-3.242H56.5a1.621,1.621,0,0,1,0,3.242Z" transform="translate(1.864 12.031)"/>
  <path id="Path_780" data-name="Path 780" d="M45.289,36.742H9.621a1.621,1.621,0,0,1,0-3.242H45.289a1.621,1.621,0,0,1,0,3.242Z" transform="translate(4.97 15.137)"/>
  <path id="Path_781" data-name="Path 781" d="M36.319,41.742h-22.7a1.621,1.621,0,1,1,0-3.242h22.7a1.621,1.621,0,0,1,0,3.242Z" transform="translate(7.455 18.244)"/>
</svg>
