<?xml version="1.0" encoding="utf-8"?>
<!-- Generator: Adobe Illustrator 23.0.2, SVG Export Plug-In . SVG Version: 6.00 Build 0)  -->
<svg version="1.1" id="Layer_1" xmlns="http://www.w3.org/2000/svg" xmlns:xlink="http://www.w3.org/1999/xlink" x="0px" y="0px"
	 viewBox="0 0 1030 408" style="enable-background:new 0 0 1030 408;" xml:space="preserve">
<style type="text/css">
	.st0{fill:#EDEDED;}
</style>
<path class="st0" d="M31.4,408.3h998.7c-21.3-5.9-42.7-11.7-45.7-12.5c3.6-6.3,15.2,0.1,16.3-9.6c0.7-6.7,3.9-14.7-4.7-19.6
	l-6.3,3.2c-4.9-2.9-8.2-6.5-11.7-6.7c-14.2-1-28.4-1.2-42.6-1.2c-7.1,0-14.2,1.1-21.7,1.8c0-15.4,0.4-30.2-0.1-44.9
	c-0.6-17.2-3.6-34.5-2.9-51.6c1-24.8,8-32.8,31.4-34.3c0.4,0,0.7-0.6,2.1-1.7c-4-2.5-7.8-6.9-11.4-6.7c-9.4,0.6-18.7,3.1-24.9,11.4
	c-7.2,9.5-11.8,20.1-12.1,32c-0.4,19.2,0.1,38.4-0.2,57.6c-0.2,15.1-7.3,24-18.7,24.2c-6.1-30.8-12.8-61.5-18.1-92.5
	c-1.9-10.8-8.8-21.6-2.3-33.2c0.5-1-0.7-3-1.2-4.5c-4-11.9-12.1-19.4-24-21.2c-0.6-5.3-1-9.5-1.5-13.9h-6.1
	c-0.4,4.9-0.7,9.3-1.1,13.6c-15,5.2-28.9,10.9-24.7,32.4h-44.2l-8.4-11.5c-3.9,3.3-6.6,5.5-9.2,7.7l-1.8-1.2
	c11.1-10,7.5-20.1,0.5-30.7c-4.6,2-9.4,4-14.1,6.1c-1.2-8.4-8-7.3-13-5.6c-14.2,4.9-28.7,9.7-41.9,16.7c-7.5,4-12.6,5.5-17.2-1.9
	c-2.1-3.3-3-7.7-3.3-11.7c-0.5-7.4-6.9-16.9-12.9-18c-5.8-1.1-15.5,4.6-16.8,11.5c-1.1,5.6,0.5,11.7,0.9,17.9
	c-5.4,1.3-3,6.9-3.1,11.4c-0.1,4.7,0,9.5,0,14.2c-19.7,1-38.7,2-57.6,3c-1.1,0.1-2.3,0.4-3.2,0c-2.9-1.3-7.7-2.6-8-4.4
	c-0.4-3.3,1.3-7.4,3.3-10.4c1.9-2.8,5.3-4.6,7.8-7c11.9-11.1,11.4-34.9-1.5-45.7c9.8-2.2,19.4-3.3,28.3-6.6
	c8.4-3.1,18.3-5.8,21.3-18.6c-14.6,4.3-27.6,8-40.8,11.9c-0.7-9.3-1.2-16.3-1.9-23.3c-2.2-22.1-0.1-44,7.8-64.6
	c4.6-12,13.3-22.6,20.8-33.5c5.3-7.7,5.5-9.3-2.6-13.4c-7.2-3.6-14.5-7.2-22.1-9.6c-38.2-11.8-77.4-15-117.1-12.8
	c-9.8,0.5-19.6,3.6-29,6.7c-6.9,2.3-8.3,8.1-4.8,14.5c2.1,3.8,4.8,7.2,7,10.8c2.7,4.3,6.2,8.5,7.5,13.3c5.3,20.2,7,41.1,5,61.9
	c-0.7,7.4-3.2,14.8-5.8,21.8c-1.2,3.2-4.5,5.7-7.4,9c-7.6-4.6-15.3-9.7-23.4-14c-2.2-1.2-5.6-0.3-8.4-0.4c1.2,2.7,1.8,6,3.7,7.9
	c2.6,2.6,6.2,4.2,9.4,6.3c9.4,6.2,18.9,12.4,28.2,18.8c1.7,1.2,2.5,3.8,3.7,5.7c-2,1-3.9,2.2-5.8,3.5c-3.4,2.9-8.6,5.6-9.6,9.2
	c-3.6,13.5-1.3,26.2,8.4,37.1c4.3,4.8,8.6,9.8,11.8,15.4c4.3,7.4,1.5,12.5-7.1,12.4c-19.5-0.1-39-1-58.4-1.4
	c-7.1-0.2-8.4-4.7-8.5-10.3c-0.1-6.2,0-12.3,0-18.5l-10.3-0.9c5.4-10.9,5-17.5-1-23c-5.8-5.3-12.4-5.8-18.7-1.7
	c-10.2,6.7-7.5,15.9-3.4,24.7l-6.8,4.6c5.7,43.7,2.8,86.6,3.7,131.3c-6.2-4-10.6-6.8-14.4-9.1c-2.5,2.9-4.8,5.4-7.2,8.1l-6.9-7.9
	c3.6-1.2,6.9-2.1,10.1-3.4c3.4-1.5,7.2-2.8,9.9-5.2c2.4-2.1,5.7-6.8,4.8-8.2c-4.1-7.1-0.8-14.1-1.2-21c-0.5-8.7-9.5-19.4-15.2-17.7
	c-5.5,1.6-10.5,4.7-15,6.7l-8.4-11.3c6.6-3.1,13.5-6.7,20.7-9.7c5.8-2.4,10.5-4.3,4.4-11.3c-1-1.2-0.4-4-0.1-6
	c1.9-12.6-0.6-16.3-12.5-20.5c-6.1-2.3-11.9-5.2-17.3-8.7c-1.8-1.1-3.1-4.1-3.3-6.3c-0.8-9.3-8-16.2-16.5-15.2
	c-7.6,0.8-13,8.7-12.5,17.2c0.1,2.2-1,5.3-2.6,6.6c-3.6,2.9-6.8,4.9-13.1,4c-10.3-1.4-19.6,12.8-17.7,23.4c0.4,2.1,0.5,4.9-0.5,6.4
	c-3.5,4.9-1.8,8.3,2.8,10.5c7.4,3.6,15,6.8,22.7,10.2c-4,3-8.2,6.2-11.8,8.9c-3.9-1.7-8-5.1-11.9-5c-8.6,0.2-16.8,14.7-14.6,23.2
	c0.7,2.7,0.9,6.6-0.5,8.6c-5.7,7.9-5.8,11.1,2.7,16c6.7,3.8,14.2,6.1,20.3,8.7c-3.2,3.8-6.5,7.9-10.7,13c-1.6-1.8-4-4.4-6.5-7.2
	c-6.3,5.7-17.8,7.3-18,19.6c-0.1,9.2,0,18.4,0,28.1l-15.1,1.6c0.8-8.9,1.2-17,2.3-25.1c1.8-12.7-2.7-23.8-12.5-29.3
	c-10.7-6.1-23-4.9-32.7,2.6c-1.6,1.3-4.3,1.3-6.5,1.7c-6.4,1.1-10.3-2.1-14.3-6.8c-2.8-2.9-6.5-4.9-10.5-5.4
	c-7.5-0.9-9.2-4.7-8.8-11.5c0.1-2.7-2.3-7.8-3.9-8c-5.6-0.5-4.2,4.7-3.8,7.7c0.8,6.8-1.8,9.3-8.4,10.7c-5.3,1.1-10.1,4.8-14.9,7.5
	c-3.7,2.1-7.3,4.5-10.6,6.6c-3.4,5.8-6.2,12.5-10.7,17.8c-3.7,4.3-9,3.9-11.7-2.1c-2.2-5.2-4.2-10.5-5.8-15.9
	c-2.3-7.2-10.3-10.7-16.7-7c-4.5,2.6-4.4,6.5-0.3,9.8c2.3,1.9,4.5,4.8,5,7.6c0.9,5.6,1,11.3,0.4,17c-1.3,10.9,1.9,19.7,10.4,26.6
	c4.1,3.3,7.8,7.1,12.5,11.4L31.4,408.3z M975.7,390.3c3.3-4.6,6.2-9.5,10-13.7c1.3-1.4,5.4-1.9,6.9-0.9c1.4,0.9,2.2,5.8,1.3,6.6
	c-4.8,4-10.2,7.3-15.4,10.9L975.7,390.3L975.7,390.3z M906.7,372.1c3.4,7.9,6.3,14.9,10.5,24.6l-39.4-2.5l-1.3-3.7
	C884.7,382,897.1,379.9,906.7,372.1z M736.9,273.3c-2.9-2.6,3.3-11.3,10-14.2c5.4,6.8,5,10.6-1.9,14.4
	C742.9,274.7,738.5,274.7,736.9,273.3z M744.1,285.9c2.1-1.1,6.1-1.2,7.9,0.1c1.8,1.4,3.2,5.3,2.5,7.5c-1,3.3-3.8,6-6.8,10.4v0
	c-2.2-5.1-3.9-7.9-4.5-11C742.7,290.6,742.9,286.5,744.1,285.9z M745,357.7c3.8-5.3,7.7-10.5,12.6-17.3v0c2.3,5.2,3.6,8.1,5.5,12.2
	c-5.7,2.4-11.1,4.7-16.5,7L745,357.7z M751.5,312.5c4.4,0.8,9.4,1,9.4,1.7c0.3,3.6-0.7,7.4-1.2,11.1h-2.8L751.5,312.5z M753.3,361.2
	l11.2-2.4C764.5,366.2,764.5,366.2,753.3,361.2z M765.9,233.4c6.2,0.1,12.3,0.8,18.3,2.1c4.8,1.2,8.3,4.1,7.1,10.4
	c-4.8,25.7-9.2,51.5-13.7,77.3c-2,11-4,22.1-6,33.1h-2.5c0-3-0.5-6,0.1-8.9c1.3-6.6,1.2-12-7.4-13.1c-0.4,0-1-3.9-0.2-5.2
	c1.6-2.5,5.9-4.4,6-6.7c0.9-13,0.5-13-6.3-19c-3.1,2-6.1,3.9-9.8,6.3c2.8-5.6,6.2-10.1,7.1-15c0.8-5.1-0.9-10.6-1.6-16.4h-9
	c10.7-5.3,11.1-17.5,1.8-27.2l-9.9,6.1c0-2.5-0.5-4.6,0.1-6.3C742.3,244.7,759,233.2,765.9,233.4z M734.3,232.6
	c1-1.8,5.1-1.9,7.8-2.8c0.1,2.8,1.2,6.3,0.1,8.4c-2.5,4.5-6.1,8.4-9.3,12.6l-4-2.9C730.5,242.8,731.7,237.3,734.3,232.6z
	 M718.8,214.9c1.6-4.9-1-13.4,7.9-13.1c2.7,0.1,5.2,4.5,7.3,6.4h0c-2.3,7.1-3.4,12.9-10.3,12.7C721.9,220.9,718.3,216.3,718.8,214.9
	z M651.7,226.4c3.2,4.7,6.3,9.3,9.7,14.1l-6.3,6.6c3.2,4.4,6.4,8.6,9.5,12.9l-2,0.5c0.5,3.8,0.5,7.7,1.7,11.2
	c1.2,3.5,3.9,6.4,5.7,9.7c1.7,3,4.8,5.5,1.7,10.1c-1.1,1.6,1.8,6.1,3.1,9.3c1.1,2.7,2.3,5.4,3.4,8.2c-11.5,8.7,2.1,14.4,2.3,22.3
	c-6.5,1.2-5.9,5.3-3.5,10.5c2.9,6.3,5.5,12.8,8.4,19.6c-11.2,2.8-21.8,5.5-33.7,8.5V226.4z M262,201.9c5.3,0.1,10.3,5.5,10.4,11.4
	c0.1,5.8-5.3,10.6-11.9,10.5c-6.2-0.3-11.1-5.3-11.2-11.5C249.4,206,254.5,201.8,262,201.9z M136.5,346.1c5-5.3,11.3-5.9,17.9-3.9
	c9.8,3.1,17.6,16.9,14.6,26.7c-1.1,3.4-4.8,5.9-8.1,9.7c0.8,0.9,2.2,2,2.7,3.4c0.6,1.6,0.9,4.6,0.3,4.9c-1.7,0.8-3.8,0.5-5.8,0.5
	c-0.4,0-0.9-0.6-1.2-1c-6.8-8.2-14-16.2-20.3-24.8C133.1,357,131.7,351.1,136.5,346.1z"/>
</svg>
