<svg viewBox="0 0 63.191 56" xmlns="http://www.w3.org/2000/svg"><g fill="#231f20"><path d="m9.76 11.3h-.16c-5.92 0-9.6-.48-9.6-3.2a1.512 1.512 0 0 1 1.6-1.6 1.62 1.62 0 0 1 1.44.96c.48.16 1.92.64 6.4.64s6.08-.48 6.56-.64a1.538 1.538 0 0 1 1.44-.96 1.512 1.512 0 0 1 1.6 1.6 2.843 2.843 0 0 1 -.64 1.6c-.64.8-2.24 1.6-8.64 1.6z" transform="translate(0 3.9)"/><path d="m9.76 22.3h-.16c-5.92 0-9.6-.48-9.6-3.2a1.512 1.512 0 0 1 1.6-1.6 1.62 1.62 0 0 1 1.44.96c.48.16 1.92.64 6.4.64s6.08-.48 6.56-.64a1.538 1.538 0 0 1 1.44-.96 1.512 1.512 0 0 1 1.6 1.6 2.843 2.843 0 0 1 -.64 1.6c-.64.8-2.24 1.6-8.64 1.6z" transform="translate(0 10.5)"/><path d="m14.4 54.9h-9.6a4.714 4.714 0 0 1 -4.8-4.8v-44.8a4.714 4.714 0 0 1 4.8-4.8h9.6a4.714 4.714 0 0 1 4.8 4.8v44.8a4.714 4.714 0 0 1 -4.8 4.8zm-9.6-51.2a1.512 1.512 0 0 0 -1.6 1.6v44.8a1.512 1.512 0 0 0 1.6 1.6h9.6a1.512 1.512 0 0 0 1.6-1.6v-44.8a1.512 1.512 0 0 0 -1.6-1.6z" transform="translate(0 .3)"/><path d="m19.76 11.3h-.16c-5.92 0-9.6-.48-9.6-3.2a1.512 1.512 0 0 1 1.6-1.6 1.62 1.62 0 0 1 1.44.96c.48.16 1.92.64 6.4.64s6.08-.48 6.56-.64a1.538 1.538 0 0 1 1.44-.96 1.512 1.512 0 0 1 1.6 1.6 2.843 2.843 0 0 1 -.64 1.6c-.64.8-2.24 1.6-8.64 1.6z" transform="translate(6 3.9)"/><path d="m19.76 31.3h-.16c-5.92 0-9.6-.48-9.6-3.2a1.512 1.512 0 0 1 1.6-1.6 1.62 1.62 0 0 1 1.44.96c.48.16 1.92.64 6.4.64s6.08-.48 6.56-.64a1.538 1.538 0 0 1 1.44-.96 1.512 1.512 0 0 1 1.6 1.6 2.843 2.843 0 0 1 -.64 1.6c-.64.8-2.24 1.6-8.64 1.6z" transform="translate(6 15.9)"/><path d="m19.76 18.3h-.16c-5.92 0-9.6-.48-9.6-3.2a1.512 1.512 0 0 1 1.6-1.6 1.62 1.62 0 0 1 1.44.96c.48.16 1.92.64 6.4.64s6.08-.48 6.56-.64a1.538 1.538 0 0 1 1.44-.96 1.512 1.512 0 0 1 1.6 1.6 2.843 2.843 0 0 1 -.64 1.6c-.64.8-2.24 1.6-8.64 1.6z" transform="translate(6 8.1)"/><path d="m24.4 54.9h-9.6a4.714 4.714 0 0 1 -4.8-4.8v-44.8a4.714 4.714 0 0 1 4.8-4.8h9.6a4.714 4.714 0 0 1 4.8 4.8v44.8a4.714 4.714 0 0 1 -4.8 4.8zm-9.6-51.2a1.512 1.512 0 0 0 -1.6 1.6v44.8a1.512 1.512 0 0 0 1.6 1.6h9.6a1.512 1.512 0 0 0 1.6-1.6v-44.8a1.512 1.512 0 0 0 -1.6-1.6z" transform="translate(6 .3)"/><path d="m25.88 18.88h-.48l-1.6-.16.32-3.2 1.6.16c1.76.16 10.88-2.4 12.16-3.52l1.28-.96 2.08 2.56-1.12.8c-2.08 1.6-11.04 4.32-14.24 4.32z" transform="translate(14.28 6.72)"/><path d="m36.337 56a4.615 4.615 0 0 1 -4.48-3.52l-11.2-43.36a4.839 4.839 0 0 1 3.36-5.92l9.92-2.88a1.523 1.523 0 0 1 1.12-.32 4.615 4.615 0 0 1 4.48 3.52l11.2 43.36a4.914 4.914 0 0 1 -3.36 5.92l-9.92 2.88a1.523 1.523 0 0 1 -1.12.32zm-1.28-52.8h-.48l-9.92 2.88a1.759 1.759 0 0 0 -1.12 2.08l11.2 43.36a1.645 1.645 0 0 0 1.92 1.12l9.92-2.88a1.759 1.759 0 0 0 1.12-2.08l-11.197-43.36a1.4 1.4 0 0 0 -1.443-1.12z" transform="translate(12.303)"/></g></svg>