<svg viewBox="0 0 74.618 52.021" xmlns="http://www.w3.org/2000/svg"><g fill="#fff"><path d="m28.508 23.882h-17.882a1.536 1.536 0 0 1 -1.626-1.625v-14.631a1.536 1.536 0 0 1 1.626-1.626h17.882a1.536 1.536 0 0 1 1.626 1.626v14.631a1.536 1.536 0 0 1 -1.626 1.625zm-16.257-3.251h14.631v-11.38h-14.631z" transform="translate(5.469 3.754)"/><path d="m33.977 21.134h6.503v3.251h-6.503z"/><path d="m74.718 35.6v-.325c0-.163-.163-.163-.163-.325v-.163l-9.591-12.515v-17.395a4.79 4.79 0 0 0 -4.877-4.877h-45.519a4.79 4.79 0 0 0 -4.877 4.877v17.395l-9.428 12.517v.163c0 .163-.163.163-.163.325v15.123a1.536 1.536 0 0 0 1.626 1.626h4.874a1.562 1.562 0 0 0 1.463-.975l2.6-5.527h53.326l2.764 5.527a1.868 1.868 0 0 0 1.463.975h4.877a1.536 1.536 0 0 0 1.625-1.626zm-62.588-11.215h4.064v-3.251h-3.251v-16.257a1.536 1.536 0 0 1 1.626-1.626h45.518a1.536 1.536 0 0 1 1.626 1.626v16.257h-3.252v3.251h4.064l7.315 9.754h-65.026zm59.337 24.385h-2.276l-2.764-5.527a1.562 1.562 0 0 0 -1.463-.975h-55.273a1.562 1.562 0 0 0 -1.463.975l-2.763 5.527h-2.276v-11.38h68.278z" transform="translate(-.1)"/><path d="m43.508 23.882h-17.882a1.536 1.536 0 0 1 -1.626-1.625v-14.631a1.536 1.536 0 0 1 1.626-1.626h17.882a1.536 1.536 0 0 1 1.626 1.626v14.631a1.536 1.536 0 0 1 -1.626 1.625zm-16.257-3.251h14.631v-11.38h-14.631z" transform="translate(14.854 3.754)"/></g></svg>