<svg viewBox="0 0 26.092 41" xmlns="http://www.w3.org/2000/svg"><g fill="#fff"><path d="m21.525 39.682h-16.959a4.573 4.573 0 0 1 -4.566-4.566v-22.55a4.573 4.573 0 0 1 4.566-4.566h16.959a4.573 4.573 0 0 1 4.566 4.566v22.55a4.573 4.573 0 0 1 -4.566 4.566zm-16.959-29.818a2.7 2.7 0 0 0 -2.7 2.7v22.55a2.7 2.7 0 0 0 2.7 2.7h16.959a2.7 2.7 0 0 0 2.7-2.7v-22.548a2.7 2.7 0 0 0 -2.7-2.7z" transform="translate(0 -.545)"/><path d="m5.932 43.727a.88.88 0 0 1 -.932-.927v-1.868a.88.88 0 0 1 .932-.932.88.88 0 0 1 .932.932v1.868a.88.88 0 0 1 -.932.927z" transform="translate(-.341 -2.727)"/><path d="m21.932 43.727a.88.88 0 0 1 -.932-.927v-1.868a.932.932 0 0 1 1.864 0v1.868a.88.88 0 0 1 -.932.927z" transform="translate(-1.432 -2.727)"/><path d="m8.932 9.318a.88.88 0 0 1 -.932-.932v-7.454a.88.88 0 0 1 .932-.932.88.88 0 0 1 .932.932v7.454a.88.88 0 0 1 -.932.932z" transform="translate(-.545)"/><path d="m18.932 9.318a.88.88 0 0 1 -.932-.932v-7.454a.932.932 0 1 1 1.864 0v7.454a.88.88 0 0 1 -.932.932z" transform="translate(-1.227)"/><path d="m19.977 1.864h-13.045a.88.88 0 0 1 -.932-.932.88.88 0 0 1 .932-.932h13.045a.88.88 0 0 1 .932.932.88.88 0 0 1 -.932.932z" transform="translate(-.409)"/><path d="m7.932 35.432a.88.88 0 0 1 -.932-.932v-19.568a.88.88 0 0 1 .932-.932.88.88 0 0 1 .932.932v19.568a.88.88 0 0 1 -.932.932z" transform="translate(-.477 -.955)"/><path d="m19.932 35.432a.88.88 0 0 1 -.932-.932v-19.568a.932.932 0 1 1 1.864 0v19.568a.88.88 0 0 1 -.932.932z" transform="translate(-1.295 -.955)"/></g></svg>