<svg enable-background="new 0 0 1920 507" viewBox="0 0 1920 507" xmlns="http://www.w3.org/2000/svg"><g fill="none"><path d="m343.9 262.1h.2c.1 0 .1 0 .1-.1h-.2s-.1 0-.1.1z"/><path d="m344.4 261.9c-.1 0-.1 0-.1.1l.1-.1c.1.1.2.1.2 0z"/><path d="m344.1 261.4h-.1-.1s-.1.1-.1.1-.1 0-.1.1c-.2.2-.4.4-.6.6v.1h.1c.1-.1.2-.1.3-.2.1 0 .1 0 .2-.1.1-.2.2-.4.4-.6z"/><path d="m343.7 262.2s.1 0 0 0c.1.1.1.1.1 0 0 0 .1-.1.1-.1l-.2.1c.1-.1.1-.1 0 0z"/><path d="m345.2 261.8c0-.1 0-.1 0 0l-.2-.1c-.1 0-.1.1-.1.1h-.2s-.1 0-.1.1h.6c0-.1 0-.1 0-.1z"/><path d="m344.8 264.6c-.1.1-.3.2-.4.4v.2h.1s0-.1.1-.1l.3-.3v-.1c.1-.1 0-.2-.1-.1.1-.1.1-.1 0 0z"/><path d="m344.6 264.1c-.1-.1-.1-.1 0 0-.1-.1-.1 0-.1 0 0 .1 0 .1-.1.1 0 0-.1.1-.1.1v.1s-.1.1-.1.1v.1c.1-.1.2-.1.3-.3v-.1s0 0 .1-.1z"/><path d="m345.6 263.3c0-.1-.1-.2-.2-.2h-.1c-.2.1-.3.3-.4.4v.1.1c0 .1-.1.1-.1.2s-.1.1-.1.1v.1s.1 0 .1-.1c.1-.1.1-.1.2-.1.1-.1.1-.1.2-.2h.1c.1 0 .1 0 .1-.1 0 0 .1 0 .1-.1.1 0 .1-.1.1-.1.1.2.1.1 0-.1 0 .1 0 .1 0 0z"/><path d="m346.7 267.6s-.1 0-.1.1h.2c0-.1-.1-.1-.1-.1z"/><path d="m343.4 262.2c-.1.1-.1.1-.2.1-.1 0-.1.1-.2.1s-.1.1-.2.1-.1.1 0 .1h.2s.1-.1.2-.1.1-.1.2-.1c.1-.1.1-.1 0-.2z"/><path d="m343.4 258.4c-.1.1-.2.1-.2.1-.1 0-.1 0-.1 0s-.1.1-.1.1-.1.1 0 .1h.5c.1 0 .1.1.1.1h.3c.1 0 .1.1.2.1h.1s.1.1.1.1h.3s.1.1.2.1.1 0 .1.1h.1c.1 0 .2 0 .3.1.1 0 .1.1.2.1h.1.2c.1.1.2.1.2.1.1 0 .1 0 .1-.1s0-.1 0-.1.1 0 .1-.1v-.1s0-.1-.1-.1v-.1s0-.1.1-.1c0-.1 0-.1-.1-.1s-.1-.1-.2-.1-.1 0-.2-.1c0 0 0 0-.1 0v.1.1c-.1-.1-.2-.1-.3-.1s-.1-.1-.2-.1-.2 0-.3 0c0 0-.1-.1-.1-.1h-.1-1s-.1 0-.2 0z"/><path d="m342.4 263.2c-.1-.1-.1-.1-.1 0 0 0-.1.1-.1.1l.2-.1c-.1.1-.1.1 0 0z"/><path d="m348.6 266.6c0-.1.1-.1 0 0 0-.1 0-.1 0 0 0-.1-.1-.1 0 0z"/><path d="m343.3 263c-.1-.1-.1-.1-.1 0 0 0-.1.1-.1.1l.2-.1c-.1.1 0 0 0 0z"/><path d="m346 257.8s.1.1.1.1c.1.1.1.1.1.1s.1.1.1.2.1.1.1.1c.1 0 .1-.1.1-.2v-.1s0-.1.1-.1v-.1s0 .1-.1.1c-.1-.1-.1-.1-.2-.2-.1 0-.1-.1-.2-.1s-.1 0-.1-.1c-.1 0-.1 0-.2-.1 0 0-.1 0-.1-.1 0 0 0 0 .1.1 0 .2.1.2.2.4z"/><path d="m344.8 260.9s.1 0 .1-.1c-.1 0-.2 0-.2 0 0 .1 0 .1.1.1z"/><path d="m344.1 260.9c-.1-.1-.1-.1-.1 0 0 0-.1.1-.1.1z"/><path d="m344.3 261.7h.1c.1 0 .1-.1.1-.1h.2c.1 0 .1 0 .1-.1 0 0 .1 0 .1-.1h.1s.1-.1.1-.1v-.1s-.1-.1-.1-.1h-.1c-.1 0-.1.1-.2.1h-.1c-.1 0-.1 0-.1 0s-.1.1-.1.1c0 .1-.1.2-.1.4z"/><path d="m345.3 260.8c-.1 0-.1-.1 0 0-.1-.1-.2-.1-.3-.1 0 0-.1 0-.1.1h.4c-.1 0-.1 0 0 0z"/><path d="m343.1 261.4c.1-.1.1-.1 0 0 .1-.1.2-.1.3-.1 0 0 .1-.1.1-.1h.1c.1 0 .1 0 .2-.1 0 0 .1-.1.1-.1-.1 0-.2 0-.2 0-.1 0-.1.1-.2.1s-.1.1-.2.1-.1 0-.2.2c-.1-.1-.1-.1-.1 0 0-.1 0 0 .1 0z"/><path d="m568 193.1c-.1-5.4-.1-10.8-.1-16.2 0-.8-.1-1.5-.4-2.3-4.4-.6-8.8-.6-13.2-1-1.2-.1-2.5-.1-3.7-.1-4.6-.2-9.2-.5-13.7-.7-1.2-.1-2.4 0-3.3-.8-.5 1.6-1.1 43.4-.6 46.1 2.6.1 5.2-.1 8 .2.4-.2.7-.6 1.2-.5 1.5.2 3 .1 4.4.3 3.1.4 4.5-.6 5.3-3.7.1-.3.1-.5.2-.8.3-1.7.9-3.3 1.8-4.7.7-.7 1.1-1.6 1.3-2.6 0-.3.4-.6.7-.7 3.2-1.6 6.4-3 10.1-2.3.7.1 1.3.1 2-.1.2-.4.3-.9.2-1.4-.1-2.9-.2-5.8-.2-8.7z"/><path d="m446.4 295.1v-18.8c0-.3.1-.7-.2-.9-.1-.1-.1.1-.2.2s-.1.3-.1.4c0 3.4.1 6.8 0 10.2-.2 3.1-.1 6.2-.1 9.3-.4 1.6-.1 3.3-.2 5.2.1-.1.3-.3.4-.5-.1-.6.2-1.1.4-1.6 0-.1.2-.2.2-.4 0-.4 0-.8.1-1.2s.1-.8-.1-1.1c-.2-.2-.2-.6-.2-.8z"/><path d="m445.4 249.7c.1-.5.2-.9.2-1.4s0-.9 0-1.4v-1.5c-.1 0-.2 0-.2 0-.1.1-.1.2-.1.3.1 1.6-.3 3.2-.2 4.8s0 3.3 0 4.9c0 .4-.3.8-.2 1.2v1.2c.1.1.2.1.3.1 0 0 .1-.1.1-.1-.1-1.3.3-2.6.2-4s-.2-2.8-.1-4.1z"/><path d="m386.4 332.1c0 .1 0 .1 0 0 .1.1.1.1 0 0 .1 0 .1 0 0 0z"/><path d="m384.9 338c-.1-.1-.1-.1-.1 0-.1 0-.1.1-.2.2 0 .1-.1.1-.1.1.1 0 .3 0 .4-.1-.1 0-.1-.1 0-.2z"/><path d="m384.2 338c-.1-.1-.1-.1-.1-.1 0-.1.1-.2.2-.3 0 0 0-.1-.1-.1h-.1c-.1 0-.1.1-.2.1-.1.1-.1.1-.1 0-.1-.1-.1-.1-.2-.2v-.1c0-.1 0-.1 0-.2-.1-.1-.1-.1-.3 0-.1 0-.1 0-.1-.1v-.2c0-.1 0-.1-.1-.1s-.1 0-.1-.1c0 0 0-.1-.1-.1s-.2-.1-.2-.1c-.1 0-.1 0-.2 0 0 0-.1-.1-.1-.1 0-.1 0-.1 0-.2 0 0 0-.1.1-.1v-.1h-.1c-.1 0-.1.1-.1 0-.1 0 0-.1 0-.1s0-.1-.1-.1c-.1-.1-.1-.1-.2 0-.1 0-.1 0-.1-.1 0 0 0-.1-.1-.1 0 0 0 0-.1 0s-.1 0-.1-.1v-.2c0-.1 0-.2-.1-.2h-.1-.1c-.1 0-.1 0-.1-.1 0 0 0-.1-.1-.1v-.1s0 0 0-.1-.1-.1-.2-.1c0 0-.1 0-.1-.1s0-.1-.1-.2v-.1h-.1s-.1.1-.1 0v-.1s0-.1-.1-.1c0 0-.1 0-.1-.1.1-.1.1-.2 0-.2 0-.1 0-.1 0-.1.1-.1.1-.1.2-.1s0-.1-.1-.1-.1 0-.2 0c0 0-.1 0-.1.1h-.3c-.1-.1-.2-.1-.2-.2-.1 0-.2 0-.3 0 0 0-.1 0-.1-.1v-.1h-.1c0 .1-.1.1-.2.1h-.1s-.1 0-.1-.1 0-.1 0-.2c0 0 0 0 0-.1v.1s0 .1-.1.1-.1 0-.1-.1 0-.1-.1-.1-.1 0-.2 0-.2-.1-.2-.1-.1 0-.1-.1 0-.1-.1-.1-.1-.1-.2-.1h-.1c-.1 0-.1 0-.1-.1v-.1-.1c0-.1 0-.1-.1-.1s-.1 0-.1.1c-.1 0-.1.1-.2.1h-.1-.1s-.1 0-.1-.1c-.1-.1-.1-.1-.2-.1 0 0-.1-.1-.1-.1s-.1 0-.1 0c-.1 0-.1-.1-.1-.1s0-.1-.1-.1-.1-.1-.1-.1c0-.1-.1-.1-.1-.1h.1s-.1.1-.1.1h-.1c-.1 0-.1 0-.1.1-.1.1-.1.1-.1.1-.1.1-.1.1-.2.1-.1.1-.2.1-.3.2-.1 0-.2.1-.2.1-.1 0-.1 0-.2 0-.1.1-.2.1-.3.1 0 0-.1.1-.1.1-.1 0-.2 0-.3 0s-.1.1-.2.1c-.2 0-.3 0-.5 0-.1 0-.1-.1-.1-.1h-.3c-.1 0-.1.1-.2.1h-.6-.1s-.1.1-.1.1 0 .1-.1.1h-.1c-.1-.1-.3-.1-.4 0h-.1c-.1 0-.1.1-.1.2-.1-.1-.2-.1-.2 0-.1.1-.1.1-.2 0 0 0-.1 0-.1-.1h-.6c-.1 0-.2 0-.2.1h-.1s-.1-.1-.1-.1c0-.1-.1-.1-.1 0h-.1-.2c-.1 0-.1 0-.2.1 0 0 0 .1-.1.1s-.1.1-.2.1-.1 0-.1-.1v-.1l-.1-.1s-.1 0-.1.1 0 .2-.1.3h-.1c0-.1 0-.2 0-.3s-.1-.2-.2-.2-.2 0-.3 0c0 0-.1-.1-.1-.1v.1c0 .1-.1.1-.2.1-.1.1-.1 0-.1 0s0-.1-.1-.1c0 0-.1 0-.1.1 0 0 0 .1-.1.1h-.1c-.1-.1-.2-.1-.3-.2-.1 0-.1.1-.1.1h-.1c0-.1-.1-.2-.1-.2s-.1-.1-.1 0c0 0-.1.1-.1.1v.2c-.1 0-.1-.1-.2-.1h-.1v.1s0 .1.1.1h.1c.1 0 .1 0 .1-.1h.1l.1.1v.2s-.1.1-.1.1c-.1.1-.1.1-.2.1 0 0-.1 0-.1.1 0 0-.1 0-.1-.1 0 0-.1-.1-.1-.1 0-.1 0-.1 0-.2 0 0-.1-.1-.1-.1s-.1 0-.1.1-.1.1-.1.2-.1.2-.1.2v.1c0 .1 0 .1.1.1h-.1c-.1 0-.1.1-.1.1v.2c0 .1.1.1.1.2v.1s-.1.1-.1.1c0 .1 0 .1.1.1h.3c-.1.1-.1.1-.1.1 0 .1 0 .1.1.1h.1c.1 0 .1.1.1.1v.3c0 .1.1.1.1.2.1.1.1.1.1.2 0 0 .1 0 .1.1.1 0 .2.1.2.2s0 .1-.1.1-.1 0-.1.1 0 .2.1.2c0 0 .1.1.1.1s.1 0 .1.1v.3s0 .1.1.1c.1.1.2.2.2.2v.1l-.2.2c-.1.1-.1.1-.2.1h-.1-.2-.1c-.1.1-.2.1-.3.1h2c2.2 0 4.5-.8 6.7-.8s4.5 1.4 6.7 1.4c1.1 0 2.2-.2 3.3-.3h-.1c.2.5.1.4 0 .3z"/><path d="m573 210.4c-.6-.8-1.4-1.5-2.4-1.9-.1 3.1.3 6 .1 9.1 2-.3 3.9.2 6.1.4-1.1-1.2-2-2.7-2.4-4.4-.3-1.2-.8-2.3-1.4-3.2z"/><path d="m565.1 205.9c-1.6.6-3.2 1.4-4.6 2.3-.8.4-1.5 1.1-1.9 1.9-.3.6-.5 1.3-.8 1.9-.8 2-1.1 4.1-2.4 5.8-.2.2-.5.4-.3.8h.5c2.4-.4 4.7-.4 7.1 0 .3.1.5 0 .7-.2.8-.8 1.8-.7 2.7-.8.7.1 1.3 0 1.9-.3v-10.9c-.8-.6-1.9-.9-2.9-.5z"/><path d="m4.3 407.6c2.2-.3 4.5.5 6.6.1 2.2-.3 4.3-.9 6.5-1.2s4.3-1 6.5-1.3 4.5.4 6.6.1 4.2-1.7 6.3-2 4.3-.9 6.5-1.2 4.6.9 6.7.6c2.2-.3 4.2-1.5 6.4-1.8s4.2-1.3 6.4-1.6 4.4 0 6.6-.3 4.4-.5 6.5-.9c2.2-.3 4.2-1.6 6.3-2 2.2-.4 4.5.3 6.6-.1s4.2-1.4 6.4-1.7c2.2-.4 4.4-.4 6.5-.8s4.3-.6 6.4-1 4.2-1.2 6.3-1.6 4.4-.3 6.5-.6c2.1-.4 4.3-.5 6.4-.9s4.1-1.5 6.3-1.9c2.1-.4 4.3-.4 6.5-.8 2.1-.4 4.2-.9 6.4-1.3 2.1-.4 4.4-.4 6.5-.8l6.3-1.5c2.1-.5 3.9-2.1 6.1-2.6 2.1-.5 4.4-.2 6.5-.8 2.1-.5 4.2-1.3 6.2-1.8 2.1-.6 4.1-1.3 6.2-2 2.1-.6 4.1-1.6 6.1-2.2 2.1-.6 4.3-.7 6.4-1.4s4.2-1.1 6.3-1.8c2-.7 3.8-2.3 5.8-3.1s4.5-.5 6.5-1.3 3.6-2.7 5.6-3.5 4-1.6 6.1-2.4c2-.8 4.4-.6 6.4-1.4s4.1-1.4 6.1-2.2 4.1-1.4 6.1-2.1 3.7-2.4 5.8-3.1c2-.7 4-1.8 6.1-2.4s4.3-.6 6.5-1.1c2.1-.5 4.4-.3 6.5-.7 2-.5 4.1-1.1 6.2-1.6 2-.5 4.2-.8 6.2-1.3s3.9-1.8 6-2.2c2-.5 4.3 0 6.4-.4s3.9-2.1 6-2.5c2.1-.3 4.3-.2 6.3-.5 2.1-.3 4.3.3 6.4.1 2.1-.1 4.2-1.4 6.3-1.4 2.3 0 4.5.4 6.7.4s4.5-.4 6.7-.4 4.5.4 6.7.4c.9 0 1.9 0 2.8.1v.1s0-.1-.1-.1-.1-.1-.1 0c0 0 0 0-.1.1s-.1.1-.2.1-.1 0-.1 0c-.1 0-.1.1-.2 0 0 0-.1 0-.1-.1v-.1h-.1v-.1-.1s0-.1-.1-.1v.3c-.1.1-.1 0-.1-.1s0-.1 0-.2 0-.1-.1-.1h-.1c-.1 0-.1 0-.1 0 0 .1-.1.2-.2.2 0 0-.1-.1-.1-.1-.1 0-.1 0-.2 0 0 0-.1.1-.1.1v-.1s0-.1 0-.1c.1-.1.1-.1.1-.2s0-.1-.1-.1-.1-.1-.1-.1 0-.1-.1-.1-.1.1-.2 0c0 0-.1-.1-.1-.1v-.1s.1 0 .1-.1c.1-.1.1-.1.2-.2v-.1c0-.1-.1-.1-.2-.1h-.2s-.1 0-.1-.1c0 0 0 0 0-.1 0 0 .1-.1.1-.1h.3v-.1c-.1-.1-.2-.2-.3-.3v-.1h.1.1c.1 0 .1-.1.2-.1 0-.1.1-.1.1-.2-.1-.1-.1-.1-.2-.1v-.1c0-.1.1-.1.1-.2v-.2-.1c-.1-.1 0-.1.1-.1h.1c.1 0 .1-.1.2-.1s.1 0 0-.1v-.1-.2c0-.1 0-.1.1-.1h.1c0 .1.1.1.1.1s0 0 0-.1 0-.1-.1-.1h-.1s0-.1-.9.1c0 0 0-.1-.1-.1v-.1s0-.1.1 0 .2.1.2.1h.1v-.1c-.1-.1-.1-.1-.2-.1 0 0-.1-.1 0-.1.1-.1.1-.1.2-.2.1 0 .1 0 .1-.1s.1-.1.1-.1.1 0 .2 0c.1 0 .1-.1 0-.2 0 0 0-.1-.1-.1 0 0 0-.1.1-.1v-.1s.1-.1.1-.1h.1c.1 0 .1 0 .1.1 0 0 .1-.1.1-.1.1 0 .1-.1 0-.1v-.1-.2s0 0 0-.1h.1l.2.2c.1-.1.2-.2.2-.3s0-.2 0-.3c0 0 .1-.1.1-.1h.1c.1-.1.1-.1.2-.1 0 0 0-.1.1-.1 0-.1.1-.1.1-.1h.2c.1 0 .1 0 .2-.1 0 0 0-.1.1-.1 0 0 .1 0 .1.1s.1.2.2.3v-.2c0-.2 0-.2.1-.1h.1s.1 0 .1-.1v.1s0 .1.1.1h.1v-.1-.1.1s0-.1.1-.1h.1s.1 0 .1.1v.3s.1.1.1.1.1 0 .1 0h.1s.1 0 .1-.1.1-.1.1-.2.1-.2.1-.2h-.1s0 0 0-.1c0 0 .1-.1.1-.1h1.1c.1 0 .1.1.2.1s.2.1.2.2.1 0 .1.1v.1c0 .1 0 .1.1.1 0 0 .1 0 .1.1.1 0 .1.1.2.1.1 0 .1 0 .1-.1s.1-.1.2-.1h.1s.1.1.1.1v.1c0 .1.1.1.2.1.1-.1.2-.2.2-.3 0 0 0-.1.1-.1v.1h.1v.2s0 .1.1.1h.1s0-.1.1-.1.1 0 .1-.1.1-.1.1-.1c.1 0 .1-.1.1-.1h.1s0 .1.1.1c0 0 .1 0 .1.1s0 .1.1.1h.1s.1 0 .1.1h.1v-.1s.1 0 .1 0 .1 0 .1.1v.4c0 .1 0 .1.1.1h.1c.1 0 .1 0 .2-.1.1 0 0-.1.1-.2h.1s.1.1.1.1 0 0 .1-.1v-.1c0-.1 0-.1.1-.1h.1c0 .1.1.2.1.2v.3c.1-.1.2-.1.2-.2h.1s.1 0 .1.1v.1c0 .1 0 .1.1.1.1.1.2.1.2 0h.1s0 .1.1.1h.1.1s.1 0 .1.1c.1 0 .2.1.2.2.1-.1.2-.1.2-.3v-.1s.1 0 .1 0c.1 0 .1.1.1.1s-.1.1-.1.1v.1c0 .1 0 .1.1.1s.1 0 .1-.1 0-.2 0-.3h.1s.1 0 .1.1v.2s0 .1.1.1v.1.1-.1c.1 0 .1.1.1.1 0 .1.1.1.1.2 0-.1 0-.2 0-.4.1 0 .1 0 .1.1v.2c.1.1.1.1.1.2v-.1c0-.1 0-.1.1 0s.1 0 .1.1h.1c.1 0 .1.1.1.1s.1.1.1 0 0 0 0-.1.1 0 .1.1v.1c0 .1.1.1.2.1h.1s.1 0 .1-.1.1-.1.1-.2v-.1s-.1 0-.1 0-.1 0-.1-.1 0-.1 0-.1c.1 0 .2-.1.2-.1.1 0 .2-.1.2-.2 0-.2 0-.4 0-.6s.1 0 .1-.1c.1 0 .1-.1 0-.1 0-.1-.1-.1-.1-.1 0-.1 0-.1.1-.1 0 0 0 0 0-.1v-.2c0-.1-.1-.1-.1-.2s0-.1 0-.2c0 0 .1-.1.1-.1 0-.1 0-.1-.1-.1v-1.4s.1-.1.1-.1v-.6c0-.1.1-.2.1-.3v-.1s.1-.1.1-.1c0-.1 0-.1.1-.2 0-.1 0-.2 0-.3 0 0 0-.1.1-.1 0-.1.1-.2.1-.2v-.1s0-.1 0-.1.1-.1.1-.1v-.1c0-.1.1-.1.1-.2s0-.2 0-.4c0-.1.1-.1.1-.2s.1-.1.1-.2c0-.2 0-.3 0-.5 0-.1.1-.1.1-.1v-.1c0-.1.1-.1.1-.2 0-.3 0-.5 0-.8 0-.1.1-.1.1-.1v-.1c0-.1.1-.1.1-.2 0-.2 0-.4 0-.6 0-.1.1-.1.1-.1v-.1c0-.1.1-.1.1-.2 0-.2 0-.4 0-.6 0 0 .1-.1.1-.1v-.5c0-.1.1-.1.1-.2 0-.2 0-.5 0-.7 0-.1.1-.1.1-.2s0-.1.1-.2c0-.1 0-.2 0-.3 0 0 0-.1.1-.1 0-.1.1-.2.1-.2v-.1-.1s.1-.1.1-.1v-.1s.1-.1.1-.1v-.1l.3-.3h.1s.1-.1.1-.1.1-.1 0-.1h-.1-.5c-.1 0-.1-.1-.2-.1h.3s-.1 0-.1-.1c0 0-.1-.1-.1-.1-.1 0-.1 0-.1-.1-.1-.1-.2-.2-.4-.2-.1 0-.1-.1-.2-.1-.1-.1-.2-.1-.3-.2-.1 0-.2-.1-.2-.1-.1-.1-.1-.1-.2-.1 0 0-.1 0-.1-.1-.1 0-.2-.1-.2-.1s0-.1-.1-.1-.1 0-.2-.1-.1-.1-.2-.2c0 0-.1-.1-.1-.1-.1 0-.2-.1-.3-.2-.1 0-.1-.1-.1-.1-.1 0-.2-.1-.2-.1-.1-.1-.2-.2-.3-.2-.1-.1-.2-.2-.3-.3 0-.1 0-.1-.1-.1 0-.1-.1-.1-.1-.2s-.1-.2-.1-.2c0-.1-.1-.2-.1-.2 0-.1 0-.2 0-.3s.1-.1.1-.1c0-.1 0-.2 0-.3s.1-.1.1-.2 0-.2 0-.3.1-.1.1-.1c0-.1 0-.2 0-.3s.1-.1.1-.2 0-.2 0-.3.1-.1.1-.1c0-.1 0-.2 0-.4 0-.1.1-.1.1-.2s0-.2 0-.3.1-.1.1-.1c0-.1 0-.2 0-.4 0-.1.1-.1.1-.2s0-.2 0-.4c0-.1.1-.1.1-.1 0-.1 0-.2 0-.4 0-.1.1-.1.1-.2s0-.2 0-.3v-.1s0-.1.1-.1v-.1s0-.1-.1-.1v-.1c0-.1 0-.2-.1-.2-.1-.1-.1-.1-.1-.2s-.1-.2-.1-.3-.1-.1-.1-.2-.1-.1-.1-.2 0-.2-.1-.3c0 0 0 0 0-.1s-.1-.1-.1-.2-.1-.1-.1-.2 0-.1-.1-.2v-.1c0-.1 0-.2-.1-.2 0-.1 0-.1-.1-.2v-.1c0-.1 0-.1-.1-.1 0 0 0-.1-.1-.1 0-.1 0-.1 0-.2 0 0-.1-.1-.1-.1v-.1c0-.1 0-.1-.1-.2 0-.1-.1-.1-.1-.2v-.7s0-.1-.1-.1c0-.1 0-.1-.1-.2s-.1-.2-.1-.2v-.1c0-.1 0-.2-.1-.2-.1-.1-.1-.1-.1-.2s-.1-.2-.1-.3-.1-.2-.1-.2c0-.1-.1-.1-.1-.2 0 0-.1-.1-.1-.1 0-.1-.1-.1-.1-.2s-.1-.1-.1-.2-.1-.1-.1-.2 0-.1-.1-.1c0-.1-.1-.1-.1-.2s0-.1-.1-.2c0 0 0-.1-.1-.1 0 0-.1-.1-.1-.1 0-.1-.1-.1-.1-.2v-.1c-.1-.1-.1-.1-.2-.2 0 0-.1-.1-.1-.1 0-.1-.1-.2-.2-.3 0 0 0 0 0-.1s-.1-.2-.1-.3c0 0-.1-.1-.1-.1-.1 0-.1 0-.1 0s-.1.1-.1.1h-.3s-.1-.1-.1-.1c-.1 0-.1-.1-.1-.2s0-.2-.1-.2c0 0 0 0-.1 0 0 0-.1.1-.1.1v.2c0 .1-.1.1-.1.2v.4c0 .1.1.1.1.1v.3c0 .1.1.1.1.2v.3s.1.1.1.1v.1c0 .1 0 .1.1.1 0 0 .1.1.1.1.1 0 .1.1.1.2s0 .1.1.2c0 0 .1.1.1.1 0 .1 0 .1.1.1 0 .1.1.1.1.2 0 .1.1.2.2.3 0 .1.1.2.2.3 0 0 .1.1.1.1 0 .1.1.1.1.2s.1.1.1.2c0 0 .1.1.1.1 0 .1.1.1.1.2s0 .1.1.1c.1.1.1.1.1.2s.1.1.1.2.1.1.1.2c0 0 .1.1.1.1 0 .1.1.1.1.2s.1.2.1.2v.4c-.1 0-.1 0-.2 0s-.1-.1-.2-.1-.1-.1-.2-.1-.1-.1-.1-.1c0-.1-.1-.2-.2-.3 0 0-.1-.1-.1-.1 0-.1-.1-.1-.1-.2 0 0-.1-.1-.1-.1 0-.1-.1-.2-.2-.3 0 0-.1-.1-.1-.1 0-.1-.1-.1-.1-.2s-.1-.2-.1-.2-.1 0-.1-.1-.1-.2-.2-.3c0 0-.1-.1-.1-.1 0-.1-.1-.1-.1-.2s-.1-.1-.1-.2-.1-.1-.1-.1c0-.1 0-.1-.1-.1 0-.1-.1-.2-.1-.2s0-.1-.1-.1c0-.1-.1-.1-.1-.2s-.1-.2-.1-.2c0-.1 0-.1-.1-.1v-.1-.1c-.1-.1-.1-.2-.1-.3v-.1c0-.1 0-.1-.1-.1 0 0-.1-.1-.1-.1 0-.1-.1-.1-.1-.2v-1.2c0-.1-.1-.1-.1-.2v-.7c0-.1-.1-.2-.2-.2s-.1-.1-.2-.1c0 0 0 0-.1 0-.1-.1-.2-.2-.3-.4-.1-.1-.1-.2-.1-.3-.1-.1-.2-.2-.3-.3h-.1c-.1 0-.2-.1-.2-.2s-.1-.1-.1-.2-.1-.1-.1-.2-.1-.1-.1-.2-.1-.1-.2-.2c0 0 0 0-.1 0-.1-.1-.2-.2-.3-.3 0 0 0 0 0-.1s-.1-.1-.1-.2 0-.2 0-.3c0 0-.1-.1-.1-.1 0-.1 0-.1-.1-.2s-.1-.1-.1-.1c-.2-.2-.3-.4-.5-.5 0 0-.1-.1-.1-.1 0-.1-.1-.1-.1-.2v-.1-.8s-.1-.1-.1-.1c-.1-.1-.1-.1-.1-.2 0 0 0-.1-.1-.1s-.1-.1-.1-.1c0-.1-.1-.1-.1-.1s-.1.1-.1.1c-.1 0-.1.1-.1.2s-.1.1-.1 0c-.1 0-.1-.1-.1-.2v-.1-.1h-.1s0 0-.1.1-.1.1-.2.1h-.1v.1.1h-.1v-.1s0-.1-.1 0c-.1 0-.1.1-.1.2s-.1.2-.1.2c-.1 0-.2.1-.2.1-.1 0-.1.1-.1.1s-.1.1-.1.1-.1 0-.1-.1 0-.1-.1-.2c-.1.1-.1.1-.2 0 0 0-.1 0-.1-.1 0 0-.1 0-.1.1v.2.1c-.1 0-.1-.1-.1-.1v-.1s-.1 0-.1 0h-.1c-.1 0-.1 0-.1-.1s0-.1-.1-.1c-.1.1-.2.1-.2-.1v-.1s0-.1-.1-.1c0 0-.1.1-.1.1v.2s-.1.1-.1.1v.2c0-.1 0-.2 0-.3 0-.1-.1-.1-.2 0 0 0-.1 0-.1.1-.1-.1-.1-.1-.2-.2h-.1-.1c-.1-.1-.2-.2-.3-.3 0 0 0-.1-.1-.1v-.1c-.1-.1 0-.1 0-.2-.1 0-.2 0-.3 0s-.1 0-.1-.1v-.1-.1h-.1s-.1.1-.1.1c0 .1-.1.1-.1.2s-.1 0-.1-.1 0-.1 0-.1.1-.1.1-.1v.2c0-.1 0-.1-.1-.2-.1 0-.1 0-.1-.1 0 0 0 0 0-.1s0-.1-.1-.1h-.1c-.1 0-.1 0-.1-.1s.1-.1.1-.1v-.1c-.1-.1-.1-.2-.2-.3h-.1s0-.1.1-.1h.1s.1 0 .1-.1h-.1c-.1 0-.2 0-.2-.1-.1 0-.1-.1 0-.1.1-.1.1-.2.2-.2 0 0 0 0 0-.1v-.1h-.1s-.1.1-.1.1c-.1 0-.2 0-.3 0v-.1c.1 0 .1-.1.2-.1 0 0 0 0 0-.1 0 0 0-.1-.1-.1h-.1s-.1 0-.1-.1h.1.1s0-.1-.1-.1c0 0-.1 0-.1-.1 0 0 0 0-.1 0 0 0-.1-.1-.1-.1s.1-.1.1 0h.1c.1 0 .1-.1.1-.1-.1-.1-.3-.3-.4-.5h.1c.1 0 .1 0 .2.1.1 0 .1.1.2.1 0 0 .1 0 .1-.1 0 0 0 0 0-.1-.1-.1-.1-.1-.1-.1-.1-.1-.1-.1-.1-.2-.1-.1-.1-.2-.2-.3 0-.1-.1-.2-.1-.2 0-.1 0-.1 0-.2s-.1-.1-.1-.2c0-.2 0-.3 0-.5 0-.1-.1-.1-.1-.1v-.3c0-.1.1-.1.1-.2s0-.2 0-.3v-.1s0-.1.1-.1c0-.1 0-.1 0-.2.1-.1.1-.3.2-.4 0-.1 0-.1 0-.2s.1-.2.1-.2c.1-.1.1-.2.2-.2 0 0 .1 0 .1-.1.1-.2.3-.3.4-.5l.3-.3c.1-.1.2-.2.2-.2h.1l.2-.2c.1 0 .1 0 .2-.1.1 0 .1-.1.2-.1s.1-.1.2-.1.1 0 .1-.1h.1c.1 0 .2 0 .2-.1.1 0 .1 0 .2-.1h.1c.1 0 .1 0 .1-.1 0 0 .1 0 .1-.1h.1c.1 0 .1-.1.2-.1h.4c.1 0 .1-.1.2-.1h.5s.1-.1.1-.1h.1 1.2c.1 0 .1.1.2.1h.5c.1 0 .1.1.1.1h.4c.1.1.2.1.3.1h.1c.1.1.2.1.3.1h.1.1c.1.1.1.1.2.1s.1.1.2.1c0 0 .1.1.1.1.1 0 .1.1.2.1s.1.1.2.1c.1.1.2.2.3.2l.3.3v.1c0 .1.1.1.1.1.1 0 .2-.1.2-.2v-.1s.1-.1.1-.1.1-.1.1-.1c0-.1.1-.2.2-.3s.3-.3.4-.4.1-.1.1-.2c0-.1.1-.2 0-.3 0 0-.1-.1-.1-.1v-3c0-.1-.1-.1-.1-.2v-.1c0-.1 0-.1-.1-.2 0-.1-.1-.2-.2-.3l-.1-.1c-.1-.1-.1-.1-.1-.2-.1-.1-.1-.1-.2-.2v-.1c-.1-.1-.1-.1-.2-.2 0-.1 0-.2 0-.3s-.1-.1-.1-.2c0-.2 0-.3 0-.5 0-.1-.1-.1-.1-.1v-.6c0-.1-.1-.1-.1-.2v-.4c0-.1-.1-.1-.1-.2v-.5c0-.1.1-.1.1-.1s0 0 0-.1 0-.1.1-.2.1-.1.1-.2c.1-.1.1-.2.1-.2s0 0 0-.1c.1-.1.1-.2.1-.3v-.1c0-.1 0-.2.1-.3 0-.1.1-.2.1-.4v-.1c.1-.1.1-.1.1-.2.1-.1.1-.2.1-.2v-.1c0-.1.1-.2.1-.2 0-.1.1-.2.1-.3s.1-.1.1-.2.1-.2.1-.2c.1-.1.1-.1.1-.2 0 0 0-.1.1-.1 0-.1.1-.1.1-.2s.1-.2.1-.2 0-.1.1-.1c0 0 .1-.1.1-.1.1-.1 0-.1.1-.2 0 0 .1-.1.1-.1 0-.1.1-.1.1-.2 0 0 .1-.1.1-.1s0-.1.1-.1c0 0 .1-.1.1-.1.1-.1 0-.1.1-.2s.1-.1.1-.2c.1-.1.1-.1.1-.1l.4-.4c0-.1.1-.1.1-.2s.1-.1 0-.1c0-.1-.1-.1-.1-.1-.1.1-.1.1-.2.2v.1s0 .1-.1.1c0 0-.1.1-.1.1s0-.1-.1-.1c0 0-.1-.1-.1-.1-.1 0-.1 0 0-.1v-.1s0-.1-.1-.1h-.1c-.1.1-.2.1-.3.2h-.1s-.1.1-.1.1c-.1 0-.2 0-.2 0h-.1s-.1.1-.1.1c-.1.1-.1.1-.2 0h-.1c-.1 0-.1 0-.1-.1v-.1c-.1-.1-.1-.1-.2 0-.1 0-.1.1-.2.1s-.1 0-.2.1c0 0-.1-.1-.1-.1-.1 0-.1 0-.2-.1 0 0-.1 0-.1-.1s.1-.1.1-.2v-.1h-.1c-.1 0-.1.1-.2.1-.1.1-.1.1-.2.1 0 0-.1 0-.1-.1s0-.1-.1-.1c0-.1-.1-.1-.1-.2v-.1c.1-.1.1-.1.2-.2 0-.1 0-.1 0-.1 0-.1.1-.1.2-.1h.1s.1-.1.1-.1h-.1c-.1 0-.1.1-.2.1-.1.1-.3.1-.4.2h-.3s0 0 0-.1.1-.1.1-.1c.1 0 .1-.1.2-.1h-.1s0 0-.1 0-.1.1-.2.1h-.2s-.1 0-.1-.1c0 0 0 0 0-.1 0 0 .1-.1.1-.1h.2c.1 0 .1-.1.2-.1s.2-.1.2-.2c0 0 0 0 0-.1h-.2s-.1 0-.1-.1.1-.1.1-.1h.3s.1 0 .1-.1c0 0 .1-.1.1-.1h.1c.1-.1.1-.1.2-.1s.2-.1.2-.1h.1s.1-.1.1-.1c.1 0 .1-.1.2-.2v-.6c0-.1-.1-.2-.1-.2-.1-.1-.1-.2-.3-.2-.1 0-.1 0-.2-.1 0 0-.1 0-.1.1v.3.1c-.1 0-.2-.1-.2-.2v-.4s0-.1-.1-.1c0 0-.1-.1-.1-.1-.1 0-.2 0-.3-.1 0 .1 0 .1-.1.1 0 .1-.1.1-.1.2s0 .1-.1.2c0 0 0 .1-.1.1 0 .1-.1.1-.1.2 0 0-.1.1-.1.1v.1.1s-.1.1-.1.1c0 .1 0 .1-.1.1 0 .1 0 .1-.1.1 0 0-.1.1-.1.1v.2s-.1.1-.1.1c0 .1-.1.2-.1.2v.2s-.1.1-.1.1c0 .1-.1.2-.1.2v.2c-.1.1-.1.2-.1.3 0-.1 0-.2 0-.4 0 0 .1-.1.1-.1 0-.1 0-.1 0-.2 0 0 0-.1.1-.1 0-.1 0-.1 0-.2s.1-.1.1-.2.1-.1.1-.2v-.1c0-.1.1-.2.1-.3v-.1c.1-.1.1-.2.1-.2s0-.2.1-.2.1-.2.1-.2v-.1-.1s.1-.1.1-.1.1-.1.1-.1c0-.1.1-.1.1-.2s0-.1 0-.2l-.1-.1c-.1 0-.1 0-.2 0 0 0-.1.1-.1.1v.1.1c-.1.1-.1.2-.1.3v.1c0 .2-.1.2-.1.3-.1.1-.1.2-.1.3v.1c0 .1-.1.2-.1.2-.1.1-.1.2-.1.3 0 0-.1.1-.1.1v.3s-.1.1-.1.1v.2s-.1.1-.1.1v.3c0 .1-.1.1-.1.2v.4c0 .1 0 .1-.1.1v.4c0 .1-.1.1-.1.2v.4c0 .1 0 .1-.1.1 0 0-.1 0-.1.1v-.1-.5c0-.1.1-.1.1-.2s0-.2 0-.4c0-.1.1-.1.1-.1 0-.1 0-.2 0-.4 0 0 0-.1.1-.1 0 0 .1-.1.1-.1 0-.1 0-.1 0-.2 0 0 0-.1.1-.1 0-.1 0-.2 0-.3 0 0 0-.1.1-.1 0 0 .1-.1.1-.1 0-.1 0-.1 0-.2 0 0 .1-.1.1-.1v-.1c0-.1.1-.1.1-.2s.1-.1.1-.2v-.1c0-.1.1-.1.1-.2s.1-.1.1-.2c0-.1 0-.1.1-.2 0-.1 0-.1.1-.1s.1-.1.1-.2.1-.1.1-.2.1-.1.1-.2v-.1c-.1-.1-.2-.2-.2-.3v-.1s-.1-.1-.1-.1c-.1-.1-.1-.1-.1 0-.2.2-.4.4-.6.6-.1 0-.1.1-.1.2 0 0 0 .1-.1.1-.1.1-.2.2-.3.3 0 0-.1.1-.1.1s-.1.1-.1.1c0 .1-.1.1-.1.1 0 .1-.1.2-.2.3 0 0-.1 0-.1.1 0 0-.1.1-.1.1s-.1.1-.1.1 0 .1-.1.1c0 0-.1.1-.1.1s-.1.1-.1.1c0 .1-.1.1-.1.2s-.1.1-.1.1 0 0-.1 0h-.1c-.1 0-.1 0 0-.1s.1-.1.1-.2c0 0 .1-.1.1-.1 0-.1.1-.1.1-.2s0-.1.1-.1c0-.1.1-.1.1-.2s.1-.1.1-.2 0-.1.1-.1c0-.1.1-.1.1-.2v-.1-.4s0-.1-.1-.1c0 0 0 0-.1 0s-.1.1-.1.2-.1.1-.1.2c-.1 0-.1 0-.1 0s-.1.1-.1.1c-.2.2-.4.4-.6.6 0 0-.1.1-.1.1 0 .1-.1.1-.1.2-.1.1-.1.1-.2.2h-.1v-.1c0-.1.1-.1.1-.2 0 0 0-.1.1-.1 0 0 .1-.1.1-.1.1-.1.1-.1.2-.2s.2-.1.2-.2v-.1c.1-.1.1-.2.2-.2h.1c.1 0 .1-.1.2-.2 0-.1.1-.2.1-.2 0-.1 0-.2 0-.3 0 0 .1-.1.1-.1v-.1c0-.1 0-.2.1-.2 0 0 .1-.1.1-.1 0-.1 0-.1.1-.2s.1-.1.1-.2c0 0 0-.1.1-.1l.4-.4s.1-.1.1-.1 0-.1.1-.1c0-.1.1-.1.1-.2s.1-.1.1-.3v-.2s0-.1-.1-.1c0 0 0 0-.1 0-.3.2-.5.5-.8.7-.1 0-.1.1-.2.1h-.1v-.1c0-.1 0-.1.1-.1 0-.1.1-.1.1-.2.1-.1.1-.1.2-.2 0 0 0 0 0-.1h-.1c-.1.1-.1.1-.2.2-.1 0-.1 0-.1.1s-.1.1-.2.1c-.1 0-.2.1-.2.1-.2.2-.4.4-.6.6 0 0-.1.1-.1.1h-.1c-.1 0-.1 0 0-.1 0-.1 0-.1.1-.1 0-.1.1-.1.1-.2.1-.1.1-.1.1-.1l.2-.2s0 0 0-.1c-.1 0-.2 0-.2.1-.1 0-.1.1-.1.1 0 .1-.1.1-.1.2-.1.1-.1.1-.2.2 0 .1-.1.2-.1.2s-.1.1-.1.2-.1.2-.1.2v.3s0 .1-.1.1v.1.4c0 .1 0 .1-.1.1 0 0-.1 0-.1.1v-.1-.5c0-.1.1-.1.1-.2v-.1s.1-.1.1-.1 0 0 0-.1 0-.1.1-.2c0-.1.1-.2.1-.3v-.1c0-.1 0-.1-.1-.1s-.1.1-.2.1h-.1c0-.1.1-.1.2-.1s.2-.1.2-.2c0 0 0 0 0-.1h-.1s-.1.1-.1.1c-.1 0-.1 0-.2 0 0 0-.1 0-.1.1 0 0-.1.1-.1.1-.1.1-.1.1-.2.1s-.2.1-.3.1-.2.1-.2.1c-.1.1-.1.1-.2.1s-.1.1-.2.2h-.1c.1-.1.1-.2.2-.2s.1 0 .2-.1.1-.1.2-.1c0 0 .1-.1.1-.1s.1-.1.1-.1c.1 0 .2-.1.3-.2l.4-.4s.1 0 .1-.1c.1-.1.2-.1.3-.3 0-.1.1-.2.2-.3 0 0 .1 0 .1-.1v-.1s-.1-.1-.1-.1c-.1.1-.2.1-.3.2 0 0-.1 0-.1-.1h-.1c-.1.1-.1.1-.2.2-.1 0-.1 0-.2 0 0 0-.1.1-.1.1-.1 0-.1 0-.1 0 .1-.1.2-.2.4-.3.1 0 .2-.1.2-.1.1-.1.2-.2.3-.3s.2-.2.3-.3h.1c.1-.1.1-.1.2-.2s.1-.1.2-.1.2-.1.2-.1h.2s.1-.1.1-.1h.4c.1 0 .1-.1.2-.1h.7s.1-.1.1-.1c.1 0 .2-.1.2-.1s.1-.1.1-.1.1-.1.1-.1.1-.1.1-.1v-.1c-.1 0-.1-.1-.2-.1s-.1 0-.2-.1c0 0-.1-.1-.1-.1-.1 0-.1 0-.1 0-.1 0-.1-.1-.1-.1s0 0-.1 0c-.1-.1-.2-.1-.3-.1s-.1 0-.1-.1h.4-.1c-.1-.1-.2-.1-.3-.1 0 0-.1-.1-.1-.1-.1 0-.2 0-.3 0s-.1-.1-.2-.1-.2 0-.4 0c-.1 0-.1-.1-.1-.1h-.4c-.1 0-.1.1-.2.1 0 0-.1.1-.1.1-.1 0-.2.1-.3.2-.1 0-.1.1-.1.1-.1 0-.1 0-.1.1-.4.4-.8.8-1.1 1.1 0 0 0 .1-.1.1v.1c-.1.1-.1.1-.2.2s-.1.1-.1.2c-.1.1-.3.3-.4.4v-.1s0-.1.1-.1c0-.1.1-.1.1-.2s.1-.2.2-.3.1-.2.2-.3.1-.1.1-.1l.2-.2c.1-.1.1-.2.2-.3.3-.3.6-.5.8-.8.1-.1.1 0 .2-.1s.1-.1.2-.2c0-.1.1-.1.2-.1s0 0 0-.1 0-.1-.1-.1h-1.4 1.9c.1 0 .1-.1.2-.1s.1-.1.2-.1.1-.1.2-.1.1-.1.2-.1h.3.1c.1 0 .1-.1.2-.1h.3c.1 0 .1-.1.2-.1h1.2.1s.1.1.1.1h.1c.1 0 .2.1.3.1s-.1-.1-.1-.1-.1-.1-.1-.1c-.1-.1 0-.1-.1-.2-.2-.2-.5-.5-.7-.7 0 0-.1-.1-.1-.1s-.1 0-.1-.1v-.1c0-.1 0-.1-.1-.1-.2-.2-.4-.4-.6-.6 0 0 0-.1-.1-.1s-.1 0-.1-.1c-.1-.1-.1-.1-.2-.1-.1 0-.1-.1-.2-.1 0 0-.1-.1-.1-.1s0 0 0-.1c0 0 0-.1.1-.1s.1 0 .2.1.2.1.3.2c.1 0 .1.1.2.2s.1.1.2.1c0 0 .1.1.1.1l.6.6c.1 0 .1.1.2.1h.1c.1 0 .1.1.2.1h.3s.1.1.1.1h.1.1c.1 0 .2.1.3.1s.2.1.3.2h.1s.1.1.1.1.1-.1.1-.1 0 0 0-.1v-.3s0 0 0-.1-.1-.2-.2-.2c-.1-.1-.1-.2-.2-.4v-.1c0-.1 0-.1-.1-.1 0 0 0-.1-.1-.1 0-.1 0-.2 0-.3s0-.1-.1-.1c0-.4 0-1 0-1.8 0-.1.1-.1.1-.2s0-.2 0-.3c0 0 .1-.1.1-.1v-.1c0-.1 0-.1.1-.2s.1-.2.1-.3 0-.1.1-.2.3-.3.4-.4.1-.1.2-.1h.4c.1 0 .2.1.3.1.1.1.2.2.3.3 0 .1.1.2.1.2.1.1.1.2.1.3v.1c0 .1 0 .1.1.1 0 0 0 .1.1.1v.3c0 .1.1.1.1.2v.5c0 .1.1.1.1.1h.2.1s.1 0 .1.1h.1c.1 0 .1 0 .1-.1s.1-.1.1-.2 0-.2 0-.4c.1-.1.1-.2.1-.3v-.1c.1-.1.1-.1.1-.2s.1-.1.1-.2.1-.1.1-.2c0 0 0 0 0-.1.1-.1.2-.2.3-.3h.1c.1 0 .1-.1.2-.1s.2-.1.2-.1h.4s.1.1.1.1h.1c.1 0 .1 0 .1.1 0 0 .1.1.1.1h.1s.1-.1.1-.1.1 0 .1-.1.1-.1.1-.2c.1-.1.1-.1.1-.2s.1-.2.1-.2c.1-.1.1-.1.1-.2 0 0 .1-.1.1-.1 0-.1.1-.2.1-.2.1-.1.1-.1.1-.2s0-.1.1-.1c0 0 .1-.1.1-.1 0-.1.1-.2.2-.3 0-.1.1-.2.2-.3 0 0 .1-.1.1-.1s0-.1.1-.1c.1-.1.2-.2.4-.4h.1s.1 0 .1-.1c.1 0 .1-.1.2-.1s.1 0 .2-.1c0 0 .1 0 .1-.1.1 0 .1-.1.2-.1 0 0 .1-.1.1-.1h.1c.1 0 .1 0 .1-.1 0 0 .1 0 .1-.1h.2c.1 0 .1-.1.1-.1h.1c.1 0 .1-.1.2-.1h.2c.1 0 .1-.1.1-.1h.1c.1 0 .1-.1.2-.1h.1c.1 0 .1-.1.1-.1h.3c.1 0 .1-.1.2-.1h.3c.1 0 .1-.1.1-.1h.4c.1 0 .1-.1.2-.1h.3c.1 0 .1-.1.2-.1h1c.1 0 .1-.1.2-.1h1.7.6c.1 0 .1-.1.2-.1h.6c.1 0 .1-.1.2-.1 0-.1.1-.2.1-.2v-.1-.1s.1-.1.1-.1v-1c0-.1.1-.1.1-.2v-.4c0-.1 0-.3 0-.4s.1-.1.1-.1v-.7c0-.1.1-.1.1-.2v-.2c0-.1 0-.2 0-.3s0-.1.1-.1v-.7c.1-.1.1-.1.1-.2v-.4c0-.1.1-.1.1-.2s0-.2 0-.4c0-.1.1-.1.1-.1 0-.1 0-.2 0-.3s0-.1.1-.1c0-.1 0-.2 0-.4 0 0 .1-.1.1-.1 0-.1 0-.2 0-.3s.1-.1.1-.2 0-.2 0-.3.1-.1.1-.1c0-.1 0-.2 0-.3 0 0 .1-.1.1-.1 0-.1 0-.1 0-.2s.1-.1.1-.1c0-.1 0-.2 0-.3s.1-.1.1-.2 0-.2 0-.3.1-.1.1-.1c0-.1 0-.2 0-.3 0 0 .1-.1.1-.1 0-.1 0-.1 0-.2s.1-.1.1-.1c0-.1 0-.2 0-.3s.1-.1.1-.2 0-.2 0-.4c0-.1.1-.1.1-.1 0-.1 0-.2 0-.3.1-.1.1-.2.2-.3 0-.1.1-.2.1-.3s.1-.2.1-.2c.1-.1.2-.2.3-.3 0-.1.1-.1.1-.1.1 0 .1 0 .2-.1 0 0 .1-.1.1-.1h.1c.1 0 .1-.1.1-.1h.9c.1 0 .1.1.1.1h.1c.1 0 .1.1.2.1h.3c.1 0 .1.1.2.1 0 0 .1.1.1.1.1 0 .2.1.3.2s.2.2.3.3c0 .1.1.1.1.1s.1.1.1.1c.1 0 .2.1.3.3v.1.1s.1.1.1.1c.1.1.1.1.1.2 0 .1.1.1.1.2s.1.1.1.2c.1.1.1.1.1.2s.1.2.1.2.1 0 .1.1 0 .1.1.1c.1.1.1.1.1.2v.1c0 .1 0 .1.1.2v.3c0 .1.1.1.1.2s.1.1.1.2.1.1.1.2.1.1.1.2v.3c0 .1.1.1.1.1v.1c0 .1 0 .1.1.2s.1.2.1.2v.1c0 .1 0 .1.1.1 0 0 0 .1.1.1v.2c0 .1.1.1.1.1v.1c0 .1.1.1.1.2v.2c0 .1.1.1.1.1v.1c0 .1.1.1.1.2v.2.1h.1l.2-.2c.5-.5.9-.9 1.4-1.4.1-.1.1-.1.2-.2 0 0 .1-.1.1-.1.1 0 .1-.1.2-.1.3-.2.5-.5.8-.7 0 0 .1-.1.1-.1.1 0 .2-.1.3-.2 0 0 .1-.1.1-.1.1 0 .2-.1.3-.2s.1-.1.1-.1 0-.1.1-.1.2-.1.3-.2h.1c.1 0 .1-.1.2-.2s.1-.1.2-.2c0 0 .1-.1.1-.1h.1s.1-.1.1-.1c.1-.1.1-.1.2-.1 0 0 .1-.1.1-.1s.1-.1.1-.1c.1 0 .2-.1.3-.2 0 0 .1-.1.1-.1.1 0 .1-.1.2-.1s.2-.1.2-.1 0-.1.1-.1.2-.1.3-.2c0 0 .1-.1.1-.1.1 0 .1-.1.2-.1s.1-.1.2-.1c0 0 .1-.1.1-.1.1 0 .2-.1.2-.1s.1-.1.1-.1 0-.1.1-.1.2-.1.2-.1h.1c.1 0 .1 0 .2-.1.1 0 .2-.1.3-.1s.2-.1.3-.1.2-.1.2-.1c.1-.1.2-.1.3-.1h.1.1s.1-.1.1-.1c.1 0 .1 0 .1-.1.1 0 .1 0 .1-.1 0 0 .1-.1.1-.1h.2c.1-.1.2-.1.4-.2h.2c.1-.1.2-.1.3-.1s.1 0 .2-.1h.2c.1 0 .2-.1.3-.1h.1c.1 0 .1 0 .2-.1h.2c.1 0 .1-.1.1-.1h.1c.1 0 .1-.1.2-.1h.3c.1 0 .1-.1.1-.1h.1c.1 0 .1-.1.2-.1h.3c.1 0 .1-.1.2-.1h.5c.1 0 .1-.1.2-.1h.6c.1 0 .1-.1.1-.1h.6c.1 0 .1-.1.2-.1h.6s.1-.1.1-.1h.1 1.6c.1 0 .1-.1.2-.1h1c.1 0 .1.1.1.1h.5.6c.1 0 .1.1.2.1h.4c.1 0 .1.1.1.1h.4c.1 0 .1.1.2.1h.3c.1 0 .1.1.1.1h.1.1.1c.1.1.2.2.3.2.1.1.3.2.4.4v.3c0 .1.1.1.1.2v.1c0 .1 0 .1.1.2v.1c0 .1-.1.1-.1.1v.9c0 .1 0 .1-.1.2v.1.3s0 .1-.1.1v.1.2c0 .1 0 .1-.1.1v.4c-.1.1-.1.2-.2.4v.2s-.1.1-.1.1c0 .1 0 .1-.1.1 0 0-.1.1-.1.1-.1.1-.1.2-.1.3v.1s-.1.1-.1.1c0 .1-.1.1-.1.2s0 .1-.1.1c-.1.1-.1.1-.1.2 0 0-.1.1-.1.1s0 .1-.1.1c0 .1-.1.2-.2.3 0 0-.1.1-.1.1 0 .1-.1.2-.2.3 0 .1 0 .1-.1.1 0 .1-.1.1-.1.2 0 .1-.1.2-.2.3v.1.1c-.1.1-.2.2-.2.3 0 0 0 .1-.1.1-.1.1-.2.2-.3.3 0 0-.1.1-.1.1s0 .1-.1.1c-.1.1-.3.3-.4.4 0 0-.1.1-.1.1v.1c-.1 0-.1.1-.1.1l-.2.2c-.1.1 0 .1-.1.2s-.1.1-.2.2-.1.1-.1.2l-.2.2c-.8.8-1.6 1.6-2.4 2.4-.1.1-.2.2-.3.3h-.1s-.1 0-.1.1c-.1 0-.1.1-.2.1s-.1 0-.1.1c-.1.1-.1.1-.2.1-.1 0-.1.1-.2.1 0 0-.1.1-.1.1-.1 0-.2.1-.3.2-.1 0-.1 0-.1.1-.1.1-.1.1-.2.1h-.1s-.1 0-.1.1c-.1 0-.1.1-.2.1s-.1.1-.2.1c-.1.1-.1.1-.2.1s-.2.1-.2.1c-.1 0-.1.1-.2.1-.1.1-.1.1-.2.1s-.1.1-.2.1c-.1.1-.2.1-.4.2h-.1c-.1 0-.1.1-.2.1s-.1.1-.2.1h-.1c-.1 0-.1.1-.2.1s-.1.1-.2.1-.1.1-.2.1h-.1s-.1 0-.1 0-.1.1-.1.1c-.1 0-.1 0-.2 0 0 0-.1 0-.1.1 0 0-.1.1-.1.1-.1 0-.1 0-.1 0-.1.1-.2.1-.3.1h-.1c-.1 0-.1 0-.2 0-.1.1-.1.1-.2.1 0 0-.1.1-.1.1-.1 0-.1.1-.2.1s-.2.1-.2.1 0 0-.1.1c-.1 0-.1 0-.2.1s-.1.1-.2.1c0 0-.1 0-.1.1 0 0-.1.1-.1.1-.1.1-.1 0-.2.1 0 0-.1.1-.1.1-.1 0-.1.1-.2.1 0 0-.1.1-.1.1-.1 0-.2.1-.3.2-.1 0-.2.1-.3.2-.1 0-.1 0-.1.1-.1 0-.1.1-.2.1-.1 0-.2.1-.3.2 0 0-.1 0-.1.1h-.1c-.1.1-.2.1-.3.2 0 0-.1.1-.1.1s-.1.1-.1.1c-.1 0-.2.1-.3.2 0 0-.1.1-.1.1-.1 0-.1.1-.1.1-.1 0-.2.1-.3.2 0 0 0 .1-.1.1s-.2.1-.3.2c-.1 0-.1 0-.1.1-.1 0-.1.1-.2.1-.1 0-.2.1-.3.2 0 0-.1 0-.1.1 0 0 0 0-.1 0s-.1.1-.2.1-.1.1-.2.2h-.1s-.1 0-.1.1c-.1 0-.1.1-.2.1s-.2.1-.2.1c-.1 0-.2.1-.2.1h-.1c-.1 0-.1.1-.2.1s-.1.1-.2.1-.2.1-.2.1 0 .1-.1.1-.2.1-.2.1l-.2.2c-.1.1-.3.3-.4.4 0 0-.1.1-.1.1-.1 0-.1 0-.1.1-.1.1-.1.1-.2.1s-.1.1-.1.1-.1.1-.1.1v.1c0 .1-.1.1-.1.1v.5c0 .1-.1.1-.1.2v.3c0 .2 0 .3.3.3h.5.1s.1.1.1.1h.2c.1 0 .1.1.2.1s.1.1.2.1.1.1.2.1c0 0 .1 0 .1.1l.2.2v.1l.2.2.2.2.2.2c.1.1.1.2.2.3 0 0 .1.1.1.1l.2.2c0 .1.1.1.1.2s.1.1.1.2v.1c0 .1 0 .1.1.2 0 .1.1.2.2.3 0 .1 0 .1.1.2 0 .1.1.2.1.2 0 .1 0 .1.1.2 0 .1.1.1.1.2s.1.2.1.2c0 .1 0 .1.1.2v.1c0 .1 0 .1.1.2s.1.1.1.2.1.1.1.2.1.1.1.2c.1.1.1.2.1.3v.1c.1.1.1.2.1.2s.1.2.1.2c0 .1.1.2.1.2v.1.1c.1.1.1.2.1.3v.1.1s.1.1.1.1c0 .1 0 .1.1.2v.3c0 .1.1.1.1.1v.1.1c0 .1-.1.2-.2.2-.1.1-.1.1 0 .2s.1.3.2.3c0 0 .1.1.1.1 0 .1.1.1.1.2 0 0 0 .1.1.1 0 0 .1.1.1.1.1.1 0 .1.1.2 0 .1.1.1.1.1 0 .1.1.1.1.2 0 0 .1.1.1.1 0 .1.1.2.2.3 0 .1.1.2.2.3 0 .1 0 .1.1.1l.2.2c0 .1.1.2.2.3 0 0 .1.1.1.1 0 .1.1.1.1.2s.1.1.1.2c0 0 .1.1.1.1 0 .1.1.2.2.3 0 0 .1.1.1.1 0 .1.1.1.1.2s.1.2.1.2.1 0 .1.1 0 .1.1.1c.1.1.1.1.1.2 0 .1.1.1.1.2 0 0 .1.1.1.1 0 .1.1.2.2.3 0 .1 0 .1.1.1s.1.1.1.2c0 .1.1.1.1.2 0 0 .1.1.1.1 0 .1.1.2.2.3 0 .1.1.2.1.2.1.1.1.2.2.3 0 .1.1.2.1.2s.1.1.1.1c0 .1.1.1.1.2 0 0 .1.1.1.1 0 .1.1.2.2.3 0 .1 0 .1.1.1.1.1.1.1.1.2 0 .1.1.1.1.2 0 0 .1.1.1.1 0 .1.1.2.2.3 0 .1 0 .1.1.1.1.1.1.1.1.2 0 .1.1.2.1.2s.1.1.1.1c0 .1.1.2.2.3 0 0 .1.1.1.1 0 .1.1.1.1.2s.1.2.1.2.1 0 .1.1 0 .1.1.1c.1.1.1.1.1.2 0 .1.1.1.1.2 0 0 .1.1.1.1 0 .1.1.2.2.3 0 .1.1.2.2.3 0 0 .1.1.1.1 0 .1.1.1.1.2 0 0 .1.1.1.1.1 0 .1.1.1.2 0 0 0 .1.1.1 0 .1.1.1.1.2s.1.2.1.2 0 .1.1.1c0 .1.1.1.1.2s.1.1.1.2.1.2.1.2c0 .1.1.2.1.2s0 0 .1.1c0 .1.1.2.1.2 0 .1 0 .1.1.2s.1.1.1.2.1.1.1.2.1.1.2.2v.1c0 .1.1.1.1.2 0 0 .1.1.1.1s.1.1.1.1c0 .1.1.1.1.2 0 0 0 .1.1.1 0 0 .1.1.1.1 0 .1 0 .1.1.2s0 .1.1.2.1.1.1.2.1.2.1.2c0 .1.1.1.1.2.1.1.1.2.1.3.1.1.1.2.1.3s.1.2.1.3c.1.1.1.2.1.3s.1.2.1.3.1.2.1.3.1.1.1.2c.1.1.1.1.1.2s.1.2.1.2.1.2.1.2.1.2.1.2v.1.1s.1.1.1.1v.1c0 .1 0 .1.1.2s.1.2.1.2v.1c0 .1 0 .1.1.1 0 0 0 .1.1.1v.1c0 .1.1.1.1.2s.1.1.1.2v.1c0 .1.1.1.1.2s.1.1.1.2v.2s.1.1.1.1v.1c0 .1 0 .1.1.2s.1.2.1.2v.1c0 .1 0 .1.1.1 0 0 0 .1.1.1v.2s.1.1.1.1v.3c0 .1.1.1.1.2v.3s.1.1.1.1v.3c0 .1.1.1.1.2v.3c0 .1.1.1.1.1v.3c0 .1.1.1.1.2v.3c0 .1.1.1.1.1v.1c0 .1.1.1.1.2v.3c0 .1.1.1.1.1v.1c0 .1.1.1.1.2v.3c0 .1.1.1.1.1v.3c0 .1.1.1.1.2v.3c0 .1.1.1.1.1v.4c0 .1.1.1.1.2v.3c0 .1.1.1.1.1v.4s0 .1.1.1c0 0 .1.1.1.1v.2c0 .1.1.1.1.1v.5c0 .1.1.1.1.2v.4c0 .1.1.1.1.1v.6c0 .1.1.1.1.2v.4s.1.1.1.1v.3c0 .1.1.1.1.2v.1.1s0 .1.1.1v.3c0 .1.1.1.1.1v.1c0 .1.1.1.1.2v.3s.1.1.1.1v.2c0 .1 0 .1.1.1 0 0 0 .1.1.1v.4s-.1.1-.1.1c-.1.1-.2.2-.4.4-.1.1-.1.1-.1.2s0 .1.1.1c0 0 .1 0 .1.1v.1.2c0 .1 0 .1.1.2 0 0 .1.1.1.1s.1.1.1.1v.1c0 .1.1.1.1.1v.3s0 .1.1.1v.1s0 .1-.1.1c0 0-.1 0-.1.1 0 0 .1 0 .1.1.1 0 .1.1 0 .1s-.1.1-.1.1 0 0 .1.1.1.1.1.2v.1s0 .1.1.1c0 .1.1.1.1.1h.1c.1 0 .1 0 .1.1 0 .1.1.1 0 .1v.1s.1.1.1.1c0 .1.1.1.1.2 0 0 0 .1-.1.1v.1c0 .1-.1.1-.1.1 0 .1.1.2.1.2v.2c-.1.1-.1.1 0 .2v.2c0 .1 0 .1.1.1h.1s.1.1.1.1c.1 0 .1.1 0 .2v.1c.1.1 0 .2-.1.2h-.1s-.1 0-.1.1c.1 0 .1.1.1.2v.1c0 .1.1.1.1.2v.4.1c.1.1.1.1 0 .1s-.1 0-.1 0 .1.1.1.1v.3s.1.1.1.1c0 .1 0 .1-.1.1h-.1s-.1 0-.1.1.1.1.1.1h.1.1s0 .1-.1.1c0 0-.1 0-.1.1l.2.2s0 .1-.1.1v.1c0 .1.1.1.1.2v.1.1c0 .1.1.1 0 .1h-.1.1s.1 0 .1.1.1.2.2.3c0 0 0 .1-.1.1l-.1.1c0 .1 0 .1.1.1s.1 0 .1.1c-.1.1-.1.2.1.2.1 0 .2.1.2.2 0 0 0 .1-.1.1v.1.1s0 .1-.1.1c0 0 .1.1.1.1 0 .1.1.1.1.1s.1 0 .1.1v.3s0 .1.1.1 0 .1-.1.1c.1.1.1.2 0 .2 0 0 .1 0 .1.1.1 0 .1.1 0 .2 0 0 0 .1-.1.1 0 0 0 .1.1.1v.1.1c0 .1.1.1.1.1s.1.1 0 .2c0 0 0 .1-.1.1 0 0 .1 0 .1.1.1 0 .1.1.1.1v.2s.1.1.1.1v.2l.2.2v.1s0 .1-.1.1h.1c.1 0 .1.1.1.1v.3c0 .1-.1.1-.1.2v.1c0 .1 0 .2-.1.2v.1.2.1c0 .1.1.2.1.2v.1.1h-.1-.1c.1.1.1.1.1.2 0 0 .1.1.1.1v.1c-.1 0-.2.1-.2.2 0 0 0 .1-.1.1 0 0-.1 0-.1.1 0 0 0 .1.1.1l.2.2s0 .1-.1.1-.1 0 0 .1c0 .1.1.2 0 .3 0 .1-.1.1-.1.1v.4s-.1.1-.1.1h-.1.69999999999s-.1 0-.1.1v.1s.1 0 .1.1c0 0 .1 0 .1.1s0 .1-.1.1c0 0-.1 0-.1.1 0 0 0 0 .1.1.1 0 .1.1 0 .1 0 0-.1.1-.1.1v.1c0 .1 0 .1-.1.1s-.1.1-.1.2c0 0 0 .1.1.1l.1.1c.1.1.1.2 0 .2s-.1.1-.1.1v.1c0 .1 0 .1.1.2-.1 0-.1.1-.2.1v.1c.1.1.1.2.1.3v.1s-.1.1-.1.1c0 .1-.1.1-.1.1s-.1 0 0 .1 0 .1-.1.2c-.1 0-.1.1 0 .2s.1.1.1.1c0 .1 0 .1-.1.1s-.1 0-.1 0c-.1 0 0 .1-.1.1 0 0 0 .1-.1.1v.1.1.1s-.1 0-.1-.1h-.1v.1c0 .1.1.1 0 .1s-.1 0-.1 0h-.1s-.1.1-.1.1c-.1 0-.1.1-.2.1v.1s-.1.1-.1.1c-.1 0-.1 0-.2 0s-.2.1-.2.2c0 0 0 .1-.1.1s-.1 0-.1.1 0 .1-.1.1-.1 0-.1.1 0 .1-.1.1-.1 0-.1.1v.1.1s-.1.1-.1.1c-.1 0-.2 0-.2 0-.1 0-.1 0-.1 0 0 .1 0 .2-.1.2 0 0-.1.1-.1.1h-.1c-.1 0-.1 0-.1-.1v.1c0 .1 0 .1.1.1h-.1c-.1-.1-.1-.1-.2 0-.2.2-.4.4-.6.6 0 0-.1.1-.1.1v.2c0 .1 0 .1-.1.1h-.2c-.1 0-.1 0-.2.1l-.1.1s-.1.1-.1.1h-.1c-.1 0-.2.1-.2.2 0 0 0 .1-.1.1s-.1.1-.1.1v.1s0 .1-.1.1c0 0-.1.1-.1.1v.1h.2c.1 0 .1.1.1.2v.1c-.1.1-.2.2-.3.3v.4c0 .1.1.1.2.2h.3s.1 0 .1.1v.1s0 .1-.1.1h-.1c-.1 0-.1.1-.1.1s.1.1.1.1v.1s0 .1-.1 0c0 0 0 0-.1 0s-.1 0-.2 0v.1s-.1 0-.1 0-.1.1-.1.1c-.1 0 0 .1 0 .1s.1.1.1.1c.1 0 .1 0 .1.1 0 0 .1.1.1.1s0 .1-.1.1-.1.1-.2.1v.1s0 .1.1.1c0 .1.1.1 0 .2s-.1.1-.1 0c0 0-.1-.1-.1-.1s0 0-.1-.1c-.1 0-.2-.1-.2-.1h-.1v.1.1s0 .1.1.1v.1h-.1c-.1 0-.1-.1-.2 0v.1c0 .1-.1.1-.1.1s-.1 0-.1.1h-.1s-.1 0-.1-.1c0 .1-.1.2-.1.3s-.1.1-.1 0l-.1-.1c-.1-.1-.1 0-.1 0 0 .1 0 .1-.1.1s-.1.1-.1.1v.1s-.1.1-.1.1h-.1s-.1-.1-.1-.1c-.1 0-.1 0-.2 0s-.1-.1-.1-.1-.1.1-.1.1-.1.1-.2 0c-.1 0-.1-.1-.2-.2 0-.1-.1-.1-.1 0-.1.1-.2.1-.3.2v.1c0 .1.1.1.1.2h.1.1v.1.1c0 .1 0 .1.1.1s.1-.1.1-.1c.1 0 .1.1.1.1h.2.1s.1 0 .1 0v.1c0 .1 0 .1.1.1.1.1.1.1.2.1s.1 0 .1-.1c.1-.1.1-.1.1-.1.1 0 .1 0 .1.1.1 0 .1.1.2.1s.1.1.2.1c0 0 .1 0 .1.1h.3c.1 0 .1.1.2.2s.2.1.3.2.2.1.2.1c.1 0 .1.1 0 .1-.1.1-.1.2 0 .2h.1.1s.1.1.1.1v.1h.1c.1 0 .1.1.1.1h.1s.1 0 .1-.1h.1c.1 0 .1 0 .1.1v.1c-.1.1-.2.2-.3.3v.1s.1-.1.1-.1h.2s.1-.1.1-.1.1 0 .1-.1h.1v.1s-.1.1-.1.1 0 .1.1.1v.1c.1.1 0 .1 0 .2v.1h.2c.1 0 .2 0 .2.1v.1.1h-.1s-.1 0-.1.1h.1s.1-.1.1-.1h.2.1s.1.1 0 .1c0 0 0 .1-.1.1v.1c0 .1.1.1.2.1 0 0 .1 0 0 .1s-.1.2-.2.2h-.1-.1v.1s.1 0 .1.1c-.1.1-.1.1 0 .3 0 0 .1.1.1.1v.1s-.1.1-.1.1h-.1-.1v.1s.1 0 .1.1c0 0 0 0-.1.1-.1 0-.1 0-.1.1 0 0 .1.1.1.1.1 0 .1.1 0 .2 0 0 0 .1-.1.1 0 .1 0 .1.1.2h2.9c2.3 0 4.5-.1 6.7-.1s4.5-.8 6.7-.8c2.3 0 4.5.1 6.7.2 2.3 0 4.5.4 6.7.4 1 0 1.9.1 2.9.3.3-.1.6-.3.9-.4h-1.1c-.3-.5-.7-.8-1.2-1-.3-.2-.5-.4-.7-.7 0-.1 0-.2.1-.3h.6c.4.5 1 1 1.6 1.3 1.3.1 2.4-.6 3-1.7.2-.3.5-.6.7-1s.7-.3 1-.6c.2-.2.5-.4.8-.5.2-.1.3-.2.4-.3.3-.4.5-.8.8-1.2.6.1 1.2 0 1.8-.3.6-.8 1.6-1.3 2.2-2.1-.1-.3.2-.4.2-.7-.1-.9.3-1.8.2-2.7 0-.9 0-1.8 0-2.8 0-.2-.1-.4.1-.5.2-.3.3-.8.1-1.1-.3-.6-.1-1.1-.3-1.7s-.3-1.3-.4-2c-.2-1.2-.5-2.3-.9-3.4-.2-.5-.3-1.1-.4-1.7-.1-1.1-.5-2.1-.6-3.3 0-.5-.3-1.1-.3-1.6-.1-.5-.2-1.1-.4-1.6-.2-.7-.3-1.5-.5-2.3-.1-.6-.2-1.2-.3-1.7-.1-.6.1-1.2-.2-1.7.1-.6-.2-1.2-.2-1.8s-.5-1.1-.3-1.7c-.3-.7-.4-1.5-.5-2.3-.2-.8-.4-1.5-.4-2.3-.4-.3 0-.8-.3-1.1.1-.4-.2-.8-.2-1.2s-.1-.8-.2-1.2c0-.4-.1-.7-.2-1.1-.2-.8-.4-1.7-.5-2.5-.1-.9-.3-1.7-.6-2.5-.1-.3 0-.7-.3-1 0-.7-.2-1.5-.4-2.2-.2-1.1-.4-2.1-.6-3.2-.1-.7-.2-1.5-.4-2.2-.1-.4 0-.8-.2-1.3-.2-.4 0-.9-.2-1.4.1-1.3-.2-2.5-.2-3.7.1-1.8 0-3.6 0-5.4s0-3.5 0-5.3.3-3.5.2-5.3 0-3.6 0-5.4c0-.1 0-.2 0-.3-.2-.8-.2-1.7-.2-2.5-.3-.3-.1-.8-.2-1.1-.2-.6-.3-1.2-.3-1.8.1-.3.1-.6 0-.9-.2-.9-.4-1.8-.5-2.7 0-.7-.1-1.4-.2-2-.1-.4-.1-.7 0-1.1s-.2-.7-.2-1.1c0-.6 0-1.2-.1-1.8 0-.5-.1-1.1-.2-1.6-.3-.3-.5-.5-.6-.7-.2 0-.3 0-.5-.1-.4-.3-.8-.5-1.2-.6-1-.3-1.9-.7-2.8-1.2-.4-.2-.7-.5-.8-1 0-.3-.3-.5-.2-.8s-.3-.6-.2-.8c.1-.3-.2-.4-.2-.7 0-.7-.1-1.4-.1-2.1-.1-.6-.2-1.3-.3-1.9 0-.5 0-.9-.2-1.4-.1-.4 0-.8-.2-1.2-.1-.4-.2-.8-.2-1.2 0-.1 0-.3 0-.4-.2-.2-.2-.6-.2-.8.1-.4-.2-.6-.2-.9.1-.7-.3-1.4-.2-2.1 0-.1 0-.1 0-.2-.3-.4-.4-.9-.4-1.3.1-.5-.2-.9-.2-1.4s-.3-1-.2-1.5c-.4-.3 0-.7-.3-1-.2-.3-.1-.7-.1-1.1 0-.1 0-.2 0-.4-.2-.6-.3-1.3-.3-2s-.1-1.4-.2-2c-.1-.5 0-1-.2-1.5-.1-.5 0-1-.2-1.5s0-1.1-.2-1.6c-.1-.5-.2-1-.2-1.6-.2-.8-.2-1.5-.2-2.3 0-.1 0-.1 0-.2-.3-.3-.2-.8-.2-1.1.1-.4-.2-.8-.2-1.2.1-.5.1-1-.2-1.5 0-.9-.1-1.9-.2-2.8s-.2-1.8-.2-2.7v-.1c-.2-.2-.3-.6-.2-.8.1-.4-.2-.6-.2-.9 0-.5 0-.9-.1-1.4-.1-.4.1-.9-.2-1.4-.1-1-.2-1.9-.4-2.9-.1-.9-.2-1.8-.4-2.6-.1-.2-.2-.4-.2-.7 0-.2 0-.5-.1-.7-.2-.9-.4-1.8-.5-2.7.1-2.9 0-5.8 0-8.8.1-.7 0-1.5-.2-2.2.1-1-.2-1.9-.2-2.9.1-3.3-.3-6.6-.2-9.9 0-.1 0-.2 0-.4-.3-.7-.5-1.5-.6-2.3-.1-.5-.2-1.1-.3-1.6-.1-.6 0-1.2 0-1.8 0-.5.1-1.1.2-1.6.2-.6.3-1.3.5-1.9s.3-1.3.3-2c.1-.5.2-1 .3-1.5 0-.4.1-.8.2-1.2.3-.9.6-1.8.8-2.7.3-1 .6-2.1.9-3.1.2-.9.6-1.7.8-2.6.2-.6.4-1.3.6-2s.3-1.3.4-2c.3-1.2.7-2.4 1.2-3.5.4-.8.8-1.6 1.1-2.4.2-.8.6-1.5 1.1-2 .3-.4.6-.9.7-1.4.2-1.1.2-2.2.2-3.3 0-.1.1-.4 0-.4-.3-.3-.2-.8-.3-1.2s-.1-.8 0-1.2c-.5-.9-.8-1.9-.8-2.9-.1-.4-.3-.8-.2-1.3-.4-.2-.1-.6-.3-.9-.2-.2 0-.7-.2-1-.1-.3 0-.7 0-1 0-.1 0-.2-.1-.3-.1-.3-.2-.5-.3-.8-.1-.7-.3-1.3-.7-1.9-.5-.9-1-1.9-1.4-2.9-.3-1-.7-2-1.2-3-.3-.5-.5-1-.7-1.5-.1-.4-.4-.6-.8-.5-.4.8-.6 1.7-.7 2.6.1 1.7 0 3.3-.1 5-.2 1.1.1 2.3-.2 3.4.1 3.4-.3 6.8-.2 10.3v.8c0 .6-.1 1.2-.3 1.8-.2.5-.5 1-.8 1.4-.2.2-.4.5-.6.8-.8 1.7-1.7 3.3-2.6 4.9-.5.9-1 1.9-1.6 2.8-.3.4-.6.9-.8 1.4-.3.8-.8 1.6-1.1 2.5-.2.5-.5 1-.7 1.5-.2.4-.4.8-.6 1.2s-.7.7-.9 1.1c-.3.8-.9 1.4-1.2 2.2 0 .1-.1.3-.2.4-1.2 1.3-2 3-3.3 4.2-.1.1-.1.1-.1.2-.6 1-1.3 1.9-1.9 2.9-.9 1.3-1.7 2.7-2.5 4-.3.6-.7 1.3-1.1 1.8-.6.6-1.1 1.3-1.6 2-.8 1.2-1.7 2.4-2.6 3.5-.4.4-.8.8-1.1 1.3-.3.6-.7 1.1-1.2 1.5-.6.5-.6 1.2-1.1 1.7-.1.1 0 .2-.1.3-.4.9-.8 1.7-1.4 2.5s-1.3 1.5-2 2.1c-.2.2-.4.3-.6.4-.7.4-1.3.8-1.9 1.3-.8.6-1.6 1.3-2.4 1.8-.7.6-1.7.9-2.6.8-.4 0-.7 0-1.1.1s-.8.3-1.1.6-.8.4-1.2.8c-.5.5-1 1-1.6 1.5-.8.4-1.6 1-2.3 1.7-.1.6 0 1.3.4 1.8.2.3 0 .6.3.8 0 .5.2 1 .6 1.3.2.3.4.7.1 1.1-.1.1.1.4-.1.5-.2.2-.5.2-.7.4-.5-.6-1.3-.8-1.8-1.3-.2.2-.4.3-.6.5.1.7-.4 1.4-1.2 1.6-.2-.1-.1-.2-.2-.3-.8-1-1.6-1.9-2.5-2.7-.6-.2-.6-.7-.8-1.1-.3-.9-.6-1.8-.8-2.7-.2-.8-.3-1.5-.6-2.3 0-.1-.1-.1-.1-.1-.3-.1-.4.1-.6.3v1.6c-.3.4-.5.9-.4 1.4-.3.5-.9.6-1.2 1.1-.3 0-.6.1-.8-.3v-.9c0-.2 0-.5-.1-.7-.2-.6-.3-1.1-.3-1.7v-1.2c.4-.4.6-.8.8-1.3.3-.8.6-1.7.8-2.6.1-.6.5-1.1 1-1.3.2-.1.4-.2.5-.3.5-.4 1.1-.8 1.6-1.2 1.4-.9 2.7-1.8 4-2.9.5-.6 1.2-.9 2-.9 1.5 0 3-.1 4.6-.4.3 0 .4-.2.7-.2h.7c.8-.3 1.6-.5 2.4-.7.7-.1 1.4-.4 2-.8 1-.8 2-1.6 2.8-2.5.8-1 1.2-2.2 2-3.2 0-.6.6-1.1.6-1.7.8-1.5 1.5-3.1 2.2-4.7.2-.7.5-1.3.9-1.8.4-1.4 1-2.7 1.6-3.9.4-1.2.9-2.3 1.5-3.4.2-.4.2-.8.6-1.1.1-.1 0-.2.1-.3.2-.7.5-1.4.7-2.1.1-.5.5-1 .6-1.5.1-.6.4-1.1.6-1.6.4-1.5 1.1-2.9 1.6-4.3s1-2.8 1.6-4.2c.4-1.4 1-2.7 1.6-3.9.5-.9.9-1.8 1.5-2.7.4-.6.7-1.2 1-1.8.3-.8.6-1.6.6-2.5.2-.8.2-1.6.2-2.4 0-.1 0-.1 0-.2.3-.4.2-.8.2-1.2-.1-.5.3-.8.2-1.3-.1-.8.3-1.7.2-2.5 0-.1 0-.1 0-.2.3-.3.2-.8.1-1.1 0-.4.2-.7.2-1.1.1-2.1-.1-4.1-.2-6.2 0-.1 0-.2 0-.3-.3-.4-.1-.8-.3-1.3-.1-.3 0-.6-.2-.9-.1-.3-.2-.7-.2-1-.1-.4-.2-.9-.2-1.3s-.1-.8-.2-1.2c-.1-.6-.3-1.2-.5-1.8-.2-.8-.4-1.7-.7-2.6-.2-.6-.4-1.2-.6-1.8s-.4-1.3-.5-1.9c-.2-1.1-.5-2.2-.6-3.3-.1-.7-.2-1.5-.3-2.2 0-.5-.2-1-.5-1.3-.7-.5-1.3-1.1-1.9-1.8-.5-.5-.9-1.1-1.2-1.7-.1-.2-.2-.3-.4-.4v-.6c.3-.6.6-1.1.9-1.6 1.2-1.5 1.9-3.4 3.4-4.8.1-.1.1-.2.1-.2.6-.6.9-1.3 1.4-1.9.5-.5.9-1 1.3-1.6.1-.3.3-.6.6-.8.8-.8 1.7-1.6 2.6-2.3.6-.6 1.4-1.1 2.2-1.4.2-.4.3-1 0-1.4-.2-.5-.2-1 .1-1.5 0-.1.1-.2.1-.3.2-.7.2-1.4.2-2 0-.3.1-.6.3-.9.5-.6 1-1.3 1.5-1.9.2-.3.6-.4.8-.6.8-.7 1.4-1.5 1.8-2.5.1-.6-.1-1.2-.6-1.6-.1-.1-.1-.3-.2-.4-.6-1.2-1-2.5-1-3.8-.2-1.2-.1-2.4.1-3.5.1-.8.4-1.6.8-2.3.4-.8.9-1.5 1.3-2.3.2-.4.5-.8.7-1.3.5-.9 1.3-1.8 1-3-.1-.5-.7-.8-.9-1.4 0-.3 0-.9 0-1.4 0-.3.4-.6.4-1 0-.2.2-.2.2-.4.1-.9.5-1.7 1.1-2.3.8-.8 1.4-1.9 2.1-2.7.3-.5.7-1 1.1-1.5s.8-.9 1.2-1.4c.6-.6 1.2-1.1 1.9-1.7.5-.5 1.1-1 1.8-1.3.3-.1.6-.3.8-.4.5-.3 1.1-.6 1.6-.7.3 0 .7-.1 1-.2.7-.2 1.5-.4 2.3-.4.5 0 .9.2 1.3.2s.7 0 1 .2c1.2.4 2.4.8 3.5 1.3.3.2.7.3 1.1.4.7 0 1.3 0 2 .1.5.1.9.2 1.4.4 2 .9 3.6 2.4 4.9 4.2 1 1.5 1.7 3.1 2.2 4.8.1.6.3 1.1.5 1.6.5 1.2.9 2.4 1.2 3.7.2.6.3 1.3.5 1.9.1.6.3 1.2.6 1.7-.1.4.2.6.2.9-.1.4.3.7.2 1-.1.4.2.6.2.9-.1 1 .4 2 .4 3 .3.4.1.9.2 1.3.2.6.3 1.1.3 1.7.1 1 .3 1.9.7 2.7.1.1.2.3.3.4.6.6 1.4 1.1 2.2 1.3.4.2.9.3 1.3.4.6.1 1.2.4 1.6.9.3.5.7.8 1.2 1.1.9.4 1.7.7 2.7.9.6.2 1.2.1 1.8-.1.6.3 1.2.5 1.9.6.6.1 1.3.3 1.9.4.4.1.8.4 1.3.5.6.1 1.3.2 2 .2.5 0 1 .2 1.4.5.5.4 1.1.7 1.6 1.1.4.4 1 .4 1.5.8.6.5 1.2.8 1.8 1.3.8.6 1.6 1.3 2.4 2 .1.2.3.4.4.6s.4.2.6.4c1.4 1.4 2.8 2.8 4.2 4.2-.4.5-.7 1-.9 1.6-.6.8-.9 1.8-.8 2.8.1.7.4 1.4.7 2.1.6 1.4 1.1 2.9 1.3 4.4.1.6.3 1.3.4 1.9.2.7.3 1.3.4 2 .2.7.4 1.5.4 2.2.4.3-.1.8.3 1.1-.1.4.2.8.2 1.2 0 .6.2 1.3.4 1.9.4 1.3.7 2.6.9 3.9.1.7.2 1.3.4 2s.3 1.4.6 2.2.5 1.5.7 2.2c.2.8.7 1.6 1 2.4s.6 1.6 1 2.3c.1.2.2.4.3.6.2.8.5 1.5.9 2.2.8 1.3 1.6 2.6 2.3 3.9.5.9 1 1.7 1.4 2.7.2.6.5 1.1.8 1.6.5.8 1.1 1.5 1.6 2.3.8 1.2 1.7 2.4 2.7 3.4.6.6 1.1 1.1 1.6 1.7.7.9 1.4 1.8 2.1 2.7.8 1 1.4 2.2 2.1 3.3.9 1.4 1.7 2.9 2.6 4.4.6.9 1.1 1.8 1.6 2.6.3.6.6 1.2 1.1 1.8.1.5.5.6.8 1 .6 1.1 1.3 2.1 2 3.1.6.8 1.2 1.6 1.7 2.5.5 1 1.3 1.8 1.7 2.8.2.5.5.9.9 1.3.8.8 1.2 1.8 2 2.6.4.5.8 1 1.2 1.5.1.1.3.2.4.4.5.7 1.1 1.4 1.7 2 .7 1 1.6 1.7 2.7 2.1.2 0 .3.1.5 0 1.2-.1 2.4.3 3.3 1.1.8.5 1.8.7 2.8.6.4-.3.9-.1 1.3-.2.5-.1.9-.2 1.4-.2h1.4c.4-.1.8 0 1.2.2.4.9.8 1.8 1.1 2.8.1.4.2.7.5 1 .8.7 1.5 1.5 2.2 2.4.3.5.9.9 1 1.4.3.9.6 1.8.9 2.7.1.9.6 1.8.4 2.8-.1.8-.2 1.7-.2 2.5-.4.3-.6.3-.9.2-.4-.2-.7-.5-1-.9-.5-.7-.6-1.6-.5-2.4-.2-.2-.2-.5-.5-.7-.3.3-.4.8-.4 1.2.1.7-.3 1.3-.2 2-.3.4-.1.9-.4 1.2s-.5.7-.8 1.1c-.5.5-.9 1-1.3 1.6-.2.5-.6.8-1 1.1-.6.1-1.2-.3-1.3-.8 0-.5 0-1-.1-1.5-.8.6-1.5 1.1-2.4 1.6-.4-.2-.4-.7-.7-1v-.7c.3-.5.7-1 1.1-1.4.3-.4.5-.8.5-1.3 0-.3 0-.5 0-.7-.2-.5-.6-1-1.1-1.3s-1-.7-1.5-1.1c-.4-.2-.7-.3-1.1-.4-.3 0-.5 0-.8-.1-.8-.3-1.8-.4-2.6-.6s-1.6-.5-2.3-.9c-.4-.4-1-.7-1.6-.7-.3-.4-.7-.1-1-.2-.8-.4-1.4-1-1.8-1.7-.1-.3-.2-.5-.4-.7.2-.6-.1-1.3-.2-1.9-.1-.8-.5-1.4-1.1-1.9-.8-.7-1.3-1.5-2-2.2-.1-.6-.7-.7-.9-1.2s-.6-.9-1.1-1.1c-.7-.5-1.3-1.1-1.9-1.8-1.4-1.5-3-2.7-4.4-4.2-.4-.4-.8-.8-1.3-1.1-.4-.3-.8-.6-1.1-1-.4-.4-.8-.6-1.2-1s-.8-.8-1.2-1.2-.8-.8-1.2-1.2l-1.2-1.2c-.4-.4-.7-.8-1.2-1.2-.4-.3-.8-.7-1.1-1.2-1.4-1.4-2.9-2.8-4.1-4.3-.9-1-1.8-2-2.7-3-1-1.2-1.9-2.4-3-3.5-1.1-1.2-2-2.5-3.2-3.6-.4-.4-.7-.9-1.1-1.3-.5-.6-.9-1.2-1.2-1.9-.2-.5-.3-1.1-.5-1.6-.3-.8-.6-1.6-1-2.4-.2-.5-.5-1-.7-1.5-.2-.6-.4-1.1-.6-1.7-.5-1.1-1.1-2.2-1.6-3.4-.8-1.6-1.6-3.2-2.3-4.9-.5-1-.9-2-1.2-3 0-.2-.1-.3-.2-.4-.4-.5-.7-1.1-.8-1.7h-.5v3.4c-.1 1.1 0 2.2.2 3.3 0 1.2 0 2.4.2 3.5 0 .5.1 1.1.2 1.6s.3 1 .5 1.6c.2.5.5 1 .7 1.5.2.4.4.9.6 1.4.1.4.2.8.3 1.2.5 1.2 1.1 2.4 1.7 3.5s1.1 2.2 1.4 3.3c.4 1 .6 2 .8 3.1 0 .4.2.8.4 1.1s.4.7.5 1.1c.3.7.6 1.4.9 2.1s.7 1.4.9 2.1.7 1.4.9 2.1c.2.6.5 1.1.7 1.7s.4 1.1.7 1.6c.2.3.3.6.5.9.2.6.4 1.1.7 1.7.2.6.4 1.2.7 1.7s.5 1 .6 1.6c.1.4.3.7.4 1.1.2.8.6 1.5.9 2.3s.6 1.6.8 2.4c.3.8.6 1.5.8 2.2.2.9.6 1.7 1 2.5.2.5.3 1 .4 1.5.2.6.3 1.3.5 1.9.4 1.2.7 2.4.9 3.6.4.3.1.8.3 1.2.2.6.4 1.1.6 1.7s.3 1.2.4 1.8c.3 1.1.5 2.3.6 3.5.3.4.1.9.2 1.3.2.5.3 1.1.3 1.6-.1.3.2.5.2.8-.1.3-.1.6 0 .8.2 1 .4 2.1.5 3.1.1.4.1.8.2 1.2s.1.8.2 1.2c.1.5 0 1 .2 1.5.1.5 0 1.1.2 1.6.1.4.1.9.2 1.4 0 .5.1 1 .2 1.5.2.5-.1 1 .2 1.5.2.4 0 1 .2 1.5-.1.8.3 1.5.2 2.3v.2c.2.3.2.6.2.9-.1.4.2.7.2 1-.1.8.3 1.5.2 2.3v.2c.2.2.3.5.2.8s.2.5.2.8c-.1.9.3 1.8.2 2.8.2.5.1 1 .2 1.5.1.4.2.8.1 1.2s.3.8.2 1.2c-.1.8.3 1.6.2 2.4v.2c.3.3 0 .8.2 1.1.2.4.2.7.2 1.1-.1.9.3 1.8.2 2.8.3.4 0 1 .2 1.4.1.4.2.8.1 1.1 0 .4.3.8.2 1.2-.1.7.3 1.3.2 2 .3.4 0 .9.2 1.3s0 .8.2 1.2c.3.4.1.8.1 1.2v.4c.3.3.1.7.2 1 .2.3.2.7.1 1s.2.5.2.8-.1.6 0 .8c.3.5 0 1 .2 1.4.2.5.2 1 .1 1.5-.1.8.3 1.6.2 2.4 0 .1 0 .1.1.2.3.4.1.8.1 1.1.1.4 0 .7-.2 1.1-.4.2-.8.4-1.3.6-.9.2-1.8.4-2.6.6s-1.7.5-2.6.7c-.8.2-1.7.5-2.5.6-.7.1-1.4.3-2 .7-.4 0-.8.1-1.2.1-.4.1-.7.2-1.1.2s-.7.1-1.1.3-.8-.1-1.1.3c-.4-.1-.8.2-1.2.2-.7-.1-1.3.3-2 .2-.4.3-.8.1-1.2.2-.8.3-1.6.4-2.5.5-.5.1-1.1.2-1.7.3-.4 0-.9.1-1.3.2s-.9.2-1.3.1c-.1 0-.1 0-.2 0-.3.3-.7.1-1 .2-.4.1-.8.1-1.1.2-.5.2-1.2.1-1.6.7-.4.4-.6 1-.7 1.5 0 .3-.2.4-.2.7v.7c-.2.7-.4 1.3-.5 2-.1.4-.2.8-.3 1.1-.1.4-.1.7-.3 1.1-.2.6-.4 1.3-.4 1.9-.1.8-.1 1.7 0 2.5s-.2 1.6-.2 2.4v.8c-.1.3.2.5.2.8 0 .8.3 1.6.4 2.4 0 .2.2.4.2.6-.1.5.3 1 .2 1.5.6 1.2.5 2.5.7 3.8.1.7.1 1.5.2 2.2.1 1 0 2 .2 3 0 .4 0 .7-.1 1-.1.6-.1 1.1 0 1.7 0 .6-.3 1.1-.2 1.7.1.7-.3 1.3-.2 2-.3.4-.1.8-.2 1.2-.2.5-.3.9-.3 1.4-.1.7-.2 1.4-.4 2-.3.9-.4 1.9-.7 2.8-.1.2 0 .5-.2.8-.1.1.1.5-.1.7s-.1.5-.2.8c-.2.7-.4 1.5-.4 2.2-.1.5-.2 1-.3 1.4-.3.8-.4 1.6-.4 2.4 0 .2 0 .4-.1.6-.1.3-.2.6-.2.9-.1.8-.2 1.5-.4 2.2-.1.8-.3 1.5-.5 2.3-.1.4-.3.8-.2 1.2s-.2.8-.2 1.2c-.1.4 0 .8-.2 1-.3.3 0 .6-.3.9-.2.2 0 .7-.2 1s-.3.6-.2.9c-.4.3 0 .9-.4 1.2 0 .6-.4 1.1-.6 1.7-.1.7-.4 1.4-.6 2.2-.1.5-.3 1-.4 1.5s-.2 1.1-.4 1.6c0 .4-.1.9-.2 1.3s-.2.8-.1 1.2c-.1.4-.1.9 0 1.3.3.6 0 1.2.2 1.8s.2 1.2.1 1.8-.1 1.3-.2 2v2.1c.1.7.2 1.4.2 2.1-.1 1 0 1.9.1 2.9.1.5.1 1 0 1.5.1.5-.2 1 .2 1.5-.3.4-.1.8-.1 1.1.5.4-.2.8 0 1.1 0 .1 0 .2.1.2.2-.3.6-.5.9-.7l.3.3c-.1 1.8.2 3.7-.2 5.5-.1.4-.2.8-.4 1.1-.3.4-.2.9.1 1.3.1.3.3.5.5.7.7.8 1.8 1.2 2.4 2.2 0 .1.2 0 .2.1l.9.9c.3.5.8.9 1.3 1.2 0 .2 0 .3-.1.5-.2.4-.7.3-1 .5-.5.3-1 .5-1.6.4-.3-.3-.8-.3-1.2-.5s-.7.2-1 .2c-.2.2-.5.4-.7.6.1.5.1 1.1 0 1.6-.1.3-.1.7-.1 1.1-.1.4-.2.7-.2 1.1.1.5 0 1-.2 1.5-.1.1-.1.2-.1.4 1.5.1 2.9.3 4.4.3 2.3.1 4.5.3 6.7.4s4.4 1.4 6.7 1.6c2.3.1 4.5-.8 6.8-.6 2.3.1 4.5-.5 6.8-.3 2.3.1 4.4 1.4 6.6 1.5s4.6-.8 6.8-.6 4.5.6 6.7.8 4.4 1.1 6.6 1.3 4.4 1.4 6.6 1.6c1.9.2 3.8-.2 5.7-.2 0 0 0-.1-.1-.1-.2-.7-.8-1.2-1.5-1.4-1.5-.5-2.9-1.1-4.3-2-2.4-1.4-4-3.8-4.4-6.6-.2-1.1-.3-2.3-.3-3.4 0-5.8-.1-11.7.1-17.5.2-7.1.1-14.1.3-21.2.1-3.5 0-7.1 0-10.6-.1-16.5-.1-33-.1-49.4-.1-2.7.7-5.4 2.2-7.6 1.8-2.7 4.6-4.5 7.8-5.1.3-.9 1.1-1.5 2-1.5.2-.5.3-1.1.2-1.7 0-9.2-.1-18.5.1-27.7.1-4.5.1-8.9.2-13.4 0-1.2.2-2.5.7-3.6.1-.5.4-.9.7-1.2.7-.6 1.3-1.3 1.7-2.2.5-.8 1.5-1.3 2.4-1.1 3.1.1 6.1.2 9.2.4 3.7.2 7.3.4 10.9.7l5.1.3c2 .1 3.9.2 5.8.5 1.6.2 2.5 1.1 2.5 2.7 0 .8.6 1.3.7 2 .3 1.5.5 3.1.5 4.7 0 7.9 0 15.8.1 23.8-.1.6 0 1.1.2 1.7 1.9.4 3.5 1.7 5.2 2.6.6.3 1.3.7 1.3 1.5 0 .4.4.7.6 1 1 1.4 1.7 2.9 2.2 4.6.5 1.5 1.3 3 2.2 4.4 2.9-.5 5.8-.9 9.4.3 4.6 0 9.2.5 13.7 1.5 2.1.6 4 1.7 5.6 3.1 2 1.6 3.4 3.9 3.8 6.4.3 1.8.4 3.5.3 5.3-.2 1.9 0 3.8-.1 5.7-.2 4.6-.5 9.1-.7 13.6-.2 4.3-.1 8.6-.4 12.9-.2 4.2 0 8.4-.2 12.6-.2 4.8-.3 9.6-.3 14.4-.1.5 0 1.1.2 1.6.2.2.5.4.9.7 0 2 .9 3.9 1.5 5.8.1.5.5 1.1-.2 1.6-1-.6-.9-1.8-1.5-2.6.1 1.5 0 3-.2 4.6-1.1 7.7-.2 15.3-.6 23 0 2.3-.3 4.6-.9 6.8-.9 2.7-2.4 4.8-4.4 6.1.7.1 1.4.3 2.1.4 2.3.4 4.7-.3 6.9.1s4.3 1.2 6.5 1.6 4.5 0 6.7.4 4.1 2.2 6.3 2.5 4.5.2 6.7.6 4.3 1.3 6.5 1.7 4.6-.4 6.8 0 4.4.7 6.6 1.1 4.3 1.2 6.5 1.6 4.2 1.8 6.4 2.2 4.4.7 6.6 1.1 4.3 1 6.5 1.4 4.6-.3 6.8.1 4.2 1.6 6.4 2 4.6-.5 6.8-.1 4.3 1.4 6.5 1.8 4.4.5 6.6.9 4.3 1.1 6.5 1.5c2.4.4 4.8 1.1 7.3 1.6s4.8 1.4 7.1 2.1 4.6 1.6 6.8 2.8c2.3 1.2 4.8 1.8 6.1 3.2 1.7 1.8 1.6 4.5 2.3 6.5.7 2.2 2.3 4.1 2.6 6.4s-.1 4.7.5 6.8c.8 2.1 1.9 4.1 3.2 5.9s2.9 3.4 4.5 4.9c1.5 1.5 2.8 3.4 4.7 4.9 1.8 1.4 3.7 2.6 5.6 3.7s4 1.8 6.2 2.8c2 .9 3.6 3 5.8 3.8 2.1.8 4.3.3 6.5 1-3.3.1-1.5 1.4 2.4 3.2 1.7.8 4.1 1 6.5 2 2 .8 3.8 2.3 6 3.2 2 .8 4.5.9 6.6 1.7s3.7 2.9 5.8 3.7c2.2.9 4.5 1.2 6.4 2.1 2.1.9 4.1 1.9 6.1 3 3.3 2 5.3 3.8 3.5 4.8 2.1.8 3.4 1.5 5.4 2.2 2.1.7 4.2 1.5 6.1 2.1 2.2.7 4.2 1.4 6.2 1.9 2.2.6 4.1 1.8 6.2 2.2 2.2.5 4.4.8 6.4 1.1 2.2.4 4.5 0 6.5.2 2.2.2 4.4 0 6.5.1 2.2.1 4.3.1 6.5 0s4.4.3 6.5.1 4.2-1.2 6.4-1.5c2.1-.2 4.2-.4 6.4-.7 2.1-.3 4.3.1 6.5-.2 2.1-.3 4.2-1.1 6.4-1.3 2.1-.2 4.2-.4 6.5-.5 2.1-.2 4.2-.5 6.5-.6 2.1-.1 4.2-.7 6.5-.7 2.1-.1 4.3 1.6 6.5 1.6 2.1 0 4.2-.8 6.5-.8 2.1.1 4.2 1 6.4 1.1 2.1.1 4.2.2 6.5.4 2.1.1 4.3-.7 6.5-.5 2.5.2 5 .5 7.3.9 2.6.4 4.7 1.8 6.8 2.7 1.8.8 3.6.9 4.8 2 1.3 1.3 1.6 3.2 2.6 4.6 1.2 1.7 3.6 2.6 4.8 4.4s2.3 3.5 3.5 5.3 1.8 3.9 3 5.6 2.5 3.4 3.7 5.1c1.2 1.8 3 3 4.7 4.6 1.5 1.5 3.3 2.8 5.2 3.7 1.7 1 3.6 1.9 5.5 2.6 1.9.5 3.8 1.5 5.9 1.9 2 .4 4.2-.5 6.3-.2 2.2.3 4.2 2 6.3 2.3 2.2.3 4.4.8 6.5 1.1s4.5-.4 6.7-.1c2.2.2 4.4.2 6.6.4s4.4.8 6.6 1 4.3 1.3 6.5 1.5 4.4.4 6.6.6c2.2.1 4.5-.8 6.7-.6s4.4 1 6.6 1.1 4.4-.6 6.6-.5 4.4-.3 6.6-.3c2.2.1 4.4 0 6.6 0s4.4-.1 6.6 0c2.2 0 4.4.1 6.6.1s4.4.4 6.6.4 4.4.1 6.6.1c2.2-.1 4.4.5 6.6.4s4.4-1.5 6.6-1.6 4.4-.1 6.6-.2 4.4.5 6.6.4 4.4.4 6.6.2c2.2-.1 4.4-.2 6.6-.4 2.2-.1 4.3-1.8 6.5-1.9 2.2-.2 4.5.5 6.7.3s4.4.2 6.6 0 4.4-.3 6.6-.5 4.2-2 6.4-2.2 4.6 1.2 6.8 1 4.2-1.8 6.4-2 4.4-.4 6.6-.7 4.3-.9 6.5-1.2 4.5.2 6.7-.1 4.3-1 6.5-1.3 4.4-.2 6.6-.5 4.3-1.2 6.5-1.6 4.3-1 6.5-1.3c2.2-.4 4.6.9 6.8.6s4.4-.7 6.5-1.1 4.1-2.2 6.3-2.5c2.2-.4 4.4-.4 6.6-.8s4.4-.7 6.5-1.1c2.2-.4 4.3-.8 6.5-1.2s4.2-1.4 6.4-1.8 4.6.8 6.8.4 4.3-1.1 6.4-1.5 4.1-2.4 6.3-2.8c2.2 0 4.6 1.3 6.9 1.3 2.2-.1 4.5-1.2 6.8-1.3s4.6.5 6.8.3c2.3-.1 4.5-1.3 6.8-1.4s4.6-.1 6.8-.2c2.3-.1 4.6 1 6.9 1 2.3-.1 4.6-.3 6.8-.3 1.9 0 4.7-.5 4.2-1.4 2.3.2 4.6-.2 6.9-.2 2.3.1 4.7-.4 7-.4s4.7.2 7 .1 4.7-.2 7-.4 4.7.5 7.1.2c2.3-.2 4.6-1.6 6.9-1.8s4.7-.1 7-.3 4.7.3 7.1.1c2.2-.2 4.5-.3 6.8-.4s4.5-1.7 6.7-1.8 4.6.7 6.8.8c2.3 0 4.6-.7 6.8-.6 2.3.1 4.5 1.1 6.7 1.4 2.3.3 4.4 1.2 6.6 1.6 2.2.3 4.4.8 6.6 1.3 2.3.7 4.6.7 6.6 1.6 2.2.1 4.4.8 6.8.8 2.3 0 4.6.3 6.9.2s4.5-1.4 6.8-1.6c2.3-.1 4.6.9 6.9.7s4.4-1.9 6.7-2.1 4.7.5 6.9.3 4.6-.2 6.8-.5c2.3-.3 4.5-1 6.8-1.2 2.3-.3 4.6 0 6.9-.2 2.3-.3 4.4-1.8 6.7-2.1s4.6-.5 6.8-.7 4.4-.7 6.6-.9 4.4-.1 6.7-.3c2.2-.2 4.5.6 6.7.5 2.2-.2 4.3-1.6 6.6-1.8 2.2-.1 4.5 1.2 6.8 1.1 2.2-.1 4.4 0 6.7-.1 2.2-.1 4.4-1.3 6.6-1.3 2.2-.1 4.5.3 6.7.2s4.4-.4 6.6-.5 4.5.5 6.7.4 4.4-.8 6.6-.8c2.2-.1 4.4-1.2 6.6-1.3 2.2 0 4.5.9 6.7.9s4.4-.9 6.7-.9c2.2 0 4.4.6 6.7.6 2.2 0 4.4.4 6.7.4 2.2 0 4.4-.3 6.7-.3 2.2 0 4.4.2 6.7.3 2.2 0 4.4-.1 6.7 0 2.2-.1 4.4.4 6.6.3s4.4-.1 6.6-.2 4.4-1.6 6.6-1.6c2.2-.1 4.4.9 6.6.8s4.4-.2 6.6-.3 4.4.8 6.6.8 4.4-.8 6.6-.8 4.4-.9 6.6-.9 4.4 1.3 6.6 1.3 4.4-.6 6.6-.6 4.4.5 6.6.5 4.4-1.2 6.6-1.1c2.2 0 4.4.1 6.6.1 2.2.1 4.4 1.2 6.6 1.3s4.4-1.1 6.6-1 4.4 1.1 6.6 1.2 4.4.1 6.6.3c2.2.1 4.4.1 6.6.3s4.4.5 6.6.7 4.3 1.5 6.5 1.7 4.5-.6 6.7-.4c2.2.3 4.4.3 6.6.6s4.2 1.8 6.4 2.1 4.6-.8 6.8-.5 4.4.5 6.6.9 4.2 1.7 6.3 2.1 4.2 1.3 6.4 1.8 4.5-.1 6.7.4 4.3 1.4 6.4 2c2.2.6 4.1 2 6.2 2.6s4.6.1 6.7.7 4.2 1.4 6.4 2c2 .6 4.2.9 6.2 1.5v-478.7h-1920.3v408.3c1.5-.2 2.9-.5 4.3-.7z"/><path d="m349 255.5c.1 0 .1 0 0 0 .1 0 .1-.1.1-.1-.1 0-.1 0-.1.1z"/><path d="m348.8 337.9s-.1.1 0 0c-.1.1-.1.1-.1.2 0 0 0-.1-.1-.1 0 0 0 0 0-.1h-.1s-.1 0-.1.1v.2s0 .1-.1.1c.2 0 .4-.1.6-.1v-.1c0-.1 0-.2-.1-.2z"/><path d="m347.6 337.9c-.1.2-.1.3-.1.4h.1c.1-.1.1-.2 0-.4z"/><path d="m344.2 338c-.1.1-.1.1-.2.2h.3c0-.1 0-.1-.1-.2z"/><path d="m352.3 301.1c0-.1 0-.1 0-.2s-.1-.1-.2-.2h-.1s0 .1.1.1c0 .2.1.3.2.5 0 .1 0 .1.1.1s.1 0 .1-.1v-.2c-.1.1-.2.1-.2 0z"/><path d="m348.5 294.6c-.1 0-.1.1-.2.1-.4 0-.9 0-1.3 0-.1 0-.1.1-.1.1h-.1c-.1 0-.1.1 0 .1 0 0 0 .1.1.1.1.1.1.2.2.2s.2.1.2.2 0 .1.1.1c0 0 .1.1.1.1s.1.1.1.1v.1s0 .1 0 .1c.1.1.2.3.3.4l.4.4v.2c0 .1.1.2.1.2 0 .1.1.1.1.1h.1c.1.1.2.1.2.1.1 0 .1.1.2.1 0-.2 0-.3 0-.5.1-.1.1-.2.1-.3s.1-.1.1-.2 0-.1 0-.2c0 0 0-.1.1-.1v-.1c0-.1 0-.1 0-.2s0-.1.1-.1c0-.1 0-.2 0-.4 0-.1.1-.1.1-.1s0 0 0-.1c0-.2 0-.4 0-.6 0 0 0-.1-.1-.1-.4.2-.7.2-.9.2z"/><path d="m349.9 282.1c0-.1 0-.1 0 0-.1-.1-.1-.2-.1-.3s-.1 0-.1.1v.8s0 .1.1.1h.1l.2-.2v-.1c-.1-.1-.2-.2-.2-.4z"/><path d="m349.1 255.2v.2h.2s.1-.1.1-.1v-.1s-.1-.1-.1-.1c-.2-.1-.2-.1-.2.1z"/><path d="m348.2 338.1c-.1 0-.1 0 0 0-.1.1-.2.1-.2.1h.2s0 0 0-.1c0 .1 0 .1 0 0z"/><path d="m346.9 338.2s-.1-.1-.1-.1-.1.1-.1.1c-.1 0-.1 0-.2 0s-.1.1-.1.1h1s0-.1-.1-.1c-.2 0-.3 0-.4 0z"/><path d="m346.6 331.1c.1 0 .1 0 .1-.1h-.5c0-.1-.1-.1-.1-.1h-.4c-.1 0-.1.1-.1.1v.1s.1.1.1.1c0 .1.1.1.1.1h.2c.1 0 .1-.1.1-.1 0-.1 0-.1 0-.2 0 0 0-.1.1-.1v.2c0 .1.1.1.2.1 0-.1.1-.1.2-.1z"/><path d="m345.9 338.1c-.1 0-.1-.1-.1-.1-.1 0-.1 0-.2.1s-.1.1-.1.1-.1 0-.1-.1 0-.1-.1-.1-.1.1-.1.1 0 .1-.1.1h1s-.1-.1-.1-.1c-.1.1-.1.1-.1 0z"/></g><path d="m345.9 257.5s.1.1.1.1c.1 0 .1.1.2.1l.2.2s.1-.1.1-.1-.1-.1-.1-.1h-.1c-.1-.1-.2-.2-.3-.2-.1-.1-.2-.1-.3-.1h-.1-.1s.1 0 .1.1z" fill="#ededed"/><path d="m344.8 258.4s.1.1.1.1h.3c.1 0 .1.1.2.1s.2 0 .3.1 0 0 0-.1v-.1c-.1 0-.2-.1-.3-.1h-.1s-.1-.1-.1-.1 0 0-.1 0h-1.2c-.1 0-.1.1-.2.1h1.1c-.1 0-.1 0 0 0z" fill="#ededed"/><path d="m1907.4 477.6c-2.1-.6-4.6-.1-6.7-.7s-4-2.1-6.2-2.6c-2.1-.6-4.2-1.4-6.4-2-2.1-.5-4.5 0-6.7-.4-2.1-.5-4.2-1.4-6.4-1.8s-4.2-1.7-6.3-2.1c-2.2-.4-4.4-.5-6.6-.9s-4.6.8-6.8.5-4.2-1.8-6.4-2.1-4.4-.3-6.6-.6c-2.2-.2-4.5.6-6.7.4s-4.3-1.5-6.5-1.7-4.4-.6-6.6-.7c-2.2-.2-4.4-.1-6.6-.3-2.2-.1-4.4-.1-6.6-.3s-4.4-1.1-6.6-1.2-4.4 1.1-6.6 1-4.4-1.2-6.6-1.3-4.4-.1-6.6-.1c-2.2-.1-4.4 1.1-6.6 1.1s-4.4-.5-6.6-.5-4.4.6-6.6.6-4.4-1.4-6.6-1.3-4.4.9-6.6.9-4.4.8-6.6.8-4.4-.8-6.6-.8c-2.2.1-4.4.2-6.6.3s-4.4-.9-6.6-.8-4.4 1.5-6.6 1.6-4.4.1-6.6.2-4.4-.3-6.6-.3c-2.2-.1-4.4.1-6.7 0-2.2 0-4.4-.3-6.7-.3-2.2 0-4.4.3-6.7.3-2.2 0-4.4-.4-6.7-.4-2.2 0-4.5-.6-6.7-.6s-4.4.9-6.7.9c-2.2 0-4.5-.9-6.7-.9s-4.4 1.2-6.6 1.3-4.4.7-6.6.8-4.5-.5-6.7-.4-4.4.4-6.6.5-4.5-.3-6.7-.2-4.4 1.2-6.6 1.3-4.4 0-6.7.1c-2.2.1-4.5-1.2-6.8-1.1-2.2.1-4.3 1.6-6.6 1.8-2.2.2-4.5-.6-6.7-.5-2.2.2-4.4.1-6.7.3-2.2.2-4.4.7-6.6.9s-4.5.4-6.8.7-4.4 1.8-6.7 2.1-4.6-.1-6.9.2-4.5.9-6.8 1.2-4.6.2-6.8.5-4.7-.5-6.9-.3c-2.3.2-4.4 1.9-6.7 2.1s-4.7-.8-6.9-.7c-2.3.2-4.5 1.5-6.8 1.6s-4.6-.2-6.9-.2-4.5-.7-6.8-.8c-2-.9-4.3-.9-6.6-1.6-2.2-.6-4.4-1-6.6-1.3-2.2-.4-4.3-1.3-6.6-1.6-2.2-.3-4.4-1.3-6.7-1.4s-4.6.6-6.8.6c-2.3 0-4.6-.8-6.8-.8s-4.5 1.6-6.7 1.8c-2.3.1-4.5.2-6.8.4s-4.7-.4-7.1-.1-4.7.1-7 .3-4.6 1.6-6.9 1.8-4.8-.4-7.1-.2-4.7.3-7 .4-4.7-.1-7-.1-4.7.5-7 .4-4.6.4-6.9.2c.5.9-2.3 1.4-4.2 1.4-2.2 0-4.5.2-6.8.3-2.2.1-4.6-1.1-6.9-1s-4.5.1-6.8.2-4.5 1.3-6.8 1.4-4.6-.4-6.8-.3c-2.3.1-4.5 1.2-6.8 1.3s-4.7-1.3-6.9-1.3c-2.2.4-4.1 2.4-6.3 2.8s-4.3 1.1-6.4 1.5c-2.2.4-4.6-.8-6.8-.4s-4.2 1.4-6.4 1.8-4.3.8-6.5 1.2-4.3.7-6.5 1.1-4.4.4-6.6.8-4.1 2.2-6.3 2.5-4.4.7-6.5 1.1-4.6-.9-6.8-.6-4.3 1-6.5 1.3-4.3 1.2-6.5 1.6-4.4.2-6.6.5-4.3 1-6.5 1.3-4.5-.2-6.7.1-4.3.9-6.5 1.2-4.4.4-6.6.7-4.2 1.8-6.4 2-4.6-1.2-6.8-1-4.2 2-6.4 2.2-4.4.3-6.6.5-4.4-.2-6.6 0-4.5-.5-6.7-.3-4.3 1.8-6.5 1.9-4.4.2-6.6.4c-2.2.1-4.4-.3-6.6-.2s-4.4-.5-6.6-.4-4.4.1-6.6.2-4.4 1.5-6.6 1.6-4.4-.5-6.6-.4c-2.2 0-4.4-.1-6.6-.1s-4.4-.4-6.6-.4-4.4-.1-6.6-.1-4.4.1-6.6 0c-2.2 0-4.4 0-6.6 0-2.2-.1-4.4.3-6.6.3-2.2-.1-4.4.6-6.6.5s-4.4-.9-6.6-1.1-4.5.8-6.7.6c-2.2-.1-4.4-.4-6.6-.6s-4.3-1.3-6.5-1.5-4.4-.7-6.6-1c-2.2-.2-4.4-.2-6.6-.4-2.2-.3-4.5.4-6.7.1s-4.4-.8-6.5-1.1c-2.2-.3-4.2-2-6.3-2.3-2-.3-4.3.6-6.3.2-2.1-.4-4-1.4-5.9-1.9-1.9-.7-3.8-1.6-5.5-2.6-1.9-.9-3.7-2.2-5.2-3.7-1.7-1.6-3.5-2.9-4.7-4.6s-2.5-3.4-3.7-5.1-1.8-3.9-3-5.6-2.3-3.5-3.5-5.3-3.6-2.6-4.8-4.4c-.9-1.4-1.2-3.3-2.6-4.6-1.1-1.1-2.9-1.2-4.8-2-2.1-.9-4.2-2.3-6.8-2.7-2.4-.4-4.9-.7-7.3-.9-2.2-.2-4.4.7-6.5.5-2.2-.1-4.4-.3-6.5-.4-2.2-.1-4.4-1.1-6.4-1.1-2.2-.1-4.4.8-6.5.8-2.3 0-4.4-1.7-6.5-1.6-2.3.1-4.4.6-6.5.7-2.2.1-4.4.4-6.5.6-2.3.2-4.4.3-6.5.5-2.2.2-4.3 1.1-6.4 1.3-2.2.3-4.4-.1-6.5.2-2.2.3-4.3.4-6.4.7-2.2.3-4.2 1.3-6.4 1.5-2.1.2-4.3-.2-6.5-.1-2.1.1-4.2.1-6.5 0-2.1-.1-4.3.2-6.5-.1-2.1-.2-4.3.2-6.5-.2-2-.3-4.2-.6-6.4-1.1-2-.4-4-1.6-6.2-2.2-2-.5-4-1.3-6.2-1.9-2-.6-4-1.4-6.1-2.1-2-.7-3.3-1.4-5.4-2.2 1.9-1.1-.2-2.9-3.5-4.8-2-1.1-4-2.1-6.1-3-1.9-.9-4.2-1.2-6.4-2.1-2-.8-3.7-2.9-5.8-3.7s-4.5-.9-6.6-1.7c-2.2-.9-4-2.4-6-3.2-2.4-1-4.8-1.2-6.5-2-3.9-1.8-5.7-3.1-2.4-3.2-2.2-.7-4.5-.2-6.5-1-2.2-.8-3.8-2.9-5.8-3.8-2.1-1-4.3-1.7-6.2-2.8-2-1.1-3.8-2.4-5.6-3.7-1.9-1.4-3.2-3.3-4.7-4.9-1.7-1.5-3.2-3.1-4.5-4.9-1.4-1.8-2.4-3.8-3.2-5.9-.6-2.2-.2-4.6-.5-6.8-.3-2.3-1.8-4.2-2.6-6.4-.7-2.1-.6-4.7-2.3-6.5-1.3-1.5-3.8-2-6.1-3.2-2.2-1.1-4.4-2.1-6.8-2.8-2.3-.7-4.6-1.6-7.1-2.1-2.4-.5-4.8-1.2-7.3-1.6-2.2-.4-4.3-1.1-6.5-1.5s-4.4-.5-6.6-.9-4.3-1.4-6.5-1.8-4.6.5-6.8.1-4.2-1.6-6.4-2-4.6.3-6.8-.1-4.3-1-6.5-1.4-4.4-.7-6.6-1.1-4.2-1.8-6.4-2.2-4.3-1.2-6.5-1.6-4.4-.7-6.6-1.1-4.6.4-6.8 0-4.3-1.3-6.5-1.7-4.5-.2-6.7-.6-4.1-2.2-6.3-2.5c-2.2-.4-4.5 0-6.7-.4s-4.3-1.2-6.5-1.6-4.7.3-6.9-.1c-.7-.1-1.4-.3-2.1-.4 2.1-1.4 3.5-3.5 4.4-6.1.6-2.2.9-4.5.9-6.8.4-7.7-.6-15.4.6-23 .2-1.5.3-3 .2-4.6.6.8.5 2 1.5 2.6.7-.5.3-1.1.2-1.6-.5-1.9-1.5-3.7-1.5-5.8-.3-.3-.6-.5-.9-.7-.2-.5-.2-1.1-.2-1.6 0-4.8 0-9.6.3-14.4.2-4.2 0-8.4.2-12.6.2-4.3.2-8.6.4-12.9.2-4.5.5-9.1.7-13.6.1-1.9-.1-3.8.1-5.7.1-1.8 0-3.6-.3-5.3-.4-2.5-1.8-4.8-3.8-6.4-1.6-1.5-3.5-2.5-5.6-3.1-4.5-1-9.1-1.5-13.7-1.5-3.5-1.2-6.5-.8-9.4-.3-.9-1.3-1.7-2.8-2.2-4.4s-1.2-3.2-2.2-4.6c-.2-.3-.6-.6-.6-1-.1-.9-.7-1.2-1.3-1.5-1.8-.9-3.4-2.2-5.2-2.6-.2-.5-.2-1.1-.2-1.7 0-7.9 0-15.8-.1-23.8 0-1.6-.2-3.1-.5-4.7-.1-.7-.7-1.2-.7-2 0-1.6-.9-2.4-2.5-2.7-1.9-.3-3.9-.4-5.8-.5-1.7-.1-3.4-.2-5.1-.3-3.7-.3-7.3-.5-10.9-.7-3.1-.2-6.1-.3-9.2-.4-1-.2-1.9.3-2.4 1.1-.4.8-1 1.6-1.7 2.2-.3.3-.6.7-.7 1.2-.4 1.2-.7 2.4-.7 3.6-.1 4.5-.1 8.9-.2 13.4-.1 9.2-.1 18.5-.1 27.7.1.6 0 1.1-.2 1.7-.9 0-1.7.7-2 1.5-3.2.6-6 2.4-7.8 5.1-1.5 2.2-2.3 4.9-2.2 7.6 0 16.5 0 33 .1 49.4 0 3.5.1 7 0 10.6-.2 7.1-.1 14.1-.3 21.2-.2 5.8-.1 11.7-.1 17.5 0 1.2.1 2.3.3 3.4.4 2.7 2 5.2 4.4 6.6 1.3.8 2.8 1.5 4.3 2 .7.2 1.3.7 1.5 1.4 0 0 0 .1.1.1-1.9 0-3.9.4-5.7.2-2.2-.2-4.4-1.4-6.6-1.6s-4.4-1.1-6.6-1.3-4.5-.6-6.7-.8-4.6.8-6.8.6-4.4-1.4-6.6-1.5c-2.2-.2-4.5.4-6.8.3-2.2-.1-4.5.7-6.8.6-2.2-.1-4.4-1.5-6.7-1.6s-4.5-.3-6.7-.4c-1.5-.1-2.9-.2-4.4-.3 0-.1.1-.2.1-.4.2-.5.3-1 .2-1.5 0-.4.1-.8.2-1.1 0-.4.1-.7.1-1.1.1-.5.1-1.1 0-1.6.2-.2.4-.4.7-.6.3.1.6-.4 1-.2s.8.2 1.2.5c.6.1 1.1 0 1.6-.4.3-.2.8-.1 1-.5.1-.2.1-.3.1-.5-.5-.3-1-.7-1.3-1.2-.2-.3-.5-.6-.9-.9-.1-.1-.2 0-.2-.1-.6-1-1.7-1.4-2.4-2.2-.2-.2-.4-.5-.5-.7-.3-.4-.3-.9-.1-1.3s.3-.7.4-1.1c.4-1.8.1-3.7.2-5.5l-.3-.3c-.4.1-.7.4-.9.7-.1 0-.1-.1-.1-.2-.2-.4.5-.8 0-1.1 0-.4-.2-.8.1-1.1-.4-.5-.1-1-.2-1.5 0-.5 0-1 0-1.5-.2-.9-.2-1.9-.1-2.9 0-.7-.1-1.4-.2-2.1s0-1.4 0-2.1.1-1.3.2-2c.1-.6.1-1.2-.1-1.8-.2-.5.1-1.2-.2-1.8-.1-.4-.1-.9 0-1.3-.1-.4 0-.8.1-1.2s.2-.9.2-1.3c.2-.5.3-1.1.4-1.6s.3-1 .4-1.5c.1-.7.4-1.4.6-2.2.1-.6.6-1.1.6-1.7.4-.3 0-.9.4-1.2 0-.3 0-.7.2-.9.2-.4 0-.8.2-1 .2-.3 0-.6.3-.9.2-.2.1-.7.2-1 .1-.4.3-.8.2-1.2s.1-.8.2-1.2c.2-.8.3-1.5.5-2.3.2-.7.4-1.5.4-2.2 0-.3.1-.6.2-.9.1-.2.1-.4.1-.6 0-.8.2-1.6.4-2.4.1-.5.3-.9.3-1.4.1-.8.2-1.5.4-2.2.1-.3 0-.6.2-.8s0-.5.1-.7c.2-.3.1-.5.2-.8.3-.9.4-1.8.7-2.8.2-.7.3-1.4.4-2 0-.5.1-1 .3-1.4s-.1-.8.2-1.2c-.1-.7.3-1.3.2-2-.1-.6.2-1.1.2-1.7s0-1.1 0-1.7c.1-.3.2-.7.1-1-.2-1-.1-2-.2-3-.1-.8 0-1.5-.2-2.2-.3-1.3-.1-2.6-.7-3.8.1-.5-.3-1-.2-1.5 0-.2-.2-.4-.2-.6 0-.8-.3-1.6-.4-2.4 0-.3-.3-.5-.2-.8 0-.3 0-.6 0-.8 0-.8.3-1.6.2-2.4s-.1-1.7 0-2.5c0-.7.2-1.3.4-1.9.1-.4.2-.7.3-1.1s.2-.8.3-1.1c.1-.7.3-1.4.5-2 .1-.2.1-.5 0-.7 0-.3.2-.4.2-.7.1-.6.3-1.1.7-1.5.4-.5 1-.5 1.6-.7.4-.1.7 0 1.1-.2.3-.1.7.1 1-.2h.2c.4 0 .9 0 1.3-.1s.9-.2 1.3-.2c.6-.1 1.1-.2 1.7-.3.8-.1 1.7-.2 2.5-.5.4-.1.8.1 1.2-.2.7.1 1.3-.3 2-.2.4.1.8-.3 1.2-.2.3-.4.7-.1 1.1-.3.3-.2.7-.3 1.1-.3.4-.1.7-.1 1.1-.2s.8-.1 1.2-.1c.6-.4 1.3-.6 2-.7.8-.2 1.7-.5 2.5-.6.9-.1 1.7-.5 2.6-.7s1.8-.3 2.6-.6c.4-.2.9-.4 1.3-.6.2-.3.3-.7.2-1.1s.1-.8-.1-1.1c0 0-.1-.1-.1-.2.1-.8-.3-1.6-.2-2.4.1-.5.1-1-.1-1.5-.2-.4.1-.9-.2-1.4-.1-.2 0-.5 0-.8s-.3-.4-.2-.8 0-.7-.1-1 .1-.7-.2-1c-.1-.1 0-.2 0-.4-.1-.4.1-.8-.1-1.2s0-.8-.2-1.2.1-.9-.2-1.3c.1-.7-.3-1.3-.2-2 .1-.4-.2-.8-.2-1.2s0-.8-.1-1.1c-.2-.4.1-.9-.2-1.4.1-.9-.3-1.8-.2-2.8 0-.4 0-.8-.2-1.1-.1-.3.2-.8-.2-1.1 0 0 0-.1 0-.2.1-.8-.3-1.6-.2-2.4.1-.4-.3-.8-.2-1.2s0-.8-.1-1.2c-.2-.4 0-1-.2-1.5.1-.9-.2-1.8-.2-2.8 0-.3-.3-.5-.2-.8s0-.6-.2-.8c0 0 0-.1 0-.2.1-.8-.3-1.5-.2-2.3 0-.3-.2-.6-.2-1 .1-.3 0-.7-.2-.9 0 0 0-.1 0-.2.1-.8-.3-1.5-.2-2.3-.2-.5 0-1.1-.2-1.5-.2-.5 0-1-.2-1.5-.1-.5-.2-1-.2-1.5-.1-.5-.1-1-.2-1.4-.1-.5 0-1.1-.2-1.6s0-1-.2-1.5c-.1-.4-.1-.8-.2-1.2s-.1-.8-.2-1.2c-.1-1-.3-2.1-.5-3.1-.1-.3-.1-.6 0-.8 0-.3-.3-.4-.2-.8 0-.6-.1-1.1-.3-1.6-.1-.4.1-.9-.2-1.3-.1-1.2-.3-2.3-.6-3.5-.1-.6-.2-1.2-.4-1.8s-.4-1.1-.6-1.7c-.2-.4.1-.9-.3-1.2-.2-1.2-.6-2.4-.9-3.6-.2-.6-.3-1.3-.5-1.9-.1-.5-.3-1-.4-1.5-.4-.8-.8-1.7-1-2.5-.3-.8-.6-1.5-.8-2.2-.3-.8-.5-1.6-.8-2.4s-.7-1.5-.9-2.3c-.1-.4-.3-.7-.4-1.1-.1-.6-.4-1.1-.6-1.6-.3-.5-.6-1.1-.7-1.7-.3-.5-.5-1.1-.7-1.7-.1-.3-.3-.6-.5-.9-.3-.5-.5-1.1-.7-1.6-.2-.6-.5-1.1-.7-1.7-.2-.7-.6-1.4-.9-2.1s-.6-1.4-.9-2.1-.6-1.4-.9-2.1c-.1-.4-.3-.7-.5-1.1-.2-.3-.4-.7-.4-1.1-.2-1-.5-2.1-.8-3.1-.4-1.1-.9-2.2-1.4-3.3-.6-1.2-1.1-2.4-1.7-3.5-.2-.4-.3-.8-.3-1.2-.1-.5-.3-1-.6-1.4-.2-.5-.5-1-.7-1.5s-.4-1-.5-1.6c-.1-.5-.2-1-.2-1.6-.1-1.2-.2-2.3-.2-3.5-.2-1.1-.3-2.2-.2-3.3 0-1.1 0-2.3 0-3.4h.5c.1.6.4 1.2.8 1.7.1.1.2.3.2.4.3 1 .7 2 1.2 3 .7 1.6 1.5 3.2 2.3 4.9.5 1.1 1.1 2.3 1.6 3.4.3.5.4 1.1.6 1.7.2.5.5 1 .7 1.5.4.8.7 1.5 1 2.4.2.5.3 1.1.5 1.6.3.7.7 1.3 1.2 1.9.4.4.7.9 1.1 1.3 1.1 1.1 2.1 2.4 3.2 3.6 1 1.1 1.9 2.3 3 3.5.9 1 1.8 2 2.7 3 1.3 1.5 2.8 2.8 4.1 4.3.3.4.7.8 1.1 1.2.4.3.8.7 1.2 1.2l1.2 1.2c.4.4.8.8 1.2 1.2s.8.8 1.2 1.2c.3.4.8.6 1.2 1 .3.4.7.7 1.1 1 .5.3.9.7 1.3 1.1 1.4 1.5 3 2.7 4.4 4.2.6.7 1.2 1.3 1.9 1.8.4.3.8.7 1.1 1.1.2.5.8.6.9 1.2.8.7 1.3 1.5 2 2.2.6.5 1 1.2 1.1 1.9.1.6.4 1.3.2 1.9.2.2.3.5.4.7.4.8 1 1.4 1.8 1.7.3.2.8-.1 1 .2.6 0 1.2.3 1.6.7.7.4 1.5.8 2.3.9.8.2 1.8.4 2.6.6.3.1.5.1.8.1.4.1.8.3 1.1.4.5.4 1 .7 1.5 1.1.5.3.9.7 1.1 1.3v.7c0 .5-.2 1-.5 1.3-.4.4-.8.9-1.1 1.4v.7c.3.3.3.8.7 1 .8-.5 1.6-1 2.4-1.6.1.5.1 1 .1 1.5.1.6.7 1 1.3.8.4-.3.8-.7 1-1.1.4-.6.8-1.1 1.3-1.6.3-.3.5-.7.8-1.1.3-.3.1-.8.4-1.2-.1-.7.3-1.3.2-2 0-.4.1-.9.4-1.2.3.1.3.5.5.7-.1.8.1 1.7.5 2.4.2.4.5.7 1 .9.3.1.5.1.9-.2 0-.8.1-1.7.2-2.5.2-.9-.3-1.8-.4-2.8-.2-.9-.5-1.8-.9-2.7-.1-.5-.7-.9-1-1.4-.7-.9-1.4-1.7-2.2-2.4-.2-.3-.4-.6-.5-1-.3-.9-.7-1.8-1.1-2.8-.3-.2-.8-.3-1.2-.2-.5 0-.9 0-1.4 0s-.9 0-1.4.2c-.4.1-.9-.1-1.3.2-1 .1-2-.1-2.8-.6-.9-.8-2.1-1.1-3.3-1.1-.2 0-.3 0-.5 0-1.1-.4-2-1.2-2.7-2.1-.6-.6-1.2-1.3-1.7-2-.1-.1-.2-.3-.4-.4-.4-.5-.8-1-1.2-1.5-.7-.8-1.2-1.8-2-2.6-.4-.4-.7-.8-.9-1.3-.5-1-1.2-1.8-1.7-2.8-.5-.9-1-1.7-1.7-2.5-.7-1-1.4-2.1-2-3.1-.2-.4-.7-.5-.8-1-.4-.5-.8-1.1-1.1-1.8-.5-.9-1.1-1.8-1.6-2.6-.9-1.4-1.7-2.9-2.6-4.4-.7-1.1-1.3-2.3-2.1-3.3-.7-.9-1.4-1.8-2.1-2.7-.5-.6-1-1.2-1.6-1.7-1-1.1-1.9-2.2-2.7-3.4-.5-.8-1.1-1.5-1.6-2.3-.3-.5-.6-1-.8-1.6-.4-.9-.9-1.8-1.4-2.7-.7-1.4-1.4-2.7-2.3-3.9-.4-.7-.7-1.4-.9-2.2-.1-.2-.2-.4-.3-.6-.4-.8-.7-1.5-1-2.3s-.7-1.5-1-2.4c-.2-.7-.5-1.5-.7-2.2s-.4-1.4-.6-2.2c-.1-.6-.2-1.3-.4-2-.2-1.3-.5-2.6-.9-3.9-.2-.6-.3-1.2-.4-1.9 0-.4-.3-.8-.2-1.2-.4-.3 0-.8-.3-1.1 0-.8-.2-1.5-.4-2.2-.1-.7-.3-1.3-.4-2-.2-.6-.3-1.3-.4-1.9-.3-1.5-.7-3-1.3-4.4-.3-.7-.5-1.4-.7-2.1-.1-1 .2-2 .8-2.8.3-.6.6-1.1.9-1.6-1.4-1.4-2.8-2.8-4.2-4.2-.2-.2-.4-.2-.6-.4-.1-.2-.3-.4-.4-.6-.8-.7-1.6-1.4-2.4-2-.6-.5-1.2-.8-1.8-1.3-.4-.4-1-.4-1.5-.8s-1.1-.7-1.6-1.1c-.4-.4-.9-.5-1.4-.5-.7 0-1.3 0-2-.2-.5-.1-.8-.4-1.3-.5-.6-.2-1.3-.3-1.9-.4-.7-.1-1.3-.3-1.9-.6-.5.2-1.2.3-1.8.1-.9-.2-1.8-.5-2.7-.9-.5-.2-.9-.6-1.2-1.1-.4-.5-.9-.9-1.6-.9-.5 0-.9-.2-1.3-.4-.8-.2-1.6-.7-2.2-1.3-.1-.1-.2-.2-.3-.4-.4-.9-.6-1.8-.7-2.7 0-.6-.1-1.2-.3-1.7-.1-.4.1-.9-.2-1.3.1-1-.5-2-.4-3 0-.3-.2-.6-.2-.9.1-.4-.3-.7-.2-1s-.3-.6-.2-.9c-.3-.5-.5-1.1-.6-1.7-.2-.6-.3-1.3-.5-1.9-.3-1.2-.7-2.5-1.2-3.7-.2-.5-.4-1.1-.5-1.6-.5-1.7-1.2-3.3-2.2-4.8-1.3-1.8-2.9-3.2-4.9-4.2-.5-.2-.9-.3-1.4-.4-.6-.1-1.3-.2-2-.1-.4 0-.7-.2-1.1-.4-1.1-.5-2.3-.9-3.5-1.3-.3-.1-.7-.2-1-.2-.4 0-.8-.2-1.3-.2-.8 0-1.5.1-2.3.4-.3.1-.7.1-1 .2-.6.1-1.1.4-1.6.7-.3.2-.5.3-.8.4-.7.3-1.3.7-1.8 1.3-.7.5-1.3 1.1-1.9 1.7-.4.5-.8 1-1.2 1.4s-.8.9-1.1 1.5c-.7.9-1.3 1.9-2.1 2.7-.6.6-1 1.4-1.1 2.3 0 .2-.2.2-.2.4 0 .4-.3.6-.4 1v1.4c.2.7.7.9.9 1.4.3 1.2-.4 2.1-1 3-.2.4-.5.8-.7 1.3-.4.8-.8 1.6-1.3 2.3-.4.7-.6 1.5-.8 2.3-.2 1.2-.3 2.4-.1 3.5.1 1.3.4 2.6 1 3.8.1.1.1.3.2.4.5.4.7 1 .6 1.6-.5.9-1.1 1.8-1.8 2.5-.3.3-.6.4-.8.6-.5.6-1 1.2-1.5 1.9-.2.3-.3.6-.3.9.1.7 0 1.4-.2 2 0 .1-.1.2-.1.3-.3.4-.3 1-.1 1.5s.2 1 0 1.4c-.8.3-1.6.8-2.2 1.4-.9.7-1.8 1.5-2.6 2.3-.2.2-.4.5-.6.8-.3.6-.8 1.1-1.3 1.6-.5.6-.9 1.3-1.4 1.9 0 .1-.1.2-.1.2-1.5 1.4-2.2 3.2-3.4 4.8-.4.5-.7 1.1-.9 1.6v.6c.1.1.3.2.4.4.3.6.7 1.2 1.2 1.7.6.7 1.2 1.3 1.9 1.8.4.3.6.8.5 1.3 0 .7.1 1.5.3 2.2.1 1.1.4 2.2.6 3.3.1.6.3 1.3.5 1.9s.4 1.2.6 1.8c.3.8.5 1.7.7 2.6.2.6.4 1.2.5 1.8.1.4.2.8.2 1.2s.1.9.2 1.3c0 .3.1.7.2 1 .2.3 0 .7.2.9.2.4 0 .9.3 1.3v.3c.1 2.1.3 4.1.2 6.2 0 .4-.3.7-.2 1.1 0 .4.2.8-.1 1.1v.2c.1.8-.3 1.7-.2 2.5.1.5-.3.8-.2 1.3 0 .4.2.8-.2 1.2v.2c0 .8 0 1.6-.2 2.4-.1.9-.3 1.7-.6 2.5-.2.6-.6 1.3-1 1.8-.6.8-1 1.8-1.5 2.7-.6 1.3-1.2 2.6-1.6 3.9-.6 1.4-1.1 2.8-1.6 4.2s-1.2 2.8-1.6 4.3c-.1.5-.4 1.1-.6 1.6-.1.5-.4 1-.6 1.5-.2.7-.4 1.4-.7 2.1 0 .1 0 .2-.1.3-.4.3-.4.8-.6 1.1-.6 1.1-1.1 2.2-1.5 3.4-.6 1.3-1.2 2.6-1.6 3.9-.4.6-.7 1.2-.9 1.8-.7 1.6-1.4 3.2-2.2 4.7 0 .6-.6 1.1-.6 1.7-.8 1-1.2 2.2-2 3.2-.9.9-1.8 1.8-2.8 2.5-.6.4-1.3.7-2 .8-.8.2-1.6.4-2.4.7-.2.1-.5.1-.7 0-.3 0-.4.2-.7.2-1.5.2-3 .4-4.6.4-.8 0-1.5.3-2 .9-1.2 1.1-2.6 2.1-4 2.9-.6.3-1.1.7-1.6 1.2-.2.1-.3.2-.5.3-.5.2-.9.7-1 1.3-.2.9-.5 1.8-.8 2.6-.1.5-.4 1-.8 1.3v1.2c0 .6.1 1.2.3 1.7 0 .2.1.5.1.7v.9c.2.4.5.3.8.3.3-.4.9-.6 1.2-1.1-.1-.5 0-1 .4-1.4v-1.6c.2-.2.3-.4.6-.3 0 0 .1.1.1.1.2.7.4 1.5.6 2.3.2.9.5 1.8.8 2.7.2.5.2 1 .8 1.1.9.8 1.8 1.8 2.5 2.7.1.1 0 .2.2.3.7-.2 1.2-.9 1.2-1.6.1-.1.3-.3.6-.5.5.6 1.3.7 1.8 1.3.3-.1.5-.2.7-.4.2-.1 0-.4.1-.5.4-.4.1-.8-.1-1.1-.3-.4-.5-.8-.6-1.3-.3-.2-.2-.5-.3-.8-.4-.5-.5-1.2-.4-1.8.7-.7 1.4-1.2 2.3-1.7.6-.4 1.1-.9 1.6-1.5.3-.4.8-.4 1.2-.8.3-.3.7-.5 1.1-.6.3-.1.7-.2 1.1-.1.9.1 1.9-.2 2.6-.8.8-.6 1.6-1.2 2.4-1.8.6-.5 1.2-.9 1.9-1.3.2-.1.4-.3.6-.4.7-.7 1.4-1.4 2-2.1.5-.8 1-1.6 1.4-2.5.1-.1 0-.2.1-.3.5-.5.6-1.2 1.1-1.7.5-.4.9-.9 1.2-1.5.3-.5.7-.9 1.1-1.3.9-1.2 1.8-2.3 2.6-3.5.5-.7 1-1.4 1.6-2 .4-.6.8-1.2 1.1-1.8.8-1.4 1.6-2.7 2.5-4 .6-1 1.3-1.9 1.9-2.9 0-.1.1-.2.1-.2 1.3-1.2 2.1-2.9 3.3-4.2.1-.1.1-.2.2-.4.3-.8.9-1.4 1.2-2.2.2-.4.6-.7.9-1.1.2-.4.4-.8.6-1.2.2-.5.5-1 .7-1.5.4-.8.8-1.6 1.1-2.5.2-.5.5-1 .8-1.4.6-.9 1.1-1.8 1.6-2.8.9-1.6 1.8-3.2 2.6-4.9.2-.3.3-.6.6-.8.3-.4.6-.9.8-1.4.1-.6.2-1.2.3-1.8 0-.3 0-.6 0-.8-.1-3.4.3-6.8.2-10.3.3-1.1 0-2.3.2-3.4.2-1.7.2-3.3.1-5 .1-.9.3-1.8.7-2.6.4-.1.7.2.8.5.1.5.4 1 .7 1.5.5 1 .9 2 1.2 3 .4 1 .8 2 1.4 2.9.3.6.6 1.3.7 1.9.1.3.1.6.3.8.1.1.1.2.1.3 0 .3-.1.7 0 1 .2.4 0 .8.2 1 .2.3-.1.7.3.9-.1.5.1.9.2 1.3.1 1 .3 2 .8 2.9-.1.4 0 .8 0 1.2.1.4 0 .8.3 1.2.1.1 0 .3 0 .4 0 1.1 0 2.2-.2 3.3-.1.5-.3 1-.7 1.4-.5.6-.9 1.3-1.1 2-.3.8-.7 1.6-1.1 2.4-.5 1.1-.9 2.3-1.2 3.5-.2.7-.2 1.4-.4 2s-.4 1.3-.6 2c-.2.9-.6 1.7-.8 2.6-.3 1.1-.6 2.1-.9 3.1-.3.9-.6 1.8-.8 2.7-.1.4-.2.8-.2 1.2-.1.5-.2 1-.3 1.5-.1.7-.2 1.3-.3 2-.2.6-.3 1.3-.5 1.9-.2.5-.3 1-.2 1.6s-.1 1.2 0 1.8c.1.5.2 1.1.3 1.6.1.8.3 1.5.6 2.3v.4c-.1 3.3.3 6.6.2 9.9 0 1 .3 1.9.2 2.9.2.7.3 1.5.2 2.2v8.8c.1.9.2 1.8.5 2.7 0 .2.1.5.1.7 0 .3.2.4.2.7.1.9.3 1.7.4 2.6.2 1 .3 1.9.4 2.9.3.4.1 1 .2 1.4.1.5.2.9.1 1.4 0 .3.3.6.2.9s0 .6.2.8v.1c0 .9.1 1.8.2 2.7s.2 1.9.2 2.8c.2.5.3 1 .2 1.5 0 .4.3.8.2 1.2 0 .4-.1.8.2 1.1v.2c0 .8.1 1.6.2 2.3 0 .5 0 1.1.2 1.6s0 1.1.2 1.6c.1.5.1 1 .2 1.5s0 1 .2 1.5c.1.7.2 1.4.2 2 0 .7.1 1.3.3 2v.4c.1.4-.1.7.1 1.1.2.3-.1.7.3 1-.1.5.2 1 .2 1.5s.3.9.2 1.4.1.9.4 1.3v.2c-.1.7.3 1.4.2 2.1-.1.3.2.6.2.9-.1.3 0 .6.2.8.1.1 0 .2 0 .4 0 .4 0 .8.2 1.2.1.4 0 .8.2 1.2.1.5.2.9.2 1.4.1.7.2 1.3.3 1.9.1.7.1 1.4.1 2.1 0 .3.3.4.2.7s.3.5.2.8.1.6.2.8c.1.4.3.8.8 1 .9.5 1.9.9 2.8 1.2l1.2.6c.1.1.3.1.5.1.2.2.4.4.6.7.1.5.2 1.1.2 1.6.1.6.2 1.2.1 1.8 0 .4.3.7.2 1.1s-.1.7 0 1.1c.1.7.2 1.4.2 2 .1.9.2 1.8.5 2.7.1.3.1.6 0 .9 0 .6.1 1.2.3 1.8.1.4-.1.8.2 1.1 0 .8 0 1.7.2 2.5v.3c0 1.8-.1 3.6 0 5.4s-.2 3.5-.2 5.3v5.3 5.4c0 1.2.3 2.5.2 3.7.2.4.1 1 .2 1.4.2.5 0 .9.2 1.3.2.7.3 1.4.4 2.2.2 1.1.3 2.1.6 3.2.2.7.3 1.4.4 2.2.3.3.1.7.3 1 .3.8.5 1.7.6 2.5.1.9.3 1.7.5 2.5.1.4.2.7.2 1.1.1.4.2.8.2 1.2s.2.8.2 1.2c.4.3-.1.8.3 1.1 0 .8.2 1.6.4 2.3.1.8.2 1.5.5 2.3-.1.6.3 1.1.3 1.7s.3 1.2.2 1.8c.4.5.1 1.2.2 1.7.1.6.2 1.2.3 1.7.2.8.3 1.5.5 2.3.2.5.3 1 .4 1.6.1.5.3 1.1.3 1.6.1 1.1.6 2.1.6 3.3.1.6.2 1.1.4 1.7.4 1.1.7 2.3.9 3.4.1.7.2 1.3.4 2 .2.6 0 1.2.3 1.7.2.4.1.8-.1 1.1-.1.2-.1.4-.1.5v2.8c.1.9-.3 1.8-.2 2.7 0 .2-.3.4-.2.7-.7.8-1.6 1.3-2.2 2.1-.6.2-1.2.3-1.8.3-.3.4-.6.8-.8 1.2-.1.2-.2.3-.4.3-.3.1-.6.3-.8.5-.3.3-.8.3-1 .6-.2.4-.4.7-.7 1-.6 1.1-1.8 1.8-3 1.7-.6-.3-1.1-.8-1.6-1.3h-.6c-.1.1-.1.2-.1.3.2.3.4.6.7.7.5.2.9.6 1.2 1h1.1c-.3.1-.6.3-.9.4-1-.1-1.9-.3-2.9-.3-2.3 0-4.5-.4-6.7-.4-2.3 0-4.5-.2-6.7-.2s-4.5.8-6.7.8-4.5.1-6.7.1c-1 0-1.9 0-2.9 0 0-.1-.1-.1-.1-.2 0 0 0-.1.1-.1 0-.1 0-.1 0-.2 0 0-.1-.1-.1-.1 0-.1 0-.1.1-.1 0 0 .1 0 .1-.1 0 0-.1 0-.1-.1s-.1 0 0-.1h.1.1s.1-.1.1-.1 0 0 0-.1c0 0-.1-.1-.1-.1-.1-.1-.1-.1 0-.3s-.1 0-.1-.1-.1 0 0-.1h.1.1c.1-.1.2-.1.2-.2v-.1c-.1 0-.2-.1-.2-.1v-.1s0-.1.1-.1v-.1s0 0-.1 0h-.2s0 .1-.1.1h-.1s0-.1.1-.1h.1v-.1s0 0 0-.1-.1-.1-.2-.1h-.2c-.1 0-.1-.1 0-.1 0-.1.1-.1 0-.2 0-.1 0-.1 0-.1s0-.1-.1-.1c0 0 .1-.1.1-.1v-.1h-.1s-.1 0-.1.1c-.1 0-.1.1-.1.1-.1 0-.1 0-.2 0 0 0-.1.1-.1.1s-.1-.1 0-.1c.1-.1.2-.2.3-.3v.6c0-.1 0-.1-.1-.1 0 0 0 0-.1 0 0 0-.1 0-.1.1h-.1s-.1-.1-.1-.1h-.1c-.1 0-.1 0 0-.1s0-.1-.1-.1c0-.1-.1-.1-.1 0h-.1c-.1 0-.1-.1 0-.2 0-.1 0-.1 0-.1-.1 0-.2 0-.2-.1-.1 0-.2-.1-.3-.2s-.1-.1-.2-.2h-.3s-.1-.1-.1-.1c-.1 0-.1 0-.2-.1s-.1-.1-.2-.1-.1 0-.1-.1c-.1 0-.1 0-.1.1s-.1.1-.1.1c-.1 0-.1 0-.2-.1 0 0-.1-.1-.1-.1v-.1h-.1s-.1 0-.1 0c-.1 0-.2.1-.2 0 0-.1 0-.1-.1-.1s-.1 0-.1.1c0 0-.1 0-.1-.1v-.1-.1c0-.1 0-.1-.1 0h-.1c-.1 0-.1-.1-.1-.2v.1c.1 0 .2-.1.3-.2s.1 0 .1 0c0 .1.1.2.2.2h.2s0-.1.1-.1.1.1.1.1h.2s.1.1.1.1h.1c.1 0 .1 0 .1-.1v-.1c0-.1 0-.1.1-.1s.1 0 .1-.1.1-.1.1 0l.1.1c.1.1.1.1.1 0s.1-.2.1-.3.1 0 .1.1h.1s.1 0 .1-.1.1 0 .1-.1v-.1c.1-.1.1 0 .2 0h.1v-.1s0-.1-.1-.1c0 0 0 0 0-.1v-.1h.1c.1 0 .2.1.2.1s.1 0 .1.1c0 0 .1.1.1.1h.1c0-.1 0-.1 0-.2 0 0 0-.1-.1-.1v-.1c.1 0 .1-.1.2-.1 0 0 .1 0 .1-.1 0 0 0-.1-.1-.1 0 0-.1-.1-.1-.1s-.1-.1-.1-.1-.1-.1 0-.1c0 0 .1 0 .1-.1.1 0 .1.1.1 0s0-.1 0-.1c0-.1.1-.1.2 0h.1.1v-.1s0-.1-.1-.1c0-.1 0-.1.1-.1h.1s.1 0 .1-.1c0 0 0 0 0-.1s-.1 0-.1-.1c-.1 0-.2 0-.3 0s-.1-.1-.2-.2c0-.1 0-.2 0-.4.1-.1.2-.2.3-.3v-.1c-.1-.1 0-.1-.1-.2 0 0-.1 0-.2 0v-.1s.1-.1.1-.1 0-.1.1-.1v-.1c0-.1 0-.1.1-.1 0 0 .1 0 .1-.1s.1-.2.2-.2h.1c.1 0 .1 0 .1-.1l.1-.1c0-.1.1-.1.2-.1h.2c.1 0 .1-.1.1-.1v-.2c0-.1 0-.1.1-.1l.6-.6c.1-.1.1-.1.2 0h.1c0-.1-.1-.1-.1-.1v-.1c.1 0 .1.1.1.1h.1s0-.1.1-.1c0-.1.1-.2.1-.2 0-.1.1-.1.1 0 .1.1.2.1.2 0 0-.1 0-.1.1-.1 0-.1 0-.1 0-.1v-.1c0-.1 0-.1.1-.1s.1-.1.1-.1.1-.1.1-.1c.1 0 .1-.1.1-.1 0-.1.1-.1.1-.1s.1 0 .1-.1.1-.2.2-.2h.2c.1 0 .1 0 .1-.1s0-.1 0-.1c.1 0 .1-.1.2-.1 0 0 .1-.1.1-.1h.1s.1.1.1 0v-.1-.1h.1s.1 0 .1.1v-.1s0 0 0-.1v-.1s0-.1.1-.1c0 0 0-.1.1-.1h.1c.1 0 .1 0 .1-.1 0 0 0-.1-.1-.1-.1-.1-.1-.2 0-.2.1-.1.1-.1.1-.2s0-.1 0-.1.1 0 .1-.1 0-.1.1-.1v-.1c-.1-.1-.1-.2-.1-.3v-.1c0-.1.1-.1.2-.1 0-.1-.1-.1-.1-.2v-.9c0-.1 0-.1.1-.1s.1-.1 0-.2l-.1-.1s0-.1-.1-.1c0-.1 0-.1.1-.2.1 0 .1 0 .1-.1v-.1c0-.1 0-.1.1-.1 0-.1 0-.1 0-.1s-.1 0-.1-.1c0 0 .1 0 .1-.1.1 0 .1-.1.1-.1s0-.1-.1-.1c0 0-.1 0-.1-.1v-.1s0-.1.1-.1h.1.1s0-.1.1-.1c0-.1 0-.2 0-.4 0-.1.1-.1.1-.1 0-.1 0-.2 0-.3s0-.1 0-.1c.1 0 .1-.1.1-.1-.1-.1-.1-.1-.2-.2 0 0 0-.1-.1-.1 0 0 .1 0 .1-.1 0 0 .1 0 .1-.1s.1-.1.2-.2c0 0 .1-.1 0-.1 0-.1 0-.1-.1-.1.1-.1.1-.1-.1-.2h.1.1s.1-.1 0-.1 0 0 0-.1-.1-.2-.1-.2v-.1c0-.1 0-.1 0-.2v-.1c.1-.1.1-.2.1-.2v-.1c0-.1.1-.1.1-.2v-.3c0-.1 0-.1-.1-.1h-.1s0-.1.1-.1v-.1c-.1-.1-.1-.1-.2-.2 0-.1 0-.1 0-.2 0 0-.1-.1-.1-.1 0-.1 0-.1 0-.2s0-.1-.1-.1c0 0-.1 0-.1-.1 0 0 0-.1.1-.1 0 0 0-.1 0-.2-.1 0-.1 0-.1-.1v-.1-.1s0-.1-.1-.1c0 0 0-.1.1-.1 0-.1 0-.1 0-.2s-.1 0-.1-.1c.1-.1.1-.2 0-.2 0 0 0-.1.1-.1s0-.1-.1-.1c0-.1 0-.2 0-.3 0 0 0-.1-.1-.1s-.1-.1-.1-.1 0-.1-.1-.1c0 0 0-.1.1-.1v-.1-.1s0-.1.1-.1c0-.1-.1-.1-.2-.2-.1 0-.1-.1-.1-.2s0-.1-.1-.1-.1-.1-.1-.1l.1-.1s0-.1.1-.1c-.1-.1-.2-.2-.2-.3 0 0 0-.1-.1-.1s-.1 0-.1 0h.1c0-.1 0-.1 0-.1v-.1-.1c0-.1 0-.1-.1-.2v-.1s0-.1.1-.1c-.1-.1-.1-.1-.2-.2 0 0 .1-.1.1-.1s.1 0 .1-.1h-.1-.1s-.1-.1-.1-.1 0-.1.1-.1h.1c.1 0 .1 0 .1-.1 0 0-.1-.1-.1-.1 0-.1 0-.2 0-.3 0 0 0-.1-.1-.1h.1s0 0 0-.1c0 0 0 0 0-.1v-.4c0-.1-.1-.1-.1-.2v-.1c0-.1 0-.2-.1-.2s0-.1.1-.1h.1c.1 0 .2-.1.1-.2 0-.1 0-.1 0-.1 0-.1 0-.1 0-.2 0 0-.1-.1-.1-.1h-.1c-.1 0-.1-.1-.1-.1 0-.1 0-.1 0-.2-.1-.1-.1-.1 0-.2.1 0 .1-.1 0-.2 0-.1-.1-.2-.1-.2s.1 0 .1-.1v-.1s0-.1.1-.1c0-.1-.1-.1-.1-.2 0 0 0-.1-.1-.1v-.1c.1-.1 0-.1 0-.1.1-.1.1-.1-.1-.1h-.1c-.1 0-.1 0-.1-.1 0 0 0-.1-.1-.1v-.1c.1-.1 0-.1-.1-.2 0 0-.1 0-.1-.1s.1 0 .1-.1v-.1s-.1 0-.1-.1c0 0 0-.1.1-.1 0 0 .1 0 .1-.1v-.1s0-.1-.1-.1c0-.1 0-.2 0-.3s-.1-.1-.1-.1v-.1c0-.1 0-.1-.1-.1 0 0 0-.1-.1-.1 0-.1-.1-.1-.1-.2-.1 0-.1-.1 0-.2v-.1s-.1 0-.1-.1c-.1 0-.1-.1-.1-.1 0-.1 0-.1.1-.2s.2-.3.4-.4c0 0 .1-.1.1-.1v-.4s0-.1-.1-.1c0 0 0-.1-.1-.1 0-.1 0-.1 0-.2 0 0-.1-.1-.1-.1 0-.1 0-.2 0-.3s-.1-.1-.1-.2 0-.1 0-.1c0-.1-.1-.1-.1-.1 0-.1 0-.2 0-.3 0 0 0-.1-.1-.1v-.1-.5c0-.1 0-.2-.1-.2 0-.1 0-.2 0-.3 0 0-.1-.1-.1-.1 0-.1 0-.3 0-.4s-.1-.1-.1-.2v-.6c0-.1-.1-.1-.1-.1 0-.1 0-.3 0-.4s-.1-.1-.1-.2v-.5c0-.1-.1-.1-.1-.1 0-.1 0-.1 0-.2s0-.1-.1-.1c0 0 0-.1-.1-.1 0-.1 0-.2 0-.4 0-.1-.1-.1-.1-.1 0-.1 0-.2 0-.3s-.1-.1-.1-.2 0-.2 0-.4c0-.1-.1-.1-.1-.1 0-.1 0-.2 0-.3s-.1-.1-.1-.2 0-.2 0-.3-.1-.1-.1-.1c0-.1 0-.2 0-.3s-.1-.1-.1-.2v-.1c0-.1-.1-.1-.1-.1 0-.1 0-.2 0-.3s-.1-.1-.1-.2v-.1c0-.1-.1-.1-.1-.1 0-.1 0-.2 0-.3s-.1-.1-.1-.2 0-.2 0-.3-.1-.1-.1-.1c0-.1 0-.2 0-.3s-.1-.1-.1-.2 0-.2 0-.3-.1-.1-.1-.1c0-.1 0-.2 0-.3s-.1-.1-.1-.2 0-.2 0-.3c0 0-.1-.1-.1-.1 0-.1 0-.1 0-.2 0 0 0-.1-.1-.1 0 0 0-.1-.1-.1 0-.1 0-.1 0-.1-.1-.1-.1-.2-.1-.2 0-.1-.1-.1-.1-.2 0 0 0 0 0-.1 0 0-.1-.1-.1-.1 0-.1 0-.1 0-.2s-.1-.1-.1-.2-.1-.1-.1-.2 0-.1 0-.1c0-.1-.1-.1-.1-.2s-.1-.1-.1-.2 0-.1 0-.1 0-.1-.1-.1c0 0-.1-.1-.1-.1 0-.1 0-.1 0-.1-.1-.1-.1-.2-.1-.2 0-.1-.1-.1-.1-.2v-.1s-.1-.1-.1-.1v-.1-.1c-.1-.1-.1-.2-.1-.2s-.1-.2-.1-.2-.1-.2-.1-.2-.1-.2-.1-.2c0-.1-.1-.2-.1-.2 0-.1-.1-.2-.1-.3-.1-.1-.1-.2-.1-.3s-.1-.2-.1-.3-.1-.2-.1-.3c-.1-.1-.1-.2-.1-.3s-.1-.2-.1-.3-.1-.1-.1-.2-.1-.2-.1-.2c0-.1 0-.1-.1-.2s0-.1-.1-.2-.1-.1-.1-.2c0 0-.1-.1-.1-.1s-.1-.1-.1-.1c0-.1-.1-.1-.1-.2 0 0-.1-.1-.1-.1s-.1-.1-.1-.1c0-.1-.1-.1-.1-.2v-.1c-.1-.1-.1-.1-.2-.2 0-.1-.1-.1-.1-.2s-.1-.2-.1-.2c-.1 0-.1-.1-.1-.2-.1-.1-.1-.2-.1-.2s0-.1-.1-.1c-.1-.1-.1-.1-.1-.2s-.1-.1-.1-.2-.1-.1-.1-.2-.1-.1-.1-.2c0 0-.1-.1-.1-.1 0-.1-.1-.1-.1-.2s-.1-.1-.1-.2c0 0 0-.1-.1-.1 0-.1-.1-.1-.1-.2 0 0-.1-.1-.1-.1 0-.1-.1-.1-.1-.2 0 0 0-.1-.1-.1-.1-.1-.1-.2-.2-.3-.1-.1-.1-.2-.2-.3 0 0 0-.1-.1-.1-.1-.1-.1-.1-.1-.2 0-.1-.1-.1-.1-.2 0 0 0-.1-.1-.1 0 0 0-.1-.1-.1-.1-.1-.1-.1-.1-.2s-.1-.1-.1-.2c0 0 0-.1-.1-.1-.1-.1-.1-.2-.2-.3 0 0 0-.1-.1-.1-.1-.1-.1-.1-.1-.2 0-.1-.1-.1-.1-.2 0 0 0-.1-.1-.1-.1-.1-.1-.2-.2-.3 0 0 0-.1-.1-.1-.1-.1-.1-.1-.1-.2 0-.1-.1-.1-.1-.2 0 0 0-.1-.1-.1-.1-.1-.2-.1-.2-.3 0 0-.1-.1-.1-.1-.1-.1-.1-.1-.1-.2 0 0-.1-.1-.1-.1-.1-.1-.1-.1-.1-.2-.1-.1-.1-.2-.2-.3s-.1-.1-.1-.2c-.1-.1-.1-.2-.2-.3 0 0 0-.1-.1-.1-.1-.1-.1-.1-.1-.2 0-.1-.1-.1-.1-.2 0 0 0-.1-.1-.1-.1-.1-.1-.2-.2-.3 0 0 0-.1-.1-.1-.1-.1-.1-.1-.1-.2 0-.1-.1-.1-.1-.2 0 0 0-.1-.1-.1 0 0 0-.1-.1-.1-.1-.1-.1-.1-.1-.2s-.1-.1-.1-.2c0 0 0-.1-.1-.1-.1-.1-.1-.2-.2-.3 0 0-.1-.1-.1-.1-.1-.1-.1-.1-.1-.2s-.1-.1-.1-.2c0 0 0-.1-.1-.1-.1-.1-.2-.1-.2-.3 0-.1-.1-.1-.2-.2 0 0 0-.1-.1-.1-.1-.1-.1-.2-.2-.3-.1-.1-.1-.2-.2-.3 0 0 0-.1-.1-.1 0-.1-.1-.1-.1-.2 0 0 0-.1-.1-.1-.1-.1 0-.1-.1-.2 0 0-.1-.1-.1-.1s0-.1-.1-.1c0-.1-.1-.1-.1-.2 0 0 0-.1-.1-.1-.1-.1-.1-.2-.2-.3 0-.1 0-.2 0-.2.1-.1.1-.1.2-.2v-.1-.1s-.1-.1-.1-.1c0-.1 0-.2 0-.3s-.1-.1-.1-.2 0-.1-.1-.1v-.1-.1c-.1-.1-.1-.2-.1-.3v-.1-.1c0-.1-.1-.2-.1-.2-.1-.1-.1-.2-.1-.2s-.1-.2-.1-.2v-.1c0-.1 0-.2-.1-.3 0-.1-.1-.1-.1-.2s-.1-.1-.1-.2 0-.1-.1-.2 0-.1-.1-.2v-.1c-.1-.1-.1-.1-.1-.2s-.1-.2-.1-.2c0-.1-.1-.1-.1-.2s-.1-.1-.1-.2c-.1-.1-.1-.1-.1-.2s-.1-.1-.1-.2c-.1-.1-.1-.2-.2-.3 0-.1-.1-.1-.1-.2v-.1c0-.1-.1-.1-.1-.2s-.1-.1-.1-.2-.1-.1-.2-.2c0 0-.1-.1-.1-.1-.1-.1-.1-.2-.2-.3s-.1-.1-.2-.2l-.2-.2c-.1-.1-.1-.1-.2-.2v-.1c-.1-.1-.1-.1-.2-.2 0 0-.1-.1-.1-.1-.1 0-.1-.1-.2-.1s-.1-.1-.2-.1-.1-.1-.2-.1-.1 0-.2 0-.1-.1-.1-.1h-.1-.5c-.3 0-.3 0-.3-.3v-.3c0-.1.1-.1.1-.2 0-.2 0-.3 0-.5 0-.1.1-.1.1-.1v-.1c0-.1 0-.1.1-.1 0 0 .1-.1.1-.1.1 0 .1-.1.2-.1 0 0 .1-.1.1-.1s.1 0 .1-.1l.4-.4.2-.2c.1-.1.1-.1.2-.1 0 0 .1 0 .1-.1.1-.1.1-.1.2-.1s.1-.1.2-.1.1-.1.2-.1h.1c.1 0 .2-.1.2-.1.1 0 .1-.1.2-.1s.1-.1.2-.1c0 0 .1 0 .1-.1h.1c.1-.1.1-.1.2-.2.1 0 .1-.1.2-.1h.1s.1 0 .1-.1c.1-.1.1-.2.3-.2.1 0 .1-.1.2-.1 0 0 .1 0 .1-.1.1-.1.2-.1.3-.2 0 0 .1 0 .1-.1.1-.1.2-.1.3-.2.1 0 .1-.1.1-.1s.1 0 .1-.1c.1-.1.1-.2.3-.2 0 0 .1-.1.1-.1s.1-.1.1-.1c.1 0 .2-.1.3-.2h.1s.1 0 .1-.1c.1-.1.1-.2.3-.2.1 0 .1-.1.2-.1 0 0 .1 0 .1-.1.1-.1.2-.1.3-.2.1-.1.2-.1.3-.2 0 0 .1 0 .1-.1.1 0 .1-.1.2-.1s.1 0 .1-.1c.1-.1.1 0 .2-.1 0 0 .1-.1.1-.1s.1-.1.1-.1c.1 0 .2-.1.2-.1.1 0 .1-.1.2-.1 0 0 .1 0 .1-.1.1-.1.1-.1.2-.1s.1-.1.2-.1c0 0 .1 0 .1-.1.1 0 .1 0 .2-.1h.2.1c.1 0 .2-.1.3-.1h.1c.1 0 .1 0 .1-.1 0 0 .1 0 .1-.1h.2s.1-.1.1-.1h.1s.1 0 .1 0c.1 0 .1-.1.2-.1s.1-.1.2-.1.1-.1.2-.1h.1c.1 0 .1-.1.2-.1s.1-.1.2-.1h.1c.1-.1.2-.1.4-.2.1 0 .1-.1.2-.1s.2-.1.2-.1c.1 0 .1-.1.2-.1s.2-.1.2-.1c.1-.1.1-.1.2-.1s.1-.1.2-.1.1-.1.2-.1c0 0 .1 0 .1-.1h.1c.1 0 .1-.1.2-.1 0 0 .1 0 .1-.1.1-.1.2-.1.3-.2 0 0 .1 0 .1-.1.1-.1.1-.1.2-.1.1 0 .1-.1.2-.1 0 0 .1 0 .1-.1.1 0 .1-.1.2-.1 0 0 .1 0 .1-.1h.1c.1-.1.2-.2.3-.3.8-.8 1.6-1.6 2.4-2.4l.2-.2c.1-.1.1-.2.1-.2.1-.1.1-.1.2-.2s0-.1.1-.2l.2-.2c0-.1.1-.1.1-.1v-.1s0-.1.1-.1c.1-.1.3-.3.4-.4 0 0 .1-.1.1-.1s0-.1.1-.1c.1-.1.2-.2.3-.3 0 0 0-.1.1-.1 0-.1.1-.2.2-.3v-.1-.1c.1-.1.2-.1.2-.3 0-.1.1-.1.1-.2 0 0 0-.1.1-.1.1-.1.2-.2.2-.3 0 0 .1-.1.1-.1.1-.1.2-.2.2-.3 0 0 .1-.1.1-.1s.1-.1.1-.1c0-.1.1-.2.1-.2s.1-.1.1-.1c0-.1.1-.1.1-.2s0-.1.1-.1v-.1c0-.1 0-.2.1-.3 0-.1 0-.1.1-.1 0 0 0-.1.1-.1 0 0 0-.1.1-.1 0-.1 0-.1 0-.2.1-.1.1-.2.2-.4 0-.1 0-.2 0-.4 0 0 .1-.1.1-.1 0-.1 0-.1 0-.2s0-.1 0-.1 0-.1.1-.1c0-.1 0-.2 0-.3 0 0 0 0 0-.1s.1-.1.1-.2v-.9c0-.1.1-.1.1-.1v-.1c0-.1-.1-.1-.1-.2v-.1c0-.1-.1-.1-.1-.2s0-.2 0-.3c-.1-.1-.2-.3-.4-.4-.1 0-.2-.1-.3-.2 0 0 0 0-.1 0h-.1-.1s-.1-.1-.1-.1c-.1 0-.2 0-.3 0s-.1-.1-.2-.1-.2 0-.4 0c-.1 0-.1-.1-.1-.1-.1 0-.2 0-.4 0-.1 0-.1-.1-.2-.1h-.6c-.2 0-.3 0-.5 0-.1 0-.1-.1-.1-.1-.3 0-.7 0-1 0-.1 0-.1.1-.2.1h-1.6s0 0-.1 0-.1.1-.1.1h-.6c-.1 0-.1.1-.2.1-.2 0-.4 0-.6 0-.1 0-.1.1-.1.1h-.6c-.1 0-.1.1-.2.1h-.7c-.1 0-.2.1-.2.1-.1 0-.2 0-.3 0s-.1.1-.2.1-.1 0-.1 0c-.1 0-.1.1-.1.1h-.3c-.1 0-.1.1-.2.1s-.1 0-.1 0c-.1 0-.1.1-.1.1-.1 0-.1 0-.2 0-.1 0-.1.1-.2.1h-.1c-.1 0-.2.1-.3.1s-.1 0-.2 0c-.1 0-.1.1-.2.1s-.2 0-.3.1c-.1 0-.1 0-.2 0-.1.1-.2.1-.4.2-.1 0-.1 0-.2 0 0 0-.1.1-.1.1-.1 0-.1 0-.1.1 0 0-.1.1-.1.1s-.1 0-.1.1h-.1c-.1 0-.1 0-.1 0-.1 0-.2.1-.3.1s-.2.1-.2.1c-.1 0-.2.1-.3.1-.1.1-.2.1-.3.1s-.1.1-.2.1c0 0 0 0-.1 0-.1.1-.2.1-.2.1s-.1 0-.1.1c0 0-.1.1-.1.1-.1 0-.2.1-.2.1-.1 0-.1 0-.1.1-.1.1-.1.1-.2.1s-.1.1-.2.1c0 0-.1 0-.1.1-.1.1-.2.1-.3.2 0 0-.1 0-.1.1-.1.1-.1.1-.2.1s-.1.1-.2.1c0 0-.1 0-.1.1-.1.1-.2.1-.3.2 0 0-.1 0-.1.1 0 0-.1.1-.1.1-.1 0-.1 0-.2.1 0 0-.1.1-.1.1h-.1s-.1 0-.1.1c-.1.1-.1.1-.2.2s-.1.1-.2.2h-.1c-.1.1-.2.2-.3.2 0 0-.1 0-.1.1-.1.1-.1.1-.1.1-.1.1-.2.2-.3.2 0 0-.1.1-.1.1-.1.1-.2.2-.3.2 0 0-.1.1-.1.1-.3.2-.5.5-.8.7 0 .1-.1.1-.2.1 0 0-.1 0-.1.1-.1.1-.1.1-.2.2-.5.5-.9.9-1.4 1.4l-.2.2s0 0-.1 0v-.1-.2c0-.1-.1-.1-.1-.2v-.1c0-.1-.1-.1-.1-.1 0-.1 0-.1 0-.2s-.1-.1-.1-.2v-.1c0-.1-.1-.1-.1-.1 0-.1 0-.1 0-.2 0 0 0-.1-.1-.1 0 0-.1-.1-.1-.1 0-.1 0-.1 0-.1-.1-.1-.1-.2-.1-.2 0-.1-.1-.1-.1-.2v-.1s-.1-.1-.1-.1c0-.1 0-.2 0-.3s-.1-.1-.1-.2-.1-.1-.1-.2-.1-.1-.1-.2-.1-.1-.1-.2 0-.2 0-.3-.1-.1-.1-.2v-.1c-.1-.1-.1-.1-.1-.2 0 0 0-.1-.1-.1 0 0 0-.1-.1-.1-.1-.1-.1-.1-.1-.2-.1-.1-.1-.1-.1-.2s-.1-.1-.1-.2-.1-.1-.1-.2c0-.1 0-.1-.1-.2 0 0-.1-.1-.1-.1v-.1s0 0 0-.1c-.1-.1-.2-.2-.3-.3 0 0-.1 0-.1-.1-.1 0-.1-.1-.1-.1-.1-.1-.2-.2-.3-.3s-.2-.1-.3-.2c0 0-.1 0-.1-.1-.1 0-.1-.1-.2-.1s-.2 0-.3 0-.1-.1-.2-.1-.1 0-.1 0c-.1 0-.1-.1-.1-.1h-.9c-.1 0-.1.1-.1.1h-.1c-.1 0-.1 0-.1.1-.1.1-.1.1-.2.1s-.1.1-.1.1c-.1.1-.2.2-.3.3s-.1.1-.1.2c-.1.1-.1.2-.1.3-.1.1-.1.2-.2.3v.3c0 .1-.1.1-.1.1v.4c0 .1-.1.1-.1.2v.3c0 .1-.1.1-.1.1v.2s0 .1-.1.1v.3c0 .1-.1.1-.1.1v.3c0 .1-.1.1-.1.2v.3c0 .1-.1.1-.1.1v.2s-.1.1-.1.1v.3c0 .1-.1.1-.1.1v.3c0 .1-.1.1-.1.2v.3c0 .1-.1.1-.1.1v.4s-.1.1-.1.1v.3s-.1.1-.1.1v.4c0 .1-.1.1-.1.2v.4c0 .1-.1.2-.1.2v.7s-.1.1-.1.1v.3.2c0 .1-.1.2-.1.2v.7c0 .1-.1.1-.1.1v.4.4c0 .1-.1.1-.1.2v1c0 .1-.1.1-.1.1v.1.1c0 .1-.1.2-.1.2 0 .1-.1.1-.2.1h-.6c-.1 0-.1.1-.2.1-.2 0-.4 0-.6 0h-1.7c-.1 0-.1.1-.2.1-.3 0-.7 0-1 0-.1 0-.1.1-.2.1s-.2 0-.3 0-.1.1-.2.1-.2 0-.4 0c-.1 0-.1.1-.1.1-.1 0-.2 0-.3 0s-.1.1-.2.1-.2 0-.3 0-.1.1-.1.1c-.1 0-.1 0-.1 0-.1 0-.1.1-.2.1h-.1c-.1 0-.1.1-.1.1-.1 0-.1 0-.2 0s-.1.1-.2.1h-.1c-.1 0-.1.1-.1.1-.1 0-.1 0-.2 0 0 0-.1 0-.1.1 0 0-.1.1-.1.1h-.1c-.1 0-.1.1-.1.1-.1 0-.1 0-.2.1 0 0-.1 0-.1.1-.1.1-.1.1-.2.1s-.1.1-.2.1c0 0-.1 0-.1.1h-.1c-.1.1-.3.2-.4.4 0 0-.1.1-.1.1s0 .1-.1.1c-.1.1-.1.2-.2.3-.1.1-.2.1-.2.3 0 0-.1.1-.1.1s-.1.1-.1.1c0 .1-.1.1-.1.2-.1.1-.1.1-.1.2 0 0 0 .1-.1.1 0 .1-.1.1-.1.2-.1.1-.1.1-.1.2-.1.1-.1.2-.1.2 0 .1-.1.1-.1.2 0 0 0 .1-.1.1 0 0-.1 0-.1.1-.1 0-.1 0-.1 0s-.1-.1-.1-.1-.1-.1-.1-.1h-.1c-.1 0-.1-.1-.1-.1h-.4c-.1 0-.2.1-.2.1-.1 0-.1.1-.2.1 0 0 0 0-.1 0-.1.1-.2.2-.3.3v.1c0 .1-.1.1-.1.2s0 .1-.1.2c0 .1 0 .1-.1.2v.1c0 .1 0 .2-.1.3v.4c0 .1-.1.1-.1.2s-.1.1-.1.1 0 0-.1 0c0 0-.1 0-.1-.1 0 0 0 0-.1 0s-.1 0-.2 0-.1 0-.1-.1c0-.2 0-.4 0-.5s-.1-.1-.1-.2 0-.2 0-.3c0 0 0-.1-.1-.1 0 0 0-.1-.1-.1 0-.1 0-.1 0-.1 0-.1-.1-.2-.1-.3s-.1-.2-.1-.2c0-.1-.1-.2-.3-.3-.1 0-.1-.1-.3-.1h-.4c-.1 0-.2 0-.2.1-.1.1-.3.3-.4.4-.1 0-.1.1-.1.2-.1.1-.1.2-.1.3s-.1.1-.1.2v.1c0 .1-.1.1-.1.1v.3c0 .1-.1.1-.1.2v1.8s.1.1.1.1v.3s0 .1.1.1c0 0 .1.1.1.1v.1c.1.1.1.3.2.4.1 0 .1.1.2.2v.1.3.1c0 .1-.1.1-.1.1v.1s-.1.1-.1.1v.1c0 .1-.1.2-.1.2-.1 0-.1-.1-.1-.1s0-.1-.1-.2-.1-.1-.1-.1-.1-.1-.1-.1c0-.2-.2-.2-.3-.4 0 0 0 0-.1-.1-.1 0-.1-.1-.1-.1-.1 0-.2 0-.3 0s-.1-.1-.2-.1h-.1c-.1 0-.1-.1-.2-.1l-.6-.6s-.1-.1-.1-.1c-.1 0-.2-.1-.2-.1-.1-.1-.1-.1-.2-.2-.1 0-.2-.1-.3-.2-.1 0-.1-.1-.2-.1 0 0-.1 0-.1.1v.1s.1.1.1.1c0 .1.1.1.2.1.1 0 .1.1.2.1 0 0 .1 0 .1.1 0 0 .1 0 .1.1l.6.6s.1.1.1.1v.1s.1.1.1.1c.1 0 .1 0 .1.1l.7.7c.1.1 0 .1.1.2 0 0 .1.1.1.1s.1.1.1.1h.1c.1.1.1.1.2.1s.1.1.2.1c0 0 .1.1.1.1s0 .1-.1.1v.1s.1.1.1.1v.1s-.1 0-.1.1v.1c0 .1 0 .1-.1.1-.1-.1-.2-.1-.2-.1s-.1 0-.2 0h-.1c-.1 0-.1-.1-.2-.1-.1-.1-.2-.1-.3-.1h-.1s-.1-.1-.1-.1c-.1 0-.1-.1-.2-.1s-.2 0-.3 0c0 0-.1-.1-.1-.1-.1 0-.1 0-.1 0-.1 0-.1-.1-.2-.1s-.2 0-.3 0-.1-.1-.1-.1c-.2 0-.3 0-.5 0v-.1c.1 0 .1 0 .1-.1h.1c.1 0 .1 0 .1-.1 0 0 .1 0 .1-.1h.3-.3c-.1 0-.1 0-.2.1 0 0 0 0-.1 0s-.2 0-.3 0-.1.1-.2.1-.1.1-.2.1-.1.1-.2.1-.1.1-.2.1h-1.9 1.4c.1 0 .1 0 .1.1v.1c-.1 0-.1.1-.2.1-.1.1-.1.1-.2.2s-.1 0-.2.1c-.3.3-.6.6-.8.8-.1.1-.1.2-.2.3s-.1.1-.2.2c0 0-.1.1-.1.1s0 0 0 0c0 .1-.1.2-.2.3s-.2.1-.2.3c0 .1-.1.1-.1.2 0 0 0 .1-.1.1v.1c.1-.1.3-.3.4-.4 0-.1.1-.2.1-.2l.2-.2s0 0 0-.1c0 0 0-.1.1-.1l1.1-1.1s.1 0 .1-.1c0 0 .1-.1.1-.1.1-.1.2-.2.3-.2 0 0 .1 0 .1-.1 0 0 .1-.1.2-.1h.4c.1 0 .1.1.1.1h.4c.1 0 .1.1.2.1h.3s.1.1.1.1c.1 0 .2 0 .3.1h.1.1s.1 0 .1.1c.1 0 .2 0 .3.1h.1c.1 0 .1 0 .1.1h.1c.1 0 .1 0 .1.1.1.1.1.1.2.1s.1.1.2.1c0 0 .1.1 0 .1 0 0-.1.1-.1.1s0 .1-.1.1c0 0-.1.1-.1.1-.1.1-.1.1-.2.1s-.1.1-.1.1h-.7c-.1 0-.1.1-.2.1s-.3 0-.4 0-.1.1-.1.1c-.1 0-.1 0-.2 0s-.2.1-.2.1c-.1.1-.1.1-.2.1s-.1.1-.2.2h-.1c-.1.1-.2.2-.3.3s-.2.2-.3.3-.1.1-.2.1c-.1.1-.3.2-.4.3 0 .1.1 0 .1 0s.1 0 .1-.1h.2l.2-.2h.1s.1 0 .1.1c.1-.1.2-.1.3-.2 0 0 .1 0 .1.1v.1s0 .1-.1.1c-.1.1-.2.2-.2.3-.1.1-.2.2-.3.3 0 0-.1 0-.1.1-.1.1-.3.3-.4.4s-.1.2-.3.2c0 0-.1.1-.1.1s-.1.1-.1.1c-.1 0-.2.1-.2.1-.1 0-.1.1-.2.1-.1.1-.2.1-.2.2h.1c.1 0 .1-.1.2-.2s.2-.1.2-.1c0-.1.1-.1.2-.1.1-.1.2-.1.3-.1s.1 0 .2-.1c0 0 .1-.1.1-.1s.1 0 .1-.1h.2c.1 0 .1-.1.1-.1h.1s0-.1.1-.1h.1s0 .1-.1.1h-.1v.1c0 .1-.1.1-.2.2-.1 0-.1.1-.2.1h.1c.1 0 .1-.1.2-.1s.1 0 .1.1v.1c-.1.1-.1.2-.1.3s-.1.1-.1.2v.1s-.1.1-.1.1v.1c0 .1-.1.1-.1.2v.5.1s.1 0 .1-.1c0 0 .1-.1.1-.1v-.4-.1s0-.1.1-.1c0-.1 0-.2 0-.3s.1-.2.1-.2c0-.1.1-.1.1-.2s.1-.1.1-.2l.2-.2c.1 0 .1-.1.1-.2s.1-.1.1-.1c.1-.1.2-.1.2-.1s0-.1.1-.1h.1s0 .1-.1.1h-.1v.1c-.1.1-.1.1-.2.2s-.1.1-.1.1c-.1 0-.1.1-.1.2 0 0 0 .1-.1.1v.1h.1s.1-.1.1-.1c.2-.2.4-.4.6-.6.1-.1.1-.1.2-.1.1 0 .1-.1.2-.1 0 0 .1 0 .1-.1.1-.1.1-.1.2-.2h.1v.1c-.1.1-.1.1-.2.2-.1 0-.1.1-.1.2 0 0 0 .1-.1.1v.1h.1c.1 0 .1-.1.2-.1.3-.2.5-.5.8-.7h.1s0 0 .1.1v.2c0 .1-.1.2-.1.3s-.1.1-.1.2c0 0-.1.1-.1.1s0 .1-.1.1c-.1.1-.3.3-.4.4 0 0 0 .1-.1.1 0 .1-.1.2-.1.2 0 .1-.1.1-.1.2 0 0-.1.1-.1.1-.1.1-.1.2-.1.2v.1c0 .1-.1.1-.1.1v.3c0 .1-.1.2-.1.2 0 .1-.1.1-.2.2h-.1c-.1.1-.2.1-.2.2v.1c-.1.1-.2.1-.2.2-.1.1-.2.1-.2.2 0 0-.1.1-.1.1s0 .1-.1.1c0 .1-.1.1-.1.2v.1s0 .1.1 0l.2-.2c.1-.1.1-.1.1-.2 0 0 0-.1.1-.1.2-.2.4-.4.6-.6 0 0 .1 0 .1-.1.1 0 .1.1.1 0 .1 0 .1-.1.1-.2s.1-.1.1-.2h.1s.1 0 .1.1v.4.1c0 .1-.1.1-.1.2 0 0 0 .1-.1.1 0 .1-.1.1-.1.2s-.1.1-.1.2c0 0-.1.1-.1.1 0 .1-.1.1-.1.2 0 0 0 .1-.1.1 0 .1 0 .1-.1.2v.1h.1.1s.1-.1.1-.1c0-.1.1-.1.1-.2 0 0 0-.1.1-.1 0 0 .1-.1.1-.1s0-.1.1-.1c0 0 0-.1.1-.1 0 0 0-.1.1-.1 0 0 .1-.1.1-.1.1-.1.2-.2.2-.3 0 0 .1-.1.1-.1s.1-.1.1-.1 0-.1.1-.1c.1-.1.2-.2.3-.3 0 0 .1-.1.1-.1 0-.1.1-.1.1-.2l.6-.6h.1s.1.1.1.1v.1c.1.1.2.2.2.3v.1c0 .1-.1.1-.1.2s-.1.1-.1.2-.1.1-.1.2 0 .1-.1.1c0 .1-.1.1-.1.2 0 .1-.1.1-.1.2s-.1.1-.1.2v.1c0 .1-.1.1-.1.2s-.1.1-.1.2v.1s-.1.1-.1.1v.2c0 .1 0 .1-.1.1 0 0 0 .1-.1.1v.3s-.1.1-.1.1v.2c0 .1 0 .1-.1.1 0 0 0 .1-.1.1v.4c0 .1-.1.1-.1.1v.4c0 .1-.1.1-.1.2v.5.1s.1 0 .1-.1c0 0 .1-.1.1-.1 0-.1 0-.3 0-.4s.1-.1.1-.2 0-.2 0-.4c0 0 .1-.1.1-.1 0-.1 0-.3 0-.4s.1-.1.1-.2 0-.2 0-.3c0 0 .1-.1.1-.1 0-.1 0-.1 0-.2 0 0 0-.1.1-.1v-.3s.1-.1.1-.1c0-.1 0-.2.1-.3 0-.1.1-.2.1-.2s0 0 0-.1 0-.2.1-.3c0-.1.1-.2.1-.3 0 0 0 0 0-.1 0-.1.1-.2.1-.3 0 0 0 0 0-.1 0 0 0 0 0-.1 0 0 .1-.1.1-.1 0-.1.1-.1.2 0l.1.1c0 .1.1.1 0 .2 0 .1-.1.1-.1.2 0 0 0 .1-.1.1 0 .1-.1.1-.1.1v.1.1c-.1.1-.1.2-.1.2s-.1.2-.1.2-.1.2-.1.2v.1c0 .1-.1.2-.1.3v.1c0 .1-.1.1-.1.2s-.1.1-.1.2v.2s-.1.1-.1.1v.2s0 .1-.1.1v.4c0-.1 0-.2.1-.3 0-.1 0-.1 0-.2s.1-.2.1-.2 0-.1.1-.1c0-.1 0-.1 0-.2s.1-.2.1-.2 0-.1.1-.1c0-.1 0-.1 0-.2 0 0 .1-.1.1-.1 0-.1 0-.1.1-.1 0 0 .1-.1.1-.1s0-.1.1-.1v-.1-.1s0-.1.1-.1c0-.1.1-.1.1-.2 0 0 0-.1.1-.1.1-.1.1-.1.1-.2s.1-.1.1-.2c0 0 0-.1.1-.1.1.1.2.1.3.1 0 0 .1.1.1.1s0 .1.1.1v.4c0 .1.1.2.2.2v-.1-.3s0-.1.1-.1.1.1.2.1.2.1.3.2c0 .1.1.2.1.2v.6c0 .1-.1.1-.2.2-.1 0-.1 0-.1.1h-.1c-.1 0-.2 0-.2.1-.1 0-.1 0-.2.1h-.1c-.1 0-.1 0-.1.1 0 0-.1 0-.1.1-.1 0-.2 0-.3 0 0 0-.1.1-.1.1s0 .1.1.1h.2v.1c0 .1-.1.1-.2.2-.1 0-.1.1-.2.1s-.1 0-.2 0c0 0-.1.1-.1.1v.1s0 .1.1.1h.2c.1 0 .1 0 .2-.1h.1.1c-.1 0-.1.1-.2.1s-.1.1-.1.1v.1h.3c.1-.1.2-.1.4-.2.1 0 .1-.1.2-.1h.1s-.1.1-.1.1 0 0-.1 0-.1.1-.2.1v.1c-.1.1-.1.1-.2.2v.1c0 .1.1.1.1.2 0 0 .1.1.1.1s.1.1.1.1c.1-.1.1-.1.2-.1s.1-.1.2-.1h.1v.1c-.1.1-.1.1-.1.2 0 0 .1 0 .1.1.1 0 .1.1.2.1 0 0 .1 0 .1.1.1 0 .1-.1.2-.1s.1 0 .2-.1h.2v.1c0 .1 0 .1.1.1h.1c.1.1.1.1.2 0 .1 0 .1-.1.1-.1h.1.2s.1-.1.1-.1h.1c.1-.1.2-.2.3-.2h.1s.1 0 .1.1v.1.1c.1 0 .1 0 .1.1 0 0 0 .1.1.1s.1 0 .1-.1c0 0 0-.1.1-.1v-.1c.1-.1.1-.1.2-.2.1 0 .1.1.1.1v.1c0 .1 0 .1-.1.2s-.3.2-.4.4c-.1.1-.1.1-.1.1 0 .1 0 .1-.1.2s0 .1-.1.2c0 0-.1.1-.1.1s0 .1-.1.1c0 0 0 .1-.1.1 0 .1-.1.1-.1.2s0 .1-.1.1c-.1.1 0 .1-.1.2 0 0-.1.1-.1.1s-.1.1-.1.1c0 .1-.1.1-.1.2s-.1.1-.1.2c0 0 0 .1-.1.1 0 .1-.1.1-.1.2-.1.1-.1.1-.1.2s-.1.1-.1.2c-.1.1-.1.2-.1.3s-.1.1-.1.2v.1c0 .1 0 .2-.1.2 0 .1 0 .1-.1.2v.1c0 .1-.1.2-.1.4-.1.1-.1.2-.1.3v.1c0 .1-.1.2-.1.3v.1c0 .1 0 .2-.1.2 0 .1 0 .1-.1.2 0 .1-.1.1-.1.2v.1s-.1.1-.1.1v.5c0 .1.1.1.1.2v.4c0 .1.1.1.1.2v.6c0 .1.1.1.1.1v.5c0 .1.1.1.1.2v.3l.2.2v.1l.2.2c0 .1 0 .1.1.2l.1.1c.1.1.1.2.2.3s.1.1.1.2v.1c0 .1.1.1.1.2v3c0 .1.1.1.1.1v.3c0 .1-.1.2-.1.2-.1.1-.3.3-.4.4s-.2.2-.2.3c0 0-.1.1-.1.1s-.1.1-.1.1v.1c-.1.1-.1.2-.2.2s-.1-.1-.1-.1v-.1c-.1-.1-.2-.2-.3-.3-.1 0-.2-.1-.3-.2 0-.1-.1-.1-.2-.1s-.1-.1-.2-.1c0 0-.1 0-.1-.1-.1 0-.1-.1-.2-.1s-.1 0-.2-.1h-.1-.1c-.1-.1-.2-.1-.3-.1h-.1c-.1 0-.2 0-.3-.1-.1 0-.2 0-.4 0-.1 0-.1-.1-.1-.1-.2 0-.3 0-.5 0-.1 0-.1-.1-.2-.1h-1.2-.1c-.1 0-.1.1-.1.1-.2 0-.3 0-.5 0-.1 0-.1.1-.2.1s-.3 0-.4 0-.1.1-.2.1-.1 0-.1 0-.1 0-.1.1c0 0-.1.1-.1.1-.1 0-.1 0-.1 0-.1.1-.1.1-.2.1-.1.1-.2.1-.2.1h-.1s-.1.1-.1.1c-.1 0-.1.1-.2.1s-.1.1-.2.1c-.1.1-.1.1-.2.1-.1.1-.1.1-.2.2h-.1c-.1.1-.2.1-.2.2-.1.1-.2.2-.3.3s-.3.3-.4.5c0 0 0 .1-.1.1-.1.1-.1.2-.2.2 0 .1-.1.2-.1.2v.2c-.1.1-.1.3-.2.4v.2s0 .1-.1.1 0 .1 0 .1v.3c0 .1-.1.1-.1.2v.3c0 .1.1.1.1.1v.5c0 .1.1.1.1.2v.2c.1.1.1.2.1.2.1.1.1.2.2.3 0 .1.1.2.1.2.1.1.1.1.1.1v.1s-.1 0-.1.1c-.1 0-.1 0-.2-.1-.1 0-.1-.1-.2-.1h-.1c.1.1.3.3.4.5 0 .1-.1.1-.1.1h-.1-.1c0 .1 0 .1.1.1h.1s.1 0 .1.1c.1 0 .1.1.1.1s-.1 0-.1 0h-.1s0 .1.1.1h.1s.1 0 .1.1v.1c0 .1-.1.1-.2.1 0 0-.1 0 0 .1h.3s.1-.1.1-.1h.1v.1.1c-.1.1-.2.2-.2.2-.1.1-.1.1 0 .1.1.1.1.1.2.1h.1s0 .1-.1.1h-.1s-.1 0-.1.1h.1c.1.1.2.2.2.3v.1c0 .1-.1.1-.1.1 0 .1 0 .1.1.1h.1c.1 0 .1 0 .1.1v.1s.1 0 .1.1c.1 0 .1 0 .1.2v.1s-.1.1-.1.1v.1s0 .1.1.1c.1-.1.1-.1.1-.2s.1-.1.1-.1h.1v.1.1s.1.1.1.1h.3c0 .1-.1.1 0 .2v.1s0 .1.1.1l.3.3h.1.1l.2.2s.1 0 .1-.1h.2v.3c0-.1 0-.1 0-.2 0 0 .1-.1.1-.1v-.2s0-.1.1-.1c0 0 .1.1.1.1v.1c0 .1.1.2.2.1.1 0 .1 0 .1.1s0 .1.1.1h.1.1s0 .1 0 .1c0 .1.1.1.1.1v-.1-.2s0-.1.1-.1c0 0 .1 0 .1.1.1.1.1.1.2 0 .1.1.1.1.1.2 0 0 0 .1.1.1s.1 0 .1-.1.1-.1.1-.1c.1 0 .2-.1.2-.1.1 0 .1-.1.1-.2s0-.2.1-.2h.1s0 .1 0 .1h.1c.1 0 .1 0 0-.1v-.1h.1c.1.1.1 0 .2-.1 0 0 0-.1.1-.1s.1 0 .1 0 .1.1 0 .1v.1c0 .1 0 .1.1.2s.1 0 .1 0c0-.1.1-.1.1-.2 0 0 .1-.1.1-.1s.1 0 .1.1.1.1.1.1.1 0 .1.1.1.2.1.2.1.1.1.1v.3.1c0 .1.1.1.1.2s.1.1.1.1l.5.5c.1.1.1.1.1.1 0 .1.1.1.1.2 0 0 0 .1.1.1v.3c0 .1.1.1.1.2v.1l.3.3h.1c.1 0 .2.1.2.2s.1.1.1.2.1.1.1.2.1.1.1.2.1.1.2.2h.1l.3.3c0 .1 0 .2.1.3.1.2.2.3.3.4h.1c.1 0 .1.1.2.1s.2.1.2.2v.7c0 .1.1.1.1.2v1.2c0 .1.1.1.1.2s0 .1.1.1c0 0 .1.1.1.1v.1c.1.1.1.2.1.3v.1.1s.1.1.1.1c0 .1.1.1.1.2s.1.1.1.2c0 0 .1.1.1.1 0 .1.1.2.1.2s.1.1.1.1.1.1.1.1c0 .1.1.1.1.2s.1.1.1.2c0 0 0 .1.1.1.1.1.1.2.2.3 0 0 0 .1.1.1.1.1.1.1.1.2s.1.1.1.2c0 0 0 .1.1.1.1.1.1.2.2.3 0 0 0 .1.1.1.1.1.1.1.1.2 0 0 0 .1.1.1.1.1.1.2.2.3 0 .1.1.1.1.1.1 0 .2.1.2.1.1 0 .1.1.2.1h.2c0-.1 0-.2 0-.4 0-.1-.1-.2-.1-.2 0-.1-.1-.1-.1-.2 0 0 0-.1-.1-.1 0-.1-.1-.1-.1-.2s-.1-.1-.1-.2 0-.1-.1-.2c0 0 0-.1-.1-.1s-.1-.1-.1-.2c0 0 0-.1-.1-.1-.1-.1-.1-.1-.1-.2s-.1-.1-.1-.2 0-.1-.1-.1c-.1-.1-.1-.2-.2-.3-.1-.1-.2-.1-.2-.3 0-.1-.1-.1-.1-.2 0 0 0-.1-.1-.1 0 0-.1-.1-.1-.1s-.1-.1-.1-.2 0-.1-.1-.2c0 0-.1-.1-.1-.1s-.1-.1-.1-.1v-.1c0-.1-.1-.1-.1-.1 0-.1 0-.2 0-.3s-.1-.1-.1-.2 0-.2 0-.3-.1-.1-.1-.1c0-.1 0-.2 0-.4 0-.1.1-.1.1-.2v-.2s0-.1.1-.1h.1c.1.1.1.1.1.2s0 .1.1.2c0 0 .1 0 .1.1h.3s.1-.1.1-.1h.1s.1 0 .1.1.1.2.1.3v.1c.1.1.2.2.2.3 0 0 .1.1.1.1l.2.2v.1c0 .1.1.1.1.2 0 0 0 .1.1.1 0 0 0 .1.1.1.1.1.1.1.1.2s.1.1.1.2c0 0 0 .1.1.1 0 .1.1.1.1.2s.1.1.1.2.1.1.1.2c0 0 0 .1.1.1 0 .1.1.1.1.2s.1.2.1.2c0 .1.1.2.1.3.1.1.1.1.1.2.1.1.1.2.1.2v.1c.1.1.1.2.1.2 0 .1.1.1.1.2s.1.1.1.1v.1c0 .1 0 .1.1.2 0 .1.1.1.1.2v.1s.1.1.1.1v.2s0 .1.1.1c0 0 .1.1.1.1v.1c.1.1.1.1.1.2.1.1.1.2.1.2v.1c.1.1.1.1.1.2s.1.1.1.2.1.1.1.2v.1c.1.1.1.2.1.3s.1.1.1.2.1.1.1.2.1.2.1.3c.1.1.1.2.1.2.1.1.1.2.1.2v.1s0 .1.1.1v.1s0 .1-.1.1 0 .1 0 .1v.3c0 .1-.1.1-.1.2v.4c0 .1-.1.1-.1.1v.4c0 .1-.1.1-.1.2v.4c0 .1-.1.1-.1.1v.3c0 .1-.1.1-.1.2v.4c0 .1-.1.1-.1.1v.3c0 .1-.1.1-.1.2v.3c0 .1-.1.1-.1.1v.3c0 .1-.1.1-.1.2v.3c0 .1-.1.1-.1.1v.3c0 .1.1.2.1.2.1.1.1.2.1.2 0 .1.1.1.1.2 0 0 0 .1.1.1l.3.3c.1 0 .2.1.3.2s.1.1.2.1c0 0 .1.1.1.1.1.1.2.2.3.2 0 0 .1 0 .1.1l.2.2s.1.1.2.1c0 0 .1 0 .1.1.1.1.1.1.2.1 0 0 .1 0 .1.1.1 0 .2.1.2.1.1.1.1.1.2.1.1.1.2.1.3.2 0 .1.1.1.2.1.1.1.3.1.4.2 0 0 .1.1.1.1s.1 0 .1.1c0 0 .1 0 .1.1h.9c.1 0 .1.1.2.1h.5.1v.1s-.1.1-.1.1 0 0-.1 0c-.1.1-.2.2-.3.3v.1s0 .1-.1.1v.1s-.1.1-.1.1v.1.1c0 .1-.1.2-.1.2s0 .1-.1.1v.3c0 .1-.1.1-.1.2s-.1.1-.1.2v.7c0 .1-.1.1-.1.2v.5c0 .1-.1.1-.1.1v.6c0 .1-.1.1-.1.2v.1c0 .1-.1.1-.1.1v.6c0 .1-.1.1-.1.2v.1c0 .1-.1.1-.1.1v.8c0 .1-.1.1-.1.2v.1c0 .1-.1.1-.1.1v.5c0 .1-.1.1-.1.2s-.1.1-.1.2v.4c0 .1-.1.1-.1.2v.1s-.1.1-.1.1v.1s0 .1 0 .1c0 .1-.1.2-.1.2s0 .1-.1.1v.3c0 .1-.1.1-.1.2s0 .1-.1.1v.1c0 .1-.1.2-.1.3v.6c0 .1-.1.1-.1.1v1.4s.1.1.1.1-.1.1-.1.1v.2c0 .1.1.1.1.2v.2.1s-.1.1-.1.1.1.1.1.1c.1.1 0 .1 0 .1s-.1 0-.1.1v.6c-.1.1-.1.2-.2.2s-.1.1-.2.1v.1s0 .1.1.1.1 0 .1 0 0 .1 0 .1c0 .1-.1.1-.1.2 0 0-.1.1-.1.1h-.1c-.1 0-.1 0-.2-.1 0-.1 0-.1 0-.1s0-.1-.1-.1v.1h-.1c0-.1-.1-.1-.1-.1h-.1s-.1 0-.1-.1-.1 0-.1 0v.1c0-.1-.1-.2-.1-.2 0-.1 0-.1 0-.2s-.1-.1-.1-.1v.4c0-.1-.1-.2-.1-.2s0-.1-.1-.1v.1-.1c0-.1 0-.1 0-.1s0-.1-.1-.1c0-.1 0-.1 0-.2 0 0 0-.1-.1-.1s-.1 0-.1 0v.3c0 .1 0 .1-.1.1s-.1 0-.1-.1c0 0 0 0 0-.1 0 0 .1-.1.1-.1 0-.1 0-.1-.1-.1h-.1s0 .1 0 .1c0 .1-.1.2-.2.3 0-.1-.1-.2-.2-.2 0 0-.1 0-.1-.1h-.1-.1s0-.1-.1-.1c0-.1-.1-.1-.1 0-.1.1-.1.1-.2 0-.1.1-.1.1-.1-.1v-.1s0-.1-.1-.1c0 0 0 0-.1 0-.1.1-.2.1-.2.2 0-.1 0-.2 0-.3s-.1-.2-.1-.2h-.1c-.1 0-.1 0-.1.1v.1s0 .1-.1.1 0-.1-.1-.1h-.1c0 .1 0 .1-.1.2 0 0-.1 0-.2.1 0 0 0 0-.1 0 0 0-.1 0-.1-.1s0-.2 0-.4c0 0 0-.1-.1-.1h-.1s0 .1 0 .1-.1.1-.1 0c0 0-.1 0-.1-.1-.1 0-.1 0-.1 0s0-.1-.1-.1-.1 0-.1-.1c0 0 0-.1-.1-.1 0 0 0-.1-.1 0-.1 0-.1.1-.1.1-.1 0-.1.1-.1.1 0 .1 0 .1-.1.1s-.1 0-.1.1-.1.1-.1 0 0-.1-.1-.1c0-.1 0-.1 0-.2h-.1v-.1s-.1 0-.1.1 0 .2-.2.3c-.1 0-.1-.1-.2-.1v-.1c0-.1 0-.1-.1-.1h-.1c-.1 0-.2 0-.2.1s-.1.1-.1.1c-.1 0-.1-.1-.2-.1 0 0-.1 0-.1-.1-.1 0-.1-.1-.1-.1s0 0 0-.1c0 0-.1-.1-.1-.1 0-.1-.1-.1-.2-.2-.1 0-.1-.1-.2-.1h-1.1s-.1.1-.1.1v.1h.1c0 .1-.1.2-.1.2 0 .1-.1.1-.1.2 0 0-.1.1-.1.1h-.1c-.1 0-.1 0-.1 0s-.1-.1-.1-.1c0-.1 0-.2 0-.3 0 0 0-.1-.1-.1h-.1s-.1.1-.1.1v.2.1.1h-.1s0 0-.1-.1c0-.1 0-.1 0-.1s-.1 0-.1.1h-.1c-.1-.1-.1-.1-.1.1v.2c-.1-.1-.2-.2-.2-.3s-.1-.1-.1-.1-.1 0-.1.1-.1.1-.2.1h-.2c-.1 0-.1 0-.1.1 0 0 0 .1-.1.1s-.2.1-.2.1h-.1c-.1 0-.1 0-.1.1v.3c-.1.1-.1.2-.2.3-.1-.1-.1-.1-.2-.2h-.1v.1.2.1.1s-.1 0-.1.1c0 0-.1-.1-.1-.1h-.1c-.1 0-.1 0-.1.1v.1s0 .1-.1.1c0 0 0 .1.1.1v.2c-.1 0-.1 0-.2 0s-.1 0-.1.1 0 .1-.1.1-.2.1-.2.2v.1c.1 0 .2.1.2.1v.1h-.1c-.1-.1-.2-.1-.2-.1h-.1v.1s0 .1.1.1c.9-.2.9-.1.9-.1h.1c.1 0 .1 0 .1.1v.1s-.1-.1-.1-.1h-.1c-.1 0-.1 0-.1.1v.2.1.1c-.1 0-.1.1-.2.1h-.1c-.1 0-.1 0-.1.1v.1.2c0 .1-.1.1-.1.2v.1c.1 0 .1.1.2.1 0 .1-.1.1-.1.2-.1 0-.1.1-.2.1h-.1-.1s-.1.1 0 .1l.3.3s.1 0 0 .1h-.3s-.1.1-.1.1v.1s0 .1.1.1h.2c.1 0 .1 0 .2.1s.1.1 0 .1c-.1.1-.1.1-.2.2 0 0-.1 0-.1.1v.1c.1 0 .1 0 .1.1.1.1.1 0 .2 0 0 0 0 .1.1.1 0 .1.1.1.1.1.1 0 .1.1.1.1 0 .1 0 .1-.1.2v.1s0 .1 0 .1.1 0 .1-.1h.2s.1 0 .1.1c.1 0 .1-.1.2-.2 0-.1 0-.1.1 0h.1c.1 0 .1.1.1.1v.2c0 .1.1.1.1.1 0-.1 0-.2 0-.3s.1 0 .1.1v.1.1c.1 0 .1-.1.1 0v.1s0 .1.1.1h.2.1c.1.1.1 0 .2-.1 0 0 0-.1.1-.1h.1s0 .1.1.1v.1c-.9 0-1.9-.1-2.8-.1-2.3 0-4.5-.4-6.7-.4s-4.5.4-6.7.4-4.5-.4-6.7-.4c-2.1 0-4.2 1.2-6.3 1.4-2.1.1-4.3-.4-6.4-.1s-4.3.2-6.3.5c-2.1.4-3.9 2.1-6 2.5s-4.3 0-6.4.4c-2.1.5-4 1.7-6 2.2-2.1.5-4.2.8-6.2 1.3-2.1.5-4.1 1.1-6.2 1.6s-4.4.2-6.5.7c-2.1.6-4.4.5-6.5 1.1s-4.1 1.7-6.1 2.4c-2.1.7-3.8 2.4-5.8 3.1-2.1.7-4.1 1.4-6.1 2.1-2 .8-4.1 1.4-6.1 2.2s-4.4.6-6.4 1.4-4 1.6-6.1 2.4c-2 .8-3.6 2.7-5.6 3.5s-4.5.5-6.5 1.3-3.8 2.3-5.8 3.1c-2 .7-4.2 1.1-6.3 1.8-2 .7-4.3.7-6.4 1.4-2 .6-4 1.6-6.1 2.2s-4.1 1.4-6.2 2-4.1 1.3-6.2 1.8-4.4.2-6.5.8c-2.1.5-3.9 2.1-6.1 2.6-2.1.5-4.2 1-6.3 1.5s-4.4.4-6.5.8-4.2.9-6.4 1.3c-2.1.4-4.3.4-6.5.8-2.1.4-4.1 1.5-6.3 1.9-2.1.4-4.3.5-6.4.9s-4.3.3-6.5.6c-2.1.4-4.2 1.3-6.3 1.6-2.1.4-4.3.6-6.4 1-2.2.3-4.4.4-6.5.8-2.2.4-4.2 1.4-6.4 1.7s-4.5-.3-6.6.1c-2.2.3-4.2 1.6-6.3 2-2.2.4-4.4.5-6.5.9-2.2.3-4.4 0-6.6.3s-4.2 1.3-6.4 1.6-4.2 1.5-6.4 1.8-4.6-.9-6.7-.6c-2.2.3-4.3.9-6.5 1.2s-4.2 1.7-6.3 2-4.5-.4-6.6-.1-4.3 1-6.5 1.3-4.3.9-6.5 1.2-4.5-.4-6.6-.1c-1.5.2-2.9.5-4.3.7v97.1h1920v-25.9c-2.1-.6-4.2-.9-6.2-1.5-4.2-.6-6.3-1.4-8.5-2zm-1562.4-216.9h.3c-.1 0-.2 0-.3 0-.1.1-.1 0 0 0zm-.4.1h.2c0 .1-.1.1-.1.1s0 0-.1-.1c0 .1 0 .1 0 0zm-.1.6s.1 0 .1-.1h.1.1c.1 0 .1-.1.2-.1h.1c.1 0 .1 0 .1.1v.1c0 .1 0 .1-.1.1s-.1 0-.1 0-.1 0-.1.1c0 0-.1 0-.1.1h-.2c-.1 0-.1.1-.1.1h-.1c-.1-.3 0-.4.1-.4zm-.5-.6h.1c0 .1 0 .1-.1 0-.1.1-.1.1 0 0zm-.9.5h.1c0-.1 0-.1.1-.1s.1-.1.2-.1.2-.1.2-.1h.2c0 .1 0 .1-.1.1s-.1.1-.2.1h-.1s-.1.1-.1.1c-.1 0-.2 0-.3 0 0 .1 0 .1 0 0-.1.1-.1 0 0 0-.1 0-.1 0 0 0zm.4 1.1c-.1 0-.1 0 0 0-.1.1-.2.1-.2.1-.1 0-.1 0-.2.1s-.1 0-.2 0v-.1c.1 0 .1-.1.2-.1s.1-.1.2-.1c.1 0 .1 0 .2-.1-.1 0 0 0 0 .2 0-.1 0-.1 0 0zm-.1-.4c-.1.1-.2.1-.3.2h-.1s0 0 0-.1l.6-.6s.1 0 .1-.1c0 0 .1 0 .1-.1h.1.1v.1c-.1.1-.3.3-.4.4 0 .2-.1.2-.2.2zm.7.1c-.1 0-.1 0-.2 0s0 .1-.1.1h-.1s0-.1.1-.1h.1c0-.1.1-.1.2 0l.1-.1s0 .1-.1.1zm.3-.1h-.2c.1-.1.1-.1.2 0 0-.1 0-.1 0 0l.1-.1s0 .1-.1.1zm.2-.1c0-.1 0-.1 0 0l.3-.1c.1 0 .1-.1.1-.1h.1s.1 0 .1.1-.1.1-.1.1c-.2 0-.3 0-.5 0zm-.4 2.8c-.1 0-.1-.1 0 0 0-.1 0-.2 0-.2v-.1s.1-.1.1-.1c0-.1 0-.1.1-.1s.1.1 0 .1c0 .1-.1.1-.1.2v.1c.1 0 0 0-.1.1zm.8 0c-.1.1-.2.2-.3.3 0 0-.1.1-.1.1s0 .1-.1 0c0-.1 0-.2 0-.2.1-.1.2-.3.4-.4h.1c-.1 0 0 .1 0 .2 0-.1 0 0 0 0zm.7-1c0 .1-.1.1-.1.1-.1 0-.1 0-.1.1 0 0-.1.1-.1.1s0 0-.1 0c-.1.1-.1.1-.2.2-.1 0-.2.1-.2.1s-.1 0-.1.1v-.1s.1-.1.1-.1c0-.1.1-.1.1-.2v-.1-.1c.1-.2.3-.3.4-.4h.1c.1 0 .1.1.2.2 0 0 0 .1.1.1-.1-.2-.1-.1-.1 0zm1.1 4c-.1 0-.2 0-.2 0 0-.1.1-.1.1-.1s.1 0 .1.1c.1-.1.1-.1 0 0 .1 0 .1 0 0 0zm1.8-1.1c-.1-.1-.1-.1 0-.1v.1c.1-.1 0-.1 0 0zm.8-11.4s-.1.1-.1.1h-.2v.1c0-.1 0-.1.1-.1v-.2c0-.1 0-.2.2-.1 0 0 .1 0 .1.1-.1 0-.1.1-.1.1zm0 40.1c0 .1 0 .1 0 0 0 .1-.1.1-.1.2v.4s-.1.1-.1.1v.2.1s0 .1-.1.1v.2s-.1.1-.1.2 0 .2-.1.3v.5c-.1 0-.1-.1-.2-.1s-.2-.1-.2-.1h-.1c-.1 0-.1-.1-.1-.1 0-.1-.1-.2-.1-.2 0-.1 0-.1 0-.2-.1-.1-.2-.3-.4-.4-.1-.1-.2-.2-.3-.4 0-.1 0-.1 0-.1s0-.1 0-.1 0-.1-.1-.1c0-.1 0-.1-.1-.1 0 0 0-.1-.1-.1 0-.1-.1-.1-.2-.2-.1 0-.1-.1-.2-.2 0 0 0-.1-.1-.1 0-.1 0-.1 0-.1h.1c.1 0 .1-.1.1-.1h1.3c.1 0 .1-.1.2-.1h.8s.1 0 .1.1c.1 0 .1.2.1.4zm.6-12.8c-.1.1-.1.1-.2.2 0 0 0 0-.1 0 0 0-.1 0-.1-.1v-.8s0-.1.1-.1v.2s0 .1.1.1 0 .1 0 .1c.1.2.2.3.2.4zm2.4 19c-.1 0-.1 0 0 0-.1 0-.1-.1-.1-.1-.1-.2-.1-.3-.2-.5 0 0 0-.1-.1-.1h.1c.1 0 .1.1.2.2v.2c0 .1.1.1.1.2zm-8.1 36.7c-.1 0-.2 0-.3 0 0 0 0-.1.1-.1h.1s.1 0 .1.1c0-.1 0-.1 0 0zm.9 0c.1-.1.1-.2.1-.2s0 .1.1.1 0 .1.1.1.1 0 .1-.1.1-.1.2-.1c0 0 .1.1.1.1s.1.1.1.1c.1 0 .1.1.1.1-.3 0-.6 0-.9-.1zm1-7v-.2c-.1 0-.1.1-.1.1v.2c0 .1 0 .1-.1.1h-.2c-.1 0-.1 0-.1-.1 0 0 0-.1-.1-.1v-.1c0-.1.1-.1.1-.1h.4s.1 0 .1.1h.5c0 .1 0 .1-.1.1h-.1c-.1 0-.2.1-.2.1s-.1 0-.1-.1zm.1 7.1s.1 0 .1-.1h.2s.1-.1.1-.1.1.1.1.1h.4s.1.1.1.1c-.3 0-.6 0-1 0zm1.2 0c0-.1 0-.2 0-.4v.3c.1.1.1.1 0 .1zm.5 0c0-.1 0-.1 0 0 .1-.1.1-.1.2-.1s0 .1.1.1c-.1 0-.2 0-.3 0zm.3-.1c.1 0 .1 0 0 0 0-.1.1-.1.1-.1 0-.1 0-.1 0-.2 0 0 0 0 .1-.1h.1v.1s0 .1.1.1c0 0 .1-.1.1-.1s0-.1.1-.1.1 0 .1.1v.1c-.2.2-.4.2-.7.2zm32.8.4c-2.2 0-4.5-1.4-6.7-1.4s-4.5.8-6.7.8c-.7 0-1.4 0-2 0 .1 0 .2-.1.3-.1h.1.1.1c.1-.1.2-.1.2-.1l.2-.2v-.1c-.1-.1-.1-.1-.2-.2 0 0 0-.1-.1-.1 0-.1 0-.2 0-.3 0 0-.1-.1-.1-.1s-.1 0-.1-.1c-.1-.1-.1-.1-.1-.2s0-.1.1-.1.1-.1.1-.1c0-.1-.1-.1-.2-.2 0 0-.1 0-.1-.1s-.1-.2-.1-.2c0-.1-.1-.1-.1-.2s0-.2 0-.3 0-.1-.1-.1h-.1c-.1 0-.1 0-.1-.1s0-.1.1-.1h-.3s-.1-.1-.1-.1.1-.1.1-.1v-.1c0-.1-.1-.1-.1-.2s-.1-.1 0-.2c0-.1 0-.1.1-.1h.1c0-.1 0-.1-.1-.1v-.1c0-.1.1-.2.1-.2 0-.1.1-.1.1-.2 0 0 0-.1.1-.1s.1 0 .1.1v.2c0 .1 0 .1.1.1 0 0 .1 0 .1.1 0 0 .1 0 .1-.1.1 0 .2-.1.2-.1s.1-.1.1-.1c.1 0 .1-.1 0-.2l-.1-.1s0 0-.1 0c0 .1-.1.1-.1.1h-.1s-.1 0-.1-.1 0-.1 0-.1h.1c.1 0 .1.1.2.1v-.2s0-.1.1-.1h.1c.1.1.1.1.1.2h.1c.1 0 .1 0 .1-.1.1.1.2.1.3.2h.1s.1-.1.1-.1 0-.1.1-.1c0 0 0 .1.1.1 0 .1 0 .1.1 0 .1 0 .1 0 .2-.1v-.1c0 .1 0 .1.1.1h.3c.1 0 .2.1.2.2v.3c0 .1 0 .1.1 0 .1 0 .1-.2.1-.3 0 0 0-.1.1-.1l.1.1v.1s.1.1.1.1c.1 0 .1 0 .2-.1 0 0 .1 0 .1-.1s.1-.1.2-.1h.2.1.1s.1.1.1.1h.1c0-.1.1-.1.2-.1h.3s.1 0 .1.1c.1.1.1.1.2 0s.2-.1.2 0c.1 0 0-.1.1-.2h.1c.1-.1.3-.1.4 0h.1s.1 0 .1-.1c0 0 .1-.1.1-.1h.1.6c.1 0 .1-.1.2-.1h.3c.1 0 .1.1.1.1h.5c.1 0 .1-.1.2-.1h.3s.1-.1.1-.1c.1 0 .2 0 .3-.1h.2c.1-.1.2-.1.2-.1.1-.1.2-.1.3-.2.1 0 .2-.1.2-.1.1-.1.1-.1.1-.1s.1-.1.1-.1h.1c.1 0 .1-.1.1-.1h.2c.1 0 .1 0 .1.1s.1.1.1.1.1 0 .1.1c0 0 0 .1.1.1h.1s.1 0 .1.1c.1-.1.1-.1.2.1 0 0 0 .1.1.1h.1.1c.1 0 .1-.1.2-.1 0 0 .1-.1.1-.1.1 0 .1.1.1.1v.1.1s.1.1.1.1h.1c.1 0 .1.1.2.1s.1.1.1.1 0 .1.1.1.2.1.2.1h.2s.1.1.1.1.1.1.1.1.1 0 .1-.1 0-.1 0-.1v.1.2s0 .1.1.1h.1c.1 0 .2 0 .2-.1s0-.1.1 0v.1s.1.1.1.1h.3c.1.1.2.1.2.2h.3s.1 0 .1-.1c.1 0 .1-.1.2 0 0 0 .1 0 .1.1-.1 0-.1.1-.2.1v.1c.1.1.1.1 0 .2 0 0 .1 0 .1.1 0 0 .1 0 .1.1v.1h.1s.1 0 .1 0v.1c0 .1.1.1.1.2 0 0 0 .1.1.1s.2.1.2.1v.1.1s0 .1.1.1c-.1.1-.1.1.1.1h.1.1c.1 0 .1.1.1.2v.2c0 .1.1.1.1.1h.1s0 0 .1.1c0 .1 0 .1.1.1.1-.1.1-.1.2 0 0 0 0 .1.1.1 0 0-.1.1 0 .1h.1.1v.1s0 .1-.1.1v.2c0 .1 0 .1.1.1h.2c.1 0 .1.1.2.1 0 0 .1.1.1.1 0 .1 0 .1.1.1s.1.1.1.1v.2c0 .1 0 .1.1.1.1-.1.2-.1.3 0 .1 0 .1.1 0 .2v.1c0 .1.1.1.2.2h.1c0-.1.1-.1.2-.1h.1s.1.1.1.1c0 .1-.1.1-.2.3v.1s.1 0 .1.1c.1 0 .2.1.2.2h.1c-1.1-.4-2.3-.3-3.4-.3zm3.8-.4c-.1 0-.2 0-.4.1s.1-.1.1-.1c0-.1.1-.2.2-.2h.1s0 .1-.1.1c0 0 0 .1.1.1zm1.6-6c-.1 0-.1 0 0 0-.1-.1 0-.1 0-.1zm58.7-74.5c0 .1-.1.1-.1.1-.1 0-.2 0-.3-.1 0-.4 0-.8 0-1.2-.1-.4.2-.8.2-1.2 0-1.6 0-3.3 0-4.9-.1-1.6.3-3.2.2-4.8 0-.1 0-.2.1-.3h.2v1.5 1.4c0 .5-.1.9-.2 1.4 0 1.3-.1 2.7 0 4.1s-.2 2.7-.1 4zm1.4 39.3c-.1.4-.2.8-.1 1.2 0 .2-.1.3-.2.4-.1.6-.5 1.1-.4 1.6-.1.2-.2.3-.4.5.1-1.9-.2-3.6.2-5.2.1-3.1 0-6.2.1-9.3.2-3.4 0-6.8 0-10.2 0-.1-.1-.3.1-.4.1 0 .1-.2.2-.2.4.3.2.6.2.9v18.8c0 .3-.1.6.1.8.3.3.3.7.2 1.1zm121.4-79.6c-.6.2-1.3.3-1.9.3-1 .1-2 0-2.7.8-.2.2-.5.2-.7.2-2.4-.3-4.7-.3-7.1 0-.2 0-.3 0-.5 0-.2-.4.1-.6.3-.8 1.3-1.8 1.7-3.9 2.4-5.8.2-.6.5-1.3.8-1.9.4-.8 1.1-1.5 1.9-1.9 1.5-.9 3-1.7 4.6-2.3 1-.4 2.2-.1 3 .6v10.8zm-.1-14.2c-.6.2-1.3.2-2 .1-3.7-.7-6.9.8-10.1 2.3-.3.1-.7.4-.7.7-.2 1-.6 1.9-1.3 2.6-.9 1.5-1.5 3.1-1.8 4.7-.1.2-.1.5-.2.8-.8 3.1-2.2 4.1-5.3 3.7-1.5-.2-3-.1-4.4-.3-.5-.1-.8.3-1.2.5-2.7-.3-5.4-.1-8-.2-.5-2.7.1-44.5.6-46.1 1 .9 2.2.8 3.3.8 4.6.2 9.2.5 13.7.7 1.2.1 2.5 0 3.7.1 4.4.3 8.7.4 13.2 1 .3.7.4 1.5.4 2.3 0 5.4 0 10.8.1 16.2.1 2.9.2 5.8.1 8.7.2.5.1 1-.1 1.4zm2.8 14.3c.2-3.1-.2-5.9-.1-9.1.9.5 1.7 1.1 2.4 1.9.6 1 1.1 2 1.4 3.1.4 1.6 1.2 3.1 2.4 4.4-2.2-.1-4.1-.6-6.1-.3z" fill="#ededed"/></svg>