<?xml version="1.0" encoding="utf-8"?>
<!-- Generator: Adobe Illustrator 23.0.1, SVG Export Plug-In . SVG Version: 6.00 Build 0)  -->
<svg version="1.1" id="Layer_1" xmlns="http://www.w3.org/2000/svg" xmlns:xlink="http://www.w3.org/1999/xlink" x="0px" y="0px"
	 viewBox="0 0 1921 511" style="enable-background:new 0 0 1921 511;" xml:space="preserve">
<style type="text/css">
	.st0{fill:#EDEDED;}
</style>
<g>
	<path class="st0" d="M1238.7,357.4c-0.1-0.3-0.2-0.5-0.2-0.8c-0.1-0.1-0.2-0.1-0.3-0.2c-0.7,0.4-0.7,1,0,1.4
		C1238.4,357.7,1238.6,357.5,1238.7,357.4z"/>
	<path class="st0" d="M1594.6,179.7c0,0.1,0,0.1-0.1,0.2C1594.6,179.8,1594.7,179.8,1594.6,179.7
		C1594.7,179.7,1594.7,179.7,1594.6,179.7z"/>
	<path class="st0" d="M724.6,356.4L724.6,356.4c0.7-0.4,0.7-1,0-1.4C723.9,355.4,723.9,355.9,724.6,356.4z"/>
	<polygon class="st0" points="1238.2,357.8 1238.2,357.8 1238.2,357.8 	"/>
	<path class="st0" d="M760.1,301.3c0.1-0.3,0.1-0.5,0.1-0.8C760,300.8,759.9,301.1,760.1,301.3z"/>
	<path class="st0" d="M864.4,238.6c-0.1-0.1-0.2-0.1-0.3-0.2c-0.1,0-0.2,0.1-0.2,0.2c0,0.1,0.1,0.3,0.1,0.4L864.4,238.6z"/>
	<polygon class="st0" points="942.5,211.1 942.5,211.1 942.5,211.1 	"/>
	<path class="st0" d="M1518.1,195.8C1518.1,195.8,1518.1,195.8,1518.1,195.8C1518.2,195.8,1518.2,195.8,1518.1,195.8
		C1518.1,195.8,1518.1,195.8,1518.1,195.8z"/>
	<path class="st0" d="M1385,162.3L1385,162.3C1385,162.2,1385,162.2,1385,162.3z"/>
	<path class="st0" d="M1835.8,114.5c0,0.2,0.1,0.3,0.1,0.4c0.1-0.1,0.1-0.2,0.1-0.3c0,0-0.1,0-0.1,0L1835.8,114.5z"/>
	<path class="st0" d="M1084,280.1c0.1,0,0.2,0,0.3,0.1c0-0.1,0-0.1,0-0.2C1084.3,280,1084.2,280,1084,280.1
		C1084.1,280.1,1084.1,280.1,1084,280.1C1084,280.1,1084,280.1,1084,280.1z"/>
	<polygon class="st0" points="1561.5,155 1561.5,155 1561.5,155 	"/>
	<path class="st0" d="M1918.3,181.2c-0.6-1-2.4,0.4-2.3-1.5l1.1-1.2c0.7-0.7-0.7,0.4-0.3-0.6h-6.1c-1.4,1.7-3.9,1.6-4.9,3.6
		c-0.3,0.7-0.7,0.7-1,0.1c-0.4-0.8-0.3-1.9,0.4-2.5c0.8-0.6,0.9-1.8,0.3-2.6c0,0,0,0,0,0c-1.8,1.5-3.9,1.3-6.2,0.9
		c-0.3-0.7-0.6-1.6-0.8-2.5c-1.1-0.9-2.8,0.6-3.8-1c2.8-2.5,5.4,0.7,7.8,0.7c1.8-2.3-1.3-3.1-0.7-5c-0.4-0.9,1.6-0.7,1-1.9
		c-1.8-1.7-3.5,0.7-5.5,0.4c0.8-1.6-0.6-2.2-1.1-3.1l2.3-2.3h4.7c-0.3-0.8-0.7-1.6-1.1-2.3c1-0.9,1.7-1.7,0.8-3.1
		c-1.1-1-2.8,0.4-3.8-1c0-0.7-0.3-1.5,0.6-2c1-0.2,2-0.3,3-0.3c1.1-3.2,5.1-3.5,6.1-6.7c-1-1.3-2.8,0.4-3.9-1.3
		c3.5-3.4,6.6-7,8.2-11.9c-1.6,1.5-3.9,1.9-3.9,4.8c0,0.1-0.3,0.3-0.6,0.6c-3.7,0.3-5.1,3.6-7.2,6c-0.6-0.4-1-1-2.1-1.9v6.8
		c-1.8-0.9-3.1-1.6-4.4-2.1c1.8-1.4,2.1-3,0.8-4.9c-2.5,1-2,4.6-4.5,5.4c-0.6-0.4-1-0.9-2-1.7v7.6c0.5-0.2,1,0.1,1.2,0.6
		c0,0.1,0,0.2,0.1,0.3c-0.1,0.2-0.2,0.4-0.4,0.4c-0.5,0-0.9-0.5-0.9-1c0-0.1,0-0.2,0.1-0.3c-2,0-1.6-1.6-1.4-2.6
		c0.4-2.9-0.8-5.1-2.3-7.6c-1.8,3.1,0.8,5.7,1,9c-2.1,0.7-1,4.3-3.9,5c-0.8-1.9-1.6-3.6-2.4-5.3c-1.3-0.6-3,0.7-3.8-1.6
		c0.6-2.1,3.7-3.1,3.2-5.9h3.2c1-1,0.6-2.7,2-3.4c1.4-0.7,1.7-2.1,1.7-3.9c-1.6,0.1-2.1,2.9-4.4,1.1c1.1-1.1,2-3.3,4.4-1.1
		c0.8,0.3,1.7,0.4,2.5,0.3c-1-2.4,1.4-4.3,1.6-6.9c-0.4,0-5.6,0.4-5.6,0.4c0.6-1.3,2.3-0.1,2.7-1.4c-0.4-0.6-0.8-1-1.3-1.6
		c1.8-1,4.8,0,5.4-3c-1.1-1-2.8,0.4-3.8-1c2.4-3.7,6.9-5.7,7.7-10.7c-2.3,2.6-4.4,5-6.6,7.6l-1.8-1.9c-2.3,0.7-3,4-5.6,4.1
		c-0.6-0.6-1.1-1-1.6-1.4c-1.3,4.7-1.3,4.7-5.2,6.6c1.1-2.6,2.3-5,3.2-7c-0.4-2.4-2.5-4-1.3-6.3c1-1.3,2.8,0.4,3.8-1
		c0.3-0.9,0.4-1.7-0.4-2.1c-0.7,0.4-1.3,0.7-2.1,1.3c-0.4-2.9,2-3.4,2.3-4.7c0.3-1.9,3.4-3,1.3-5.3c-2.8,2.6-5.1,5.8-6.5,9.4
		c-0.3,0.6-0.7,0.7-1,0.1c-0.6-0.3-0.7-1.1-1.6-0.9c-0.8,1.9-3.5,1.7-3.5,4.6c-0.8-0.8-1.5-1.6-2.1-2.4c1.3-2.6,3.4-2.3,5.6-2.1
		c0.1-1.4-2-1.6-1.3-3.9l4.1-4.1c-1.3-0.4-2.1-0.7-3.2-1.1c2.4-2.3,4.5-4.4,6.6-6.6c1-1,1.1-1.9-0.1-3c-3.2,3.4-6.5,6.7-9.7,10.1
		c-0.1-2.4-2.3-3.6-3.5-5.3c1.3-0.7,2.4-0.1,2.7-1.3c0.3-0.9-1.8-0.9-0.6-2c1.1-0.4,2.4,0.4,3.4-0.4c0.3-1.4,0.8-2.7-0.4-3.9h-2.3
		c0.2,0.5-0.1,1.1-0.6,1.3c-0.1,0-0.2,0.1-0.3,0.1c-0.2-0.1-0.4-0.2-0.5-0.5c0-0.6,0.5-1,1.1-1c0.1,0,0.2,0,0.3,0.1
		c0.9-3.1,5.7-0.2,5.8-4.1c-1.5-1.1-4.4,0.3-5.8-3.4c1.5-3.4-2.1-6.1-3.1-9.8c0.5-2,4.1-2.4,2.6-5.5c-1.8,0.9-3.5,1.8-5.1,2.6
		c-0.8-0.3-0.8-1.4-1.7-0.9l-0.9,2.8c-0.9-0.9-1.7-2.1-3.4-1.5c-0.5,0.9-0.9,2-1.4,2.9h-1.1v-7.2c-0.5-0.1-1.1-0.3-1.6-0.6
		c-0.7,1.2,0.3,3-2.2,5.2c1.4-6-2-10.1-1.2-13.5c-1.3-5-4.7-7-6.2-8.9c-1.7-3.6,0-5.9,0.7-7.8c-0.7-1.3-1.6-0.9-2.6-1
		c-1,2.2,0.6,5-1,6.3c0.4,4.3,4.2,6,5.6,9.4c1.6,3.3,2.9,6.8,2.2,10.5c-0.7,3.9,3,7.3,1,11.1c-4.6-2-8.9-3.9-13.4-5.8
		c1.2,2.2,2.3,3.7,4.5,4.7c1,0.4,3.6,0.1,3.3,2.4c1.2,0.3,2.4-0.6,3.2,1.3c-1.2,0.1-2,0.7-3.2-1.3c-1,0.3-2.6-0.3-3.7,0.6
		c0.7,2.6,4.3,2,4.9,4.2c0.9,2.7,4,2.6,4.9,5c-0.1,1.2,0.6,2.4-0.6,2.9c-1.9,2.6-2-1.9-3.5-0.6c-1.3,3,1.9,1.9,2.6,3
		c0.1,2.4,0.9,5-2.3,6.3c-2.6-2.9-1.7-6.5-2.3-10.8c-0.9,1.9-1.3,2.9-1.9,3.9l-3.6-3.7c-0.6,2,2.2,3,1.4,5.2
		c0.5-0.2,1.1,0.1,1.2,0.6c0,0.1,0,0.2,0.1,0.3c-0.1,0.2-0.2,0.4-0.4,0.4c-0.5,0-0.9-0.5-0.9-1c0-0.1,0-0.2,0.1-0.3
		c-0.9,0.1-1.9-0.4-2.7,0.6c-0.1,0.9-0.2,1.8-0.3,2.7c-0.4,1.7-2.6,0-3.3,3c1,0.7,2,1.4,3.7,2.6c-4.2-0.6-6.8-3.3-7.2-5.6
		c-0.6-3.9-3.7-4.9-5.2-7.3c-1,0.4-1,1.4-2.2,0.9c-1.1-1.3-2-2.8-2.7-4.3c-0.6-1.7-0.9-3.3-3.5-3.2c0.7,1.7,1.2,3.6,2.2,4.7
		c1.6,2,0.6,4,0.9,6c0.5-0.2,1.1,0.1,1.2,0.6c0,0.1,0,0.2,0.1,0.3c-0.1,0.2-0.2,0.4-0.4,0.4c-0.5,0-0.9-0.5-0.9-1
		c0-0.1,0-0.2,0.1-0.3c-0.9,0.1-1.9-0.4-2.6,0.4c0.9,2.9,5.2,2,5.5,5.3c0.3,2.4,6,1.4,3.9,5.6c-2.2,1.6-2.9-3.2-5-0.7
		c-1.2,2.2,2.7,3.5,1.3,5.8c-0.2,0.4-0.5,0.7-0.9,1c-0.4-1-0.7-1.9-1-2.7c-1-0.2-2.1-0.3-3.2-0.3c-2.4-1.7-3.7-4.5-6.5-5.6
		c-0.6,3.6,3.3,4.3,4.3,6.9c-0.3,0.9,0.4,2.3-0.9,3c-2.7-2.7-5.5-5.5-8.2-8.1l-0.4-0.4c-0.1,0-0.3,0.3-0.6,0.4c-1,2.7,2.6,3,2.7,5
		c-1.4,0.3-2.5,1.3-2.9,2.6c-1.6,3.9-5,6.2-7.3,9.6c-0.5,1.3-1.9,2.1-3.3,1.7c1.4-2.7,3.5-5.3,1.3-8.2c-0.7-0.3-2,0.6-1.9-1.2
		c1.6-0.3,3.1-1.2,4-2.6c-2.7-0.1-2.9-2.9-3.5-4.2c-0.9-3.5,3.5-5.6,1.6-9.4c-1.2,0.1-1.3,1.6-2.4,1.3c-0.6,1.4,1.3,3.6-1.4,4.3
		c0.2,0.5-0.1,1.1-0.6,1.2c-0.1,0-0.2,0-0.3,0.1c-0.2-0.1-0.4-0.2-0.4-0.4c0-0.5,0.5-0.9,1-0.9c0.1,0,0.2,0,0.3,0.1
		c0-1.2,0-2.4-0.1-4.7c-0.6,2-3.5,4.5-2.7,8.3c-2.2-2.3-0.4-4.9-2.6-5.8c1.7-2.3,4.3-3.5,5.3-4.2c0.9,2,1.3,2,1.7,2
		c-0.9-2.4,3.2-4.5,0.9-7c-0.7-0.3-1.9,0.3-2.2-1.2c2.3-1.2,3-3.6,3.9-6c-2.4-0.6-4.2,2.6-6.6,1c-1-2.3,1-7.2,1-7.2h-2.3
		c0,0-3.5,7.5-3.9,12.5c-0.7-1.9-1-2.6-1.4-3.7c-1,0.9-1.9,2.4-3.5,1.2c-0.6-1-0.3-2.2-1-4.3l4-4c-1-0.7-1.7,1.3-3,1.3
		c-1.2-1.2,0.4-2.9-1-3.9c-1.7,0.9-0.3,2.6-1.2,3.9c-2.4,0.3-3,2.9-4.6,4.2c-1.7,1.4-3.6,2.6-4.5,5.3c-1.4-2.7-0.9-4.6,1-5.5
		c1.7-0.9,2.4-2.3,3.6-3.5c2-2.3,2.6-5.3,4.5-7.5c0.3-0.4,0.3-0.7-0.3-1h-2.9c-1.2,0.7-1.9,2.1-3.9,3.1l0.7-2.9
		c0.1-0.6,1.6-0.6,0.6-1.4c-0.7-0.4-1.9,0-2.3-1c2.6-2.9,7.5-0.7,9.9-4.5c-1-0.7-1.6-1.4-1.3-2.7c2.3-2.9,6.2-4.9,6.9-10.8
		c-3.7,2.9-5.9,6-9.5,6.9c-1.4-3.3,2-5.2,2.2-8.1c-0.8-0.5-1.9-0.3-2.4,0.4c-1.6,1.7-2.6,3.8-2.9,6c-0.7,3.3-2.4,6.3-4.9,7.5
		c-3.6,0.9-1-2.7-2.7-2.4c-1.2,0.3-1.2,1.4-2.2,0.9c-0.3-2-0.1-4,0.7-5.9c1.1-2,1.8-4.1,2-6.3c-2.7-0.7-4.9,3-7.1,0.6
		c1-2.7,4.2-3,5.6-5.6c1.4-2.4,3-4.6,4.9-6.6c1.9-2,3.6-4,3.9-8.3c-5.6,6.3-9.2,13.1-17.3,15c1.9-1.9,1.9-4.2,2.9-6.2
		c-1.6-1-2.7-0.6-3.9-0.6c-1.3,2.2-2,4.5-3.7,6.9V41c-1.2,1.2-1.8,1.7-2.7,2.6c0,3.9-0.7,8.1,2.3,12.8c-2.6-1.3-5.6-2.6-5.6-2.6
		v-7.5c-1.1-0.7-2.8,0.1-2.5-1.9c0.3-1.9,2.3-2.3,2.8-3.9c-0.4-1.4,0.7-3.3-0.7-4.6c-0.6,0.4-1.1,0.9-1.6,1.4c-1.6-1.9,0.7-5-2-6.5
		c1.6-1.2,2.4-2.9,4.2-3.7c2.4-1.2,4.8-5.3,5.8-8.5c-1.6,0.3-2.9,1.5-3.4,3c-1,2.4-3,3.3-5.1,4.2c0.2,0.5-0.1,1.1-0.6,1.2
		c-0.1,0-0.2,0-0.3,0.1c-0.2-0.1-0.4-0.2-0.4-0.4c0-0.5,0.5-0.9,1-0.9c0.1,0,0.2,0,0.3,0.1c-0.3-3-3.4-0.1-4.2-2.3
		c0-2.3,1-5.6-0.1-6.9c-2.3-2.6-0.1-5.6-1.7-7.9c-1.8-2.7-0.6-5.9-1-8.8h-1.4c0.4,4.7-0.8,9.6,0.8,14.2c-0.7,0.1-1.3,0.3-3,0.7
		c2.8,4.6,1.1,10.1,3.5,14.7c-1.4,1-3.1,1-3.7,0.6c-3.5-3.6-8.6-5-11.8-9.1c-0.8-1-1.8-1.3-2.8-0.3c3.2,4.9,8.5,7.2,12.5,10.9
		c1.1,0.3,2.7-0.7,2.8,1.4c0.5-0.2,1,0.1,1.2,0.6c0,0.1,0,0.2,0.1,0.3c-0.1,0.2-0.2,0.4-0.4,0.4c-0.5,0-0.9-0.5-0.9-1
		c0-0.1,0-0.2,0.1-0.3c-1.1-0.3-2.7,0.7-2.8-1.4c-1.3,0.1-2.7-0.4-4.8,1c4.4,0.3,5.2,5,9,5.3v1.8c0.5-0.2,1.1,0.1,1.2,0.6
		c0,0.1,0,0.2,0.1,0.3c-0.1,0.2-0.2,0.4-0.4,0.4c-0.5,0-0.9-0.5-0.9-1c0-0.1,0-0.2,0.1-0.3c-1,0.1-2.3-0.6-3,1.4c0.1,2,4,2.7,3,5.8
		c0.5-0.2,1.1,0.1,1.2,0.6c0,0.1,0,0.2,0.1,0.3c-0.1,0.2-0.2,0.4-0.4,0.4c-0.5,0-0.9-0.5-0.9-1c0-0.1,0-0.2,0.1-0.3
		c-1.6-1.6-3.9-1.2-4.3-1.4c-3.5-2.9-1.9-6.9-5.2-8.5l-1.2,1.2c-1.4-2-3.3-3.6-5.5-4.6c2.3,4.5,3,8.8,5.8,12.3
		c0.3,0.4,0.1,0.7-0.4,1h-2.7c-0.7,0-0.9-1.9-1.9-1c-0.9,1.3,0.6,3-1.4,4c0-2.9-2.2-5-2-6.5c-1.9-1.9-3.2-3-4.2-4
		c-0.1,0.9,0,1.9,0.3,2.7c0.6,1,1.7,1.7,0.4,3.5l-14.3-14.3c1.2,5.5,4.5,7.1,6.8,9.5c2.5,2.6,3.6,6.2,6.9,8.2
		c-2.2,1.4-4.3-0.3-5.8,1.3c0.9,2.9,3.9,1.7,5.6,2.9c0,1-0.1,1.7,0.6,2.2c1.7,0.7,3.9-0.7,5.5,1c1.7,2,5.2,2.5,5,6.1
		c-0.2,0.2-0.4,0.3-0.6,0.3c-0.6-0.1-1.2-0.6-1.9-0.7c-2.2-0.4-3.6-2.3-5.6-4.2c-0.4,5.2,4.6,4.3,5.6,7.2c-1.3,2.6,3.3,4.8,1,7.5
		c-2.2-1-4.3-2.2-6.9-3.3c1.2-2.3-0.7-3.6-2.2-5.2c-1.6-1.7,0.7-4.9-2-6.3c-0.4-0.3-0.7-0.6-1.2-0.1c-0.5,0.8-1.4,1.2-2.3,1
		c-2.2-1.9-4-4-6.3-5.8c-4-3-4.2-2.9-7.1-2c5.2,2.6,8.2,7.6,12.7,11.4c-1.7,1.3-3.5,0-4.5,1.3c-0.6,1.7,1,2.5,2,3.6
		c2.2,0.4,4.5-0.4,6.6,0.6c-0.6,1.6-2.6,0.1-2.7,1.9c1.2,2.6,5.8,1.6,5.5,5.5c-0.1,1.7-3.2,0-2.9,2.3c1.2,0.3,2.7-0.7,2.9,1.4
		c0.5-0.2,1.1,0.1,1.2,0.6c0,0.1,0,0.2,0.1,0.3c-0.1,0.2-0.2,0.4-0.4,0.4c-0.5,0-0.9-0.5-0.9-1c0-0.1,0-0.2,0.1-0.3
		c-1.2-0.3-2.7,0.7-2.9-1.4c-2.2,1.2-3.3-2.9-5.8-0.7c3.9,3.2,5.3,7.2,4,12.1c-1.9-0.1-0.4-3.6-3.2-2.7c-1.4,0.4-0.3,2.3-1.4,2.9
		c-3.5-3.3-6.8-6.6-10.4-10.1c-0.9,1.4-0.6,2.3,0.3,3l8.1,8.1c0.9,0.9,1.7,1.6,0.7,3.3c-0.9,0.6-2.6-0.6-3.7,0.7
		c1.2,1.6,3.6,2.5,2.9,5c0.5-0.2,1.1,0.1,1.2,0.6c0,0.1,0,0.2,0.1,0.3c-0.1,0.2-0.2,0.4-0.4,0.4c-0.5,0-0.9-0.5-0.9-1
		c0-0.1,0-0.2,0.1-0.3c-1.4-0.7-2.7-1.3-4.2-2c-0.1-1.2-0.1-2.3-0.3-3.3c-2.7-0.8-4.3-3.4-4-6.2c0.1-2.2-0.9-3.2-2.6-4.5
		c-0.7,2.7,0.4,5.2-0.7,6.9c-4.9-0.4-6.1-6.1-11.5-7.1c3.7,5.5,10.8,8.5,8.4,16.9c-2.2-3.5-3.7-6.3-5.8-9.2c-0.7-1-1.7-2.5-3.5-1.2
		c1,2.2,1.9,4.6,4,5.9c-0.1,1.7,0.4,3.5-0.6,5.2c-4-3.9-9.7-5.6-13.6-9.8c0.6,4.2,4.6,5.6,6.3,8.8c1.7,3.3,4.6,6.1,5.3,9.4
		c2.2,1.3,3.2-2.9,5.2-0.4c-0.4,0.4-0.9,1-1.6,1.7c1.6,0.3,2.9,0.4,4.3,0.7c-1.4,2-1.4,4.2-0.9,6.5c2.3,0.6,4.9,0.7,6.6,2.9
		c-0.9,0.7-2.7-0.1-2.6,1.9c2.2,0.1,1.2,1.7,1.4,2.9h3.3c-0.2-0.5,0.1-1.1,0.6-1.2c0.1,0,0.2,0,0.3-0.1c0.2,0.1,0.4,0.2,0.4,0.4
		c0,0.5-0.5,0.9-1,0.9c-0.1,0-0.2,0-0.3-0.1c-0.3,2.4,1.3,5.6-2.4,6.9c-0.6-2.3-1.3-4.6-1.8-6.9c-2.1-0.1-1.1-1.7-1.4-2.9
		c-0.8-0.1-1.7,0.3-2.7-0.4c-2.1-1.6-2.8-4-4.4-6c-0.3-0.3-0.6-0.5-1-0.6c-0.5,0.9-1.4,1.3-2.4,1.1c-1.3-0.9-2.3-2.2-2.7-3.7
		c-0.5-1.7-2.3-2.6-3.9-2c0,0,0,0-0.1,0c1.3,2,1.7,4.4,3.8,6c0.8,0.7,0.3,1.7,0.4,2.6c0.5-0.2,1,0.1,1.2,0.6c0,0.1,0,0.2,0.1,0.3
		c-0.1,0.2-0.2,0.4-0.4,0.4c-0.5,0-0.9-0.5-0.9-1c0-0.1,0-0.2,0.1-0.3c-2.8-1.1-4-4.2-6.5-5.6c-0.8,0.6-0.8,1.7-0.6,1.9
		c2.4,1.6,2.7,4.7,4.8,6.5c1.1,0.9,1.1,1.9,0.4,2.6c-3.7-0.9-3.3-5.2-6.9-6.5c0.8,2.3,2,4.4,1.6,6.9c0.5-0.2,1,0.1,1.2,0.6
		c0,0.1,0,0.2,0.1,0.3c-0.1,0.2-0.2,0.4-0.4,0.4c-0.5,0-0.9-0.5-0.9-1c0-0.1,0-0.2,0.1-0.3c-3.4-1.9-5.4-5.2-8.2-7.6
		c-1-0.9-1.7-1.6-3-0.4c3,4.2,7.9,6.7,9.5,11.9c-1.1,1-3-0.4-3.8,1c1.1,2.2,3.3,2.3,5.2,2.4c1,3.4,3.7,6.2,3.7,9.7
		c4.4,0.7,4.4,0.7,6.7,5.2c-0.4,0.7-1.1,1-1.8,0.7c-2.6-1.9-5.1-3.9-7.5-5.9c-1.1-0.9-2-2.2-3.4-0.6c3.7,3.4,6.8,7.6,11.5,9.9
		c-1.1,1.9-3.5-0.3-4.2,1.9c0,0.7,0,1.4,0.7,1.9c3.7,2.2,8.1,3.3,10.6,7.2c0.5-0.2,1,0.1,1.2,0.6c0,0.1,0,0.2,0.1,0.3
		c-0.1,0.2-0.2,0.4-0.4,0.4c-0.5,0-0.9-0.5-0.9-1c0-0.1,0-0.2,0.1-0.3c-1,0.1-2.3-0.6-2.8,1c-0.3,1.6,1.7,2.4,2,4.9h0.1
		c1.1,0.3,1.1,1.6-0.1,1.3c0.1,1.1-0.4,0.7-0.4,0.7c0.1-0.3,0.1-0.6,0-0.9c-2.4-1.3-5.1-2-6.1-1c-1.6,1.4-2.8-0.3-4.3,0.6
		c-1.1,0.6-3.4-0.9-5.1-1.3c1.1-2.4,4.7-3.2,4.1-6.6c-4.1,2.3-6.5,6.3-9.1,10c-1.8-1.6-3.4-3.2-4.8-4.4c-1.2,0.3-1.8,0.7-1.7,1.4
		c-1.7,0.4-3.4-0.6-4-2.3c1.3-1.7,3.5-2.9,4.1-4.9c-0.3-1.1-0.7-1.5-1.4-1.4c0.4-1,1-1.9,1.4-2.9c-3.1-1.3-3.5,3.7-6.9,2.6
		c-0.3-2.7,0.7-4.7,2-7.3c1.3-2.6,5.9-2.2,4.8-6.2c-1.3-1-2.7-0.3-4.1-0.4c0.2,0.5-0.1,1.1-0.6,1.2c-0.1,0-0.2,0-0.3,0.1
		c-0.2-0.1-0.4-0.2-0.4-0.4c0-0.5,0.5-0.9,1-0.9c0.1,0,0.2,0,0.3,0.1c0.7-2.4,3.1-4.3,2.8-7.2c-2.7,0.9-3.8,3.4-5.7,6.7v-15.3
		c0-2.4,0.1-4.7,0-7.2c-0.1-2.3,0.8-5-0.6-6.9c-1.8-2.3-0.3-4,0.4-6.5c-1.4,0.9-1-1.6-2.7-0.4c0,7.2,0.3,14.6-0.1,21.9
		c-0.1,2.3,2.4,4,1.4,5.7c-2,3.3-0.6,7.2-1.8,10.6c-4.4-3.2-8.5-5.9-13.6-6.9v1.9c7,2.6,11.4,8.3,15.9,13.7c0.1,0.1-0.3,0.9-0.4,1.2
		c-1.6-0.9-3.2-1.6-4.7-2.3c-0.9,0.6-1.2,1.5-2,1.2c0.1,1.7,2.2,2.2,2.8,3.8c-0.9,0.9-1.9,1.6-1,3.1c0.9,0.3,1.8,0.6,2.5,0.9v7.9
		c-1,0.3-1.9,0.7-3.5,1.3c2.8,0.6,2.2,2.2,1.9,3.5c1.3,0.4,2.6-0.6,3.2,1c-1,1-1.9,0.9-3.2-1c-0.7-0.1-1,1.2-2,1.6
		c-2.5-3.8-5-7.7-9.2-10.2c0,1.2-0.1,2.2,0.9,3.2c0.9,0.7,2,1.2,2,2.6c1,0,1.5,0.4,1.5,1.5c2.2,0.1,1.2,1.7,1.5,2.9
		c0.5-0.2,1.1,0.1,1.3,0.6c0,0.1,0,0.2,0.1,0.3c-0.1,0.2-0.2,0.4-0.4,0.4c-0.5,0-1-0.5-0.9-1c0-0.1,0-0.2,0.1-0.3
		c-2.2-0.1-1.3-1.7-1.5-2.9c-1,0-1.5-0.4-1.5-1.5h-4.4c1.6,1.9,1.6,4.2,1.5,6.7c3.4,2.2,4.5,6.1,7.3,8.9c-1.2,0.4-2,0.7-2.9,1
		c0.7,1.7,3.4,2.3,2.9,4.7c-2,0.3-3.1,1.5-3.5,3.8c-1.3-1.3-2.5-2.3-3.5-3.5c-0.9-1-1.8-1.5-3.1-0.4c0.9,2.2,3.7,2.9,4.2,5.4
		c0,0,0,0,0.1,0c-0.9,0.1-1.8-0.4-2.5,0.4c-0.4,0.7,0,1.9-1,2.3c-2.2-5-6.9-7.6-9.8-11.2c-2.3,0.6-2,2.6-3.1,3.8
		c-1,1.2-2.5,1.7-3.7,2.6c2.2,2,1.3,4.2,0.9,7.1c-1.3-2.6-2.3-4.7-3.4-6.6c-1.5,1.7,0.1,3.9-1.2,5.5c-1.6-0.9-3.2-1.6-5-2.5
		c-1.5,3.1,2.3,3.3,2.5,5.4c-0.3,1.5,0.9,3.3-0.7,4.5h-2.8c-1.3-2.2,0.7-5.1-1.8-6.5c1.3-1.2,2.1-2.2,0.7-3.5
		c-1.8,1.3-3.3,4.8-6.4,1.7c2.5-2.8,4.3-6,7.1-8.3c-0.6-1.3-2.5-0.1-2.8-1.7c1.3-3.8,2.1-7.7,4.3-10.6c-0.4-2.2-2.2-0.9-3.1-2.5
		c0.4-1.9,2.1-3.8,1.5-6.2c-2.2,0.4-1.4,3.8-3.8,4.2c-1-0.7,0-3.8-3.2-2.2c0.3,1.6-0.2,3-0.8,4.5c0.1-0.1,0.2-0.2,0.3-0.3v0
		c0.7,0.4,0.7,1,0,1.5c-0.3-0.2-0.5-0.6-0.4-0.9c-0.4,1-0.8,2.1-1,3.2c-1.7,0.4-3.5-0.4-4.9,2.5c-0.1-2.8-0.3-4.5-0.3-6.1
		c-1-0.6-1.3-2-2.7-2c0.1,2.3-0.4,4.8,1.3,7.3h-4v1.2c0,0,1,0.4,1,1.4c0.5-0.2,1.1,0.1,1.2,0.6c0,0.1,0,0.2,0.1,0.3
		c-0.1,0.2-0.2,0.4-0.4,0.4c-0.5,0-0.9-0.5-0.9-1c0-0.1,0-0.2,0.1-0.3c-1,0-1.4-0.4-1.4-1.4c-0.4-0.1-1.2-0.3-1.2-0.4
		c-0.1-0.9,0.4-1,1.2-1c-0.1-0.9,0.4-1.9,0.3-2.2c-1.7-1-1.6,1-2.9,0.1c-1-2.3,2.2-3.2,2-5.7h3.6c0.3-0.8-1-1-1.3-1.9
		c1.3-1,3.5-0.9,4-3c-0.7-0.9-1.7-0.3-2.7-0.4c0.2,0.5-0.1,1.1-0.6,1.2c-0.1,0-0.2,0-0.3,0.1c-0.2-0.1-0.4-0.2-0.4-0.4
		c0-0.5,0.5-0.9,1-0.9c0.1,0,0.2,0,0.3,0.1c0.2-2.8,1.5-5.4,3.6-7.2c1-1,1.2-1.9,0.1-2.9c-3.2,1.9-4.2,5.5-6,8.8
		c-0.6-1.6-0.9-2.3-1.2-3.3c-2.2,2.4-4,4.9-6,7.2c-0.7-0.7-1.2-1.4-2.7-1.2c-1.3,2.7-2.7,5.6-4.3,8.6c-0.4-1-0.9-2-1.4-2.9
		c-0.6,0.4-1.1,0.9-1.6,1.4c-0.4-2-1.6-3.2-4.2-3.7c1.4-1,2.6-1.9,3.6-2.6c-0.6-0.7-1-1.3-1.3-1.6c0.3-1.4,2.6,0.3,2.4-1.7
		c-0.9-0.3-1.8-0.6-2.6-1c0.6-0.6,1-1.2,1.4-1.6c-0.4-0.4-0.9-1-1.3-1.4c1.2-1.3,2.3-2.4,3.5-3.6c1.2-0.3,2.4,0.4,3.5-0.6
		c0.1-0.7,0.3-1.4,0.6-2c0.9-1.3,3.2,0.7,3.6-1.6c-0.9-0.3-1.7-0.6-2.7-1c1.1-0.5,2.2-1,3.3-1.6c-1.7-6.2,5.2-9.2,5.6-16
		c-2,2.6-3.6,3.9-4.6,5.9c-1.2,2.2-1.7,4.6-3.3,6.5c-0.9,1-1.9,2.4-3.6,0.6c0-2.7,3.3-4.6,2.7-8.1c-4.9,3.3-3.9,9.6-7.6,13.1
		c-2.2-1.7,1.3-2.7,0.1-4.2c-1.9-1.2-2.3,1.6-3.7,0.9c0,0,0,0.1,0,0.1c0,0,0,0,0-0.1c-0.4,2.2,0.6,4.3-0.7,6h-1.6
		c-2-2.6-0.2-4.2,2.3-6c-0.1-0.9-1-0.9-1.9-1c-0.6-0.1-1.1-0.7-1-1.3c0,0,0-0.1,0-0.1c-0.1-2.2,2.6-0.6,2.9-2.3
		c0.6-1.3-1.2-1.7-1-2.9c0.1-1.7,3.7-1.9,1.7-4.9l-5.2,5.2c0.1-4.7,0.9-7.9,4-9.4c2.2-0.9,3.3-2.6,4.9-3.9c1.4-1.3,2.7-2.7,4.2-4.2
		c-4.7,0.1-6.2,4.6-9.4,6.2c-1.7-0.1,0.3-2.4-2.4-2.3c0,0,0.1,1.4-1.3,0.4c1.4-8.6-1.9-17.4-1.3-26.3c0.1-0.8-0.4-1.6-1.2-2
		c-0.9,9.8,0.3,19.4-0.9,30.9l-6.6-6.6c-0.4,3,3.2,4.6,4.3,7.5c1,0,1.4,0.4,1.4,1.4c1,0,1.4,0.4,1.4,1.4c0.5-0.2,1.1,0.1,1.2,0.6
		c0,0.1,0,0.2,0.1,0.3c-0.1,0.2-0.2,0.4-0.4,0.4c-0.5,0-0.9-0.5-0.9-1c0-0.1,0-0.2,0.1-0.3c-1,0-1.4-0.4-1.4-1.4
		c-1,0-1.4-0.4-1.4-1.4c-0.9,0.1-1.9-0.4-2.9,0.7c2.3,2.2,4.2,4.7,7.5,5.8v2.9c-1.9,0.7-3.3,1.4-4.7,2c0.2,0.5-0.1,1.1-0.6,1.2
		c-0.1,0-0.2,0-0.3,0.1c-0.2-0.1-0.4-0.2-0.4-0.4c0-0.5,0.5-0.9,1-0.9c0.1,0,0.2,0,0.3,0.1c-0.1-0.9,0.4-1.9-0.6-2.7
		c-0.7-0.3-1.9,0.1-2.3-1.2c0.7-2.7-0.7-5.2-2-7.6c-0.6,0.4-1,0.9-1.6,1.3c-1-3.9-1-3.9-3.6-5c2.2,5.9,2.7,9.8,2.3,12.7
		c-1.9,3.3-2-1.4-3.9,0.3c0.7,4.2,4.9,6.8,5.9,11.1c-2.3,1.2-0.7,3.9-2.6,6c-0.9-1.4-1.6-2.6-2.3-3.9c-2,3.3,1.6,3.7,1.9,5.6
		c-0.9,0.3-1.6,0.7-2.4,1c0.6,1.2,0.7,2.7,1.6,3.5c1.2,0.9,3.6,0.6,1.9,3c-0.7-0.3-1.3-0.7-2-1c0.7,3.6,0.7,3.5,3.9,7.8
		c0.4,0.7-0.4,1.9-0.4,1.9h-5.2c-0.3-0.9-0.7-1.7-1-2.6c-1.1-0.1-2.3-0.3-3.3-0.4c-0.9-1.9-1.7-3.7-2.4-5.5
		c-5.6-0.3-6.6-6.2-10.3-8.6l-1.7,1.7c0-4.2-2.6-6.9-4.1-10.2c-0.7,3.7,1.4,6.8,2.4,10.2c0,1.2-1.9,1.4-1.3,3.2
		c-0.4,0.9,1.6,0.7,1,1.9c-0.9,0.3-1.7,0.6-4.3,1.6c3.7,0,5,1,6,2.4c-0.4,4.6,3.3,8.9,0.9,13.7c-1.6-3.5-4.6-6.2-5.7-10.6
		c-1.6,4.2,1.1,6.2,1.9,8.9c-0.6,0.6-1.3,1.2-2,1.9c-1.6-4.7-3-9.4-6.3-12.9c0,1.6,0.3,3.1,0.7,4.6c0.9,2.6,3,5.2,1.9,8.1
		c-0.7,0.2-1.5,0.2-2.1-0.1c0.3,4.6,3.4,2.4,4.7,3.3c0.9,1.3-1.3,1.3-0.4,2.6c1,0.7,2.7-0.6,3.7,0.7c0.5-0.6,0.9-0.5,1.3,0.1l0,0
		c-0.4,0.7-1,0.7-1.4,0c0-0.1,0.1-0.1,0.1-0.1c-1.7,1.2-1.1,4.3-3,4.6c-1.3-0.5-2.6-0.8-3.9-1.2c0.6,2.4,2.6,4,0.3,6.2
		c-3.1-1.6-6.4-3.2-9.9-4.7c-0.2,0.5-0.4,1-0.6,1.6c1.9,2.4,5.1,2.7,7,5c-1.1,2-3.3,2.4-5.9,3.9c1-3.5-0.7-5.9-1.1-8.9
		c-2.3,0.4-0.7-2.3-2.3-2.7c-1.1,1.2-0.9,2.6-0.3,3.9c1,2.4,2.3,4.9,2.4,7.5c-0.1,0.5-0.2,0.9-0.4,1.3c-0.7,0.4-1.9,0-2.3,1
		c0.4,0.4,0.9,1,1.3,1.4c-0.4,0.5-0.8,1-1.3,1.4c1.1,1.4,2.9-0.3,4,1.2c1,0.9,1.7,2.1,2,3.5c0.4,1.2,2.1,1.4,2.3,3
		c-3.3,0.9-5-3.5-7.9-2.6c-1.1,1.6,0.1,3.2-1,4c-2.4-0.7-3.9-3.2-6.6-2.4c0.1,1.3,1.6,1.4,1.3,2.6c1,0,1.4,0.4,1.4,1.4
		c2.9,0.6,5.7,0.9,8,3c0.4,0.4,0.7,0.7,0.1,1c-2,1.7-2.9-2.3-5-0.9c-0.9,0.7-0.1,1.7-0.4,2.4c0.5,0.2,1.1,0.1,1.6-0.1
		c-0.3,1.2-0.4,2.2-0.7,3.3c-0.3-0.1-0.4-0.3-0.7-0.4c0-0.9-0.1-1.7-0.1-2.6c-1.9-1.2-3-3.4-2.9-5.6c-1,0-1.4-0.4-1.4-1.4
		c-0.9-0.1-1.3,0.4-1.4,1.3c1.6,3,3,6.2,4.6,9.4c-1.1,0.7-1.4,2-2.7,2c-2.6-2.2-2.9-5.5-3.9-8.5c-3.1,2.3-2.1,6.2-4.6,8.8
		c-3.4-3.9-7.9-6.9-10.4-11.9c-2.9,2-5.6,3.9-8.3,5.9c-0.4-1.7-2.7-0.6-3.6-2.4c1.6-8.9-1.4-18.1-1.3-27.6c0-0.9,0.7-2.3-1.4-2.7
		v26.2c-1-0.9-1.6-1.3-2-1.7c-0.9,0.3-1,1.6-2.1,1.3c0.2,0.5-0.1,1.1-0.6,1.2c-0.1,0-0.2,0-0.3,0.1c-0.2-0.1-0.4-0.2-0.4-0.4
		c0-0.5,0.5-0.9,1-0.9c0.1,0,0.2,0,0.3,0.1c-0.9-3.5,3.1-6.5,0.9-10.1c-3.1,2.6-2.6,6.9-4.4,10.1c-1.7-1,0.4-3.5-1.7-4.3
		c-2.3-0.4-1.6,1.7-2.4,2.7c-1.1,0.2-2.2,0.3-3.3,0.3c-1.3,1.7,0.3,3.9-1.3,5.8c-0.4-1.4-2.3-1.6-2.1-2.4c0.1-3.3,2.6-5.2,1.6-7.5
		c-1.9-4.2-2.7-8.6-4-13.1v6.2c0,0-1.8,5.5-5.4,5.2c-3.2-3.5,3.5-7.3-0.7-10.8c4-0.9,4.9-4.7,7.3-6.8c-0.7-1.9-2.9-0.3-2.9-2.4
		c1.7-3.6,3.6-7.5,5.6-11.5c-1,0-1.4-0.1-2.2-0.1c-1.9,3.2-2.3,7.5-5.8,10.1c-0.4-1-0.7-1.9-1.6-3.7c-0.3,4-1.6,6.5-4.2,8.1
		c-1.2-0.4,0.1-2.3-1.6-2.7c-1,1.7,0.1,4.7-2.6,5c-2.7-0.1-1.6-2.7-3.2-3.9c-1,3.7-2,7.3-3,11.2c0.6,0.6,1.6,1.6,2.4,2.6
		c-2,1.6-3.7,0.3-5.5-0.4c-1.3,2.4,2.7,3.6,0.9,5.6c-0.6,0.9-1.2,1.9-1.7,2.7c-0.4-5.2-0.7-9.9-2.9-14.4c-0.7-0.3-1.9,0.3-2.2-1
		c1.7-1.2,1.4-2.7,1-4.5c-0.7-1-2.2-1.6-2-2.9c0.4-2.6,1.9-4.9,1.4-7.6c1.2-0.4,2.4,0.4,3.5-0.6c-0.3-0.6-0.6-1.2-0.9-1.9
		c0.1-0.7,1.4-0.7,0.7-1.7c-0.7-0.9-2.7,0.3-2.4-2.4c2.2-1.3,2.7-4.5,5.3-5.9c-0.7-1.4-1.6-3-2.3-4.5c1.2-0.5,1.7-1.8,1.2-3
		c0-0.1,0-0.1-0.1-0.2c-0.4-1.3,2-1.4,1-2.7c-0.6,0-1-0.1-1.4-0.1c-1.7,2-2.2,4.7-2.9,7.3c-0.9-0.6-1.3-1.7-2.3-1.6
		c-2.3,0.1-2.6,3.9-5.8,2.4c1.9-3.6,4.6-6.8,5.3-10.8c-0.9-0.3-1.7-0.6-2.4-0.9c0-3.5,4.5-5.6,2.4-9.4c-1.2,0.1-1.3,1.6-2.3,0.9
		c-0.4,1.3,0.6,2.6-1,3.2c-1-1-0.9-1.9,1-3.2c-0.3-1,0-2.1,0.9-2.7c1.7-1.4,2.6-3.5,2.4-5.6c-3.1,3.1-5.9,6.6-8.3,10.2
		c-0.9-1.1-2.2-1.7-3.6-1.9c-0.4,1.3,0.6,2.6-1,3.2c-1-1-0.9-1.9,1-3.2c-0.3-0.7,0.6-2.3-1.6-2.4c0.2,0.5-0.1,1.1-0.6,1.2
		c-0.1,0-0.2,0-0.3,0.1c-0.2-0.1-0.4-0.2-0.4-0.4c0-0.5,0.5-0.9,1-0.9c0.1,0,0.2,0,0.3,0.1c-0.1-1.3,0.4-2.7-0.4-4
		c-0.7,0.3-1.3,0.7-2.7,1.4c0.5-2.3,1.4-4.5,2.9-6.3c0.1-0.1-0.3-0.6-0.4-1c-1.6-1.4-1.9,2-3.9,0.6c1.9-2.9,5.8-4.2,7.3-7.5
		c-3.2-1-3.5,2.6-5.6,2.6c0.2,0.5-0.1,1.1-0.6,1.2c-0.1,0-0.2,0-0.3,0.1c-0.2-0.1-0.4-0.2-0.4-0.4c0-0.5,0.5-0.9,1-0.9
		c0.1,0,0.2,0,0.3,0.1c-0.6-2.7,1.9-3.6,3-5.2c1-1.4,3.6-1.9,2.4-4.5c-1.4-0.4-2.4,2.3-4,0.4c1.1-0.9,1.6-2.2,1.4-3.6
		c-1.7,0.6-2.2,1.9-3,3.3c-1,1.7-1,4.6-4,5c0-4-1-8.5,0.3-11.9c1.7-4.6,0.9-8.2-1.4-13.4c-1,8.3,0.3,15.5-1.4,22.7
		c0.3-2.6-2.9-3.7-2-6.5c0.1-0.4-0.6-0.7-1.6,0.4c-0.4,0.4,1.2,2.2-0.3,3.2c-0.9,0.1-0.9-1.7-2-0.9c-0.9,1.9,0.7,2.6,1.6,3.6
		c0.9,0.9,1.6,1.7,0.6,3c-1.3-0.9-2.4-2.3-3.7-2.6c-1.9-0.3-2.2-3-4.6-2.6c1.4,5,7.6,4.9,8.9,10.1c0,0.3-0.1,1.2-0.1,2
		c-1,0.4-1.9,0.7-2.7,1c0.6,1.6,2.7,2,2.7,3.9c-0.3,2.7-3.2,2.4-4.6,4.3c1.5,2.1,2.7,4.5,3.6,6.9c0.7,0.6,1.9,0,3.1,1v3.6
		c0.1,0,0.5,0.2,0.6,0.6c0,0.1,0,0.2,0.1,0.3c-0.1,0.2-0.2,0.4-0.4,0.4c-0.5,0-0.9-0.5-0.9-1c0-0.1,0-0.2,0.1-0.3
		c-1.2-0.3-1.4,1-2.3,1.3c-0.9-3.6-4.5-5.2-6.3-8.1c-0.3-1.2,0.4-2.4,0.3-2.6c-2.6-1.4-3,0-4.7,1l-4.2-4.2c-0.6,3.2,3.5,3.7,4,6.2
		c-0.7,1-2.7-0.3-2.6,2.4c2.7,1.9,2.4,6.2,4.6,8.8c2.4,2.9,4.3,6,7.1,9.4c-3-0.4-2.7,1.7-3.6,2.9c-1-0.9-2-1.9-3-2.7
		c-0.5,0.4-1,0.8-1.4,1.3c-0.7-0.3-1-1.9-2.2-0.6c0,0.8,0,1.5,0.1,1.6h0.4c1.2,1,1.2,2.3-0.1,2c0.1,1.2-0.4,0.7-0.4,0.7
		c0.1-0.3,0.1-0.6,0-0.9c-2.2-1.2-0.9-3.7-2.2-4c-1.4-0.6-2,0.9-2.9,1.3c-1.7-0.9-1.9-2.7-2.9-4.3c-1.2,1.6-0.4,3-0.7,4.5
		c0.5-0.2,1.1,0.1,1.2,0.6c0,0.1,0,0.2,0.1,0.3c-0.1,0.2-0.2,0.4-0.4,0.4c-0.5,0-0.9-0.5-0.9-1c0-0.1,0-0.2,0.1-0.3
		c-1.6,0.3-2.3-3.2-4.3-0.6c1.4,1.3,3,2.7,4.6,4l-1.4,1.4c0.5,0.4,0.8,0.9,1.2,1.4c0.4,0.7,0,1.9,1.2,2.3c2.6-0.1,4.7,0.4,4.7,3.6
		c0,1.4,0.9,2,1.4,3c0.4,0.7,0.1,1.5-0.5,1.8c0,0,0,0-0.1,0c-1.2-0.7-2.4-1.4-3.3-1.9c0.4-1.2,0.9-2.2,1.4-3.9
		c-5.2,1.7-6.2-3.5-9.6-4.3c-1,2.2-3,5.7-3,5.7h-3.1c0.4-5.1-5.3-6.4-6.2-11.1c-0.7-4.3-3.1-8.3-5.2-13.5c-0.4,3.3-1.2,5.2,0.4,7.1
		c1.2,1.3,0.3,2.8,0.6,4.3c0.5-0.2,1.1,0.1,1.3,0.6c0,0.1,0.1,0.2,0.1,0.3c-0.1,0.2-0.2,0.4-0.4,0.4c-0.6,0-1-0.5-0.9-1.1
		c0-0.1,0-0.2,0.1-0.3c-1.6,0.3-2.4-3.3-4.6-0.6c4.3,1.5,1.8,8.3,8.2,8.6c-3.9,1.6,1.6,4-1.5,5.2c-1.6-1.8-3.7-3.1-4.3-6.7
		c-1.3,3.9,0,7-1.3,10.1c-3.6-4.7-7.1-9.2-10.5-13.7c-0.1,2.3,0.6,4.5,1.9,6.4c1.2,2.1,2.2,4.3,3,6.5c-1.6,1.8-2.7-1.8-4.2-0.1
		c1.3,4.7,4.6,8,8.8,10.4c-0.6,0.9-1.5,1.2-1.2,2.1c0.5-0.2,1.1,0.1,1.3,0.6c0,0.1,0.1,0.2,0.1,0.3c-0.1,0.2-0.2,0.4-0.4,0.4
		c-0.6,0-1-0.5-0.9-1.1c0-0.1,0-0.2,0.1-0.3h-2.8c-1,2.1-0.6,3.7,0.9,5c-1.2,0.8-1.7,2.2-1.4,3.6c0.5-0.2,1.1,0.1,1.2,0.6
		c0,0.1,0,0.2,0.1,0.3c-0.1,0.2-0.2,0.4-0.4,0.4c-0.5,0-0.9-0.5-0.9-1c0-0.1,0-0.2,0.1-0.3c-2.2-0.7-3-2.9-4.7-4
		c-0.9-0.6-1.7-0.4-2.7,0.9c1.6,1.3,3.2,2.7,4.6,3.9c0,0.7,0,1.3,0,2c0.1-0.1,0.2-0.1,0.3-0.1c-0.1,0.1-0.2,0.2-0.3,0.3
		c0.2,0.3,0.4,0.5,0.6,0.5c0-0.3-0.1-0.5-0.1-0.8c0.2,0.1,0.3,0.2,0.5,0.5c-0.3,0.4-0.6,0.6-0.9,0.5c0.5,3.6,2.1,6.8,2.6,10.2
		c-1.1,0.4-1.9,0.7-2.7,1c1,1.5,2.6,2.6,4.3,3c-0.4,1.4-2.4-0.1-2.6,1.6l2.7,2.7c-2,1.6-3.6,3.4-3,5.9c-3.6,2.1-6-1.4-9.2-0.9
		c-2-2.6-5.7-4-5.2-8.2c-4-0.7-4.9-4-5.5-7c-0.4-1.9-1.4-2.3-3-3c1.6,4.4,3,8.9,4.5,13.2c-1.6,1.3-3.3-0.1-4.3,1.3
		c4.7,5.4,5.7,6.9,5.7,9.7c0,0.7-0.7,1.1-2.2,0.9c-0.9-1.6-1.9-3.6-2.9-5.6c-1,1.4-0.4,3-0.6,4.3c0.5-0.2,1.1,0.1,1.2,0.6
		c0,0.1,0,0.2,0.1,0.3c-0.1,0.2-0.2,0.4-0.4,0.4c-0.5,0-0.9-0.5-0.9-1c0-0.1,0-0.2,0.1-0.3c-2,0.4-1.7,1.4-0.9,2.7
		c0.7,1,2.3,1.4,2.3,3c0.5-0.2,1.1,0.1,1.2,0.6c0,0.1,0,0.2,0.1,0.3c-0.1,0.2-0.2,0.4-0.4,0.4c-0.5,0-0.9-0.5-0.9-1
		c0-0.1,0-0.2,0.1-0.3c-3.2,2.6-1.1,5.4-0.6,7.3c-1.1,1.6-2,2.9-3.7,5.3l-4.3-4.3c0.4,1.9,3.2,4.4,0.1,6.7l0.6,0.6
		c-1.3,1.1-2.4,2.3-3.6,3.4c-0.6-0.7,0.9-2.4-0.6-3.3c-0.7-0.3-1.9,0.4-2-1c0.9-0.9,1.7-1.6,0.7-3.3c-0.9,0-2-0.1-3.2-0.1
		c-1-1.3-0.9-3.6-3-4l-0.4,1.3c-0.2,0.6-0.4,1.1-0.7,1.6c-1.1-3.4-3.6-5.3-6-7.4c-1.1,2.4,0.4,3.1,1.4,4c1.1,1,1,2,1,3.1
		c0.5-0.2,1.1,0.1,1.2,0.6c0,0.1,0,0.2,0.1,0.3c-0.1,0.2-0.2,0.4-0.4,0.4c-0.5,0-0.9-0.5-0.9-1c0-0.1,0-0.2,0.1-0.3
		c-0.9,0.1-1.9-0.4-2.7,0.4c0.4,2.1,2.7,2,4,3c1.3,2.6-2,4.2-1.3,6.6h0.1h2.7v2.8c-1.4-0.3-2.5-1.4-2.7-2.8
		c-3.4,0.9-4.2-3.6-7.5-4.2c0.9,4,4.5,5.2,5.9,7.9c-0.9,0.7-1.6,1.3-1.1,3c2.5,0.4,4.5,2.2,5.2,4.6c1.3,0.4,2.6-0.6,3.2,1
		c-1,1-1.9,0.9-3.2-1c-1,0.6-3-1-4.2,1.6c2.2,2.1,3.2,5.3,6.5,6.9c-0.7,1-1.3,1.7-1.7,2.4c2.4,2.4,3,5.4,2.7,8.6
		c2,1,3.9,1.7,5.7,2.6c-2.4,1.9-1.1,4.4-2,6.4c5,1.4,6,2.6,5.5,5.7c-1.6-1.6-3.3-3.3-5.5-5.7c-0.7,0.7-0.9-1.9-2.2-0.9
		c-0.7,2,0.9,2.6,1.7,3.6c0.9,1,1.4,1.9,0.1,3.3c-3.7-0.9-6.3-3.9-9.6-5.6c-0.4-0.1-0.7-0.1-0.9,0.1c-0.1,0.9-0.3,1.6-0.4,2.1
		c-1.1-0.3-2-1.1-2.4-2.1l6.6-6.6l0.4-0.4c0-0.1-0.3-0.3-0.9-0.9c-3.6,2.9-8.8,3.1-11.2,7.4c-1.3,0-2.3-0.1-3.2-0.1
		c-1.6-3.3-0.7-7.6-4.6-10c-1.1,4.9,1.7,8.3,2.6,12.3c-2.3,0.3-3.6,2.1-5,3.4c-1-0.7-1.3-1.6-2.2-1.4c0.2,0.5-0.1,1.1-0.6,1.2
		c-0.1,0-0.2,0-0.3,0.1c-0.2-0.1-0.4-0.2-0.4-0.4c0-0.5,0.5-0.9,1-0.9c0.1,0,0.2,0,0.3,0.1c-0.7-1.9,1.3-2.9,1.4-4.4
		c0.1-1.3-1.9-1.6-1.3-3.6c0.9-1,1.8-2.1,2.7-3c-0.7-0.8-1.5-1.4-2.4-1.9c-0.9-0.3-1.9-0.1-1.7-2.4c3-2.6,7.8-4,11.6-7.3
		c-5.5-1.6-7.8,5.9-13.1,3.4v-15.6c-0.8-0.9-1.5-1.4-2.7-2.7c0,3.3-0.8,6.5,0.3,8.2c1.5,2.6,0.8,5,1.1,7.5c0,0.1-0.5,0.3-0.8,0.4
		c-1.1-0.3,0.3-2.4-1.6-2.3c-0.8,1.3,0.4,2.9-0.8,3.9c-1.1,0.3-2.3-0.4-3.4,0.6v1.7c0.9,0.3,1.6,0.7,2.4,1c-0.1,1.4,0.9,2.9-0.7,3.9
		c-2.2-1.1-4.8-1.4-7.2-0.7c1.5,2.4,4.5,2.7,6.6,4.6c-2.4,0.6-3.3,2.3-3.7,4.5c0.4,0.6,1,0.9,1,1.6c0.8,0,1.5,0.1,2.2,0.1
		c0.7,0.7,0.7,1.9,0,2.6c0,0,0,0,0,0c-1.1-0.4-1.9-1.3-2.2-2.4c-3,0.6-5.2-1.8-8-2.6c-0.3,3,2.2,3.7,3.3,5.3c0.8,1.2,1.1,2-0.4,3.6
		c-0.7-1.2-1.4-2.4-2-3.6c-1.9,2-0.3,2.7,0.4,3.7c-3.1,4.2,0.4,7,1.2,10.1c1.9,1.6,3.9,0,5.7,1.6c-1.8,1.6,1.5,1.7,0.8,3.2l-0.9,1
		c0.1,0.7,1.8,0.9,0.8,2h-3.5c-1-0.9,0.1-2.9-1.9-2.7c-0.3,0-0.6-0.1-0.7,0c-0.9,0.7-1.7,1.5-2.4,2.3l-7-7c-0.7,2.6,5,3.7,2.6,7.3
		c-0.9,0.3-1.7,0.6-2.4,0.9v1.6c1,1.7,3.3-0.3,4.1,1.4c-0.4,0.5-0.8,1-1.3,1.4c0.3,0.7,1.9,1,1.3,1.6c-1.7,1-3.1,0-4,1
		c-1.4,3,1.7,2,2.4,3.2c0.1,1.6-0.3,3.3,1.7,4.5c-1.5,0.8-1.8,1.6-1.7,2.5c0.3,0.2,0.3,0.5,0.2,0.8c0.5,1.6,1.9,3.3,0.8,4.9
		c-3.1-4.2-5.4-9-7-14c-1.1-0.4-1.1,1.2-2,0.4c-2.3-1.7-2.3-4.7-4-6.8c-0.4,0-1,0.1-1.9,0.1c1.9,2.7,1.1,5.6,1.3,8.5
		c0.5-0.2,1.1,0.1,1.2,0.6c0,0.1,0,0.2,0.1,0.3c-0.1,0.2-0.2,0.4-0.4,0.4c-0.5,0-0.9-0.5-0.9-1c0-0.1,0-0.2,0.1-0.3
		c-0.9,0.1-1.9-0.4-2.6,0.4c-0.4,0.7,0.1,1.9-1,2.3c-0.7-1.4-1.4-2.7-2-3.9c1.1-4.9,2.7-9.2,5.6-12.7c0-5.2,0.4-10.1-2.9-14.2
		c-0.1-0.3-0.6-0.3-1-0.6c-1.3,1.7,0.3,3.7-1,5.3c-0.7,0.1-1.3,0.3-2,0.4c-0.9,1.2,0.4,2.9-0.9,3.9c-1.7-1,0.1-3.3-1.4-4.2
		c-1.7,0.9,0.4,3.3-1.9,4.3v-8.5c0,0,1.9,0,2.5-1.7c0.7-2,0.1-4.3,1.3-6.2c-2.4-2,1.7-4.5-0.3-6.6c-0.9-0.7-3.5-2.4-3.5-2.4v-8.1
		c-1.7,0.6-0.7,2.2-1.8,2.8c-1.5-1.8-1.5-4.6-3.4-6.2c1-1.7,1.8-3.4,2.8-5.2c-1.8-1.8-1.5-5.5-5-5.5c-2.5,2.2-1.1,6.6-4.6,8.4
		c-0.1-2.2-0.7-4.1,0.6-6.2c0.7-1.1,2-3.9-1-5c0.2,0.5-0.1,1-0.6,1.2c-0.1,0-0.2,0-0.3,0.1c-0.2-0.1-0.4-0.2-0.4-0.4
		c0-0.5,0.5-0.9,1-0.9c0.1,0,0.2,0,0.3,0.1c-0.3-2.1,1-4.6-1.3-6.4c1.7-1.4,2-2.9,0.8-4.6l-2.1-0.4v-9.4l2.7-2.7
		c0.4-2.1-0.7-4.5,1.6-6.1c-2.8-1.3-0.3-4.7-3.3-7.4c1.3,6.8-3.1,10.5-4.6,15.3c-2.5,1-5.1,2.5-7.9,1.8c-0.9,1.5-0.6,4.2-3.6,2.5
		v-5.9c-1-1.4-2.4-1.9-2.5-3c1.4-3,4.5-3.3,6.3-5.5c1-2.6,0.3-4.9-1.1-7c-0.3-1.2,1.7-1,1.1-2.3c-0.8-0.3-1.7-0.6-2.4-0.9
		c-0.7-1.6,0.4-2.3,1.3-3.2c-0.1-6,1-12.1-2.2-17.8c-2.2,6.6-1.3,13.7-3.8,19.7c-2.8-0.4-1.8-3.6-3.6-4.7c0.4-0.6,0.8-1,1.5-1.9
		c-2.8-2.9-1-7.1-2.1-10.5c-1,0.1-1.8-0.3-2.2,0.6c-0.7,4,0.4,8.3-0.6,12.4c-0.8,0-1.4-0.1-2-0.1c0.1-1.9,2.2-3.5,0.6-5.5
		c-0.7-0.4-1.8,0-2.6-1.9c2.5-3,3.1-7.6,4.2-10.6c-1-7-2-13.1-2.8-19.1c-0.1,4-3.3,7.5-2.4,11.5c-2.4,1.4,0,6-4.7,6.6
		c3-5,4-11.1,2.8-16.8c-0.7,1.7-1.4,3.5-3.3,4.3c-1.1-4.6,3.1-6.2,3.6-9.9v-8.6c-2.5,0.4,0.3,3.6-2.2,3.7c-1-7.6-2.2-15.2-5.4-22.4
		c-0.5,2.8-0.6,5.7-0.4,8.5c0.4,2.6-1.7,4.7-0.1,7.5c1,1.7-0.8,2.9-2.1,4c-1.3-0.4,0-2.4-1.5-2.7c-1.8,2.7,0.4,5,1.1,8.6h0
		c1.1,0.3,1.1,1.6-0.3,1.3c0.1,1.2-0.4,0.7-0.4,0.6c0.1-0.2,0.1-0.4,0-0.6c-2.9,0-0.9,2.2-1.4,3.9c1.4,1.4,2.9,2.7,3.9,3.7v7.3
		c-2.6-2.7-5.1-4.5-6.3-8.3c-1.6,4.3,2.3,7.2,0.9,10.6c0.5-0.2,1.1,0.1,1.2,0.6c0,0.1,0,0.2,0.1,0.3c-0.1,0.2-0.2,0.4-0.4,0.4
		c-0.5,0-0.9-0.5-0.9-1c0-0.1,0-0.2,0.1-0.3c-1.1,0.3-1.4-1.2-2.3-1.3l-2.3,2.3v9.2c-4.4-1.2-3-6.5-6.1-8.3
		c-2.1,2.4,0.8,4.2,0.8,5.3c-0.4,1.9-1.7,2-1.4,3.5c1.7,2.9,3.3,6,2.9,9.8h1.9c0.7,1.6,1.5,3.2,2.2,4.6c-0.8,1.4-1.5,2.7-2.9,4.9
		c0-3,0.7-5.9-2.5-6.2c-1.8,1.9,2.9,3.3,0.4,5.3c-0.4-0.4-1-0.9-1.4-1.3c-1.4,1.6,0.3,4-2.1,6.2v-7.7c0-0.6-0.6-0.7-1.3-0.1
		c0,1.3-0.1,3-0.3,4.5c-0.9,1.4-2.9,1.9-2.7,4c-0.7,1.6,1.2,2.3,1.4,3.7c-2.3,3.3-0.6,7.3-1.6,10.8c-1,3.6-1.4,7.2-1.3,10.9
		c0.5-0.2,1.1,0.1,1.2,0.6c0,0.1,0,0.2,0.1,0.3c-0.1,0.2-0.2,0.4-0.4,0.4c-0.5,0-0.9-0.5-0.9-1c0-0.1,0-0.2,0.1-0.3
		c-1.2,0.3-1.4-1.1-2-1.3c-1.4,0.3,0,2.3-1.4,2.6c-3.3-3.2-1.6-7.5-3.3-11.1c-0.3,4.9-0.3,9.8-1.9,14.4c3.3,4.2-0.3,9.5,2.3,13.4
		c-1.2,3.7-2.7,6.9-2.5,10.8c0.3,3.3-0.1,6.8,0.1,10.1c0.1,1.6-0.9,2.6-1,4.6h0.1c1.2,0.3,1.2,1.6-0.1,1.3c0.1,1.1-0.4,0.7-0.4,0.7
		c0.1-0.3,0-0.7,0-1c-1-0.9-1.4-1.4-1.4-2.2c-0.1-2.2,0-4.3,0-6.5c0-0.3-0.4-0.6-0.7-0.9c-1.6,0.9,0.4,3.3-1.6,4.2
		c-1.2-1.4,0.1-3.7-1.9-5.2c-1-0.7,1-3.3-1.9-4.9c1.9,5.6-2.7,10.3,0.6,15.5c-2.5,0.6-4.2,0.7-6.2-0.1v-6.8
		c-3.5-0.3-2.2-3.7-3.5-5.7c-1.4,1.6,0,3.3-1.4,4.5c-1.2-1.1-2.2-2.4-3.3-3.6c1.9-4.6,4.5-9.2,1.3-14.7c-0.8-1.5-0.6-3.4,0.6-4.7
		c1.4-1.6,0.7-3.4,0.6-6.8c-0.4-0.1-1.9-0.7-3.2-1.1c3-4.3,1.4-8.2,1.9-12.1h-2.9v12.5c-1.3,0.3-2.1,0.4-3,0.6v12.3
		c-2,1.4-1.7,4.2-4.2,4.9c-0.8-3.3-5.8-5.2-3.3-9.6l2.5-2.3v-4.7c-1.1-0.3-2-0.7-2.5-0.9c-1.9-2.6,1.9-4.3,0.9-6.8h-2.4v9.6
		c-1.2,0.3-1.9,0.4-2.5,0.6c-1.2,1.6,0.6,3.7-1,5.3c-2.1-0.7,0.5-3.8-2.1-4.4c-0.4,4.5-5,7.5-4.4,12.3c-0.4,1.4-1.8,2.2-3.2,1.8
		c-0.4-0.1-0.7-0.3-1-0.5c2.3-3,1.4-6.8,1.6-10.1c1.7-2.1,3.9-2.9,6.7-3.7c0.1-2,0.1-4,0.1-6.9c1.3-1,2.9-2.4,4.6-3.9
		c-0.7-3.6-1.6-7-2.3-10.6c-2,2.3,0.6,5.5-1.7,7.3c-0.6,0-1.2-0.1-1.7-0.3c-0.3-3.2-0.9-6.2,2.2-9.6c-1.6-1-2.9-1.7-4.2-2.4v-10.9
		c-1.8,5.1,0.1,10.8-3.2,15.6c-3,3.7-6.8,6.8-11.1,8.9c-0.1-2.3,1.6-3.7,1.9-5.1c2.5-1.8,6.4-1.6,6.9-5.7c-0.9-0.3-1.7-0.6-2.5-1
		l2.6-2.6c-0.4-3.4,0.3-6,1-8.8c0.7-2.9,3.4-5,3.2-8c-0.5-0.2-1-0.4-1.5-0.6c0.2,0.5-0.1,1.1-0.6,1.3c-0.1,0-0.2,0-0.3,0.1
		c-0.2-0.1-0.4-0.2-0.4-0.4c0-0.5,0.5-1,1-0.9c0.1,0,0.2,0,0.3,0.1c-0.1-0.9,0.4-1.9-0.6-2.8c-0.4,0.5-0.9,0.9-1.5,1.2
		c0,0-0.3-0.1-1-0.4c1.2-2.8,2.5-5.8,1.3-9.2c-0.6-0.6-1.3-1.2-2.6-2.5c0,4.2,1.2,8.6-0.3,11.2c-1.9,3.4,0.1,6.7-1.8,9.6
		c-1.8,2.8-0.4,6.9-3.7,8.9c-1.6,0-2-1.5-3.2-2.2c3.5-2.3,3.8-6.6,6.1-9.5c-1.2-2-2.2-3.9-3.2-6V224c-0.9-0.8-1.7-1.6-2.5-2.3
		c0-1.6,0.1-3.2,0-4.8c-0.1-1.2,0.9-2.8-1.5-3.9v11.4c-1.4-1.6-2.7-3.2-2.6-4.7c0.3-6.3-2.6-12.4-1.6-18.8c0-0.1-0.6-0.4-0.9-0.7
		c-0.6,0.4-1,0.7-1.6,1.2c-1.6-6.3-3.4-12.4-3.6-19.6c-2.2,3.6-0.1,6.9-1.7,9.5c-0.7,0-1.1-0.1-2-0.1c-0.9-1.6,0.4-3.9-2-7
		c0.6,3.8-0.1,7-0.7,10.1c-0.1-0.2-0.1-0.5-0.2-0.8c-1.4,2.3-0.6,4.2-0.4,5.9l0,0c0.1-0.1,0.1-0.2,0.2-0.3c0,0,0,0.1,0,0.1
		c0,1,0.2,2.1,0.5,3.2c0,0,0,0,0.1,0c0.1-0.2,0.1-0.3,0.2-0.5c0.1-0.2,0.3-0.3,0.4-0.4l0,0c0.7,0.5,0.9,1.3,0.6,2
		c-0.2-0.6-0.6-1.2-1.1-1.5c-0.2,0.7,0,1.5,0.7,2c0.2-0.1,0.3-0.3,0.4-0.4c-0.1,0.1-0.1,0.3-0.2,0.4c0,0,0,0,0,0
		c0.3,0.9,0.6,1.9,1.2,2.7c-0.9,0.3-1.7,0.6-2.4,0.9c-1.1,3.5,1.1,6,2.6,9.8c0.1-0.1,0.3-0.1,0.7-0.1c1.1,0.3,1.1,1.6-0.1,1.3
		c0.1,1.2-0.4,0.7-0.4,0.7c0.1-0.2,0.1-0.5,0-0.7c-2.9-0.7-0.3,2.3-2.3,3c-1.9-4-4.5-7.9-4.3-13.1c-0.6,0.9-1.1,1.7-2.3,3.3v6.9
		c-3.7-1.6-1.6-6.6-5.2-7.6c-0.9-2.6,1-5.5-1.6-7.5c0.6-1.2,2.7-1.7,0.9-3.5h-2.1v17c-0.8-1.9-3.2-2.7-2.6-4.9
		c0.7-0.7,1.5-1.3,1.2-2.7c-0.8-1.7-3.7-2.6-2.6-5.8c0.7-1.6,3-2.2,2.8-4.2c-0.6-1.6-2.3-0.4-2.8-1.9v-4.9c0.9-1.4,2.9-2,2.9-3.8
		c-0.3-0.8-0.6-1.4-1.4-1.3c0.2,0.5-0.1,1-0.6,1.2c-0.1,0-0.2,0-0.3,0.1c-0.2-0.1-0.4-0.2-0.4-0.4c0-0.5,0.5-0.9,1-0.9
		c0.1,0,0.2,0,0.3,0.1c0.6-3.5-1.1-6.4-2-9.7c-0.7-0.1-1.3-0.3-2.4-0.6V168h-1c-0.1,4.6-0.3,9.4-0.4,14h-2.9c-1.3-0.4,0-2.4-1.6-2.7
		c-0.3,3.2-0.6,4.2,1.5,6.8c2.9,3.7,2.3,7.6,2.2,11.5c-2.9,1-3.4-2.6-5.6-2.3c-0.6,2.6,2,3.2,2.6,4.8c-0.4,0.5-0.8,1-1.3,1.4
		c-0.7,1.9,1.9,2.3,1.3,4.2c0.4,0.9-1.8,0.7-1,1.9l1,1c-0.4,0.5-0.8,1-1.3,1.4c0.4,0.4,0.9,1,1.5,1.6c-1,0.3-1.8,0.7-3.1,1.2
		c0.6,2.7-1.2,5.9,1.3,8.6c-2.6,3-0.9,5.9,0.6,8.9c-1.5,0.3-1.5,1.9-2.6,1.9c-3.2-1.4-1-4.8-2.5-6.3c-2-2.3-0.7-4,0.1-6.1
		c-1-0.9-1.9-1.6-2.8-2.4c0-1.6,0.4-3.2-0.1-4.3c-0.4-1-1.3-1.7-1.3-3c0-1,1-2.6-1.6-3.2v12.8c-1-1.9-2.5-3-3.5-4.6
		c-0.9-1.3-2.9-3-0.9-4.9c-2.2-1-0.4-3.6-2-4.9c-3.5,5-1.8,11.5-5,16.7c1,1,2.2,1.9,0.7,3.5c-0.9,0-0.9-1.9-2.3-0.7v6
		c-1.9,0.7-3.5,0.9-4.8-0.6c0-0.1-0.6,0.3-1,0.4c-0.3,1.2,0.6,2.4-0.6,3.5h-2.2c-0.8-1.2-0.4-2.4-0.4-3.5c1.1-2.4,4.6-1.9,5.6-4.7
		c0.7-2.3,2.8-4.5,0.1-6.6c1.4-3.3,1.9-6.9,4.2-9.4c-0.4-1.6-1.9-2-1.5-3.6c0.3-0.4,0.8-0.9,1.3-1.4c-0.4-0.4-0.8-1-1.7-2
		c2.2-1.7,1.9-4.3,1.7-6.8l-2.5-2.6c-0.7-4.6-1.4-9.2-2.2-14.2c-1.5,2.6,0.1,5.2-1.3,7.5c-0.8-1.2-1.6-2.4-2.2-3.7
		c-0.7-1.4,1.3-3.5-1.4-4.6v7.8c-1,0.4-1.8,0.7-2.6,1.2c-0.7,2.2,0.6,4.6-0.8,6.8l-2.1-2.2c0-4.5,0-4.5-1.3-6.9
		c1.4-3.3,2.8-6.3,2.6-9.9c-0.3-2.9-0.3-5.8,0.1-8.6c0.4-3-1.7-5.2-1.7-8.1c0-3.9-1.1-7.8-1.7-11.7c-0.4,3.6-1.7,7.1-3.6,10.1V140
		c-3-2.9-2.9-6.6-3.6-9.9c-1.2,0-2-0.2-2.4,0.6c3.9,4.1-1.1,6.7-1.6,10.5c-0.4-0.6-0.8-0.6-1.4,0.1c0.4,0.7,0.9,0.7,1.3,0.2
		c0,0.2,0,0.4,0,0.7c0.9,1.8,2.3,4.2,1.2,6.9l-2.7,2.7c-0.5,1.7,0.5,3.6-0.5,5c-4.5-0.8-1.2-5.1-4.4-7.4v11.1c0-1.1-0.4-3.2-1.9-4
		c-0.1,2.3-0.8,4.5-2,6.3c3.2,2.7,1,6,1.9,8.9c2.4,3.7,4.3,7.5,1.7,11.7c2.2,4.9,3.3,9.6,2,14.8c-0.3,0-0.7,0.1-0.7,0.1v-4.8
		c-1.6-1-1.5,1.2-2.6,0.3c-0.4-3.4-2.3-6.3-2.6-9.9c-0.6,2.3-0.8,4.7-0.6,7.1c0.4,2.3-2.8,4.1-1.5,5.8c1.5,1.9-0.4,3.8,1.2,5.7
		c1.3,1.5-1.9,3.8-0.1,5.8c-1.9,0.3-3.8,0.6-5.5-0.3c0-1.5-0.3-2.8,0.9-4.1c1-0.8,1.1-2.2,0.3-3.2c-0.2-0.2-0.5-0.4-0.7-0.6
		l-0.9,2.6c-2.3-1.5,0.9-5-2.2-6.3c-0.4,1.3,0.6,2.6-1,3.2c-1-1-0.9-1.9,1-3.2c-0.1-3.2-2.6-5.4-4.5-7.9c-0.3-2.2,0.6-4.4-0.7-6.3
		c-0.9,0.1-1.6-0.3-2.3,1c1.7,7.3-5,11.1-7.9,16.6c-1.5-1-0.7-2.3-0.9-3.6c1.6-1.6,3.2-3.4,4.7-5c-1.3-2-2.8-3.9-1.5-5.4
		c1.6-1.7,0.9-3.6,1.2-5.4c0.6-4.1-2-7.3-2.6-11.2v11.2c0,0-3.3,2.6-4.8,4c-0.6,1.3,1.4,3.5-1.2,3.7c-2.9-0.3-0.1-3.5-2.2-4.3
		c-0.7,0.1-1.4-0.3-2.2,0.9c0.4,4.2-0.9,8.8,0.7,12.2c-0.4,1.2-0.9,2-1.3,3.2c-1.2-3.6-4.9-4.6-5.2-7.9c1.7-2.6,2.4-5.8,4.2-8.3
		c1.3-1.7,2.9-3,4.2-4.7c0.6-1,1.1-2.2,1.4-3.3c-0.4-0.6-0.9-1.2-1.6-2c2-1.9,4.9-6.2,4.9-6.2v-11.1c-1,0-1.7-0.3-2.3,0.3
		c-0.9,2.1,0.6,4.6-0.9,6.7c-0.5-0.5-1-1-1.6-1.4c-1.3,1.4-0.3,3.3-0.7,4.9c-2.7,2.7-2.7,2.7-5.7,3.6c-0.1-3.6-0.5-7.3-1.1-10.9
		c-0.7-3.7-3.9-6.4-3.4-10.4c-2,2.1-3,5-2.6,7.9c0,0.6-0.6,0.7-1,0.3c-0.9-1.4,0.4-3.7-1.3-4.6c1-4,4.4-5.9,6.6-8.6
		c0.6-3-0.9-6.1,1.3-8.7l-2.9-2.9c1.7-5.9-2.4-11.3-1.1-17c-1.6-1.1-3.3,0.1-4.6-1.6c1.6-4,3.9-8,2.9-12.7l-2.6-2.6
		c-0.7-2.1,0.6-4.6-0.9-6.6c-0.7,0.7-1.5,1.4-2.1,2.1v7.4c-0.9,0.7-2.2,1.6-3.3,2.4c-2.3,2.6,4,4,0.9,6.3c-0.5-0.4-1.1-0.9-1.7-1.4
		c-2.3,2.7,1.9,4.7,0.9,7.2c0.5-0.2,1.1,0.1,1.3,0.6c0,0.1,0.1,0.2,0.1,0.3c-0.1,0.2-0.2,0.4-0.5,0.4c-0.6,0-1-0.5-1-1
		c0-0.1,0-0.2,0.1-0.3c-1.2-0.3-1.6,1.2-2.6,1.4c-0.4-2.6-1.5-5.1-3.3-7.2c-0.9,3.6,0.5,6.5,1.1,9.6c0.6,3.5,0.2,7,0.2,10.5
		c-0.6,0.1-1.2,0.1-1.7,0.3c1.4-4-1.6-6.8-1.9-11.2c-2.8,5.9,2,10.2,0.3,15.4c1.4,0.7,2.5,1.4,3.6,2c-3.4,2.3-0.3,5.8-2.5,7.9
		c-2,0.3-2.6-1.2-4-2.3v-6.1c-1.3-0.7-1.9-2.6-4-1.3v8.8c0,0-1.6,3.7-3,6c3.2,4.7,3.7,10.5,3.2,16.3c-0.1,1.9,1.3,2.9,1.6,4.6
		c1.4,1.7,1.4,1.7,0.1,4.2c0-1.4,0-2.8-0.1-4.2c-1.3-0.3-1.4,1-2.3,1.3c-0.9-3.5-0.9-3.5-3.5-6.5c0-1.4,0.1-2.9,0-4.3
		c-0.1-1-1-3.5-1-3.5v8.1c-4.4-1-1.8-5.2-4.3-8.6c0,4-1,7.4,0.1,9.2c2.5,3.6,0.6,6.2-0.3,9.3c-0.1,0.4-0.4,0.6-0.7,0.7
		c-1.3-1.5,0.1-3.4-1.3-4.4c-0.7,0-1.5-0.3-1.9,0.4c1.5,4.3,2.8,8.6,5.5,12.3c-0.9,0.9-1.8,1.6-2.7,2.7c-0.6,0.7,0.1,2.7-1.8,2.5
		c-1.9,0.1-1-1.8-1.8-2.5l-2.8-2.8v-6.5c0,0-1.2,0.6-1.5,0.9L870,180c0.6,0.7-1-0.1-1-0.1v-3.2c0-0.9,0.3-1.9-0.7-2.6h-1.4
		c-2,6.9-2.4,7.2-0.6,11.4c1.4,3.2,1.1,6.3,1.3,9.5c2.4,0.5,4.3,2.4,4.9,4.8c2.8,0.9,5.3,2.4,7.3,4.5l1.3-1.3
		c1.3,1.2,2.6,2.5,2.9,2.6c1.7,3.7,0.1,4.8-1,5.5c-2.3-0.6-4.7,0.1-6.5-1.4c-0.9-1.2,0.4-2.9-1-3.9c-0.5,0.4-1,0.8-1.4,1.3
		c-1.7-1,0.4-3.3-1.6-4.2c-0.9,7.2-1.9,8.1,4.6,17.3h4.6c0.6,3.6,2.3,6.5,2,9.9c1.3,0,2-0.1,2.3,0.4c1.1,3.6-1.3,6.3-1.7,9.7
		c-1.7-1.6-4.3-1.7-5.5-3.9c-0.3-0.6-0.7-0.6-1,0.1c-0.3,0.7,0.1,1.9-1.9,2.5c-0.4-0.9-1-2-1.9-3.6c-0.6,1.7-0.9,2.6-1,2.6
		c-1.4-0.9-3-1.9-3.9-2.5c-0.9-3.3,2.7-5.5,1-7.4c-2-2.2-0.4-4.6-1.7-6.5l-1,1l-3.2-3.2c1.3,1.6-1.6,3.2-0.1,5
		c2,2.6-1.3,4.2-0.9,6.3c0.5,0.5,0.9,1,1.3,1.6c-0.4,0.6-0.9,1-1.1,1.4c0.9,1.2,2.3,1.7,2.4,3l-1.6,1.6c0.4,0.4,0.4,0.9-0.3,1.3l0,0
		c-0.6-0.4-0.7-0.9-0.2-1.3c-0.7-3.7-4.8-4.8-5.4-8.5c-0.7,0.6-1.1,1-1.6,1.3c-0.9-0.7-1.6-1.3-2.9-2.3c1.9-1.4,3.4-2.9,5-4
		c-0.4-1.9,0.7-3.6-0.6-4.6c-3.7-2-1.3,2.5-4,2.3c-0.4-4-4-6.9-4.7-11.2c-1.3,0.6-0.1,2.5-2.2,2.9c0-2.2,0.1-4.3,0-6.3
		c-0.1-2,0.9-4.3-1.4-5.9c0.4-0.6,1-1,1.4-1.6c-1.6-4.5-2.7-9.2-3.3-14c-2.7,3.5-0.9,8.8-5.2,10.5c-2.3-0.3-1-2.3-2-2.7
		c-1-0.1-1,1.7-2.4,0.6c0.4-5.2,3.3-9.8,4.6-15.9c-1.4,1.2-1.9,1.6-2.6,2.2l-2.6-8.7c-0.9,2.2-0.4,4.8-3.6,5.6
		c-0.7-1.7,0.7-3.9-0.7-5.3c-2.2-2-0.6-3.7,0.4-5.6c-2.3-1.2-2.4-3.9-4-5.5c-0.4-2,0.6-4.3-0.7-6.6c-1.6,2,0.1,4.3-1.4,5.8
		c-3,3.2-2.2,7.4-2.3,11c-2.2,2.5-2.7,5.3-3.3,7.9c-1.3,0.1-2,0-2.3-0.7c-0.3-0.6,0.6-1.9-0.9-1.9c-1.4,0.1,0.3,2.5-2.2,2.2V171
		h-0.7c-0.9,2.9-1.8,6-2.6,8.8c-1,0-1.8-0.1-2.3,1c2.1,0.4,1.5,2.1,1.6,3.4c0.9-0.1,1.3,0.4,1.5,1.2c0.1,1,0,1.9-1.4,1.8v-2.7
		c-2.3-0.4-2.6-2.6-3.8-4.2c-1,0.7-0.7,1.9-0.6,2.7c0.4,1.3-2,1.4-1.3,2.4c0.7,0.7,1.4,1.3,1.2,2.2c-1.3,2.9-2.2,4.6-1.3,6.5
		c1.3,2.9-0.3,5-0.6,7.6c-1.9-0.4-0.1-2.6-2.5-2.6c-0.4,1.4,0.4,3.2-1,4.4c-0.9,0.8-1,2.2-0.3,3.2c2,1.9,1,4,1.3,6
		c0.3,1.7-0.9,3.9,1.2,5.3c-1,1.6-2.2,3,0.1,4.4c-0.9,4.2,2.6,7.9,0.9,12.3c0.1-2.9-3-2.9-4.1-5c-1.3-2.6-0.3-5-1.3-7.5
		c-0.8-0.3-1.7-0.6-2.5-1c-0.9-1.3,1.2-4.4-2.6-3.7c-1,1.7-0.3,4.2-2,5.5c-0.3,1.6,2.5,2.2,1.4,3.9c-1.2,1.6,2.2,2,0.9,3.4
		c-1.9,0.7-2.5-1-3.6-1.9c-0.7-2.2,0.6-4.6-1.3-7.3c-0.3,3.9,0.1,7.3-0.9,10.2c-1.8,4.3-1.3,9.1,1.2,13.1c1.1,1.4,1.1,3.4,0,4.9
		c-0.4-3.3-3.8-4.4-4.1-7.6c-1.7,1.4,0,3.6-1.7,4.7c-2.2,1.4,1.7,2.6,0.3,3.9c-2,1.9,0.6,2.9,0.6,4.2c0,1.7,1.3,3,1.4,4.4
		c0.1,1.6,1,2.7,1.3,4c-0.4,0.9-1.4,1-1.2,2c0.5-0.2,1.1,0.1,1.2,0.6c0,0.1,0,0.2,0.1,0.3c-0.1,0.2-0.2,0.4-0.4,0.4
		c-0.5,0-1-0.5-0.9-1c0-0.1,0-0.2,0.1-0.3c-2.8,0.9-1.9,3.9-1.3,4.6c1.7,2.4,1,4.9,1.3,7.5c0,0.3-0.6,0.4-1,1
		c-0.3-1.4-0.4-2.9-0.6-4.2c-3.6-0.6-3.2-3.9-4.9-6.3c-1.3,4.9-1.6,9.8-2.6,15.2c-1.9-4.7-2.8-8.7-2.2-13.2c-2.5-0.6-2.6-3-3.8-4.6
		c-1.9,1.4-2.5,3.7-3.3,5.3c1,5.6,3.8,10.5,4.1,15.9c-0.6,0.3-1.1,0.7-1.6,1.1c-0.6-1.3-1.2-2.6-1.6-3.9c-0.3,0.1-0.4,0.3-0.7,0.4
		v6.2c0.9,1.6,1.6,3.3,2.5,4.9c-2,0.7-2.6-0.6-3.5-1.1c-2.6,0.1-0.7,4.2-3.9,4.3c-1.5,0.1-1.2,1.3-1.2,2.6c0.1-0.1,0.2-0.2,0.3-0.3
		c0.7,0.4,0.7,1,0,1.4l0,0c-0.2-0.1-0.3-0.2-0.4-0.4c-0.1,0.5-0.3,0.9-0.7,1.2c-2.2,1.7,0.6,3.7,1,6c-2.6-0.1-0.6,2.7-2.5,3.4
		c-0.6,0-1.3,0-1.9-0.1c-0.1-3.2-0.3-6.6-0.4-9.9H755v9.4c-1.3,0.9-2.5,0.3-2.9,1.3c2,1.7,2.6,5,1.9,6.3c-1.9,2.9,1.6,4.6,0.9,6.9
		c-0.8,0.4-1.7,0.6-2.6,0.9c-1.3,4.6,1.7,9.8-2.3,14c-4.1-3.2-2.3-8.1-5.1-11.5c1.9,2.9-2.3,4-1.6,6.5c0.4,0.6,0.8,1.1,1.3,1.6
		c-0.7,0.7-1.4,1.4-2.2,2c-2-2.9,1-6.8-2-9.4c1.7-1,1.4-2.7,1.4-4.2c-1.2-1.6-3-2.4-3.2-4.6c0-0.9-1.2-0.4-1.9-0.6
		c-1.9,1.6,0.4,4.3-1.4,5.8c-1,0-2-0.1-2,1.3c0.4,2.9,4.3,5,2.2,8.6c-1.4-0.4,0-2.6-1.9-2.3c-1.9,3.5,1.7,6.2,1.2,9.5
		c-0.6,2.9,3.3,5.6,0.6,8.8c-1-0.4-0.6-1.3-0.7-1.9c-0.1-0.7,0.6-1.9-1-2c-2.3,4.7,2.9,9.4,0.3,14.4c-1.3-1.7-0.3-3.7-0.9-5.5
		l-2.6-2.6c-0.6-1.6,0.4-3.6-1.2-5.6c-0.3,1.9-0.4,3.2-0.7,4.3c-0.9,0.6-2.2,0.1-2.6,1.2c0.2,2.6,0.1,5.3-0.1,7.9
		c-0.4,2.3,3.5,4.3,0.3,6.6c2.9,2.7,1,4.6-1.2,6.5c0,0,0,0-0.1,0.1c0.2-0.1,0.5-0.1,0.8-0.1c-0.1,4,0.1,7.9-1.3,11.9
		c-0.3-0.9-0.3-1.9-0.1-2.9c-0.1-1.2-0.1-2.4,0-3.6c0.1-0.6-0.3-1-0.7-1.4c-0.7,0.2-1.7,0-2.2,1.1c0.9,2.7-0.7,5-2,7.6
		c-0.7-1.3-1.3-2.6-1.9-3.9l2.2-0.7c1.3-3-1.2-6.5,1.7-8.9c-0.7-3.5,2.7-5.6,2.9-7.2c-1.3-8.1-2.3-14.5-3.5-21.9
		c-1.6,3.2,0.6,6.8-4.1,7.6c3.2-2.6,1.3-6,3-9.4c1.7-3.2-2-6.6-1.3-11.1c-2.6,2.9,0,5.8-2.2,7.8c-1.3-0.3,0.3-2.6-1.9-2.4
		c-0.7,1.2,0.4,2.9-0.9,4c-0.6,0-1.2,0-1.7-0.1c-2.2-2.7,0.9-4.3,1-6.6c0.1-2-2.2-3.7-0.4-5.9c-1.2-1-2.9,0.4-3.6-0.6
		c1.7-5.6,1.4-11.5,4.2-16.5c-0.9-1.7-1.7-3.3-2.5-5c-1,3.2-4.2,5-4.5,8.5c-0.4-1.7-1-3.7-0.3-4.9c1.4-2,2-3.6,0-5.5
		c0.3-5-3.8-8.8-3.5-15.1c-1.4,3.2-0.6,6-4.2,6.8v-12.5c-1.1,2.3-1.5,3.4-2.2,4.5c-0.8-0.2-1.7,0.2-2.2-0.6
		c-1.2-1.8,1.4-2.5,1.4-4.5c-0.9-1.8-3.1-3.7-3.1-6.6v-7.4c-2.2,0.4-0.9,2.3-2,2.9c-5.2-7.2-3.5-15.6-3.8-23.7c-0.9-1-1.9-2-2.9-3
		c-0.3-1.7,0.6-3.5-0.6-4.9c-0.7-0.3-1.4-0.2-2,0.3c-2.2,2.9,3.2,5.3,0.4,8.1c-1.4-0.4-0.1-2.3-1.7-2.6c-1.4,1.9,0.4,4.5-1.7,6.6
		c-0.9,0.9-0.9,4,1.2,5.6c-1.1,0.6-1.3,1.5-1.3,2.4c-0.1-0.1-0.2-0.3-0.4-0.4c-0.7,0.4-0.7,1,0,1.4v0c0.2-0.1,0.4-0.3,0.5-0.4
		c0.1,1.2,0.3,2.4-0.4,3.1c-1.9,1.7-2.3-1.6-3.8-0.6c-0.5,1.7-0.1,3.5,1,4.8c-0.6,0.7-1.4,1-1.2,1.9c2.5,1.4,1,3.6,1.2,5.3
		c0,0.6-0.6,0.6-1.2,0c0-1.6,0-3.3-0.1-5.3c-1,0-2,0.6-2.7-0.3c-0.9-1.2,0.4-2.9-1-3.9c-0.9,0.4-1,1.6-2.2,1.4
		c0.1,4.6-1.3,8.8-2.7,13c-0.1-0.1-0.2-0.3-0.3-0.4c-0.9,1-1.1,2.5-0.5,3.7c0.1-0.2,0.2-0.4,0.2-0.5c0.2-0.7,0.4-1.3,0.7-2
		c0.4,1.1,0.2,2.4-0.7,3.3c-0.2-0.2-0.4-0.5-0.5-0.8c-0.3,0.5-0.8,1.2-1.7,0.6c-0.4-0.9,0.1-2-1.2-2.3c-1.4,1,0.1,2.7-1,3.9
		c-0.9,0.3-1.7,0.6-2.5,0.9c-0.1,4.2-0.1,4.2-2.6,6.4c-1-1.2,0.4-2.9-1.3-4c-1.2,3.2-2.3,6.2-3.5,9.4c1.4,1,2,2.8,1.4,4.5
		c-0.4,2,0.6,3.6,1.4,5.2c-2.5,2.9-1.2,6.4-1.3,7.9c0.7,3.5,2.6,3.3,4,4c-0.6,2.6,2.3,4.6,1.6,7.2c-0.1,0.3-0.6,0.6-0.9,0.9
		c-0.4,0-0.9-0.1-1.3-0.1c-1.6-0.9,0.6-3.3-1.7-4.2v3.5c-2.6,0.4-3.7,2.1-5.1,3.6c-0.7-1.4-1.4-2.7-2.1-4.1c-1-2.1,1.7-3.1,1.4-5.1
		c-1-1-2-2-2.6-2.7c-0.9-2.4,0.3-4.7-0.9-6.5c-1.1-0.3-2-0.3-2.6,1.3c-0.7,1,1.6,1.1,1.4,1.7c-1.1,2.1-2,3.7-2.7,5.3
		c2.6,3.7,1,7.5,1,11.4c-2.3-2.4-2.6-5.4-2.7-8.8c-2.4,1.8,0,4.5-2,6c-0.6-0.4-1.1-0.9-1.6-1.4c-2.1,2.8,1.3,4.7,1,7.1
		c-0.4,2.8-0.1,5.6-0.1,8.7c-3-1.3,0.1-4.6-2.6-6.3c0.4,3.6-1.6,6-3,8.7v8.7l-2,1.9v10c0.9,0.7,2,1.6,2.9,2.3c0,4,0.4,7.7-2.7,11.5
		c0-5.3-2.7-9.6-1.6-14.5c-0.8-0.2-1.6-0.4-2.4-0.7c-0.6-0.1-0.7-1.1-2.4-1.9c-0.7,1-1.4,2.1-2.6,3.9c1-6.2-0.7-11.2-1.7-16.2
		c-0.7,0.1-1.4,0.2-2.1,0.1c-0.9,2.7,0.7,6-2.3,8.7c3.4,1.6,2.7,5,1.9,6.9c-1.9,3.7-0.7,7.3-1.1,9.9c2.4,4.7,5.7,8.2,3.3,13.3
		c-1.1,2.6-1.1,5.5,0,8.2c1.9,4.7,2.7,9.7,2.3,14.7c0,0.4-0.4,0.7-0.7,1.3c-0.7-0.7-1.3-1.4-2-2.1c0.4-1.1,2.9-2.3,0.1-3.6
		c-2.9-0.1-2.6,3-4.2,4.2c-3.4-2.3-0.7-6.6-3.4-8.3c-0.1-1.4,1.7-1.4,1-2.7c-0.7-0.1-1.4-0.3-2-0.6c-1.3-1.6,0.3-3.9-1.6-5.3
		c1.9,4.4-4.2,8.2-0.4,12.7c-1.1,0-1.6-0.1-2.1-0.1c-1.6-1.6,0.1-3.7-1.7-4.6c-1-1.1-2-2.3-3.7-4.4c1.4,3.4-1.1,4.9-1,7.3
		c0.1,2.6,0,5,0,8.3c-2.4-2.3-0.3-4.9-2.3-6.4c-1.4,1.7,0.4,4.2-1.4,6c-1.7,1.9,0.3,4.6-1.1,6.9c-4-2.7-2-8.7-5.9-11.3
		c-1.4,1,0,2.9-1,3.9c-2.3,2.3-4.3,4.9-3.9,8.4c0.4,3.1,0,6.3,0.7,9.6c1,4.3,3,8.7,1.9,13.3c-6.9,1.6-13.3,3.7-20.2,5.2
		c-3.8,0.8-7.6,1.8-11.3,3v-1c-2.9,0.7-5.8-0.7-7.9-1.7c-9.5-4.5-19.4-7.6-29.2-11.2c-4-1.4-6-5.2-5.8-11.2c0.6-0.1,1.3-0.3,2.2-0.4
		c0.6-1.7,1.3-3.9,0-5.2c-2.6-2.4-3-5.9-5.3-8.8c1-0.1,1.6-0.3,2.4-0.4c1-0.7,0.3-2,0.6-3.7c-1.4-1.2-3-2.4-4.7-3.7l4.5-4.5
		c-2.4-1.6,0.1-5.2-2.9-6c0.3-2.4,2.3-2.9,3.2-4.9c-2.3-3-2.2-7.3-4.2-10.9c1.7-0.5,3.1-1.6,4-3c0.6-3.3-3.3-5.9-0.7-9.5
		c-3.5-1.9-3.7-5.8-6.6-7.5l4.2-4.2c-1.7-2.9-1.6-6.5-4-8.9c1.6-2.2,4.9-3.3,4.2-7.6c-1.3-1-2.9-2.3-4.7-3.7c3.2-1.3,1-4.5,3.3-5.8
		c-2-1.7-4.2-3.6-6.2-5.3l3.4-3.4c-0.9-4.9-3.3-9.4-5.8-13.8c1-3,5.3-3.7,4.2-8.5c-1.6-1.4-3.6-3.3-5.9-5.5c1.2-2.7,3.9-4.2,4.3-7.3
		c-2-2.9-3.6-6.8-6.6-9.5c2.9-3.6,3.6-7.3,1.3-11.8c-2.2-3.9-1.9-4.6,0-8.9c-1-2.4-2-4.9-2.9-7.3c-0.1-0.5-0.1-1,0-1.4
		c1.2-1.9,2-3.9,1.3-5.9c-1.2-3.6-2.6-7.1-4-10.5c-0.4-0.9,0.1-2.6-2.4-2.3c-1.2,1.3-0.9,3.9-1.9,5.8c-0.9,1.6-0.7,3.9-1.6,5.8
		c-0.7,1.6-0.1,3.5-1.4,5.2c-1.6,2,1.7,3.6,1.3,5.8c-0.9,3.7-4,6.5-4.3,10.5c-0.1,2.6,1.6,4.2,2.6,6.5c-0.9,1.6-1.7,3.5-2.9,5.6
		c2.6,3.7,2,7.2-1.2,10.2c-2.4,2.2-1.6,4,0.4,6.5c-2.4,2.6-2.9,6.2-4.3,9.5c1.4,2.2,1.2,5.8,4,7.1c-0.4,4.2-3.6,6.2-5.8,8.8
		c-0.4,2.4,2.3,2.9,2.9,4.6c0.1,3.6-1.9,6-4.3,8.3c1.3,1.3,2.7,2.7,4.2,4c-1.2,1.3-0.9,3.5-2.9,4.5c1.2,0.9,2,1.6,2.7,2.2
		c1.2,4.3-0.6,7.3-3.3,10.2c-0.7-1.4-1.4-2.9-2.2-4.2c1.3-2.3,2.4-4.6,0.9-7.1c-1.4-2.3-1.3-4.3,0.4-7.1c-1-0.3-2.4-0.9-2.6-0.9
		c0-12.7,0-12.7-3.2-18.1c4.5-4.3-1.6-9.1,0.3-13.4c-1-1.3-1.9-2.4-3.2-2.7c-0.6,0.4-1.3,0.7-1.3,1c-0.1,2,0.6,4.3-1.4,5.9
		c0.9,3.7-3.3,7.3,0,11.1c-0.7,2.7-1.6,5.6-2.3,8.3c-0.7,2.7-1.6,5.5,0.9,7.8c-2.9,2.6-2,6.8-4.5,9.2c0.4,1.7,1.4,1.6,2.9,1.6
		c-1.6,3-2.4,6-4.3,8.3c0.3,3,1.9,5,3,7.2c-0.9,2.7-3.3,4.9-2.9,8.1c0.6,1.2,1.7,0.6,2.7,1.3c-1.2,0.7-2.2,1.3-2.7,1.6v10.2
		c-0.7,1.2-1.6,0.9-2.3,0.9c-1.3-1.6-0.1-4.2-2.5-5.6c3.7-3.7,0.6-6.5-1-9.7l2.9-2.9c-0.9-2.7-3-5.2-3.6-8.9c0.4-0.9,0.3-3,2.2-3.9
		c-0.6-2.8-2.1-5.4-4.3-7.2c-0.3-2.9,1.7-1.7,2.5-2.6c0.9-1.3,0.3-2.7,0.4-4.8c-1.6-1.4-3.5-3.2-3.9-6.1c1.2-1.4,1.4-4.3,4-5.3
		c-2.7-2.5-2.3-6.2-4.5-8.9c0.7-0.6,1.7-1.2,2-1.4c2.6-5-3.6-9.5,1.3-13.7l-5-5c1-2,1.9-3.6,2.7-5.3c-1.2-3.5-2.5-7.1-3.9-11.1
		c4.3-5.5-1.6-11.1-0.1-16.6c-2-1-2.7,0-3.5,0.9c-1,1.3-5,12.8-5.2,14.4c0,1.2-0.4,2.7,0,3.6c3.5,4.9,0.1,8.1-2.7,11.4
		c-0.5,0.6-1.1,1.2-1.7,1.7c0.1,2.5,2.2,2.9,3.2,4.8c-2.7,4-3.5,9.5-8.1,13c1.6,2.7,5.3,0.7,6.1,3.6c-0.6,2.5-2.7,4.3-2.6,7.2
		c0.1,2.6,3,4.5,0.7,7.9c-1.9,1.4-2.3,5-5.3,6.9c1,2,2,3.9,3.2,6.2c1.3,3.7-1.7,7.2-2.7,9.9c-0.4,3.2,1.6,3.7,2.7,5.3
		c0.4,4-1,8-3.7,11c-4.1-2.2-7.9-5.1-11.1-8.5c-11.2-11.4-22.8-22.8-34.3-34.3c1.3-12-2.3-23.9-1.3-36c-2.2-1.3-4.6-0.1-6.5-0.7
		l-1.6-1.6l-15,0.9l-2.2,2.2c-1.4-1.7-3-2-5.2-0.7v24c-10.5,0-20.7,0.1-31,0c-10.3-0.1-20.7,1-31,1.3c-20.3,0.6-40.7,0.1-60.8,0.1
		c-1.4,1.4-2.3,2.9-3.7,3.7c-5.5,3-9.6,7.8-14.4,11.8c-5.2,4.5-10.3,8.9-15.4,13.5c-6.8,6-14.1,11.4-20.5,18c-0.5,0.6-1,1-1.6,1.4
		c-6.1,3.9-11.6,8.5-16.5,13.8c-0.9,0.9-1.6,2.2-2.6,2.4c-3.9,1.3-5.5,4.7-9.1,7.6c3,3.5,4.3,7.5,7.3,9.5c4.9,1.4,8.5-1.7,12.9-1.3
		c4,0.4,7.9-2.6,12.2-1c0.4,1.3,0.9,2.7-0.6,4.2H159c-0.3,1.4-0.4,2.6-2,3.5c3,0.7,1,3.2,2.4,4.9c2,0.4,4.5-0.6,6.6,0.6v0.8
		c-3.8,1.4-7.5,2.7-11.4,2.1c-0.9,2.1,0.2,4.4-2.1,5.6c2.1,0.5,0.7,3,2.6,3.6h8.7c0.6,0.9,1.9,1.4,1.8,3h-7c-0.7,1.4-1.3,2.6-1.9,4
		c2.3-0.1,0.6,2.5,2.2,3.2c2.4-0.6,4.3,1.3,6.2,2v5.3c-5.5-1.3-10.2,1.2-15.2,1.3c-2.2,0.1-4.2,1.4-6.2,2.3
		c-1.9,0.7-3.7,1.6-5.5,2.6c-2,1-1.3,4.5-4.2,4.9c-0.2-2.1-0.8-4.1-1.9-5.9c1.2-1.2,2.2-2.5,3.2-3.6c-1.2-2.5-2.3-4.6-3.6-7.2
		c1.3-0.9,2.4-1.6,3.6-2.3l-1.9-1.9c-0.1-0.1-0.4-0.3-0.4-0.6c-0.7-2.2-1.4-4.2-2.2-6.3c1-0.4,2-1,3-1.4c0-5.2-3.9-9.2-4.5-14.6
		c1-0.7,2.2-1.6,3-2.2c-2-5.6-9.2-9.4-3.6-16.6c-1.9-1.4-3.6-2.7-4.7-3.8c0.4-2.3,2.9-2.5,2.6-4.6c-0.6-1.6-2.7-2-2.9-4.5
		c0.7-2.5,2.7-5.2,0.1-8.4c-0.9-1.7-0.9-3.8,0-5.5c2-2.9,0.9-5.1-0.1-7.6c-1.1-2.8-1.9-5.7-2.4-8.7l-0.9-2.6c-1,1-1.9,1.4-2,2
		c-0.6,6.5-6.8,12-3.2,19.5c-1,0.9-2.2,1.7-3.3,2.6c1.3,2.7-0.7,4.9-1.2,7.1l1.6,1.6c-2.3,1.3-2.7,3.9-4.3,5.9
		c1.6,1,1.4,3.2,2.6,4.3c-2.3,1.9-3.3,4.3-4.3,6.8c1.2,1.6,3,2.2,3,4.6c-2.3,2.3-5.3,4.8-5.6,7.9c1.2,4.3,4.6,2.2,7.3,3.3
		l-10.4,10.4c1,2.9,2.2,5.3,3.6,6.5c0,3-1.7,4.8-3.9,6.6c1.7,1.6,3.2,2.7,5.3,4.6l-6.5,6.5c0.3,1.3,2.9,1.9,3,4.3
		c-4.3,4-3.2,9.2-1.4,13.9c-1.6,3.3-4.5,4.5-7,5.8c-2.4,1.2-5,1.9-7.5,2.9c-5.8,2.5-11.4,5.1-17.3,7.8c-2.3,1-29.9,18.9-69.1,36.6
		l1921,0.1V183.8C1918,183.8,1918.9,182.1,1918.3,181.2z M1868,107.8c0.1-0.1,0.2-0.3,0.3-0.3l0,0c0.7,0.4,0.7,1,0,1.4
		C1867.9,108.7,1867.8,108.2,1868,107.8z M1772.7,64.6c0.1-0.1,0.2-0.3,0.3-0.3v0c0.7,0.4,0.7,1,0,1.4
		C1772.6,65.5,1772.5,65,1772.7,64.6z M1687,100.3L1687,100.3c-0.7-0.4-0.7-1,0-1.4C1687.7,99.3,1687.7,99.8,1687,100.3z
		 M1692.8,107.5L1692.8,107.5c-0.8-0.6-1-1.6-0.4-2.4c0.1-0.2,0.3-0.3,0.4-0.4C1694,105.6,1694,106.5,1692.8,107.5z M1677.3,136.4
		c0.3-3.5-4-5.8-1.9-8.8c3.2,1.2,1.3,4.9,2.3,5.5C1677.6,134.4,1677.4,135.4,1677.3,136.4z M1597,185.9c0.4-0.7,1-0.7,1.4,0
		C1598,186.6,1597.6,186.6,1597,185.9L1597,185.9z M1595.7,188.4c0.1-0.1,0.2-0.3,0.3-0.3v0c0.7,0.4,0.7,1,0,1.4
		C1595.6,189.3,1595.5,188.8,1595.7,188.4z M1287.5,276c0.9,0,1.3,0.5,1.3,1.4C1287.9,277.3,1287.5,276.9,1287.5,276z M1291.3,280.1
		C1291.3,280.1,1291.3,280.1,1291.3,280.1c-1.2-0.4-2.1-1.4-2.3-2.7c0.8,0,1.6,0.1,2.3,0.1C1292,278.2,1292,279.4,1291.3,280.1z
		 M1294.5,283c-0.1-0.1-0.3-0.1-0.4-0.2c-0.6-0.6-2-1-1.7-2.3c2.3-1,2.9,1,4,1.9C1296.1,283,1295.2,283.3,1294.5,283z M1146,222.6
		L1146,222.6c-0.7-0.4-0.7-1,0-1.4C1146.7,221.6,1146.7,222.1,1146,222.6z M1080.2,270.8c-0.6-0.4-1.3-1.1-1.9-1.6l0,0
		C1080.5,268.7,1080.5,268.7,1080.2,270.8z M1047,198.5c0-1,0.1-2,0.2-3C1047.4,196.6,1047.4,197.6,1047,198.5z M1049.6,198
		L1049.6,198c-0.7-0.9-0.7-1.6,0.4-2.5C1049.7,196.2,1051.4,197.4,1049.6,198z M989,201.6L989,201.6c-1-1.9-0.1-3.6,3-5.2v8.5
		c-2,1.2-3,3-4.7,1.2C986.3,204,989.4,203.6,989,201.6z M898.7,134.8L898.7,134.8c-0.7-0.4-0.7-1,0-1.4
		C899.4,133.8,899.4,134.4,898.7,134.8z M597.5,421c-0.3-1-0.7-1.7,0.4-2.9C599,419.5,599.4,420.4,597.5,421z M617.4,420.4
		c0.6-0.7,1-0.7,1.4,0C618.4,421.1,617.8,421.1,617.4,420.4z M640.1,352.9c-0.4,0.6-1.2,0.9-1.9,0.7c-2.4-4.1-2.4-4.2-2.4-8.2
		c1,1.4,2.2,2.7,3.5,3.8c-0.1,0.1-0.3,0.4-0.6,0.7C639.3,350.9,640.6,351.5,640.1,352.9z M661,291.3c0.3-0.7-1.4-1.9,0.4-2.4
		C662.3,289.8,662.3,290.6,661,291.3z M700.1,304.6L700.1,304.6c-0.8-0.5-1-1.6-0.4-2.4c0.1-0.2,0.3-0.3,0.4-0.4
		C701.3,302.7,701.3,303.6,700.1,304.6z M705.2,331.2c-0.4,0.7-1,0.7-1.4,0C704.3,330.5,704.7,330.5,705.2,331.2L705.2,331.2z
		 M711.6,354.9L711.6,354.9c-0.8-0.5-1-1.6-0.4-2.4c0.1-0.2,0.3-0.3,0.4-0.4C712.8,353.1,712.8,353.9,711.6,354.9z M724.9,390.3
		c-0.6-0.1-1-0.6-0.9-1.2c0,0,0-0.1,0-0.1h0c-0.4-0.1-1.2-0.3-1.2-0.4c-0.1-0.6,0.1-0.9,1.2-0.4v0.9c0.5-0.2,1.1,0.1,1.2,0.6
		c0,0.1,0,0.2,0.1,0.3C725.2,390.1,725.1,390.2,724.9,390.3z M736.1,357.8c-0.7-0.4-0.7-1,0-1.4
		C736.8,356.8,736.8,357.4,736.1,357.8z M754.8,317.5L754.8,317.5c-0.7-0.4-0.7-1,0-1.4C755.5,316.5,755.5,317.1,754.8,317.5z
		 M761.1,327c-0.1,0.2-0.2,0.4-0.4,0.4c-0.5,0-0.9-0.5-0.9-1c0-0.1,0-0.2,0.1-0.3c-1,0-1.4-0.4-1.4-1.4c-1.2-0.3-1.4,1-2.4,1.4
		c-0.7-2-0.7-4.1,0.1-6c0.9,1.9,1.6,3.2,2.3,4.6c1,0,1.4,0.4,1.4,1.4c0.5-0.2,1.1,0.1,1.2,0.6C761.1,326.8,761.1,326.9,761.1,327
		L761.1,327z M768.3,302.6c-0.1,0.2-0.2,0.4-0.4,0.4c-0.7-0.1-1-0.6-1-0.9c-2.3-1.6-1-3.7-1.2-5.5c0-0.6,0.6-0.6,1.2,0
		c0,1.6,0,3.3,0.1,5.2C767.7,301.5,768.2,301.8,768.3,302.6L768.3,302.6z M808.8,186.9C808.8,186.9,808.8,186.9,808.8,186.9
		C808.8,186.8,808.8,186.8,808.8,186.9C808.8,186.8,808.8,186.8,808.8,186.9z M809.6,194h-2.1c0-1.5-0.5-3.1,0.5-5.5
		c-0.2-0.1-0.3-0.2-0.3-0.4c0-0.4,0.3-0.8,0.8-0.9c-0.1,0.3-0.3,0.6-0.4,0.9c0,0,0.1,0.1,0.1,0.1c0.1,0,0.2,0,0.3-0.1
		c0.2-0.1,0.3-0.2,0.4-0.3c0-0.2,0-0.4,0-0.6c0,0,0.1,0,0.1,0c0.1,0.3,0,0.6-0.2,0.9c-0.1,2.6-0.1,4.2,1.4,5.3l0,0
		c0.1,0.1,0.1,0.1,0.3,0.1C810.1,193.6,809.8,193.7,809.6,194z M825,186.5L825,186.5c-0.7-0.9-0.7-1.7,0.6-2.3
		C825.1,184.7,826.9,186,825,186.5z M825.3,179.4c-1.2-1.3-1.2-3.2,0-4.5C826.4,176.2,826.4,178.1,825.3,179.4z M832.3,203.7
		c-0.9-0.7-0.6-1.7-0.4-2.6c0.3-1.3-1.9-1.4-0.4-2.2c0.3-0.9,0.6-1.7,0.9-2.4c-0.7,3,2.6,4.3,2.4,6.6
		C834.2,203.9,833.2,204.2,832.3,203.7z M849.7,235.5c0.7,0.4,0.7,1,0,1.4l0,0C849,236.5,849,235.9,849.7,235.5z M849.3,242.1
		c1.2-1,0.7-2.9,2.2-3.7c0.7-0.1,1.5,0.2,2,0.7c1,1.7-1.6,2-1.4,3.6C851.2,242.4,850.2,243.1,849.3,242.1z M858.4,252.6
		c-1.6,1.2,0.3,3.3-1.4,4.3c-0.6-1.6-2.6-1-3-2c-2.4-3.9-1.9-8.1-1.9-12.2c3.7,0.6,4.6,4.5,7,6.5
		C856.7,249.9,859.7,251.8,858.4,252.6z M863.4,249.2c0.6-0.7,1-0.7,1.4,0C864.4,249.9,863.8,249.9,863.4,249.2z M881.4,241.3
		c0.7,0.4,0.7,1,0,1.4l0,0C880.7,242.3,880.7,241.7,881.4,241.3z M876.4,260.7c-0.5,0.8-1.6,1-2.4,0.4c-0.2-0.1-0.3-0.3-0.4-0.4
		C874.5,259.7,875.5,259.7,876.4,260.7z M873.1,247.3c0.7,0.7,0.7,1.6-0.6,2.3l0,0C872.9,248.9,871,247.7,873.1,247.3z M868.2,258.1
		c-0.9-0.6-2-1.3-1.9-2.7c1.2-1.9,1.6-4.3,3.6-5.6c1.1,1.3,2.3,2.4,3.4,3.6c-1.9,2.3-2.6,5-3.3,8.2
		C868.9,260.3,869.3,258.8,868.2,258.1z M869.5,264.4L869.5,264.4c1,0.7,2,1.1,3,1.9C868.7,268,869.2,266.3,869.5,264.4z M874.2,283
		c-0.7,0-1.9,0.4-2-0.9c0.7-0.6,1.4-1.3,2-2l0,0l2.6,2.6C875.5,282.8,874.9,283,874.2,283z M877,279v-3.3c0.9,0.1,1.7,0.2,2.6,0.4
		C879.2,277.5,878.4,278.1,877,279z M881.4,290.2c-0.4-0.2-0.5-0.7-0.3-1.1c0.1-0.1,0.2-0.3,0.3-0.3l0,0
		C882.1,289.2,882.1,289.7,881.4,290.2z M880.3,252.9c-0.7-0.3-1.9,0-2.3-1v-2.7c2.7,1.3,2.7,1.3,4.3,4.3
		C881.2,254.6,881,253.1,880.3,252.9z M895.6,146.5c0.4,1,1.2,1.8,2.2,2.2c-0.1,0.2-0.2,0.4-0.4,0.4c-0.4-1-1.2-1.8-2.2-2.2
		C895.3,146.7,895.4,146.5,895.6,146.5z M892.9,149.2L892.9,149.2c-0.7-0.4-0.7-1,0-1.4C893.6,148.2,893.6,148.8,892.9,149.2z
		 M894.3,159.3L894.3,159.3c-0.8-0.6-1-1.6-0.4-2.4c0.1-0.2,0.3-0.3,0.4-0.4C895.5,157.4,895.5,158.3,894.3,159.3z M897.4,194h-2.3
		c0.3-2.6-0.4-4.9,0.6-7.2l0,0c0.6,0.1,1.1,0.2,1.7,0.1c1.4,1.9,0.3,3.6-0.4,5C897.1,192.8,898.4,192.8,897.4,194z M898.7,228.3
		c-0.4-0.2-0.5-0.7-0.3-1.1c0.1-0.1,0.2-0.3,0.3-0.3l0,0C899.4,227.3,899.4,227.9,898.7,228.3z M898.8,160.6c-0.4-1-1.2-1.8-2.2-2.2
		c0.1-0.2,0.2-0.4,0.4-0.4c0.4,1,1.2,1.8,2.2,2.2C899.2,160.3,899,160.5,898.8,160.6z M900.1,198.1L900.1,198.1
		c-0.8-0.6-1-1.6-0.4-2.4c0.1-0.2,0.3-0.3,0.4-0.4C901.2,196.2,901.2,197.1,900.1,198.1z M900.1,175.1c0.7,0.4,0.7,1,0,1.4l0,0
		C899.4,176.1,899.4,175.5,900.1,175.1z M901.8,129c0.1-0.9-3.6-1.7-2-4l0,0C902.3,127.3,902.3,127.3,901.8,129z M902.1,121.3
		c-0.1,0.2-0.2,0.4-0.4,0.4c-0.5,0-0.9-0.5-0.9-1c0-0.1,0-0.2,0.1-0.3c-0.5,0.2-1.1-0.1-1.2-0.6c0-0.1,0-0.2-0.1-0.3
		c0.1-0.2,0.2-0.4,0.4-0.4c0.5,0,0.9,0.5,0.9,1c0,0.1,0,0.2-0.1,0.3c0.5-0.2,1.1,0.1,1.2,0.6C902.1,121.1,902.1,121.2,902.1,121.3
		L902.1,121.3z M924,205.9c0.1-3.5,0.1-3.5,1-3.3c0.7,1.7,0.2,3.3,0.3,4.9l-3.6,3.6c-1-0.6-2.3,0.4-3.3-0.7
		C919.7,208.3,921.7,206.7,924,205.9z M918.2,178c-0.2-0.5,0.1-1.1,0.6-1.2c0.1,0,0.2,0,0.3-0.1c0.2,0.1,0.4,0.2,0.4,0.4
		c-0.1,0.7-0.6,1-1,0.9c-1.3,1.6-1.9,3.6-4.6,2.6l0,0C914.9,178.7,916.1,177.7,918.2,178z M913.2,218.4c0.9,0.9,0.9,1.7-0.4,2.5l0,0
		C913,220.1,911.3,219,913.2,218.4z M911.7,181c0.9,0.9,0.9,1.7-0.1,2.9l0,0C910.7,182.6,910.3,181.7,911.7,181z M912.3,209
		L912.3,209c0.1,1.9-1.4,2.3-2.7,3.6c0.9-2-1.2-2.6-1.4-4.2C909.9,208,911.3,207.5,912.3,209z M910.2,219.7L910.2,219.7
		c-0.7-0.4-0.7-1,0-1.4C910.9,218.7,910.9,219.3,910.2,219.7z M909.6,142c-0.1,1.3,0.3,2.3-1,2.7C907.7,143.7,907.7,142.9,909.6,142
		z M911.6,142c-0.7,0-1.4,0-1.9-0.7l0,0c0,0.1-0.1,0.4-0.1,0.6c-0.6-2,0.7-3,2.3-4C912.8,139.3,913,140.7,911.6,142z M908.7,120.4
		c0.7,0.4,0.7,1,0,1.4l0,0C908,121.4,908,120.8,908.7,120.4z M908.3,126.9c0.9-0.6,1.3-1.7,2.7-1.9v7.8c-0.7,0.4-1,1.7-2.3,1.7
		c-1.4-1.9,1.2-2.6-0.1-4.9l0,0c0.4,0.2,0.8,0.4,1.2,0.6C909.6,128.9,907.4,128.6,908.3,126.9z M907.6,101.9
		c0.7,0.9,0.7,1.7-0.6,2.3C907.4,103.6,905.6,102.3,907.6,101.9z M907.1,130.3c-0.9,0.2-0.4-0.3-0.4-0.4l0,0
		c0.1-0.4,0.4-0.7,1.3-0.4C908,129.9,907.7,130.2,907.1,130.3z M908.2,233.5L908.2,233.5c0.9,0.3,1.9,0.7,3,1
		C908.4,235.5,907.4,234.9,908.2,233.5z M911.6,232.6c-0.4-0.2-0.5-0.7-0.3-1.1c0.1-0.1,0.2-0.3,0.3-0.3l0,0
		C912.3,231.6,912.3,232.2,911.6,232.6z M913,263.1c-0.9-1.4-0.9-3.3,0-4.7C914,259.8,914,261.7,913,263.1z M918.1,266.4
		c-0.4,0.7-1,0.7-1.4,0C917.2,265.7,917.7,265.7,918.1,266.4L918.1,266.4z M919.2,251c-1-0.6-1.9-1.1-3-1.9l0,0
		C920.1,247.6,919.7,249.3,919.2,251z M921,265c-0.4,0.7-1,0.7-1.4,0C920.1,264.3,920.5,264.3,921,265L921,265z M923,230.3
		c-1.7,1,0.7,3-1.4,3.5c-1.3-0.4,0.3-2.6-1.7-2.3l-0.7,2.2c-3.3-0.6-5.2-3.3-8.2-4.5c1.2-1.1,1.8-2.7,1.3-4.3c2.3-3,5.9-4.3,8.8-6.6
		l0,0c0.1-0.1,0.9,0.3,1.2,0.4c0,1.2-1.7,1.4-1,3.2c2,1.9,3.5,4.3,4.3,6.9C924.8,230,923.7,229.6,923,230.3z M928,215.9
		c-0.1,0.7-0.6,1-1,0.1c-0.4,1.7,0.4,3-1.2,3.6c-1-1-0.9-1.9,0.9-2.7c-0.2-0.5,0.1-1.1,0.6-1.2c0.1,0,0.2,0,0.3-0.1
		C927.7,215.5,928,215.8,928,215.9L928,215.9z M928,198.7c-1,0.4-1.8,1.2-2.2,2.2c-0.2-0.1-0.4-0.2-0.4-0.4c1-0.4,1.8-1.2,2.2-2.2
		C927.8,198.3,927.9,198.5,928,198.7L928,198.7z M935.3,202.6c0.4-2.4,2.9-2.6,4.3-3.7c0.3-1.2-0.6-2.4,0.7-3.5
		c1.7,1.2-0.1,3.7,2,4.7c-3.2,3.6,1,6.2,1.3,9.1c-0.4,0.7-1.3,1-1.1,1.9c0.5-0.2,1.1,0.1,1.2,0.6c0,0.1,0,0.2,0.1,0.3
		c-0.1,0.2-0.2,0.4-0.4,0.4c-0.6-0.1-1-0.6-0.9-1.2c0,0,0-0.1,0-0.1c-1.6-0.9-3-2.3-4-3.9c-0.6,2.4,0.6,4.2-1.2,5.3
		c-1-1.4-1.2-2.9,0.9-4.3c-0.6-1.6-2-2.7-1.4-4.7c0.1-0.6-0.6-1.2-1.2-1.7c-0.4,1.7,0.4,3-1.2,3.6
		C933.5,204.3,933.6,203.4,935.3,202.6z M928.9,208h3.6c-0.2-0.5,0.1-1.1,0.6-1.2c0.1,0,0.2,0,0.3-0.1c0.2,0.1,0.4,0.2,0.4,0.4l0,0
		c-0.1,0.7-0.6,1-1,0.9c-1.9,1.6-1.4,3.7-2.2,5.6C928.3,212.2,927.1,210.4,928.9,208z M937.6,247c-1.3-0.4-0.3-2.2-1.6-2.7
		c-0.9,0-1.9,0.1-2.2-1.3c0.7-1.6,1.4-3,2.2-4.6l0,0c1.2,0.3,2.3-0.4,3.2,0.3C940.8,242.1,938.7,244.4,937.6,247z M940.5,226.6
		c-1.6,3.3-5.9,3.9-7.5,6.2c-0.7,2.2,0.6,2.5,0.9,3.3l0,0l-1.6,1.6c-1-0.6-2-1.2-3.6-2.2c3.5-2.3,2.9-4.7,1.2-7.3
		c2.4-1.3,4.6-2.4,7.1-3.7c0.6-2-0.7-4.5,0.7-6.5h1.6c1.6,1.6-0.1,3.7,1,5.3c1,1.3,2.9,1.9,2.6,4
		C941.7,228.6,941.4,227.1,940.5,226.6z M941.7,240.3c-0.3-1-0.4-1.6-0.6-2.2c0-0.9-0.3-1.9,0-2c1,0.4,2,0.8,2.9,1.3
		C943,238.5,942.5,239.2,941.7,240.3z M946.6,232c0.7-1.4-0.4-2.7,0.9-4h2.7C948.9,229.6,951.3,232.5,946.6,232z M954.2,286
		c-0.7-1-1.4-2.2-2-3c-1.7,0.6-0.4,2-1.9,2.6l-2.2-4.3c-0.1-0.1,0-0.4,0.1-1.6c0.9,1.3,2.5,2,4,1.9c1.9,0,2.6,1.3,3.2,2.6l0,0
		C955.8,284.7,955.5,285.4,954.2,286z M956.3,212.3c-0.4-1-1.2-1.8-2.2-2.2c0.1-0.2,0.2-0.4,0.4-0.4c0.4,1,1.2,1.8,2.2,2.2
		C956.7,212.1,956.6,212.3,956.3,212.3z M961.2,243.4c0.6-0.7,1-0.7,1.4,0C962.2,244.1,961.7,244.1,961.2,243.4z M966.6,159.5
		c0.7,0.7,0.7,1.6-0.6,2.3l0,0C966.4,161.1,964.5,160,966.6,159.5z M966.4,178.1l-1.7-1.7c-0.9-0.9-0.7-1.7,0.1-2.7l0,0l1.7,1.7
		C967.4,176.1,967.3,177,966.4,178.1z M967.1,169.2c-1.6-0.7-2.9-1.2-4.2-1.7c-0.1-2.2-2.9-3.7-1.2-6.9c0.1,0.1,0.1,0.1,0.2,0.2v0.4
		c0,0,0-0.1,0-0.4C964.5,163.1,966.6,165.4,967.1,169.2L967.1,169.2z M985,198.3c0.1,0,0.2,0,0.3-0.1c0,0,0.3,0.3,0.3,0.4
		c-0.1,0.7-0.6,1-1.1,0.7c0,0,0,0.1,0,0.1C984.3,199,984.5,198.5,985,198.3z M969.9,141.3c0.6-0.7,1-0.7,1.4,0
		C970.9,142,970.3,142,969.9,141.3z M970.6,152.1L970.6,152.1c-0.8-0.6-1-1.6-0.4-2.4c0.1-0.2,0.3-0.3,0.4-0.4
		C971.7,150.2,971.7,151.1,970.6,152.1z M976.1,163.7L976.1,163.7c-0.7,3-1.7,4.7-4.9,3.7C971.7,165,972.5,163.3,976.1,163.7z
		 M974,173.2v-0.1C974.3,171.9,975.6,171.9,974,173.2z M973.3,178L973.3,178c-0.7,0-1.4,0.1-2-0.9c1.7,0,1.3-1.4,2.9-2.9
		C974.2,175.7,974.8,177.1,973.3,178z M974.9,191.2c-0.9-1.9-1-3.2,0-4.7l0,0C975.8,187.9,975.8,189.8,974.9,191.2z M976.4,173.6
		c-0.4-0.1-0.9,0-1.3,0.1c0.6-0.5,1.3-0.8,2-1C976.8,173.1,976.6,173.3,976.4,173.6z M979.2,196.7L979.2,196.7c-0.7-0.4-0.7-1,0-1.4
		C979.9,195.7,979.9,196.2,979.2,196.7z M980.5,206.6c-0.9-0.9-0.7-1.7,0.4-2.4l0,0C980.7,204.9,982.4,206,980.5,206.6z
		 M980.5,248.3L980.5,248.3c-0.7-0.9-0.7-1.7,0.6-2.3C980.7,246.6,982.4,247.9,980.5,248.3z M980.1,201.7c1.4-0.7,2.9-1.6,4.3-2.2
		c-0.1,0.9-0.1,1.8-0.3,3.2C982.7,201.8,981.4,203,980.1,201.7z M986,218.1c-2.2,0.3-3,0-2.7-2.1l0,0c0.9-0.1,1-1.9,2.7-1.7V218.1z
		 M1000.8,247.2L1000.8,247.2c-0.9-1.5-0.9-3.3,0-4.8C1001.8,244.3,1001.8,245.6,1000.8,247.2z M1005,225.3L1005,225.3
		c-0.7-0.9-0.7-1.6,0.4-2.5C1005.1,223.6,1006.8,224.7,1005,225.3z M1035.3,222.6L1035.3,222.6c-0.8-0.6-1-1.6-0.4-2.4
		c0.1-0.2,0.3-0.3,0.4-0.4C1036.5,220.7,1036.5,221.6,1035.3,222.6z M1054,211.1L1054,211.1c-0.7-0.4-0.7-1,0-1.4
		C1054.8,210,1054.8,210.6,1054,211.1z M1060.1,231h-2c-0.7-1.7-0.6-3.7,0.3-5.3C1058.1,227.7,1061.7,228.6,1060.1,231L1060.1,231z
		 M1061.2,242.7L1061.2,242.7c-0.8-0.6-1-1.6-0.4-2.4c0.1-0.2,0.3-0.3,0.4-0.4C1062.4,240.8,1062.4,241.7,1061.2,242.7z M1062,234.8
		L1062,234.8c0.4-0.7,1-0.7,1.4,0C1063,235.5,1062.5,235.5,1062,234.8z M1063,230.5L1063,230.5c0.4-0.7,1-0.7,1.4,0
		C1064,231.2,1063.6,231.2,1063,230.5z M1072.7,274.4c0.7,0.4,0.7,1,0,1.4l0,0C1072,275.4,1072,274.8,1072.7,274.4z M1069.3,270.9
		c1-0.4,1.8-1.2,2.2-2.2c0.2,0.1,0.4,0.2,0.4,0.4c-1,0.4-1.8,1.2-2.2,2.2C1069.5,271.3,1069.3,271.1,1069.3,270.9z M1070.4,281
		c0.3-1.3,0.3-1.9,0.4-2.6c1.4,0.4,2,1.2,2.9,2.6H1070.4z M1074.2,272.8L1074.2,272.8l2.2-2.2c0.3,0.4,0.4,1.3-0.6,2.4
		C1075,272.9,1074.3,272.8,1074.2,272.8z M1087.1,290.2L1087.1,290.2c-0.7-0.4-0.7-1,0-1.4C1087.8,289.2,1087.8,289.8,1087.1,290.2z
		 M1095.9,372.5c-0.4,0.9-0.9,1.9-1.6,3.2C1092.7,371.5,1094.5,372,1095.9,372.5z M1095.6,384.3L1095.6,384.3
		c0.1,0.4,0.1,0.7,0.3,1.1c-0.3-0.3-0.6-0.5-0.9-0.7c0.1-0.2,0.1-0.5,0-0.7c-1-2-1.6-3-1.7-3.3c0-0.3,0.4-1.3,0.7-2.4
		c1,1.3,0.9,2.4,1.2,4.7h0.3C1096.8,383,1096.8,384.3,1095.6,384.3z M1099.4,326.9c0.6-0.7,1-0.7,1.4,0
		C1100.4,327.6,1099.8,327.6,1099.4,326.9z M1099.6,322.8c0.3-0.1,0.4-0.4,0.7-0.7l0,0C1100.5,322.6,1100.5,323.6,1099.6,322.8z
		 M1103,392.3L1103,392.3c-0.7-0.4-0.7-1,0-1.4C1103.7,391.3,1103.7,391.9,1103,392.3z M1103,350.6L1103,350.6c-0.7-0.4-0.7-1,0-1.4
		C1103.7,349.6,1103.7,350.2,1103,350.6z M1103.7,332.2c-0.7-2.4,2.4-4.2,1.9-5.5c-2.2-1.9-3.5-3-5.2-4.6l0.3-0.3
		c-0.7-0.1-1.6-0.3-1.7-0.3l5.9-5.9c0.9,5.8,1.7,12.2,2.6,19.1C1105.3,334.9,1104.4,333.6,1103.7,332.2z M1154.7,218.4L1154.7,218.4
		c-0.9-1.4-0.9-3.3,0-4.8C1155.8,215.5,1155.8,216.8,1154.7,218.4z M1167,240.5c0.6-0.7,1-0.7,1.4,0
		C1168,241.3,1167.4,241.3,1167,240.5z M1167,236.2c0.6-0.7,1-0.7,1.4,0C1168,236.9,1167.4,236.9,1167,236.2z M1176.3,241
		c1,1.4,1,3.3,0,4.8l0,0C1175.4,244.3,1175.4,242.4,1176.3,241z M1176.3,254.2c-0.4-0.2-0.5-0.7-0.3-1.1c0.1-0.1,0.2-0.3,0.3-0.3
		l0,0C1177,253.2,1177,253.8,1176.3,254.2z M1178,272.8c-2,0.3-2.9,0-2.7-2.2c0.9-0.1,1-1.9,2.7-1.7V272.8z M1184.8,281.6
		c-0.8-1.2-0.9-2.8-0.1-4c1-0.4,1.7-0.4,2.3,0.3l0,0C1186.3,279.1,1185.5,280.3,1184.8,281.6z M1192.9,278c0.6-0.7,1-0.7,1.4,0l0,0
		C1193.9,278.7,1193.3,278.7,1192.9,278z M1226.7,357.8c-0.7-0.4-0.7-1,0-1.4C1227.4,356.8,1227.4,357.4,1226.7,357.8z
		 M1248.3,346.3L1248.3,346.3c-0.7-0.4-0.7-1,0-1.4C1249,345.3,1249,345.9,1248.3,346.3z M1253.3,331.2c-0.4,0.7-1,0.7-1.4,0
		C1252.4,330.5,1252.9,330.5,1253.3,331.2z M1251.9,354.2c0.6-0.7,1-0.7,1.4,0C1252.9,354.9,1252.3,354.9,1251.9,354.2z
		 M1251.9,335.5c0.6-0.7,1-0.7,1.4,0h0C1252.9,336.2,1252.3,336.2,1251.9,335.5z M1254,376.5L1254,376.5c-0.7-0.4-0.7-1,0-1.4
		C1254.7,375.5,1254.7,376.1,1254,376.5z M1295,319.7c-0.4,0.7-1,0.7-1.4,0C1294.2,319,1294.6,319,1295,319.7z M1295.4,334.8
		L1295.4,334.8c-1.7,0.1-2-0.7-1.9-2.2c-6-2.7-6.5-2.7-10.6-0.7l-3.6-3.6c1.3-1.2,2.2-2,1.2-3l-2.9,2.9c-1.2-1.9-2.7-1.7-3.2-2
		c0-2.4-0.8-4.8-2.3-6.6c3.7-1,7.3-2,11.1-3c0.7,2.9,6.2,1.9,6.2,5.9c-0.6,1.6-2.4,0.3-2.7,1.7c1,1.4,2.9-0.1,3.9,1l0.9,2.6
		c1-1,1.6-2,3.2-1.4C1297,332,1297.2,333.9,1295.4,334.8z M1298.6,336.2L1298.6,336.2c-0.7-0.4-0.7-1,0-1.4
		C1299.3,335.2,1299.3,335.8,1298.6,336.2z M1305.3,276.7c-0.1,0.2-0.2,0.4-0.4,0.4c-0.5,0-0.9-0.5-0.9-1c0-0.1,0-0.2,0.1-0.3
		c-2,0.4-3.3-0.6-4.2-2.3c1.4-0.9,2.9-1.2,4.2,0.3v2v0c0.5-0.2,1.1,0.1,1.2,0.6C1305.3,276.5,1305.3,276.6,1305.3,276.7
		L1305.3,276.7z M1317.3,245.6L1317.3,245.6c-0.7-0.4-0.7-1,0-1.4C1318,244.6,1318,245.2,1317.3,245.6z M1319.9,252.5L1319.9,252.5
		c0.3-0.7-1.4-1.9,0.4-2.5C1321.2,250.9,1321.2,251.8,1319.9,252.5z M1324.5,261.4L1324.5,261.4c-0.7-0.4-0.7-1,0-1.4
		C1325.2,260.4,1325.2,261,1324.5,261.4z M1327.4,247L1327.4,247c-0.7-0.4-0.7-1,0-1.4C1328.1,246,1328.1,246.6,1327.4,247z
		 M1338.8,196.5L1338.8,196.5c-0.7-0.9-0.7-1.7,0.6-2.3C1338.9,194.8,1340.6,196.1,1338.8,196.5z M1343.2,206.7L1343.2,206.7
		c-0.7-0.4-0.7-1,0-1.4C1343.9,205.7,1343.9,206.3,1343.2,206.7z M1357.1,192.4L1357.1,192.4c-0.3,0.5-0.2,1.1,0.1,1.6
		c-1.2-0.3-2.2-0.4-3.3-0.7c0.1-0.3,0.3-0.4,0.4-0.7c0.9,0,1.7-0.1,2.6-0.1v-2.9c-0.5,0.2-1.1-0.1-1.2-0.6c0-0.1,0-0.2-0.1-0.3
		c0.1-0.2,0.2-0.4,0.4-0.4c0.5,0,0.9,0.5,0.9,1c0,0.1,0,0.2-0.1,0.3c0.9-0.1,1.3,0.4,1.4,1.2
		C1358.4,191.5,1358.3,192.5,1357.1,192.4z M1360.2,200.7c-0.2-0.1-0.3-0.3-0.4-0.4c1-1,2-1,2.9,0
		C1362.1,201.1,1361,201.3,1360.2,200.7z M1378.5,202.6L1378.5,202.6c-0.4,0.9-1,1-3.3,0.9c2.7-2.4-3-2.7-0.4-5.5h1.9
		C1376.4,199.9,1378.8,200.9,1378.5,202.6z M1384.7,147.5c-0.2-0.1-0.3-0.3-0.4-0.4c1-1,2-1,2.9,0
		C1386.5,147.8,1385.5,148,1384.7,147.5z M1393.6,166.5c0.7,0.4,0.7,1,0,1.4C1392.9,167.5,1392.9,166.9,1393.6,166.5z M1391,175.2
		c2-3.2,4.9-4.3,5.2-7.9c1.3,1.9,1.2,3.4,2.4,4.2l0,0C1396.5,173.6,1393.9,174.9,1391,175.2z M1399.3,165L1399.3,165
		c-0.7-0.4-0.7-1,0-1.4C1400,164,1400,164.6,1399.3,165z M1402.2,162.1c-0.4-0.2-0.5-0.7-0.3-1.1c0.1-0.1,0.2-0.3,0.3-0.3
		C1402.9,161.1,1402.9,161.7,1402.2,162.1z M1421.6,236.2c0.6-0.7,1-0.7,1.4,0l0,0C1422.6,237,1422.1,237,1421.6,236.2z
		 M1427.4,227.6c-0.5,0.8-1.5,1-2.3,0.5c0,0-0.1-0.1-0.1-0.1c-1.7-2.9,1.2-4.6,1.6-6.9c0.9,0.7,1.9,1.3,2,2.4l0,0l-2.6,2.6
		C1426.4,226.7,1426.9,227.2,1427.4,227.6z M1428,219.7L1428,219.7c-0.7-0.4-0.7-1,0-1.4C1428.7,218.7,1428.7,219.3,1428,219.7z
		 M1459,227.6L1459,227.6c-0.4,0.7-1,0.7-1.4,0C1458.2,226.9,1458.6,226.9,1459,227.6z M1456.2,241.3c-0.5,0.2-1.1-0.1-1.2-0.6
		c0-0.1,0-0.2-0.1-0.3c0.1-0.2,0.2-0.4,0.4-0.4c0.7,0.1,1,0.6,0.1,1c1.7,0.6,3-0.4,3.5,1.1l0,0C1457.9,243.1,1457,243,1456.2,241.3z
		 M1458.7,246.6c-1,0.7-1.4,2.2-3.6,1.7c-0.3-0.4-0.9-1.4-1.4-2.3c0.6-0.3,1-1.7,2.2-1.9C1457.2,244.3,1458.4,245.3,1458.7,246.6z
		 M1455.4,228.2c1.1,1.3,1.1,3.2,0,4.5l0,0C1454.3,231.4,1454.3,229.4,1455.4,228.2z M1456.2,237c0.5-0.2,1.1,0.1,1.2,0.6
		c0,0.1,0,0.2,0.1,0.3l0,0c-0.1,0.2-0.2,0.4-0.4,0.4c-0.7-0.1-1-0.6-0.1-1.2c-2.2-0.6-3.7,0.6-5.6-1.9
		C1453.4,235.9,1454.9,234.7,1456.2,237z M1449.1,242c1.6-1,0.7-2.9,2-3.6l0,0l1.4,1.4l-5,5C1446.7,243.6,1448.1,242.6,1449.1,242z
		 M1449,280.8c0.6-0.7,1-0.7,1.4,0l0,0C1450,281.6,1449.4,281.6,1449,280.8z M1450.4,289.5c0.6-0.7,1-0.7,1.4,0l0,0
		C1451.4,290.2,1450.8,290.2,1450.4,289.5z M1453.3,278c-0.5,0.7-1.6,0.9-2.3,0.3c0,0,0,0,0,0c-0.9-1.3-0.7-2.4,0.1-4l0,0
		C1452.3,275.7,1453.9,276.2,1453.3,278z M1454.7,250.6c-0.4,0.7-1,0.7-1.4,0C1453.9,249.9,1454.3,249.9,1454.7,250.6L1454.7,250.6z
		 M1459.9,255.4c-1.4,0.9-2.6,1.6-3.2,1.9c0.1,2.2,2.4,0.3,2.2,2.3c-0.9,0.3-1.8,0.6-2.6,1c0.2,0.3,0.5,0.6,0.7,0.9
		c-0.4,1-0.9,2-1.3,3.2c-0.3-0.1-0.4-0.3-0.7-0.4v-7.8C1456.2,255.5,1456.9,253.1,1459.9,255.4L1459.9,255.4z M1467.1,258.4
		c-1-1-2.1-1.7-3.5-2.2c-0.6,1.7,0.4,3-1.2,3.6l0,0c-1-1-0.9-1.9,0.9-2.7c0.3-0.9-0.4-1.9,0.9-3c1.4,0.6,3.2,1.4,5,2.2L1467.1,258.4
		z M1478.5,248.5c-0.4-0.2-0.6-0.7-0.3-1.1c0.1-0.1,0.2-0.3,0.4-0.3l0,0C1479.2,247.5,1479.2,248,1478.5,248.5z M1480.2,245.4
		c-4-1-1.4-4.9-3.3-7.5c-1,4.2-2.7,7.8-1.7,12.2c-1.5-0.9-3.2-1.5-4.9-1.9c-1.3-0.3-2.3-1.7-3.3-2.6c-1.4,2.3,0.3,3.6,0.6,5.3
		c-2,2.4-4.3,2-7.1,1.4c1.7-1.9,3.3-3.6,4.6-5c-0.3-1.3-0.7-1.9-1.6-1.7c0.2,0.5-0.1,1.1-0.6,1.2c-0.1,0-0.2,0-0.3,0.1
		c-0.2-0.1-0.4-0.2-0.4-0.4c0-0.5,0.5-0.9,1-0.9c0.1,0,0.2,0,0.3,0.1c-0.3-1.2,1-1.4,1.3-2.2c-0.4-0.4-0.9-1-1.3-1.4
		c2.4-1.3,5.3-1.9,7.2-4.5c-3.6-1.7-5.6,2-9.1,1.9c1.9-5.2,7.5-5.6,9.6-9.5c3.3,3.3,6.5,6.3,9.5,9.2c-0.4,0.3-0.9,0.6-0.9,0.7l0,0
		C1478.3,242.6,1482.5,243.6,1480.2,245.4z M1491.4,249.9c-0.4-0.2-0.6-0.7-0.3-1.1c0.1-0.1,0.2-0.3,0.3-0.3l0,0
		C1492.1,248.9,1492.1,249.5,1491.4,249.9z M1491.4,244.1L1491.4,244.1c-0.9-1.3-2.9-1.7-1.6-4.6
		C1490.8,241.1,1493.4,241.8,1491.4,244.1z M1500,235.5L1500,235.5c-0.7-0.4-0.7-1,0-1.4C1500.8,234.5,1500.8,235.1,1500,235.5z
		 M1519,193.8L1519,193.8c-0.7-0.4-0.7-1,0-1.4C1519.7,192.8,1519.7,193.4,1519,193.8z M1512.8,225.3L1512.8,225.3
		c-0.7-0.9-0.7-1.7,0.6-2.3C1513,223.6,1514.7,224.9,1512.8,225.3z M1518.7,215.2c-2.2,0.9-3.7-3.3-6-0.9c-3,2.6,2.4,4,0.7,6.3
		c-0.7,0.6-1.8,0.5-2.4-0.1c-0.7-1.2,0.9-2.9-1-3.6c-1.7,0.9,0.6,3.3-1.9,4.2c-0.4-3.9,0.7-7.6-1.7-10.6l2.2-2.2
		c3.7,1.6,6.9,4.3,10.9,4.6l0,0C1519.5,213.9,1519.6,214.7,1518.7,215.2z M1521,206c-0.7,0.6-1.3,1.2-2.3,2c-0.6-1-1.9-1.3-1.6-2.6
		C1518.4,205.4,1519.7,204.7,1521,206L1521,206z M1536,183.7c0.7,0.4,0.7,1,0,1.4l0,0C1535.3,184.7,1535.3,184.2,1536,183.7z
		 M1533.8,191.6L1533.8,191.6c-0.4,0.7-1,0.7-1.4,0C1533,190.9,1533.4,190.9,1533.8,191.6z M1522.2,178.8c2.2,2.6,4.9,2.9,6.2,5.6
		l0,0C1523.2,185.2,1522.9,184.9,1522.2,178.8z M1528.2,216.2c-1.3,0.9-3.1,0.9-4.5,0l2.3-2.3
		C1526.7,214.7,1527.5,215.5,1528.2,216.2L1528.2,216.2z M1527.4,203.9c0.7,0.4,0.7,1,0,1.4C1526.7,204.9,1526.7,204.3,1527.4,203.9
		z M1531.7,242.7c-0.4-0.2-0.5-0.7-0.3-1.1c0.1-0.1,0.2-0.3,0.3-0.3l0,0C1532.4,241.7,1532.4,242.3,1531.7,242.7z M1522.9,193.4
		c2-1,3.6-1.9,5-2.4c2.3,0.9,2.3,2.9,3.5,4.2c2.2,2,5.8,0.9,7.6,3.6v0c-3.2,3.3-3.2,3.3-6.6,3.5
		C1531.4,197.1,1525.8,197.3,1522.9,193.4z M1537,212.5c0.1-1.4-1-2.9,0.4-4.3c0.9,1,2.4,1.6,2.3,3l0,0
		C1539.5,212.8,1538.4,212.6,1537,212.5z M1544.6,216.8c-0.7-0.4-0.7-1,0-1.4C1545.3,215.8,1545.4,216.4,1544.6,216.8z
		 M1555.4,148.5L1555.4,148.5c0.4-0.7,1-0.7,1.4,0C1556.4,149.2,1556,149.2,1555.4,148.5z M1565.8,200.6c-0.3-1.4-0.9-2.7,0.3-3.9
		c2.9-0.4,4.6,0.6,5.5,3.7C1569.7,201.1,1567.7,201.1,1565.8,200.6z M1579.2,188c0.7,0.4,0.7,1,0,1.4
		C1578.4,189,1578.4,188.5,1579.2,188z M1574.3,188.6c0.9-0.9,1.7-0.9,2.9,0.1l0,0C1575.9,189.6,1575,190,1574.3,188.6z
		 M1579.2,198.1c-0.5-0.1-1-0.2-1.4-0.3l2.2-2.2C1580.2,196.2,1580.3,197.1,1579.2,198.1z M1583.5,205.3c-0.4-0.2-0.5-0.7-0.3-1.1
		c0.1-0.1,0.2-0.3,0.3-0.3l0,0C1584.2,204.3,1584.2,204.9,1583.5,205.3z M1581.3,194.5c1.3-1.1,3.2-1.1,4.5,0
		C1584.5,195.7,1582.6,195.7,1581.3,194.5z M1591.4,184.4L1591.4,184.4c-0.4,0.7-1,0.7-1.4,0C1590.5,183.7,1591,183.7,1591.4,184.4z
		 M1587.1,201.7c0.6-0.7,1-0.7,1.4,0l0,0C1588.1,202.4,1587.5,202.4,1587.1,201.7z M1589.2,228.3L1589.2,228.3c-0.7-0.4-0.7-1,0-1.4
		C1589.9,227.3,1589.9,227.9,1589.2,228.3z M1589.2,188L1589.2,188c-0.7-0.4-0.7-1,0-1.4C1589.9,187,1589.9,187.6,1589.2,188z
		 M1594.4,221.8c-0.6,2,0.6,3.7-1.9,5.6c0.9-2.2-0.6-3.6,1.4-4.2c0.6-1.6-0.3-2.9,1.1-3.4l0,0C1596.1,220.8,1596,221.7,1594.4,221.8
		z M1591.7,217.8c-0.3-1,1.4-1,0.9-2c-0.9-0.3-1.7-0.6-2.7-0.9c2.4-2.7,5.3-4.2,9.6-6.2l0,0c-1.6,2.9-3.9,3.5-3.7,5.5
		c0.4,0.7,0.9,1.4,1.2,1.9C1595.6,218.4,1593.8,219,1591.7,217.8z M1596,240.1c3.3,0.3,4-2,6.2-1.7l0,0c0.9,0.7,0.9,1.4,0.1,2.9
		C1600.9,240.8,1599,241.7,1596,240.1z M1604.2,294.6c-1.4-0.4-2-1.2-2.9-2.6h3.3C1604.3,293.3,1604.3,293.9,1604.2,294.6z
		 M1604.3,233.4L1604.3,233.4c0.6-0.8,1.6-1,2.4-0.5c0.2,0.1,0.3,0.3,0.4,0.4C1606.4,234.4,1605.3,234.4,1604.3,233.4z
		 M1604.5,229.3c-0.4-0.9,0.1-2-1-2.2c-0.5,0.3-1,0.7-1.4,1.2c-0.9-1-0.9-1.7-0.6-2c1.7-1.4,3.5,0,4.3-1.6c-0.4-0.4-0.9-1-1.3-1.4
		l2.2-2.2c1.4,1.9-0.3,4.6,1.6,6.9C1606.2,226.3,1606.2,230.6,1604.5,229.3z M1609.4,215.4L1609.4,215.4c-0.7-0.4-0.7-1,0-1.4
		C1610.1,214.4,1610.1,214.9,1609.4,215.4z M1612.4,228.3c0.3,0.1,0.7,0.1,1,0c-0.5,0.3-1.1,0.6-1.7,0.9
		C1611.9,228.9,1612.2,228.6,1612.4,228.3z M1612.3,264.3c-0.4-0.2-0.5-0.7-0.3-1.1c0.1-0.1,0.2-0.3,0.3-0.3l0,0
		C1613,263.3,1613,263.8,1612.3,264.3z M1614,228.9C1613.7,230,1612.4,230,1614,228.9c-0.2,0-0.2-0.1,0-0.3l0,0V228.9z
		 M1622.3,202.6L1622.3,202.6c0.3,0.2,0.5,0.4,0.6,0.7c-0.1,0.2-0.2,0.4-0.4,0.4C1622,203.6,1621.7,203.4,1622.3,202.6z
		 M1617.4,193.1c2.1,2,4.3,4.3,4.2,8.9c-0.6,0.5-1.5,0.7-2.3,0.4c-1.9-1.3-2.4-3.6-3.9-6.2C1617.1,195.7,1616.9,193.9,1617.4,193.1z
		 M1615.1,201c0.7,0.4,0.7,1,0,1.4l0,0C1614.4,202,1614.4,201.4,1615.1,201z M1614.4,227.7c0-1.6-0.2-2.9,1.7-4.3l0,0
		C1615.6,225,1616.1,226.3,1614.4,227.7z M1618,226.9c-0.4-0.2-0.5-0.7-0.3-1.1c0.1-0.1,0.2-0.2,0.3-0.3l0,0
		C1618.7,225.9,1618.7,226.4,1618,226.9z M1617.3,210.3L1617.3,210.3c1.3-0.9,2.3-1.3,2.7,0.3
		C1619.2,211.3,1618.3,211.3,1617.3,210.3z M1620.3,226c0.9-0.9,1.7-0.9,2.9,0.2C1621.9,227,1621,227.4,1620.3,226z M1623.9,200.7
		c0.3-0.1,0.4-0.4,0.6-0.6C1624.3,200.4,1624.2,200.7,1623.9,200.7z M1629.8,210.9L1629.8,210.9c-1.3-0.9-2.6-1.6-2.3-3.5
		c0.6-0.8,1.6-1,2.4-0.4C1630.6,208.3,1630.5,209.7,1629.8,210.9z M1641.7,187.3c-0.4,0.7-1,0.7-1.4,0
		C1640.9,186.6,1641.3,186.6,1641.7,187.3z M1641,195.2c-0.4-0.2-0.5-0.7-0.3-1.1c0.1-0.1,0.2-0.2,0.3-0.3l0,0
		C1641.8,194.2,1641.8,194.8,1641,195.2z M1638.1,185.2L1638.1,185.2c-0.7-0.4-0.7-1,0-1.5C1638.9,184.2,1638.9,184.7,1638.1,185.2z
		 M1632.8,199.1c0.9,0,1.3,0.5,1.3,1.4C1633.2,200.5,1632.8,200.1,1632.8,199.1z M1636.6,203.3
		C1636.6,203.3,1636.6,203.3,1636.6,203.3c-1.2-0.4-2.1-1.4-2.3-2.7c0.8,0,1.6,0.1,2.3,0.1C1637.3,201.4,1637.3,202.5,1636.6,203.3z
		 M1640.3,198.1c-1,0-1.4-0.4-1.4-1.4c-0.5,0.2-1.1-0.1-1.2-0.6c0-0.1,0-0.2-0.1-0.3c0.1-0.2,0.2-0.4,0.4-0.4c0.5,0,0.9,0.5,0.9,1
		c0,0.1,0,0.2-0.1,0.3C1639.9,196.7,1640.3,197.1,1640.3,198.1c1,0,1.4,0.4,1.4,1.4C1640.7,199.5,1640.3,199.1,1640.3,198.1z
		 M1642.6,200.8c-0.6-0.1-1-0.6-0.9-1.2c0,0,0-0.1,0-0.1c0.5-0.2,1.1,0.1,1.2,0.6c0,0.1,0,0.2,0.1,0.3
		C1643,200.6,1642.8,200.8,1642.6,200.8z M1641.8,178.7c0.6-0.7,1-0.7,1.4,0l0,0C1642.8,179.4,1642.2,179.4,1641.8,178.7z
		 M1645.3,182.3c0.7,0.4,0.7,1,0,1.5l0,0C1644.6,183.3,1644.6,182.7,1645.3,182.3z M1643.8,190.8c-0.2-0.1-0.4-0.2-0.4-0.4
		c1-0.4,1.8-1.2,2.2-2.2c0.2,0.1,0.4,0.2,0.4,0.4C1644.9,189,1644.2,189.8,1643.8,190.8z M1647,148.5L1647,148.5
		c0.4-0.7,1-0.7,1.4,0C1648,149.2,1647.6,149.2,1647,148.5z M1654,159.7c0,0.9-0.4,1.4-1.3,1.4
		C1652.7,160.2,1653.1,159.8,1654,159.7z M1652.5,161.2c0,0.9-0.4,1.4-1.3,1.4C1651.2,161.6,1651.6,161.2,1652.5,161.2z
		 M1649.7,176.5L1649.7,176.5c-0.7-0.4-0.7-1,0-1.4C1650.4,175.5,1650.4,176.1,1649.7,176.5z M1648.8,165.3c-0.7-0.7-0.7-1.9,0-2.6
		c0,0,0,0,0,0c0.7,0,1.5-0.1,2.3-0.1C1650.8,163.8,1649.9,164.8,1648.8,165.3z M1651.1,199.5L1651.1,199.5c-0.7-0.4-0.7-1,0-1.5
		C1651.8,198.5,1651.8,199.1,1651.1,199.5z M1655.6,170.8C1655.6,170.8,1655.5,170.8,1655.6,170.8c0-0.7-0.1-1.5-0.2-2.3
		c1.2,0.3,2.2,1.2,2.7,2.3C1657.4,171.5,1656.3,171.5,1655.6,170.8z M1658.2,192.6c0.8-0.5,1.9-0.3,2.4,0.4c0.1,1.9-1.2,2.6-2.5,3.5
		l0,0C1657.4,195.3,1657.4,193.8,1658.2,192.6z M1662.8,206.9c-1.4-0.4-3.2,0.6-5-0.4c0.7-2,0.7-2,4-3.4l0,0
		C1662.6,204,1664.2,204.7,1662.8,206.9z M1662.5,199.4L1662.5,199.4c-0.7-0.9-0.7-1.6,0.2-2.9
		C1663.6,197.8,1664,198.8,1662.5,199.4z M1665.5,169.3c0.7,0.4,0.7,1,0,1.5l0,0C1664.8,170.3,1664.8,169.8,1665.5,169.3z
		 M1665.1,196.2L1665.1,196.2c0.6-0.9,1.2-1.9,1.9-2.9C1668.5,197.1,1666.9,197,1665.1,196.2z M1668.4,175.1L1668.4,175.1
		c-0.7-0.4-0.7-1,0-1.5C1669.1,174.1,1669.1,174.7,1668.4,175.1z M1673.8,178.2c-1.7,2,1.3,2.4,0.4,3.9c-2.2,0.9-2.7-1-3.7-2
		c0.4-0.6,0.9-1,1.3-1.6c-1-0.4-1.7-0.7-2.9-1.2c3.9-3.2,7.8-2.9,11.5-0.1c-0.4,1.3-2.2,0.3-2.7,1.6c0,0.6,0,1.3,0,2
		C1676,180.8,1675.6,178.2,1673.8,178.2z M1680.2,183.5C1680.2,183.5,1680.2,183.6,1680.2,183.5c-1.2-0.7-2.2-1.3-2.5-2.7
		c0.9,0,1.7,0.1,2.4,0.1C1680.9,181.7,1680.9,182.8,1680.2,183.5z M1690,139.1c0.7,0.4,0.7,1,0,1.5l0,0
		C1689.2,140.1,1689.2,139.5,1690,139.1z M1684,153.5L1684,153.5c-0.7-0.4-0.7-1,0-1.4C1684.7,152.5,1684.7,153.1,1684,153.5z
		 M1683.5,179.7c0.4-1.9,1.3-1.7,2.7-1.7c-0.9,4.5,5.9,3.9,5.5,8.8C1687.5,185.4,1685.8,182,1683.5,179.7z M1690.7,188.7
		c0.6-0.7,1-0.7,1.4,0l0,0C1691.7,189.5,1691.1,189.5,1690.7,188.7z M1695.2,105.4c0-0.1,0-0.2-0.1-0.3c0.1-0.2,0.2-0.4,0.4-0.4
		c0.5,0,0.9,0.5,0.9,1c0,0.1,0,0.2-0.1,0.3c0.5-0.2,1.1,0.1,1.2,0.6c0,0.1,0,0.2,0.1,0.3l0,0c-0.1,0.2-0.2,0.4-0.4,0.4
		c-0.5,0-0.9-0.5-0.9-1c0-0.1,0-0.2,0.1-0.3C1695.9,106.2,1695.4,105.9,1695.2,105.4z M1697.1,120.4c-0.4-0.2-0.5-0.7-0.3-1.1
		c0.1-0.1,0.2-0.2,0.3-0.3l0,0C1697.9,119.4,1697.9,120,1697.1,120.4z M1698.7,133.2c-0.4-1-1.2-1.8-2.2-2.2
		c0.1-0.2,0.2-0.4,0.4-0.4c0.4,1,1.2,1.8,2.2,2.2C1699.1,133,1698.9,133.1,1698.7,133.2z M1705.1,129.8c0.6-0.7,1-0.7,1.4,0
		C1706.1,130.5,1705.5,130.5,1705.1,129.8z M1710.8,83.7c-0.4,0.7-1,0.7-1.4,0C1709.9,83,1710.4,83,1710.8,83.7z M1707.2,147.8
		L1707.2,147.8c-0.7-0.4-0.7-1,0-1.5C1707.9,146.7,1707.9,147.3,1707.2,147.8z M1707.9,128.3c0.6-0.7,1-0.7,1.4,0l0,0
		C1708.9,129,1708.4,129,1707.9,128.3z M1709.4,93.8c0.6-0.7,1-0.7,1.4,0C1710.4,94.5,1709.8,94.5,1709.4,93.8z M1712.1,90
		c-1-0.7-2-1.1-3-1.9C1712.8,86.5,1712.4,88.2,1712.1,90z M1713,85.9L1713,85.9c-0.8-0.6-1-1.6-0.4-2.4c0.1-0.2,0.3-0.3,0.4-0.4
		c0.7,0.1,1.4-0.3,1.9,0.6C1715.6,85.3,1714.9,86,1713,85.9z M1716,106L1716,106c-0.7-0.4-0.7-1,0-1.4
		C1716.7,105,1716.7,105.6,1716,106z M1718.7,85.9L1718.7,85.9c-0.7-0.4-0.7-1,0-1.4C1719.4,84.9,1719.4,85.5,1718.7,85.9z
		 M1721,55.2c0.7-2-2.7-2.9-1.2-5c0.4-0.1,1.2-0.4,1.3-0.3c1.8,1.8,3.4,3.8,4.7,5.9C1724.3,55.5,1722.6,55.8,1721,55.2z
		 M1722.3,63.6c0.6-0.7,1-0.7,1.4,0C1723.3,64.3,1722.7,64.3,1722.3,63.6z M1726.1,97.3c-0.6-0.1-1-0.6-0.9-1.2c0,0,0-0.1,0-0.1l0,0
		c-0.5,0.2-1.1-0.1-1.2-0.6c0-0.1,0-0.2-0.1-0.3c0.1-0.2,0.2-0.4,0.4-0.4c0.5,0,0.9,0.5,0.9,1c0,0.1,0,0.2-0.1,0.3
		c0.5-0.2,1.1,0.1,1.2,0.6c0,0.1,0,0.2,0.1,0.3C1726.4,97,1726.3,97.2,1726.1,97.3z M1726.8,57.3c1.2,0.3,2.1,1.2,2.6,2.3
		c-0.7,0.7-1.8,0.7-2.6,0C1726.7,58.8,1726.7,58,1726.8,57.3z M1726.8,67.5c1-0.3,1.7-0.7,2.9,0.4
		C1728.4,68.8,1727.5,69.2,1726.8,67.5z M1732.7,59.3c-0.1-2.6-0.3-4.3-0.4-5.9c-1.2-1.4-3-2.2-2.6-4.9c2,0.9,3,2.6,4.2,3.9
		C1733.5,54.4,1734.4,56.5,1732.7,59.3z M1734.5,97.4L1734.5,97.4c-0.7-0.4-0.7-1,0-1.4C1735.3,96.4,1735.3,97,1734.5,97.4z
		 M1736,49.9c-0.4-0.2-0.5-0.7-0.3-1.1c0.1-0.1,0.2-0.3,0.3-0.3l0,0C1736.7,48.9,1736.7,49.5,1736,49.9z M1736,28.3L1736,28.3
		c-0.8-0.6-1-1.6-0.4-2.4c0.1-0.2,0.3-0.3,0.4-0.4C1737.1,26.5,1737.1,27.3,1736,28.3z M1741,47.8c-0.4,0.7-1,0.7-1.4,0
		C1740.1,47,1740.6,47,1741,47.8z M1738.1,65c0.6-0.7,1-0.7,1.4,0C1739.1,65.7,1738.6,65.7,1738.1,65z M1738,62.3V51.8
		c1.2-0.6,1.7-2.4,3.9-1.7c0,3,0,6.2,0,9.6l0,0c-0.4,0.6-1.2,0.3-1.9,0.3C1738.6,60.1,1740.3,63,1738,62.3z M1742.3,81.4
		c-1.2-0.4-2.1-1.2-2.6-2.3c1.3-0.6,2.2-0.6,2.9,0.4C1742.4,80.2,1742.3,80.8,1742.3,81.4z M1753.7,62.8c0.1,0,0.2,0,0.3,0.1
		c1.3-4.5,1.3-4.5,5.9-3.5l0,0c-2.2,1.2-2.9,4.2-5.9,3.5c0.2,0.5-0.1,1.1-0.6,1.2c-0.1,0-0.2,0-0.3,0.1c-0.2-0.1-0.4-0.2-0.4-0.4
		C1752.7,63.2,1753.2,62.8,1753.7,62.8z M1748,59.8c1.7,0.4,2.9-0.3,3.9,0.6c-0.2,0.3-3.7,6-3.9,6.2V59.8z M1750.4,80.1
		c-0.4-0.2-0.5-0.7-0.3-1.1c0.1-0.1,0.2-0.3,0.3-0.3C1751.1,79.1,1751.1,79.7,1750.4,80.1z M1756,70.2c-0.4-2-2-1.6-3.6-1.7
		c-0.5,0.9-0.3,2.1,0.6,2.6c0.1,0,0.2,0.1,0.2,0.1l-3.6,3.6c-0.7-2.2,1.4-4,2.2-6.2c2.2-1.7,3-4,5.6-4.5l0,0
		C1759.4,66.8,1758.1,68.5,1756,70.2z M1759.4,74.5L1759.4,74.5c0.3,1,0.7,1.7-0.4,2.9C1758.1,76,1757.7,75.1,1759.4,74.5z
		 M1760.6,96.2c-1.2-1.4-1.2-2.3-0.3-3.2h1.7C1761.6,94,1761.2,95,1760.6,96.2z M1766.1,84.5c0.6,0.3,1.7-0.4,1.9,0.1l0.1-0.1
		c-0.2-0.5,0.1-1.1,0.6-1.2c0.1,0,0.2,0,0.3-0.1c0.2,0.1,0.4,0.2,0.4,0.4c-0.1,0.4-0.3,0.7-1.4,1V85c-0.3,1.2-1.4,1.2,0-0.4
		c-0.8,0.3-1.7,0.6-2.6,0.7C1765.7,85,1765.9,84.8,1766.1,84.5z M1762.9,70.5c0.1-0.2,0.3-0.3,0.4-0.4c1.2,1,1.2,1.9,0,2.9l0,0
		C1762.5,72.4,1762.3,71.3,1762.9,70.5z M1765,101c-1.3-2-1.2-3.6-2.4-4.3c0.6-1,1.6-0.6,2.3-1c0.7-0.3,1-1.7,2-0.4l0,0
		C1767.2,97.3,1765,98.1,1765,101z M1771.2,119.7c0.6-0.7,1-0.7,1.4,0C1772.2,120.4,1771.7,120.4,1771.2,119.7z M1776.3,93.1
		c-0.7-0.4-0.7-1,0-1.4C1777,92.1,1777,92.7,1776.3,93.1z M1780.6,114.7c-0.7-0.4-0.7-1,0-1.4
		C1781.3,113.7,1781.3,114.2,1780.6,114.7z M1781.3,107c0.6-0.7,1-0.7,1.4,0h0C1782.3,107.7,1781.7,107.7,1781.3,107z M1783,116.5
		c0.1-0.2,0.3-0.3,0.4-0.4c1.1,1,1.1,1.9,0,2.9C1782.7,118.4,1782.5,117.3,1783,116.5z M1783.7,129.3L1783.7,129.3
		c0.3,1.7,1,3.6-0.3,5.9C1782.4,132.8,1782.6,131.1,1783.7,129.3z M1784.2,155.7c0.6-0.7,1-0.7,1.4,0l0,0
		C1785.2,156.4,1784.6,156.4,1784.2,155.7z M1789.3,121.7c-0.1,0-0.2,0-0.3,0.1c-0.2-0.1-0.4-0.2-0.4-0.4c0-0.5,0.5-0.9,1-0.9
		c0.1,0,0.2,0,0.3,0.1c-0.2-0.5,0.1-1.1,0.6-1.2c0.1,0,0.2,0,0.3-0.1c0.2,0.1,0.4,0.2,0.4,0.4l0,0c0,0.5-0.5,0.9-1,0.9
		c-0.1,0-0.2,0-0.3-0.1C1790.1,120.9,1789.8,121.5,1789.3,121.7z M1790.6,172.4c-0.4-0.2-0.5-0.7-0.3-1.1c0.1-0.1,0.2-0.3,0.3-0.3h0
		C1791.4,171.4,1791.4,172,1790.6,172.4z M1791.4,159c0.6-0.7,1-0.7,1.4,0h0C1792.4,159.7,1791.8,159.7,1791.4,159z M1792.7,154.6
		c-1.4-0.4-2-1.2-2.9-2.6h3.3C1792.8,153.3,1792.8,153.9,1792.7,154.6z M1853.3,75.6c0,0,0.1,0,0.2,0c-0.1,0.5-0.2,1.2-0.5,1.3
		c-0.1,0-0.2,0-0.3,0.1c-0.2-0.1-0.4-0.2-0.4-0.4C1852.3,76,1852.7,75.6,1853.3,75.6z M1849.2,100.7c0.1-0.2,0.3-0.3,0.4-0.4
		c1.1,1,1.1,1.9,0,2.9C1848.8,102.6,1848.7,101.5,1849.2,100.7z M1849.6,107.5c-0.4-0.2-0.6-0.7-0.4-1.1c0.1-0.1,0.2-0.3,0.3-0.3
		l0,0C1850.4,106.5,1850.4,107,1849.6,107.5z M1841,144.7c1,0.7,2.4-0.6,4.2,1.6l0,0c-3.3-1.3-3,1.6-4.3,2.7
		C1840,147.7,1840,146,1841,144.7z M1839.6,140.6c0.7,0.4,0.7,1,0,1.4C1838.9,141.6,1838.9,141,1839.6,140.6z M1836.7,107.3
		c1,1.3,1.4,2.3-0.1,2.9C1835.8,109.3,1835.8,108.6,1836.7,107.3z M1835.8,114.9c-0.3-0.8-0.4-1.7-0.6-2.6c0.1,0.4,0.7,0.7,0.7,0.9
		l0,0c-0.2,0.4,0.1,1.1,0.1,1.5c0.5-0.1,1,0.1,1.2,0.6c0,0.1,0,0.2,0.1,0.3c-0.1,0.2-0.2,0.4-0.4,0.4c-0.4-0.1-0.6-0.3-0.9-1
		c0,0-0.1,0.1-0.1,0.1h-0.4C1834.2,114.7,1834.2,113.6,1835.8,114.9z M1835.3,124.7c-0.4-0.2-0.5-0.7-0.3-1.1
		c0.1-0.1,0.2-0.3,0.3-0.3l0,0C1836,123.7,1836,124.3,1835.3,124.7z M1828.1,108.9c0.7,0.4,0.7,1,0,1.4
		C1827.3,109.9,1827.3,109.3,1828.1,108.9z M1829.5,153.5c2.1-0.1,4.2,0.1,6.3,0.4c0.1-1.3,0.1-2.2,0.3-3.2c2-0.1,3.7-0.4,6.3,0.6
		l0,0c-2.6,1-4.9,0.6-6.3,2.2c-0.3,0.9,0.4,1.9-0.9,2.9c-0.6-0.7-1.3-1.7-2.7-1.4c-1.6,0.6-2.2,3.6-5,2.6
		C1828.2,156.1,1828.8,154.8,1829.5,153.5z M1828.8,167L1828.8,167c0,1.9-1.3,2.7-3.4,3.5c-1.3-1.7-1.3-3.2-0.1-4.6
		C1826.3,166.4,1828.1,165,1828.8,167z M1824.2,112.1c-0.3,1.3,1,2.6-0.7,3.7C1823.5,114.5,1822.6,113.1,1824.2,112.1z M1825.9,160
		L1825.9,160c-0.5,0.8-1.6,1-2.4,0.4c-0.2-0.1-0.3-0.3-0.4-0.4C1824,159,1825,159,1825.9,160z M1821.6,131.2L1821.6,131.2
		c-0.5,0.8-1.6,1-2.4,0.4c-0.2-0.1-0.3-0.3-0.4-0.4C1819.7,130.2,1820.7,130.2,1821.6,131.2z M1820.6,140.3c0-1.3-0.9-2.7,0.7-3.7
		C1821.1,137.8,1822.3,139.1,1820.6,140.3z M1817.3,129.8L1817.3,129.8c-0.4,0.7-1,0.7-1.4,0
		C1816.4,129.1,1816.8,129.1,1817.3,129.8z M1809.9,115.1c0.1,0.9-0.4,1-1.6,0.9c0.3-0.4,0.5-0.8,0.4-1.3
		C1809.2,114.8,1809.9,114.9,1809.9,115.1z M1807.4,111.8c2,0.1,1.2,1.6,1.4,2.7C1806.7,114.4,1807.5,112.9,1807.4,111.8z
		 M1808.6,116h0.4v2.3c1.7,1.2,4.7,0.1,5.8,3.3c-3.6-0.4-6.6,1-10.6,3.5C1805.4,122,1806.9,118.9,1808.6,116z M1805.9,135
		L1805.9,135c-1.3,1-1.7,3.2-4.5,1.6C1802.7,135.7,1803.2,133.6,1805.9,135z M1816.1,152.6c-1,1.7,0.7,3.9-1,5.3
		c-1.9-0.9,0.4-3.3-1.6-4.2c-2.6,2.2-3.3,5.3-4,8.9c-3.2-2.2-4.2,1.6-6.2,2.4c-1.9-2.4,2.6-3.3,0.1-5.6l-4.5,4.5
		c-2.3-4.7,2.4-8.8,0.3-13.2c-0.7,0.6-1.2,1-1.7,1.4c1.9-2.3-2.7-2.2-1.9-3.6c0.6-0.9,0.9-1.2,1-1.4c-0.1-1.6-2.4,0.1-2.4-1.6
		c3.3-2.2,6,1.7,9.2,0.9l2-2c0.3-1.6-0.4-3.3,0.4-4.9c2.3-0.7,5.3,0.9,6.6-2.4c-0.9-0.7-1.9-1.6-0.7-3.6c3.6,0.3,3.7,3.5,4.9,5.3
		c-0.9,1.9-2.9,1.6-3.9,2.7c2.4,2.7,5.6,3.7,9.4,3.6c0.9-0.1,0.9,0.4,0.6,0.9l0,0c-0.5,0.1-0.9,0.2-1.3,0.4
		c-0.4,0.2-0.8,0.4-1.2,0.7c2,4,2,4-2,6.5C1817.4,153.7,1817.4,151.9,1816.1,152.6z M1817.6,166.5L1817.6,166.5
		c1.3,0.6,2.4,1,4.2,1.7c-1.4,1.6,1,1.9,1.2,3.7h-4C1820,169.8,1816.4,169.3,1817.6,166.5z M1822,189.1c-0.6-0.3-1.7,0.4-1.9-0.1
		c-0.1-0.1-0.1,0-0.3,0h0c0.2,0.5-0.1,1.1-0.6,1.2c-0.1,0-0.2,0-0.3,0.1c-0.2-0.1-0.4-0.2-0.4-0.4c0.1-0.4,0.3-0.7,1.4-1v-0.4
		c0.3-1.2,1.4-1.2,0.1,0.4c0.8-0.3,1.7-0.4,2.6-0.6C1822.5,188.6,1822.2,188.8,1822,189.1z M1823.6,183.6l-2.7-2.7
		c-0.5,0.4-1,0.9-1.4,1.4l-1.6-1.6c1.3-1.2,2.6-2.3,3.7-3.5c0.1,0.1,0.7,0.4,1.7,1.2c2.9-3.3,6.2-5.3,8.2-9.1
		c-0.7,2.2,0.4,3.7,1.6,5.3c-1.3,0.4-2.4-0.1-2.7,1.3l2.6,2.6c-0.6,0.9-1.7,1.4-1.6,1.9c0.7,2.3,2.6,1.3,3.2,2.7
		C1830.8,185.3,1826.9,179.3,1823.6,183.6z M1835.4,163.4c-0.1,0-0.2,0-0.3,0.1c-0.2-0.1-0.4-0.2-0.4-0.4c0.5-0.2,0.9-0.5,1.3-0.9
		l0,0C1836.2,162.6,1835.9,163.2,1835.4,163.4z M1836.2,162.2c-0.1,0-0.2,0-0.3-0.1c0.4-0.4,0.7-0.8,0.9-1.3
		c0.2,0.1,0.4,0.2,0.4,0.4C1837.2,161.8,1836.8,162.2,1836.2,162.2z M1839.6,188L1839.6,188c-0.7-0.4-0.7-1,0-1.4
		C1840.3,187,1840.3,187.6,1839.6,188z M1840.9,159.1c-0.5-0.8-0.9-1.6-1.3-2.5l0,0c0.7-0.4,1.4-0.7,2.2-1c1.4,0.6,2.3,0.9,3.6,1.4
		C1843.5,157.8,1843.2,159.4,1840.9,159.1z M1844.9,149.9c2.6-0.7,5.3-1.6,6.8,1.7l0,0C1848.9,153.4,1847.1,150.8,1844.9,149.9z
		 M1851.8,98.1c0.6-0.7,1-0.7,1.4,0l0,0C1852.8,98.8,1852.2,98.8,1851.8,98.1z M1859.3,102c-0.6-2.2,0.3-4.3-1.2-6.3
		c-1.2,1.7,0.1,3.5-1.3,4.6c-0.6,0-1.2-0.1-1.7-0.1c-1.9-3.2,1-4.6,2.3-6.3c-2.3-2.4-3.2,2.2-5.5,0.4v-6.3c1.1-1.3,2.6-2.3,4.3-2.9
		l0,0c1.6,1.2,2.7,2.2,3.9,3c-0.3,0.7-1.3,0.9-0.9,1.7c1,0.9,1.8,1.9,2.4,3c-2.2,1.4-1.2,2.6,0.1,3.7
		C1859.5,97.4,1861.5,100.3,1859.3,102z M1862.7,94.4c-0.6-0.2-0.9-0.4-0.7-1.3l0,0c0.5,0,1,0.3,1.2,0.9
		C1863.1,94.2,1862.9,94.3,1862.7,94.4z M1864.2,87.3c-1.7-1.3-2.7-3.3-5.2-3.6c0.4-0.6,1-1,1.9-2c-2.4-1.4-3.7,2.6-5.9,0.7
		c0.6-1.2,1.2-2.4,1.7-3.6c2.2-0.1,3.7-3,6.3-1.4C1864.5,80.7,1865.7,83.9,1864.2,87.3z M1878.4,157.8L1878.4,157.8
		c-0.7-0.4-0.7-1,0-1.4C1879.1,156.8,1879.1,157.4,1878.4,157.8z M1890.9,163.9c1.3,0.1,2.6-0.9,3.7,0.7l0,0
		C1893.4,164.6,1891.9,165.5,1890.9,163.9z M1905,190.2c0.6-0.7,1-0.7,1.4,0l0,0C1906,190.9,1905.5,190.9,1905,190.2z M1908.8,193.6
		c-0.1,0-0.2,0-0.3,0.1c-0.2-0.1-0.4-0.2-0.4-0.4c0.5-0.2,0.9-0.5,1.3-0.9l0,0C1909.5,192.9,1909.3,193.4,1908.8,193.6z
		 M1909.6,192.4c-0.1,0-0.2,0-0.3-0.1c0.4-0.4,0.7-0.8,0.9-1.3c0.2,0.1,0.4,0.2,0.4,0.4C1910.6,192,1910.1,192.4,1909.6,192.4z
		 M1908.4,184.9c-0.2-0.1-0.3-0.3-0.4-0.4c1-1,2-1,2.9,0l0,0C1910.2,185.2,1909.2,185.4,1908.4,184.9z M1912.2,190.2
		c0.6-0.7,1-0.7,1.4,0l0,0C1913.2,190.9,1912.7,190.9,1912.2,190.2z"/>
	<path class="st0" d="M1250.5,314.7c0-0.1,0.1-0.2,0.1-0.3c0,0-0.1,0-0.1,0C1250.4,314.5,1250.5,314.6,1250.5,314.7c0,0,0.1,0,0.1,0
		C1250.6,314.7,1250.5,314.7,1250.5,314.7z"/>
	<path class="st0" d="M722.4,377.2c-0.6,1.1,0.1,1.7,0.7,2.4c0.1,0,0.3-0.1,0.4-0.2c1.3-1-0.2-2.7,0.9-3.8
		C723.6,375.8,723.2,376.8,722.4,377.2z"/>
</g>
</svg>
