<?xml version="1.0" encoding="UTF-8"?> <svg xmlns="http://www.w3.org/2000/svg" width="1949.365" height="267.852" viewBox="0 0 1949.365 267.852"><defs><style>.a{fill:#ededed;}</style></defs><path class="a" d="M1949.365,27.619V267.888H0V170.622s12.737,1.737,15.053,1.737c11.579,4.053,19.685,12.737,32.422,10.421,4.632-4.632,10.421-5.79,16.79-5.211,16.79,1.158,33.58,2.316,50.37,2.895,9.263,0,19.106-.579,27.79,2.895,6.948,2.895,13.316,2.895,19.685,2.316,7.527-.579,15.053-2.316,22.58-2.316,9.842-.579,19.685.579,28.369-5.211,1.158-.579,3.474-.579,5.211-.579,5.211-.579,10.421-.579,15.632-2.316,7.526-2.316,17.369-2.316,24.316,5.211,4.632-.579,10.421.579,14.474-1.737,4.632-2.316,8.684-1.158,13.316-1.737,5.211-.579,10.421,0,15.053,0h30.106c4.632,0,9.842-1.158,13.9.579,4.053,1.158,8.684-.579,12.158,2.316,12.158-8.684,24.316-16.79,39.948-13.316L401.8,171.2c11,2.316,22-2.316,32.422,2.895,1.158.579,3.474.579,4.053,0,4.632-6.369,12.737.579,17.369-5.211h17.948c6.369,2.895,11,6.369,17.369,5.79,22.579-1.737,45.738,1.737,68.318-2.316,13.9-2.316,28.369-.579,42.843-.579,2.895,0,6.369,1.158,8.105,0,5.211-4.632,11.579-.579,16.79-2.895a40.984,40.984,0,0,1,18.527-2.316c13.316.579,27.211-1.737,40.527,2.316,7.527,2.316,16.79,0,24.9.579,24.9,1.737,49.791-2.895,75.265-3.474a54.632,54.632,0,0,0,1.737-5.211c14.474-.579,28.948-1.158,42.843,5.211l1.737-8.684c5.211,1.158,9.842,2.895,14.474,2.895,5.79.579,12.158,0,17.948,0H902.6c5.79,0,13.316,2.316,17.948-.579,5.211-2.895,9.842.579,15.053-1.737,4.632-2.316,9.263,1.737,13.9,2.316,7.526.579,15.632,0,23.737,0,.579,0,1.737.579,2.316.579a39.892,39.892,0,0,0,1.737,4.632h3.474c-.579-2.895-1.737-6.369-2.316-10.421,2.895-2.316,6.369-5.211,9.263-7.527V126.621c6.369-3.474,12.158-7.527,18.527-11l1.737,1.737,8.684-13.9c5.79-.579,9.842,1.737,9.263,8.684l-.579-.579c-.579.579-1.737,1.158-2.316,1.737l1.158,1.158c.579-.579,1.158-1.737,1.737-2.316,2.895.579,6.369,1.737,9.842,2.316-.579-5.211-1.158-10.421-1.737-16.79,13.9-2.895,26.632-7.527,34.738-19.106,1.737,1.158,2.316,1.737,4.053,2.895V65.83c3.474-1.737,6.948-2.895,8.684-4.053,2.895,1.158,4.632,2.316,5.211,2.316a103.655,103.655,0,0,1,10.421-8.105c2.316,3.474,4.053,6.369,6.369,9.842a18.981,18.981,0,0,1,4.632-3.474c3.474,3.474,6.369,6.369,2.316,11.579-1.158,1.158-.579,3.474-1.158,5.211l-.579-.579c-.579.579-1.737,1.158-2.316,1.737l1.158,1.158c.579-.579,1.158-1.737,1.737-2.316A16.905,16.905,0,0,1,1114.5,80.3c1.158,0,1.737,1.158,2.895,1.737a79.9,79.9,0,0,1,.579-8.105c4.053-4.632,6.369-8.684,10.421-11.579,3.474-2.895,8.684-3.474,12.737-5.79,2.895,4.053,5.789,4.053,8.684.579,2.316,1.737,5.211,2.895,6.948,4.053-1.158,4.632-2.316,8.105-3.474,13.316,4.632-1.737,8.105-2.895,11.579-4.053a41.523,41.523,0,0,1,.579,7.527,63.144,63.144,0,0,1,6.369,3.474c2.316-4.632,5.211-9.263,8.106-13.9,5.789,2.316,10.421,3.474,15.632,5.79,0-3.474.579-6.369.579-9.842,2.895-1.737,6.369-2.895,9.263-4.632a53.841,53.841,0,0,0,2.895,5.79c2.895-1.737,5.79-4.053,9.842-6.948v9.842l-.579-.579c-.579.579-1.737,1.158-2.316,1.737l1.158,1.158c.579-.579,1.158-1.737,1.737-2.316a53.555,53.555,0,0,1,5.79-2.895c4.632,1.737-.579,8.105,5.211,8.684.579,2.316-1.158,5.211,2.895,5.211l-.579.579c.579.579,1.158,1.737,1.737,2.316l1.158-1.158c-.579-.579-1.737-1.158-2.316-1.737-.579-1.737,1.158-5.211-2.895-5.211,1.737-2.316,3.474-4.053,4.632-6.369s1.158-5.211,1.737-6.948c1.737-.579,3.474-.579,4.053-1.158l1.737-5.211h5.79c5.211-9.842,12.737-10.421,21.422-5.211,3.474-1.737,6.948-3.474,9.842-5.211,4.053,5.79,7.526,11.579,11,17.369a39.468,39.468,0,0,0,4.053-2.895c2.895,2.316,5.211,4.053,6.948,5.79v9.263l-5.211,1.737c0,1.737.579,2.895.579,4.053a39.845,39.845,0,0,0,7.527,1.158v6.948c-4.053.579-6.948.579-10.421,1.158v2.316c2.895,1.158,5.79,1.737,8.684,2.895-1.158,3.474-2.316,7.526-2.895,8.105-8.105,6.369-13.9,11.579-19.685,16.79,1.737,3.474,5.211,6.948,1.737,11-4.053-2.316-6.948-9.263-13.316-2.895a25.176,25.176,0,0,0,3.474,4.053c2.316,3.474,9.842-.579,9.264,6.948,5.211.579,6.948,5.79,10.421,7.527,3.474,2.316,6.948,4.632,12.158,4.053,12.158-.579,22.58-5.79,34.738-6.948,7.527-1.158,15.632-2.895,23.159-4.053,4.053-.579,8.105,1.158,11.579-2.316,1.737-1.737,5.79,0,8.684,0,.579,2.316,1.158,3.474,2.316,6.948,2.316-2.895,4.053-4.632,5.21-6.369,9.842-1.158,19.106-2.895,28.369-3.474,6.948-.579,13.9,0,20.843,0h42.843c6.369,8.105,13.316-3.474,22,1.737a34.294,34.294,0,0,1,2.316,3.474c12.737,1.737,23.738.579,33-7.527,3.474,2.895,3.474,2.895,8.106,0h-8.106V117.358c-3.474-11-18.527-8.684-23.158-20.264,8.105-1.737,15.632-3.474,24.316-5.211a84.973,84.973,0,0,0-8.684-5.211c4.632-5.79,1.158-12.737,2.316-19.685L1516.3,54.83h13.9c-1.737-3.474-2.316-5.211-3.474-6.948,5.79-4.053.579-9.263-.579-13.316q7.816-2.605,13.9-5.211c-1.158-2.316-2.316-3.474-4.053-6.948,7.526-.579,9.843-7.527,13.9-11.579,1.737,1.158,2.316,1.737,4.053,2.895a38.429,38.429,0,0,0,.579-7.527c2.316-1.158,4.632-2.316,7.526-3.474,1.737,2.316,3.474,5.211,5.211,8.105a24.2,24.2,0,0,1,2.316-5.79c1.737.579,2.895.579,4.632,1.158a18.359,18.359,0,0,1-2.895,3.474,81.993,81.993,0,0,1,12.737,4.053,11.3,11.3,0,0,0,.579-4.053c.579-1.158.579-2.895,1.158-4.632a18.362,18.362,0,0,1,3.474,2.895,54.719,54.719,0,0,1,1.737-5.211l8.684,5.211a42.254,42.254,0,0,1,5.211-7.527c7.526-1.737,9.263,2.895,11.579,8.105,2.316-1.737,4.632-4.053,6.948-5.79,3.474,1.737,5.79,2.895,8.684,4.632a44.02,44.02,0,0,0,.579,8.105c2.895-1.158,5.211-2.316,6.369-2.895,2.316,1.158,4.632,1.737,6.369,2.895a.567.567,0,0,1,.579.579v7.527c-1.737,2.895-3.474,4.632-5.211,7.527,6.948,0,9.842-10.421,17.369-3.474-1.737,2.895-4.053,5.211-5.79,8.105,1.737.579,3.474,1.737,6.948,2.895-4.053,4.632-6.369,8.684-11.579,10.421-2.316.579-5.789,3.474-2.316,7.527,5.79-4.632,11.579-8.684,15.632-12.158,2.316,1.158,4.053,1.737,5.211,2.316l-2.895,2.895c.579,1.158,1.737,2.316,2.316,3.474-2.316.579-4.053,1.158-5.79,1.737,6.948,1.737,9.842,5.79,9.264,11,5.21,3.474,9.263,5.79,12.737,8.105a8.082,8.082,0,0,0-1.737,5.211V77.988c-1.737.579-3.474.579-5.211,1.158v1.737a9.339,9.339,0,0,0,5.211-1.737c5.211,0,2.316,3.474,2.316,6.369,1.158,1.158,1.737,2.316,2.895,2.895-2.895.579-5.211,1.158-8.105,1.737l1.158,1.158c3.474.579,6.948.579,10.421,1.158v6.369c-3.474,1.737-7.526,3.474-9.842,5.211,2.316,2.316,4.053,4.632,6.369,6.948,1.737-1.737,3.474-4.632,9.263-5.79-8.105,9.263-4.632,17.369-5.211,23.737,8.105,4.053,15.632,6.948,22.579,10.421,2.895-2.895,6.369-3.474,9.842-.579,4.053-5.79,6.948,1.737,11,.579,4.053-6.369,10.421-11.579,17.948-15.632-.579-2.895-1.737-5.79-2.316-8.684l4.632-4.632A32.078,32.078,0,0,0,1731.676,91.3V83.778c5.79-1.158,10.421,1.737,14.474,4.632a8.326,8.326,0,0,0,1.737-1.158c-1.158-2.895-1.737-5.79-3.474-11,4.053,1.737,6.369,2.895,9.263,4.053q-1.737-8.684-3.474-15.632c2.895-1.737,5.211-2.316,7.526-3.474a35.448,35.448,0,0,1,3.474,2.316c0-4.053.579-6.948.579-9.263,2.895-4.053,4.632-6.948,6.369-9.842,2.895.579,5.79,1.737,11.579,2.895a48.629,48.629,0,0,1,2.316-6.948,13.364,13.364,0,0,0,4.053,2.895,26.926,26.926,0,0,1,1.737-5.211h6.369a54.586,54.586,0,0,1,1.737,5.211c6.948,1.158,14.474,2.895,21.422,4.632,0,1.158.579,2.895,1.158,6.369a42.946,42.946,0,0,0,4.632-8.684c2.895,2.895,5.211,4.632,6.948,6.369,5.79-4.053,12.158-2.316,17.369-2.316.579,3.474,1.158,5.79,1.737,8.684,3.474-1.737,6.369-2.316,10.421-4.053-1.737,3.474-2.895,5.211-3.474,6.948,3.474,4.632,6.369,9.263,9.263,13.316h16.79c3.474-2.895,5.79-4.632,8.105-6.948V57.725c9.842-3.474,15.053-14.474,27.211-13.9,3.474-3.474,6.948-6.948,9.842-10.421A53.364,53.364,0,0,1,1932,36.3l3.474-4.632C1941.26,30.513,1945.313,28.776,1949.365,27.619ZM1171.24,91.883h0a4.423,4.423,0,0,0-1.158-2.895l-1.158,1.158a8,8,0,0,0,2.316,1.737,21.689,21.689,0,0,0,.579,4.632V94.2c-1.737.579-3.474.579-5.211,1.158v1.737c1.737,0,3.474-.579,5.211-2.895.579-.579,1.737-.579,2.316-1.158C1172.977,93.041,1172.4,92.462,1171.24,91.883Zm609.068,40.527v-2.316c-1.737.579-3.474.579-5.211,1.158v1.737c1.737,0,3.474-.579,5.211-2.895l.579.579c.579-.579,1.737-1.158,2.316-1.737l-1.158-1.158C1780.887,128.937,1780.308,129.516,1780.308,132.411ZM1282.4,100.568v2.316c2.895-.579,5.211-.579,8.106-1.158a3.467,3.467,0,0,0-3.474-1.737c-1.737,0-2.895.579-4.632,4.632V102.3c-1.737.579-3.474.579-5.21,1.158V105.2C1278.927,105.2,1280.664,105.2,1282.4,100.568Zm-152.267,41.106h2.316c-.579-1.737-.579-3.474-1.158-5.211h-1.737c0,1.737.579,3.474,4.053,4.053-.579.579-1.158,1.158-1.737,1.158a21.718,21.718,0,0,0,.579,5.79,16.028,16.028,0,0,0,5.211-.579C1136.5,143.99,1135.345,142.253,1130.134,141.674Zm734.7-47.475a118.81,118.81,0,0,1,11.579,4.632c-3.474-5.211-4.632-7.527-6.369-9.842-1.737,1.737-2.895,2.895-7.526,12.737,2.316-1.737,3.474-2.316,2.895-2.895.579-1.737,0-2.895-.579-4.632Zm-16.211,44.58c2.895.579,7.526,1.158,12.158,1.737,0-1.158.579-2.316.579-4.053,5.79,4.053,12.158,1.158,16.211,2.316,4.632,3.474,8.684,5.79,12.737,8.684,11.579-1.737,20.843,1.737,27.211,11h12.737c3.474-2.895,5.79-4.632,8.105-6.369V139.358c-4.053-2.895-8.684-5.79-12.737-9.263-4.632-3.474-7.526-8.105-14.474-9.263-4.632-.579-8.684-5.211-13.9-6.948s-11-2.316-16.79-2.895c-5.211-.579-11,0-16.211,0l-5.211,5.211c-1.158-.579-1.737-1.737-2.895-2.316-1.158.579-1.737,1.737-2.316,1.737-2.895-.579-5.79-1.158-8.105-1.737a50.949,50.949,0,0,1-8.684-2.895c-5.79,5.79-13.9,1.158-17.369,2.316a105.125,105.125,0,0,0-8.684,6.948v24.9c1.737-1.737,2.895-2.316,3.474-3.474,8.684,4.632,18.527,2.316,27.79,2.895A76.712,76.712,0,0,1,1848.626,138.779Zm-405.273,19.106c-4.053.579-8.684.579-12.737,1.158V160.2c6.948.579,14.474,1.158,22,2.316,0-5.211-4.632-6.369-7.527-10.421C1443.931,154.99,1443.352,156.148,1443.352,157.885Zm-69.475,2.316v-1.158h-24.9a15.276,15.276,0,0,1,.579,4.053C1358.245,161.938,1366.35,161.359,1373.877,160.2Zm395.431-22a4.389,4.389,0,0,1-1.158-2.316,21.71,21.71,0,0,0-6.369.579c-1.737.579-2.316,2.316-4.053,3.474a7.99,7.99,0,0,1,1.737,2.316C1762.36,141.1,1765.834,139.937,1769.308,138.2ZM682.6,178.149v2.316c3.474,0,6.948-.579,9.842-.579v-1.737ZM1724.149,163.1V160.78c-3.474,0-6.948.579-9.843.579V163.1Zm-148.214-2.316-1.737,1.737c0,1.158.579,2.316.579,4.053,1.737-.579,3.474-.579,6.948-1.158C1578.83,163.1,1577.672,161.938,1575.935,160.78Zm-70.054-6.948c2.316,5.79,2.316,5.79,8.684,6.369C1511.091,157.885,1508.775,156.148,1505.88,153.832Zm-229.269-4.053c-4.632-2.316-7.527-3.474-10.421-4.632v4.632Zm519.908-13.9a74.674,74.674,0,0,0-9.263,5.211h9.263Zm-321.9,31.264v2.316c2.316-.579,4.632-.579,7.526-1.158v-1.737A33.011,33.011,0,0,1,1474.616,167.148Zm-58.475,5.79V174.1h8.105v-1.158Zm-30.106-5.211v4.632c1.737-.579,2.895-.579,6.948-1.158C1389.509,169.464,1387.772,168.885,1386.035,167.727Zm-412.8,2.895c.579-6.948.579-6.948-2.895-5.79C970.34,165.99,971.5,167.727,973.235,170.622Zm192.794-23.158v2.316c2.316-.579,4.632-.579,7.526-1.158v-1.737A30.586,30.586,0,0,1,1166.03,147.464Zm13.9.579V149.2h5.79v-1.158Zm199.742,13.9V163.1h5.79v-1.158Zm103.055-11.579v1.158h5.79v-1.158Zm-22.579,10.421v-2.316c-1.737.579-2.895.579-4.632,1.158v1.158Zm-61.37,0v-2.316c-1.737.579-2.895.579-4.632,1.158v1.158Zm127.951-2.895v-2.316c-1.737.579-2.895.579-4.632,1.158v1.158Zm-38.791,0v-2.316c-1.737.579-2.895.579-4.632,1.158v1.158ZM668.7,178.149a3.481,3.481,0,0,0,.579,2.316c1.737-.579,2.895-.579,4.632-1.158v-1.158Zm-69.475,0a3.481,3.481,0,0,0,.579,2.316c1.737-.579,2.895-.579,4.632-1.158v-1.158Zm229.848-1.158v-2.316c-1.737.579-2.895.579-4.632,1.158v1.158Zm-79.9,1.737v1.158h2.895v-1.158Zm798.968-23.158h-1.158v2.895h1.158ZM1121.449,171.2v-1.158h-2.895V171.2Zm343.324-12.737h-1.158v2.895h1.158Zm4.053.579V160.2h2.895v-1.158Zm-140.688,10.421h1.158v-2.895h-1.158Zm-761.914,11h1.158V177.57h-1.158ZM1761.2,160.78h1.158v-2.895H1761.2ZM391.378,180.465h1.158V177.57h-1.158Zm1534.828-16.79h-1.158v2.895h1.158ZM787.967,175.833v1.158h2.895v-1.158Zm945.445-12.158h1.158V160.78h-1.158Zm-221.163,0h-1.158v2.895h1.158ZM445.8,175.833v1.158H448.7v-1.158Zm789.7-77.581V99.41h2.895V98.252Zm565.067,26.632h1.158v-2.895h-1.158Zm-174.268,0h-1.158v2.895h1.158Zm-611.384,2.895h-1.158v2.895h1.158Zm574.909,0h-1.158v2.895h1.158Zm-424.958,5.211h-1.158v2.895h1.158Zm103.055,2.895h-1.158v2.895h1.158Zm392.536,1.158V138.2h2.895v-1.158Zm115.792-1.158H1775.1v2.895h1.158Zm6.369,4.053V141.1h2.895v-1.158Zm-112.9,4.632h1.158v-2.895h-1.158Zm61.37,0h1.158v-2.895H1731.1Zm-603.278,2.316h1.158V143.99h-1.158Zm30.685,0h1.158V143.99H1158.5Zm97.845-57.9h-1.158v2.895h1.158Zm-105.371,57.9h-1.158v2.895h1.158Zm288.9,0h-1.158v2.895h1.158Zm-293.534,6.948v1.158h2.895v-1.158Zm129.687-1.158h-1.158v2.895h1.158Zm6.369,1.158v1.158h2.895v-1.158Zm291.218-1.158h-1.158v2.895h1.158Zm53.265,1.737v-1.158h-2.895v1.158Zm-324.8-59.633c.579-.579,1.737-1.158,2.316-1.737l-1.158-1.158c0,.579-1.158,1.737-1.158,2.895Zm544.8,38.79c2.895,0,5.211-.579,8.105-.579-2.895-4.053-4.632-7.527-8.105-12.737Zm11-13.316h-2.895v1.158h2.895Zm-11,18.527c-.579-.579-1.158-1.737-1.737-2.316l-1.158,1.158c1.158,0,1.737.579,2.895,1.158Z" transform="translate(0 -0.036)"></path></svg> 