<?xml version="1.0" encoding="UTF-8"?> <svg xmlns="http://www.w3.org/2000/svg" width="1929.001" height="450.489" viewBox="0 0 1929.001 450.489"><defs><style>.a{fill:#ededed;}</style></defs><path class="a" d="M74,828.461V644.214c2,1.789,3.961,3.578,5.918,5.367,1.662,1.6,3.325,3.2,4.926,4.865a2.686,2.686,0,0,0,2.339.923c3.018-.123,5.972-.247,8.8-.37,2.156-2.525,4.249-4.865,6.28-7.265,1.047-1.293,2.278-2.524,2.093-4.434,0-.184.184-.309.247-.492v1.663c.061,0,.122.06.185.06.185-.429.369-.8.554-1.231a5.981,5.981,0,0,1-.739-.43v-9.05c-1.047-.492-2.156-1.048-3.2-1.54v-4.556c-.985-.432-1.847-.924-2.709-1.292.308-1.725.554-3.325.8-4.926.43,0,.861-.062,1.231-.062,6.095-.185,12.19-.308,18.286-.554a8.6,8.6,0,0,1,5.356,1.17,13.023,13.023,0,0,0,1.6.8c7.327,3.633,14.654,7.266,21.981,10.837.862.43,1.723.739,2.832,1.229V617.319c-.739-.492-1.417-.986-2.093-1.417a1.254,1.254,0,0,1-.554-1.231c.061-.985,0-2.031,0-2.956-.985-.554-1.847-1.046-2.77-1.54.122-1.415.246-2.893.369-4.308,3.263-.124,6.28-.247,9.358-.37.8,0,1.6,0,2.34-.061,2.893-.123,5.788-.247,8.681-.432a2.071,2.071,0,0,1,1.723.678,4.691,4.691,0,0,0,1.417,1.047,81.173,81.173,0,0,1,8.927,4.557c1.109.616,2.217,1.292,3.326,1.908,1.539.924,3.017,1.786,4.556,2.709,1.847,1.109,3.694,2.156,5.6,3.263,1.478.862,2.956,1.724,4.495,2.524,1.478.8,2.894,1.6,4.371,2.463,1.54.923,3.079,1.907,4.68,2.831l5.726,3.325c1.416.8,2.832,1.6,4.187,2.4,1.478.861,3.017,1.662,4.495,2.462,1.97,1.108,3.879,2.278,5.849,3.387a2.168,2.168,0,0,1,1.292,2.77c-.122.492-.308.923-.492,1.477h-6.1c-.061.924-.122,1.724-.185,2.586-1.642.082-3.271.068-4.9.052-2.036-.019-4.07-.038-6.122.133v1.17c0,6.1-.062,12.19,0,18.286,0,1.108.184,2.216.308,3.447,2.4-.122,4.618-.245,6.9-.369a4.148,4.148,0,0,1,2.4.492q15.607,8.128,31.216,16.132c2.032,1.048,4.125,2.094,6.157,3.141,1.293.676,1.539,1.047,1.354,2.523a16.851,16.851,0,0,0-.061,1.786,9.738,9.738,0,0,1-2.777-.017,8.495,8.495,0,0,0-3.195.077c-.062.863-.062,1.6-.123,2.526h-10.1v28.013c.739.616,1.6.063,2.4,0,3.14-.06,6.28-.185,9.419-.245,4.741-.124,9.42-.247,14.162-.431,1.416-.062,2.77-.248,4.187-.37v-2.4c.123-4.74.308-9.42.369-14.161.062-3.694,0-7.387.123-11.083a14.421,14.421,0,0,1,1.047-5.971c1.354-2.832,2.278-5.849,3.387-8.8.616-1.6.492-3.387,1.354-4.927a4.462,4.462,0,0,0,.616-2.954c-.062-.308.185-.616.246-.986h19.826c.985,0,1.292.247,1.17,1.233-.247,2.031.43,3.878.677,5.849a3.742,3.742,0,0,0,.678,1.292c.492-.676.861-1.107,1.169-1.539a5.518,5.518,0,0,1-.185-1.354,1.172,1.172,0,0,1,.431-.861,9.6,9.6,0,0,1,2.155-1.294,2.1,2.1,0,0,1,1.354.186,1.184,1.184,0,0,1,.431,1.108c-.492.8-.122,1.354.308,1.97.554.8,1.047,1.661,1.54,2.525a1.611,1.611,0,0,0,1.416.862c2.217.245,4.495.554,6.711.862,1.97.246,4,.492,5.91.677a10.838,10.838,0,0,0,.862-.985c.492-.617,1.17-1.233.739-2.217a.949.949,0,0,1,.369-.863,16.56,16.56,0,0,1,2.832-1.231,1.22,1.22,0,0,1,1.417,1.231,3.687,3.687,0,0,1-.37.863c.493.862.986,1.6,1.354,2.4.739,1.539,1.724,2.586,3.571,2.278.247-.062.492.123.739.123h2.525c.123-.616.308-1.17.369-1.724.123-1.355.123-1.355,1.54-1.479a1.041,1.041,0,0,0,.308-.122c.185-.494.369-.986.553-1.542h1.662c.185.555.37,1.048.554,1.663H344.3c.123.371.308.555.247.8-.308,2.031.369,4,.616,5.972.062.369.123.859.37,1.047,1.231.86,2.524,1.6,3.817,2.4a15.946,15.946,0,0,1,.247-1.909h6.341c.986,0,1.293.368,1.354,1.354.123,1.416.431,2.831.431,4.248a2.385,2.385,0,0,0,1.354,2.216c1.108.679,1.047.924.185,1.847a2.78,2.78,0,0,0-.677.8c-.123.246,0,.616.061,1.047-.923-.554-1.108.061-1.17.677-.185,2.032-.308,4.126-.431,6.156a1.949,1.949,0,0,0,.185.555c1.416.185,2.77.308,4.125.431.37.061.923.123,1.108-.062.924-.985,2.155-1.786,2.155-3.326a1.32,1.32,0,0,1,.739-1.292,10.477,10.477,0,0,1,1.908-.8,1.007,1.007,0,0,1,1.293,1.354,1.656,1.656,0,0,0,.37,1.6c.616.985,1.231,1.97,1.908,3.078,1.231.123,2.587.247,4,.37.185-1.17.369-2.278.492-3.141h6.9c.247,2.218.493,4.249.739,6.342.923.493,1.847.985,2.832,1.477.061-.738.123-1.231.123-1.847a12.318,12.318,0,0,1,3.522-.078,12.6,12.6,0,0,0,3.312-.045,10.742,10.742,0,0,1,.123,1.171,20.883,20.883,0,0,1,.247,3.385,2.251,2.251,0,0,0,1.539,2.464c.8.308.739.8.062,1.416-.554.492-1.047.985-1.54,1.417.247.616.37,1.107.616,1.723-.43-.245-.677-.368-1.108-.616-.061,2.71-.123,5.3-.185,7.635-1.354,1.048-2.832,1.663-3.263,3.325-.554.124-1.17.309-1.786.432.37,2.524.185,3.325-1.354,4.248a2.15,2.15,0,0,0-1.17,1.663c-3.078,1.354-4.556,3.632-4.309,6.647.122,1.231.369,2.526.43,3.758a8.94,8.94,0,0,1-.308,3.14c-.431,1.477-.308,1.909,1.047,2.525.616.307,1.232.616,1.54.8a15.46,15.46,0,0,1-1.724,2.154,24.1,24.1,0,0,0-3.94,5.359,8.421,8.421,0,0,0-1.354,5.48c.123.739-.123,1.6-.062,2.339a3.921,3.921,0,0,1-.8,2.587c-.616.859-.554,1.231.308,1.784.8.494,1.478.986.986,2.093-.062.186.185.494.185.8a1.271,1.271,0,0,1,0,.677,7.372,7.372,0,0,0-.986,3.941c-.123,3.94-.123,7.88-.185,11.82a12.784,12.784,0,0,1,.061,1.54,14.622,14.622,0,0,0,.247,4,2.1,2.1,0,0,0,.554.062c5.418-.062,10.836-.185,16.254-.247a9.785,9.785,0,0,0,2.279-.368,7.031,7.031,0,0,1,4.063.122,2.273,2.273,0,0,0,1.292.123c1.293-.061,2.525-.184,3.818-.246.431-1.54.8-3.017,1.292-4.433a18.976,18.976,0,0,1,3.633-7.2,3.618,3.618,0,0,1,1.539-1.047c3.386-.923,5.849.247,7.327,3.448a10.363,10.363,0,0,1,.492,1.229c.986,3.82,1.97,7.7,3.017,11.515.184.679.492,1.355.678,1.848h2.155c2.032,0,4.063,0,6.034-.061,3.632-.062,7.2-.185,10.836-.247,2.032-.061,4,0,6.034,0,3.325,0,6.649-.061,9.974-.124h3.2c1.231-.06,2.524-.122,3.756-.184h2.893c0-.8-.062-1.354,0-1.97a5,5,0,0,0-.554-3.51,1.182,1.182,0,0,1,.247-1.6,6.775,6.775,0,0,0,.677-.616,8.186,8.186,0,0,1-.616-1.847c-.123-.8.8-.862,1.047-1.047a18.017,18.017,0,0,0,.308-2.157c0-.676-.061-1.292-.123-2.03a4.821,4.821,0,0,1-.738.309c-.123-1.97-.123-1.97,1.108-3.08.862.924,1.662,1.848,1.047,3.2a6.941,6.941,0,0,1-.8-.185c.122,1.354.246,2.587.308,3.57.492.616,1.108.986,1.169,1.417a4.562,4.562,0,0,1-.492,1.724,3.6,3.6,0,0,0,3.571,1.6c1.6-.061,3.263,0,4.864,0,1.724,0,3.448-.061,5.172-.061.431,0,.677-.062.492-.616-.246.061-.431.123-.677.184-.431-1.415.369-2.277,1.17-3.262.43,1.231,1.477,2.092.861,3.448a5.454,5.454,0,0,1-.616-.37c-.246.677.185.923.554,1.109,1.047.553,2.093,1.108,3.14,1.6.677.308,1.17.616.923,1.6,1.539-.678,2.648.122,3.756.678,1.17.554,2.525.8,3.448,1.97a1.286,1.286,0,0,0-.8,1.724,6.972,6.972,0,0,0,1.169,2.34,27.9,27.9,0,0,0,5.3,5.11c-.616.676-1.231,1.292-1.848,1.97a2.041,2.041,0,0,0,1.971-.247c.308-.246.923-.492,1.169-.369,1.047.43,1.724-.247,2.525-.554a15.96,15.96,0,0,0,1.478-.677c0,.061.062.122.062.185-.678.492-1.355.923-2.093,1.477h11.7c0-1.109.43-1.6,1.416-1.417.123,0,.247-.122.369-.245-.122.739-.677,1.046-1.416,1.108.061.123.061.185.123.308.431,0,.862.06,1.354.06v-1.415c.061-.37.061-.8.123-1.17h.185c.061.616.123,1.293.247,2.093.492-.369.8-.616,1.231-.923a12.027,12.027,0,0,1,.123,1.478c.246-.247.492-.371.492-.493-.062-.554-.185-1.046-.308-1.661.246-.309.616-.678,1.108-1.233V814.1c.308.122.554.185.8.308-.247.308-.431.554-.739.985.492-.062.739-.123,1.108-.185-.123.432-.247.739-.431,1.354.739-.369,1.231-.616,1.662-.861.062-.739-.061-1.724.247-1.97.739-.492.061-1.17.554-1.662.308-.308.185-.986.308-1.54a2.32,2.32,0,0,0,.616.061c-.062.555-.123.985-.185,1.6a6.281,6.281,0,0,0,.985-.554c-.185.308-.431.616-.616.923-.061.123-.061.247-.123.37.308.061.492.061.739.122q.277-.367.554-.739c.061.063.123.123.185.186h.123c.123-.493.185-.985.369-1.662.123.43.185.677.247.923.677.123,1.231.06,1.17-.985.431.37.739.678,1.108.985.3.177.508-.046.737-.269.245-.24.511-.48.925-.224.308-.492.616-.985.923-1.54-.553,1.354,1.047,1.6,1.17,2.525.308-.061.678-.185.985-.247,0-.369.061-.739.061-1.231.431.862.8,1.6,1.17,2.277.308.371-.923.986.185,1.355.123-.308.247-.616.37-.985.123.369.123.8.739.862.246,0-.123.739.43.8-.369.185-.738.308-1.108.492.062.062.062.184.123.246.369-.062.677-.184,1.047-.246a5.032,5.032,0,0,1-.123.8c2.278-.06,4.433-.245,6.588-.245,4.31-.063,8.681,0,12.992,0,.616,0,1.231.123,2.031.185.527,3.893.971,7.788,1.4,11.688H1078v-.137c2.167,0,4.463-.128,6.631-.128h182.1c1.531,0,3.061-.383,4.464-.255,5.611.765,9.946-1.148,13.517-5.356.893-1.021,1.912-1.912,3.06-3.061v-2.677c-.128-12.5-.255-25.122-.382-37.618-.128-11.1,0-22.189,0-33.412,0-2.805.638-6.12-.51-8.416-1.785-3.825-3.7-7.906-8.672-9.181-3.57-.893-5.228-3.953-4.973-7.651.127-1.531,0-3.061,1.53-4.081a2.427,2.427,0,0,0,.637-1.658c-.255-3.826.51-7.907-1.53-11.732,2.551-1.4,2.423-3.7,2.423-6.121-.128-15.047-.128-30.222-.128-45.27,0-2.167.383-4.335-1.274-6.122-.383-.382-.256-1.147-.256-1.784a58.109,58.109,0,0,1-.51-6.632,2.312,2.312,0,0,0-2.423-2.55c-2.55,0-3.825-1.912-5.738-3.57,1.021-.638,1.658-1.148,2.423-1.53,1.4-.51,2.933-1.021,4.336-1.4a4.233,4.233,0,0,0,3.7-4.592q0-5.164-.382-10.328c-.128-2.167-1.147-4.463.51-6.5.255-.383-.256-1.53-.638-2.167-1.147-1.4-2.933-2.551-.765-4.464.128-.127,0-.509-.128-.892-.255-2.551-.509-5.229-.637-7.779-.128-3.316-.765-4.081-3.954-4.974a2.2,2.2,0,0,1-1.53-1.274,1.3,1.3,0,0,1,.893-1.913c.255-.127.382-.383.637-.765-2.3-.255-4.208-.892-6.248-.765-4.208.256-5.612-3.189-8.289-5.356,3.06-1.275,5.866-2.167,8.544-3.443,5.356-2.678,9.564-6.5,11.094-12.624.51-2.04.255-2.677-1.4-3.954-.637-.382-1.147-.892-2.167-1.657,2.167-.765,3.825-1.148,5.356-1.786,9.309-3.7,18.49-7.4,27.8-11.093a4.569,4.569,0,0,1,2.3-.256c7.524,1.53,15.048,3.187,22.7,4.719a7.608,7.608,0,0,0,2.933-.128c12.5-4.335,24.866-8.926,37.364-13.262a15.6,15.6,0,0,0,5.993-3.825,23.129,23.129,0,0,0,4.974-7.906,3.82,3.82,0,0,0-2.168-4.846c-.637-.255-1.02-.764-1.913-1.274.765-.511,1.148-1.021,1.658-1.275,4.718-1.786,9.309-3.443,14.027-5.228,7.906-2.933,15.812-5.738,23.719-8.672,2.805-1.021,5.483-2.04,8.416-.51.383.128.765.128,1.148.255,6.122.51,11.86,2.3,17.853,3.7a13.117,13.117,0,0,0,6.249.383c4.973-1.4,9.691-3.316,14.537-4.973,8.161-2.933,16.45-5.866,24.611-8.8,8.034-2.933,16.068-5.866,24.1-8.671a10.053,10.053,0,0,0,5.1-4.081,13.5,13.5,0,0,1,1.147-1.4,25.3,25.3,0,0,0,4.336-8.927c-.638-.127-1.148-.255-1.658-.383.383-.637.765-1.147,1.4-2.04-1.53-.765-2.933-1.4-4.718-2.3.765-.893,1.275-1.913,2.04-2.168,4.463-1.658,8.926-3.188,13.389-4.846,8.672-3.316,17.215-6.631,25.887-10.074,5.993-2.3,11.859-4.846,17.852-7.141.638-.255,1.531.128,2.3.128-1.021,1.4.637.765,1.02,1.275,1.658-1.531,3.188-.128,4.591.255,6.5,2.04,12.88,4.208,19.383,6.376a7.654,7.654,0,0,0,2.933.256,34.3,34.3,0,0,0,5.865-1.786c3.571-1.4,7.142-2.933,10.712-4.208,9.054-3.443,18.236-6.758,27.29-10.2,9.181-3.442,18.363-7.014,27.544-10.584,2.167-.765,3.443-2.04,3.57-4.335.255-4.719.51-9.564.637-14.283,0-2.167.256-3.953,2.3-5.228.765-.383,1.02-1.53,1.785-2.04,1.148-.893,1.4-2.551,3.189-3.06,4.463-1.4,8.926-2.933,13.261-4.591,6.121-2.3,12.115-4.591,18.236-6.886a9.052,9.052,0,0,1,2.677-.51c7.141.128,14.282.51,21.3.51,7.268,0,14.41-.256,21.678-.256a9.7,9.7,0,0,1,3.189.765c2.805,1.275,5.483,2.678,8.288,3.826,5.866,2.551,11.86,4.973,17.725,7.524a26.925,26.925,0,0,1,2.551,1.53c-.128.255-.256.383-.256.637-1.912-.765-3.825-1.4-5.738-2.167.509,1.147,1.02,2.3,1.912,2.677a43.72,43.72,0,0,0,6.631,2.933c1.912.637,3.316,1.4,3.953,3.061-.893,2.04-1.4,3.953-2.551,5.611-1.4,2.04-.765,3.7.382,5.356,2.3,3.188,3.443,7.014,4.719,10.456a42.685,42.685,0,0,0,4.718,2.551c2.678,1.147,5.484,2.168,8.161,3.443.893.383,2.3,1.02,2.3,1.658,0,1.53,1.02,1.785,2.04,2.167,6.886,2.933,13.9,5.866,20.659,9.054a8.561,8.561,0,0,0,7.268.383c4.591-1.53,9.309-2.805,14.027-4.207,4.463-1.4,8.926-2.678,12.879-3.826,17.343,7.906,34.176,15.812,51.135,23.591a7.177,7.177,0,0,1-.509,1.021,13.525,13.525,0,0,1-1.4,1.147c-1.912,1.148-2.677,2.678-2.04,4.846a40.46,40.46,0,0,0,2.168,4.846c.255.637,1.148,1.02.127,1.913-.637.51.766,3.57,1.531,3.57,2.677,0,4.208,2.3,6.249,3.316,2.423,1.147,4.846,2.168,7.268,3.316,2.551,1.147,5.228,2.295,7.906,3.443-.255,1.02-.382,1.658-.637,2.55.51.256,1.021.51,1.658.766,11.6,4.846,23.336,9.691,34.813,14.665a6.76,6.76,0,0,0,4.973.383c2.755-.715,5.511-1.388,8.258-2.062V828.461Zm301.7-25.326v6.959h.185v-7.02A.227.227,0,0,0,375.7,803.135ZM1777.065,384.858c4.336,2.04,8.672,3.954,13.007,5.866a15.872,15.872,0,0,0,2.551.765c-1.4-2.295-3.316-2.933-5.228-3.7-3.57-1.658-7.141-3.06-10.712-4.718-2.168-1.021-4.335-2.04-6.631-3.189,0,.638-.127,1.148-.127,1.658-2.168.128-4.336.128-6.5.128,1.021,1.53,2.423,1.275,3.7,1.148a14.04,14.04,0,0,1,1.518-.081A20.8,20.8,0,0,1,1777.065,384.858Zm-61.465-.893c.128.128.128.383.255.51,2.04-.765,4.081-1.53,6.631-2.423a5.161,5.161,0,0,0-1.8-.353C1718.472,381.7,1717.242,383.452,1715.6,383.965Zm8.161-1.913c3.883.971,7.829.841,11.878.713,1.8-.057,3.62-.114,5.465-.075-.51-1.531-1.531-1.148-2.423-1.148a25.782,25.782,0,0,1-4.464-.127,12.066,12.066,0,0,0-3.218-.239c-1.986.03-3.923.059-5.325-1.674A22.07,22.07,0,0,1,1723.762,382.053Zm20.659.51c2.423.128,4.718,0,7.268,0,0-.383-.128-.765-.128-1.148h-7.651C1744.038,381.8,1744.165,382.563,1744.421,382.563ZM567.548,808.313v-.186h1.231v.186Zm-30.23-37c.122-.247.246-.431.369-.677.061.061.185.061.247.122-.123.186-.247.432-.37.616C537.44,771.369,537.379,771.369,537.318,771.309Z" transform="translate(-74 -377.972)"></path></svg> 