<?xml version="1.0" encoding="UTF-8"?> <svg xmlns="http://www.w3.org/2000/svg" width="1929" height="471.098" viewBox="0 0 1929 471.098"><defs><style>.a{fill:#ededed;}</style></defs><path class="a" d="M0,517.859v-1H733.136c7.49-1.431,15-3.181,22.675-4.117,8.394-.86,16.573-1.292,24.967-1.722,1.938-.215,3.659-1.507,4.736-1.937,4.856,2.428,9.972,2.163,15.016,1.9,5.239-.275,10.4-.551,15.115,2.191a34.131,34.131,0,0,1,7.621-.036c4.474.311,8.932.623,13.042-2.116.215-.215.645,0,1.076,0,1.507.861,3.013,2.152,4.52,2.152,2.122.092,4.285.066,6.452.04,2.888-.035,5.786-.07,8.615.176,5.165.215,10.116,1.291,15.281,1.937a33.421,33.421,0,0,0,3.572.12c2.655-.005,5.282-.012,7.824,1.414h32.274c4.673-.634,9.281-1.207,14.013-1.534a51.721,51.721,0,0,1,6.457-.108,51.724,51.724,0,0,0,6.458-.107c7.1-.431,13.99-1.938,20.017-5.811a101.6,101.6,0,0,0,42.186-15.5,9.022,9.022,0,0,0,4.054-.008c2.481-.341,5.209-.683,7.354,1.73l8.609-3.228a61.068,61.068,0,0,0,9.255,1.076c1.722,0,3.228-1.507,4.736-1.507,4.735-.215,9.47-.215,14.2-1.938a15.544,15.544,0,0,1,5.606-.491c2.873.087,5.819.175,8.384-1.876,8.609,1.076,15.927-2.583,23.03-6.888,4.735-2.8,9.9-3.875,15.5-4.09,10.976-.215,21.954-.43,32.5-2.368,3.875-.645,7.964-1.291,12.053-1.722s8.179-2.152,12.054-1.937c9.255.43,17-3.875,25.613-6.457,3.443,1.507,9.47,3.013,11.623,1.937,6.242-3.228,13.344-1.937,19.8-4.09,2.583-.645,5.166-1.292,7.964-1.937,1.937,1.292,4.3,2.582,7.1,4.09a56.543,56.543,0,0,1,11.471,1.3,56.076,56.076,0,0,0,12.85,1.277c7.963-.43,16.788-.645,23.675,2.368,3.911,1.621,7.993,1.425,11.98,1.228,5.009-.247,9.869-.494,14.063,2.861,1.507-1.076,2.583-1.938,3.013-2.153,3.875.646,6.673,1.722,9.686,1.722,10.116.216,20.016,0,30.133.216,3.659,0,7.318,1.722,10.976,1.937a86.265,86.265,0,0,0,12.914,0,24.767,24.767,0,0,0,5.6-1.722c3.443.86,6.026,1.722,8.609,1.722,1.633-.061,3.285.031,4.935.124,4.215.237,8.416.474,12.284-1.846,3.571,2.335,7.406,2.039,11.224,1.744a28.788,28.788,0,0,1,6.425-.023,14.41,14.41,0,0,0,2.6-.07,7.467,7.467,0,0,1,3.856.285c4.619,2.533,9.446,2.281,14.263,2.029a55.9,55.9,0,0,1,6.4-.092c1.507,0,3.013-1.076,4.52-1.722,1.076.646,2.152,1.722,3.443,1.722,4.207.125,8.414.122,12.622.121,10.213-.006,20.427-.013,30.641,1.817,10.977,1.722,21.739-2.368,32.285-4.951,1.508-3.228,3.444-5.811,3.875-8.609,1.076-7.533,1.076-15.281,2.368-22.814,1.076-5.381.645-11.408,2.583-16.143,1.507-4.3.645-8.178,1.507-12.268.86-4.3,1.722-8.825,2.152-13.129.861-7.1.43-14.636,2.368-21.523,2.583-9.471,1.722-19.156,4.735-28.626-2.583-2.152-5.166-4.09-7.318-6.026,1.937-4.735-5.381-8.609,0-12.914-3.658-4.09-.645-9.255-2.153-13.344-1.722-1.722-3.228-3.228-5.165-5.381,2.152-1.292,3.659-2.152,5.165-3.013,2.583-1.076,6.242-.645,9.686-1.076,3.444-.215,6.673-1.722,9.9-1.937,2.69-.215,5.381-.162,8.071-.108s5.381.108,8.071-.107c1.484-.065,2.95-.014,4.408.038,3.4.121,6.762.241,10.228-1.114,3.19-1.216,7.024-1.145,10.443-1.073,1.424.03,2.775.059,3.978,0,3.444-2.8,6.026-4.95,8.609-7.1V248.866c0-5.166-.43-10.331,1.938-15.282a27.724,27.724,0,0,0,2.152-10.976c.215-18.3,0-36.59,0-54.239-1.722-1.722-2.8-3.228-4.3-4.3s-3.228-1.937-5.381-3.228a29.614,29.614,0,0,1,3.013-2.153c8.394-3.874,15.067-10.976,24.107-14.2.43,0,.646-.431.861-.646,3.013-3.443,7.1-5.381,11.192-6.888a11.344,11.344,0,0,0,5.166-3.013c4.3-4.735,9.9-6.888,15.5-9.47,2.152-.861,4.735-1.722,6.026-3.444,3.658-4.735,9.04-6.887,13.774-8.825,5.811-2.367,9.9-6.242,14.206-10.331.861-7.533-6.242-15.281,1.722-22.6,3.013-.215,4.736-3.443,6.888-5.811V48.483c0-.645.861-1.076,1.292-1.722a24.225,24.225,0,0,1,3.228.861V74.957c2.583,2.583,5.6,5.166,8.179,7.534v9.47c-1.937,4.736-3.444,8.179-5.166,12.054,8.394,5.6,16.142,10.976,24.107,16.142,2.152,1.507,5.166,1.937,7.1,3.659,9.04,8.179,21.308,11.623,30.778,19.372,3.444,2.8,8.394,4.089,11.838,7.748a10.176,10.176,0,0,0,8.825,2.583,20.994,20.994,0,0,0,.431,2.583c3.228,1.507,5.811,2.8,8.178,3.874v4.09c-3.228,2.368-5.811,4.3-8.178,6.026v64.14c3.443,4.089,5.811,6.887,7.533,9.04-.43,10.976-.861,21.092-1.507,31.208-.645,9.9-1.722,20.017-2.583,29.057l5.811,5.811c2.583,0,5.381.216,8.179,0,3.013-.43,5.381,1.938,7.748,1.938,5.166,0,10.331.86,15.712-.861,4.52-1.292,9.686-.86,14.421-.215,5.381.646,10.546,3.228,15.712,3.228,8.394,0,17-1.076,23.675-7.533,1.076-.861,3.228-.645,4.951-1.076,4.735-3.874,9.04-8.825,14.421-11.623,2.967-1.484,6-2.846,8.987-4.313V517.859ZM1794.316,402.328c.43,16.788.215,33.576.215,50.58,1.722,1.507,2.8,2.367,4.52,3.659,5.381-4.52,11.192-8.394,15.712-13.559,4.52-4.951,12.484-6.458,14.421-18.3V394.579c-3.013-2.8-6.242-5.811-9.686-9.255h-17.649C1796.683,389.629,1794.1,395.01,1794.316,402.328Zm-42.4-243.214v68.014c11.407,1.507,22.815,5.6,35.944,4.735V163.418c-9.564-2.657-19.272-4.585-29.367-4.585C1756.318,158.834,1754.125,158.923,1751.914,159.114Zm44.984,72.749h3.659V167.723H1796.9Zm-169.819-63.709v61.341c4.09-.86,7.964-1.722,12.269-2.583V165.57c-1.8-.1-3.746-.572-5.7-.572A7.9,7.9,0,0,0,1627.078,168.153Zm115.366,59.835V159.114h-51.01v68.444c9.471.491,19.084.421,28.836.351,3.443-.025,6.9-.049,10.379-.049C1734.558,227.859,1738.49,227.891,1742.444,227.988Zm-94.057-.645h29.272c.43-.431,1.507-1.507,2.583-2.8v-65c-5.215-1.383-10.323-.452-15.509.479-5.3.953-10.687,1.905-16.346.382Z" transform="translate(0 -46.761)"></path></svg> 