<svg enable-background="new 0 0 564.9 595.2" viewBox="0 0 564.9 595.2" xmlns="http://www.w3.org/2000/svg" xmlns:xlink="http://www.w3.org/1999/xlink"><clipPath id="a"><path d="m165.5 105 128.3-11.9c-.4.8-24.2-93.1-24.2-93.1h-269.6l6.9 216.6 158.6 268.6 165.5 110 210.5-17.1 23.4-118.1-78.7-87-295.7-6.5-25-52.2 19.6-68.9-19.6-55.5z"/></clipPath><path clip-path="url(#a)" d="m121.3 246 .2.6.5.6v-.2l-.3-.2.2-.8zm-2.4-2.1v.2h-.2l-.2.3v.5l.3.2.3-.2.2-.6zm-23.9 9-.2.3.2.2zm193.5 249.7-1.6-2.1-2.1-1.6-.8-1-.6-1.3-.3-.3-.3-.5-.2-.5-.2-.5-.2-.5-.5-.2-.6-.2-.5-.3v1.1l.6 1.3.8 1.3.8 1.9 1.6 2.2.8 1.8 1 .8 1.1.6.8.3h.5l.3-.2.3-.2.3-.2h1.1l.5-.2.5-.3-1.9-1.4zm2-27.2-3.7-1.4-.6-.2-2.9-1.8-1.1-.3-1 .2-.3.6.5.6 1 .5 1.1.3.8.2 1.1.3.3.8.2 2.1.2 1.1.3 1 .6.6 1 .2.5-.2 1.1-.5.5-.2.6.2 1.4 1 .8.2.6-.3.2-.6-2.5-3.7zm178.7-46.1v-.6l-1.3-1-.5-.5-.5-.3-.8-.3-3.5-2.6-.6-.8-.2-.2-.8-.5-.2-.2-.3-.3-.2-.2h-1.1l-.2-.3-.2-.3-.2-.6v-.5l.2-.8.2-.8-.5-.5-.2-1.1-.5-.5-.6-.5-.5-.8v-2.1l-.2-.2-.2-.2-2.7-5.6-1.1-.2-1-.5-.5-1v-1.4l-.2-.6-.3-.8-.5-.6-.6-.3-.6-.2-.3-.6c-.2-2.1-.3-4.3-.5-6.4-9.6-9-19.1-17.9-28.5-26.9l-27.7-26.9c-9.2-9-18.6-18.1-27.9-27-.5-.5-1-1-1.6-1.4l-28.6-26.9c-8.9-8.5-18-17-26.9-25.4-2.1-1.9-4.1-4-6.4-5.9-9.9-8.6-19.7-17.4-29.4-26.1-9.9-8.6-19.6-17.4-29.3-26.1-6.7-5.9-13.4-12-20.1-18.1-.2-13 0-26.1 0-39v-127h-177.9l.5 1 .2.6v.7l-.2 4.3-.3 1-1 2.2-1.1 1.6v.2l1.4.6 2.1 1.6 1.8 1.9.2 1.6v.8l.3 1.4.5 1.3.3.5.2.3v1.9l.3.5.3.5.5.3.5.2-.6 1 .3 1.8.6 3.4-.2 1.8-.8 3.2-.3 2.9-.9 3.8-.8 1.9-.5 2.1-.6.8-.2 1.3v1l.2.6v.8l1.4 2.4.3 1.1v1.3l-2.6 8.1-1.9 3-.5 1.3.8-.5.6-1 1.9-3.4.2-.2 1.8.2.5-.2.5.2h.2l-.6 1.3-1 .6-1 .2-1 .5-.6.6-1.1 2.2-.5.5v2.2l-.3 1.1-1-.5-.5-.5v-.2l.3-1.1.2-.5-1.3 1.8-.8 1.3-.6 1.8v.2l.2.3v.3l-.2.2h-.2l-.2.2-.2.2-.2.6-1 2.1-.3.8c-.3 1-.5 1.9-.8 3l-.2 1-.2.8-.3 1-.3 1 .2.8.6 1.1 1.3 3.2.3 1.4-.5 2.6.2 1.3.6.6.6.3 5.6 5 2.4 1.4.8.8 1.6 2.4.2.3.2 1.3.2.5.3.2 1 .3.5.2 1.3 1.3 6 9 .2 1 .2 2.4.5 1.3.3.6.3.3.5.2.3.5.2.5.3.5.3 1-.3 4 1.1 3.2-.2.5-.6.5-.5 1.3-.5 2.4-.5 3.8-.6 1.8.8 1.9v1l.3.3.3.8.5 1.4.5 2.4.5 1.1.6.5 1.6 3.7v2.4l.2.5.5 1.1.2.6-.2 1.4-.5.6-.6.5-.6 1 .2 1.6 1.3 1.8 3 3.2 2.2 1.8.3.5.3.8 1 .8 1.6 1.1 1.3 1.3 7.2 9.6 1.4 1.3 5.1 2.7 1.3 1.3 1.1 3.2 1.1 1.1v2.7l.5.8v-2l2.4 1.8.8.8.2.5.2 1 .2.5 1.1 1.4 2.1 3.2 1.8 2.1.6 1.1.3 1.3-.8-1.1-1.1-1-1-1.1-.5-1.4-.5-.8-2.2-2.2-.8-.6 1.3 3.2.2 1.4-1.4 5.3-1.1 2.1-.3.8h1.4l.3-.2v-.3l.5-.6.3-.5.3-.5.6-.5-.3-.2-.2-.2-.5-.6.3-.2.3-.2.3-.3.3-.5.6 1.5 1.1 1 2.7 1.3.2.2.6.5.5.6.5 1.4.5.5 1 .5.5.5 1.1 1.4.5.3.5-.3.2-.6-.2-.8 2.4 1.9 1.3 1.4 1.4 1 .6.6.8.6 1 .3 1-.2.6-.6v-1l-.5-.8-.3-.6.6-.6.3.8.5.3.3-.3-.2-.8-.5-.8-1.3-1.1-.5-.6.3-.2.3-.3.2-.2-.5-.5v-.6l.5-.5 1.3-.5h-.5l-1.1-.8-.3-1v-3l-.2-1.4h1.6l1.1-.3.8-.8.8-1.4 4.5 2.6.8 1v.5l.5.5.6.3 1.4.3 2.1 1h.8l.5-.2.5-.3 1.6-1.6.3-.3.2-.5.3-1.1.2-.3.5-.3.8-.5.8-.3h.6l.8.5v.6l-.8 1.8 1.9.6 2.1.2-.3.6-.2.2-.3.2.5.2h.6l.8-.2.6-.3v-.6l.5-.2 1.4.3h.6l1.6-.3.8-.5 1-1.1 1.3-2.1h.3l-.2 1.3-.3 1-.6.8-.8.6-.5.2-.5.2-.5.2-.3.3-.2.5v.5l.2.3.3.2 1.9-.3 1-.3.5-.6v-.8l.2-.3.6-.6.3-.2h.3l.3.2.3.2.2-.2.3-.5.2-.2h1l.8.2.6.3 2.9 2.4.8.3.5.3.8 1 .6 1v.3l-.6-.3-.8-.6-.8-.8-.5-.8-.8.2-1-.5-1.4-1.1-.2-.3v-.5l-.2-.3-.5-.3h-.5l-.3.3-.3.3-.2.2h-1l-.5.2-.2.5v.5l-.2.5-.2.5-.2.2h-.3l-.5.2-.3.3-.2.3.2.2 1.3.5-.8.5-1-.2-1.8-.6-5.1-.5-2.1-.6-5.1-.6-1 .3-1.9 1.3-1 .3-.8-.3-1.6-1.3-1-.3-1 .2-.6.5-2.1 2.1-.5.2h-.6l-.5-.2-.5-.2h-.3l-.3 1.3-.5.8-.6.6-.6.2 1.1 1.8 1.1 1 1.4 1 .3 2.6-.6 1.9v1.1l.8.5.8.2 2.2.8.8.5-1.8.8h.2l.6.3-.3.8.3.2 1.1-.2.5.3.3.5.8 2.1 1.8 6.2.6 1.1.6.8h1l.3.2.2.2.3.5v1l.2.2h.3l.6.3-.6.5-.8.2h-1l-.8-.3-.5-.6-.2-1-.5-.6-.5-.3-.5-2-.5-.3-1 .5-.2-.5-.2-.6-.2-.5-.6-.3h-.3l-.3-.2-.2-1-.3-.2-1.4.2h-.5l-.8-1-.3-.3-.3-.2h-.9l-.3-.2-.5-.5-.2-.3v-.5l-.3-.6v-.5l.3-3.4.2-.5.3-.3.6-.3h-.6l-.2-.3v-1l-.6-2.2-.5-.5-1-.2h-1.8l-1 .2-.6.5-.6 2.1.3 2.2.6 2.2.2 2.1-.3 1-.8 1.6-.2 1.3.3 2.4.5.5.5.2h.5l.5.2.6 1 .5 2.2.5 1 .6.8.5 1.1.3 1.1.2 1.1-.2 2.2-.5 2.1v1.9l1 1.9 1.3 1.1.5.6.2 1 .5.6 2.7 2.1 2.4 3.2 1.3 1.3 3.2 1.9.8.3 1 .2 1-.2 1-.3h.8l.6.6 1.4-1 1.3-.2 1.1.6 1.1 1.4 2.4 4.6 1 1.4-.8 3.2.3.2h.6l.3-.2.2.3v.6l-.2.3-1-.3h-.6l-.3.5-.2 2.6-.3 1.1-.5 1-.6.8-.8.5-.6-.3-.6-.6-.8-.3-.6.3-.6.8-.8 1.9.6.2.5.5.5.3.5.3.2.6-.2.5-.8.2-.2.5.2 1 1.1 2.6.5 2.2.2 2.2v.5l.5 1.6.2.6v.3l.2.3.3.5.5.3.5.2.3.3.2.8.2.5.5.5.5.5 1.3.3 4 2.7 1.3 1.3 2.1 3.5.6 1.9.5 1 .6.3 1 .2.8.3.6.6.5.6.5.8.3 1 .3 1.1.2 1.1.3 1 .6.8 1.4 1.3 1 1.4.6.6 1.6.8.5 1.1.5 2.2 1.6 3.2 1.1 1.1 2.4 1.3 1.4.3 1.3 1.3 1.3 2.6 1.4 1.8 1.3 1.6 1.1 1.1 1.3.8 2.9.5 1.1.5.5.6.3.8.3 1.4.3.6.8 1.1.3.8-1.3.9-.6.2-.3-.3.3-.8-.3-.3-1.1 3.2v1.9l.2.8.5.8 1.1 1 2.5 1 1.1.8.2-.3.8-.3 1-.2.6.2.3.3.8.8.3.2.8.3.3.3.3 1.6.2 1.8-.2 1.9-.3 2.1-1.3 3.2-.2 1.1.2.5 1.3 1.1.3.3.3.3.2.5.2.5v1.1l-.6 2.1-.2 1.1.5.8.5 1 .3 1-.2 1.3-.3 1-.3.6-.3.8-.5 1.6-.3.8.3.6.5.5 1.1.3 1.3.3h1l1.6 1.3 1.3 1.8 1 1.9h1.8l4-.8 6.2-.3 2.1.2 1.8.8 2.2-.6 2.4.8 4.3 2.2.8-.2 1-.3 1-.2.6.3.5.5 1 .6 1.1.5.8.2.5-.3.3-.5.3-.5 2.1-.5 1 .3h1.4l.5.2 1 .8 2.7 1.3 1.6.5 5.1 4.5.6.3h1l.5.2.5.3.2.5v.5l.2.5.5.3-.2.6.2.6.3.6.5.6.2.3.2.6.2.3.2.2.5.2.3.2 1.9 1.8 1.1.6h1.3l-.6-.2-.3-.2h-.3l-.2-.5 1.4.3 3.5 2.1 4.3 1.3 2.1.2 1.6.6.8.8.8-.5.8-.3 6-.8h.6l.5.2h.3l.5-.2.6-.3 1.1.2 1.3.8 1.3 1.1 1.6 2.6 1 2.4.8 1.9.3 1v2.4l-.3.6-.6.6-.2.8.8 1.1.3.2.5.2h.5l.5-.2.5-.2.5.5.5.6.5.3.5.2.5.2.5.2.5-.2.2-.3v-1l.3-1.4.2-.3.6-.2.3-.2.3-.2.3-.2 1.1.8h.6l.8-.2 1.1.2.8.3 5.7 5.8 1.4 1.1 4.9 2.6 2.1 1.6 1.8 2.2.8.5 1.9 1.1.6.5 2.4 2.6 4 2.7 6 8.3 2.2 4.8.8 2.6.2 1 .3.6 1.1 5.1v.8l-.5 1-.5.5-.3.5v1.1l1.1 1.6.2.8v1l-.3 2.2.2.5.5 1 .2.6.2-.5.2-1.6.5-.6.5-.3h.3l.8.2.8.3 1 .5.5.5.6 1 .6 1.1.2 1-.3.5-.5-.2-.3-.6-.6-1-.5-1-.5-.5-.2-.6-.8-.3h-.6l-.5.5-.3.5h1.3l1 .6.6 1.1.8 1.4.2 1.3-.2 1.1.3 1.4.3.3c12.9-1.1 25.8-2.4 38.7-3.5s25.8-2.2 38.7-3.5c7.8-.6 15.6-1.4 23.4-2.1l.2-.6 1.6-1.1 4.5 1 1.8-.5.5-.8v-1.9l.2-.8.5-.6 1.6-1.1.5-.6.2-1.1-.6-3.2v-.6l.2-.5v-.5l-.2-.6-1.1-1.8-1.4-.8-3.8-.3-1.6-.6-1.3-1.8.2-1.8.6-1.9.2-2.2-.5-2.9-.3-.6-1.3-1.5-.2-.8.5-1.4.5-.5.2-.5-.3-.5-.3-.5-.5-.6-.2-.6.5-.3 2.1-.2 1.1-.3.8-.6 1.6-2.9.5-1.3.5-.5.8-.8.6-.8.2-.3.2-.6-.2-1.1v-1.1l.3-.3.2-.2v-1.8l.2-1.3.5-.8.5-.6.3-.8-.5-1-.2-.5.2-.3.2-.3v-1.3l-.2-.3-.5-.5-.2-1.3v-2.1l.8-.6.3-.5v-.5l-.8-1-.3-.6-.2-.6.3-1.1.6-.6 1.6-1.1.6-.6.6-.8.5-1 .3-2.2.5-1 .6-.6 1.6-.5 4.3-3 .8-.2 1.3-1.7 1.4-1.4 1.3-1 .3-.6zm-222 15.7-.6-.2-.3-.2-.5-.2h-.5l-.2.2.2.2.6.3h1l.6-.2v-.2zm-39-1.8-.3-.3-.5-.2-.5-.2-.3-.3-.3-.5-.5-.3-.2 1-.6.3-1.3.2-.8.6-.2.5.3.2.5-.6 1.3.5 1.1.2h2.5v-.6zm12.1 2.3-.5-1.1v-1.3l-.6.5-.8.3-2.5.2-.5.2-.5.3-.6.3h-1l-1.8-.3-.8.3.8.8 1 1.1.8 1.1.3 1 .3.5 1 .6 1 .5.8-.2.5-.3h.5l.5.2h.6l.5-.2 2.2-1.4.5-.6.3-.8.2-1.3-1.3.3zm42.1 25.7-.3.2-.5.2-.2.2.2.2.2.5.2.3.5-.8v-.8zm-21.8-26.4.5-.6v-.8h-.1l-1.1-1-.3-.2h-.6l-.6.3-1.6 1.4-.3.2-.5.2-3.7-1.6-.8-.2-1.8.2-.8-.2-2.2-1.3h-1.4l-.3.2-.5.3-.3.3.3.2.6.2.6.3.5.6.5.6-.5 1.3 1.1 1 1.8.6 1.4.2 9.4-1.9zm3.2 37.8-1.3-.5-.2-.2-.6-.5-.5.3-.5.2h-.5l-.6-.3.5 1.4 1 1.1 1.4.6 1.6.2 1.4-.5-.3-1.1z" fill="none" stroke="#fff" stroke-miterlimit="10" stroke-width=".5"/><g fill="#fff"><g clip-path="url(#a)" opacity=".38" transform="translate(35.04 28.15)"><path d="m28.8 19.5v4.6h11.8l1 .6.3.3v.2l-.2.2-.2.3.2.6v.8l.3.3.3.2.2.5v.3l.2.3v.3l-.3.5.2.2.3.3.3.2v.6l.2.6-.5.6-.2.3.2.2.2.2.3.2.2.2v.6l.2.3.2.2.6.6.2.8v.4l-.2.3-.6.2.3-.2v.3l.2.2v1.4l-.5.8-.3 1.1-.2.2h-.3l-.3-.2-.2.2.2.3v.5l.2.3.3.3.3.2h.6l.3.3v.8l.3.5.3.2v.5l.2.3v.2l-.2.2h-.2v.2l-.2.3-.2.6-.2.3-.2.2v.5h-.2l-.5.2v.2l.2.2.3.2v.2l-.2.3-.3.3-.3.2h-.3v.2l-.6.2-.2.2v.6h-1l-.3-.2h-.2l-.6-.6h-1v-.2l-.2-.2-.5-.2-.2-.3h-.1l-.2.2v.6l-.2.2-.2-.2-.2.2-.2.2-.5-.3-1-.2-.2.3v.2l.2.2.2.6.6 1.1.3.3-.2.5.3.3.2.2h.5v.3l-.2.3h.5l.2.2v.6h.5l-.3.6.2.3-.3.5.5.5v.3l.2.5v.8l.3.3-.2.3.2.3v.8l.3.5v1.4l-.2 6.8v32.6h-21.7l-.2-.2-.2-.2-.2-.2h-.2l-.2-.2h-.2l-.2-.2h-.3l-.2-.2-.2-.2v-.2h-.1v-.3-1.3l-.3-.3v-.2l-.2-.2v-.2l-.2-.2h-.2l-.2-.2v-.1l-.2-.2-.2-.2v-.2h-.2v-.2l-.2-.2h-.3.2l-.2-.2-.2-.2-.2-.2h-.3l-.2-.2h-.6l-.2-.2h-.8l.2-.3h-.2l-.2-.2h-.2l-.1-.3-.2-.2v-.2l-.3-.2v-.2l-.2-.2-.3.1v-.2l-.2-.1-.3-.2-.2-.2v-.2l-.2-.2-.3-.2h-.1-.1l-.6-.3h-.2l-.2-.2-.2-.2-.1-.3h-.6l-.3-.2-.2-.2h-.2l-.2-.2-.2-.2-1.4-1.9h-.2l-.2-.2-.3-.3-.2-.2-.2-.2v-.2-.2-.3-.3l.2-.3v-.2-.2-.2-.2-.2-.6l-.2-.3v-.2-.5-.6-.2-.2-.2l-.1-.1-.2-.2v-.2-.2l-.2-.2v-.2-.2-.2.2-.2-.2-.2-.2l1.4-11v-.2l.2-.2v-.3l.2-.2v-.2-.1l1.1-1.9v-.2-.2-.3-.2l.2-.2.2-.2v-.2l.1-.3v-.2-.1-.2l2.9-4v.2.2l.2.2v.2.2l-.2.2-.2.3-.2.2v.2h.5v.2h.2v-.2-.2-.2h.3l1-.8v-.2.2-.2-.3l.2-.2v-.2-.2h.2l.2-.2h1.4l.2.2.2.2h.8l-.2-.2.2.2h.2l.2-.2.2-.2h.2v-.2-.2-.2h-.5v-.2h-.3v.2.2.2.2.2.2l-3.2-1h-.2v.2.2h-.1v.3h-.3l.1-.3v-.2l.2-.2-.2-.5.2-.2v-.2-.2l.2-.5 3.3-7.4v-.2-.2-.2-.6-.3-.1-.2-.3-.3l-.2-.2v-.2l-.2-.2-.2-.2v-.2h.2v-.2-.2-.2-1-.3-.3-.2.2-.2-.2-.2-.2-.2-.2-.2-.2-.2-.2-.2-.2h11.7zm-17.6 21.6v-.2zm0 15v-.1h.2zm.5-.1.2-.2zm-3.2 6.8-.2-.2z"/><path d="m28.8 19.5-4.8 21.4h-.5-1.8-.3-.2-.8-1.3-.3-1.3-.3-.8-1.1-2.5-.3-.2v.2.2.2.2.2.2.2.2.2.2.2.2-.3.2.2.2.2.2.2.2.2.2.2.2.2.2.2h-.2v.2l.2.2.2.2v.2l.2.2v.2.2.3-.5.2.2.2.6.2.2.2l-3.4 7.2v.2l-.2.5v.2.2h-.1l.2.6-.2.2v.1l-.2.2h.2.2v-.2-.2h.2v-.2-.2h.2l3.2 1v-.2-.2-.2-.2-.2h.2v.2h.2v.2.2.2.2h-.2l-.2.2-.2.2h-.2l-.2-.2.2.2h.2.2-.8-.2-.2l-.2-.2-.2-.2h-.2-.2-1 .2l-.2.2h-.2v.2.2h-.1v.2.2-.2.2l-1 .8h-.1-.2v.2.2.2h-.1v-.2h-.2-.2-.1v-.2l.2-.2.2-.3.2-.2v-.2-.2l-.2-.2v-.1-.2l-2.9 4v.2.2.2l-.2.3v.2l-.2.1-.2.3v.2.2.2.2.2l-1.1 1.7v.2.2l-.2.2v.2.2h-.1v.2.2l-1.4 11v.2.2.2.2.2.2.2l.2.2v.2.2l.1-.2.2.2v.2.2.2.2.2.2.2.2.2.3l.2.3v.3.3.2.2.2.2.2l-.2.3v.2.2-.1.2.2.2l.2.2.2.2.3.3h.1.2l1.4 1.9h.2l.2.2v.2l.2.2.2.2h.3.2.1.2.2l.2.3.2.2.2.2h.2l.4.3.2.2h.2l.3.2.2.2v.2l.2.2h.2l.1.1v.2l.3.2.2.2v.2l.3.2v.2l.2.2.3.5h.2l.2.2h.2l-.2.3h.2.2.2.2.2l.2.2h.2.2-.3.2l.2.2h.2.2l.2.2.2.2.2.2.2.2h.2.2l.2.2v.2h.2v.2l.2.2.2.2v.2.2l.2.2h.2l.2.2v.2l.2.2v.2l.3.3v.3.2-.9.2.2.2.2.2l.2.2v.2l.2.2.2.2h.2-.7l.2.2.2.2h.2l.2.2h.2l.2.2h.2l.2.2.2.2h.2 1.3.6 8.1 1 5.7 1.8.8 2.2v-6-2.7-4.8-3.5-11-5l.2-6.7v-1-.5l-.3-.5v-.5-.3l-.2-.3.2-.3-.3-.3v-.5-.3l-.2-.5v-.3l-.9-.5.3-.5-.2-.3.3-.6h-.2-.2v-.5-.2l-.2-.2h-.5l.2-.3v-.3h-.5l-.2-.2-.3-.3.2-.5-.3-.3-.6-1.1-.2-.6-.2-.2v-.2l.2-.3 1 .2.5.3h.2l.2-.2.2-.2.2.2.2-.2v-.3-.3l.2-.2h.3l.2.3.5.2.2.2v.2h.2.3.5l.6.6h.2l.3.2h.5.5v-.3-.3l.2-.2.6-.2v-.2h.3l.3-.2.3-.3-.3-.2v-.3l-.3-.2-.2-.2v-.2l.5-.1.3-.2v-.5l.2-.2.2-.3.2-.6.2-.3v-.2h.2.2l.2-.2v-.2l-.2-.3v-.3l-.5-.2-.3-.5v-.8l-.3-.3h-.6l-.3-.2-.3-.3-.2-.3v-.3-.2l-.2-.3.2-.2.3.2h.3l.2-.2.2-1.1.2-.8v-1.4l-.2-.2v-.2l-.3.1.3-.2v.1l.3-.1.2-.3v-.3l-.2-.8-.6-.6-.2-.2-.2-.3v-.3-.3l-.2-.2-.3-.2-.2-.2-.2-.2.2-.3.5-.6-.2-.6v-.3-.3l-.3-.2-.3-.3-.2-.2.3-.5v-.3l-.2-.3v-.3l-.2-.5v-.2l-.3-.3v-.3-.5l-.2-.6.2-.3.2-.2v-.2l-.3-.3-1-.6h-.3-1.4-5.1-4.9v-.6-4.1m-17.8 35.8h.2.2-.2-.2v.2-.2h-.3zm.6.7.2-.2zm-.5.1h-.2.2v-.1h.2zm-2.7 6.7-.2-.2zm2.7-21.9v.2h-.2.2zm16.6-21.6 2 .2v3.6h3.9 5.1 1.4.3.3l.3.2 1 .6.1.1.1.1.3.3.3.3v.4.2.4l-.2.2.1.2v.1.1.3h.1l.4.2.1.4.2.5.1.2v.2.1l.1.1.1.2v.2.3.3l.5.2v.6.3.2l.1.5.1.5-.6.5-.1.1.2.2.3.3v.4.3.1l.6.6.2.2.1.3.2.8v.1.1.4.2l-.1.2-.2.3-.1.1v1.4.1.1l-.1.8-.3 1.1-.1.2-.2.2-.1.1h.4l.3.3.3.3.3.3v.4.5h.1l.6.3v.6.2l.1.1.1.2v.2.2.6l-.3.3-.2.2-.3.3-.1.4v.1.1l-.2.3-.1.1v.1.6l-.3.1v.4.2l-.1.2-.2.3-.1.1v.2l-.3.3-.1.1-.2.1h-.1v.2l-.8.2v1h-1-.5-.5-.2l-.2-.1-.1-.1h-.3l-.3-.3-.3-.3h-.1-.3-.2-.9l-.6.6-.3-.3h-.2-.1l.2.3.2.2.4.4-.1.2h.7v.9l.2.2.4.4h1.1l-.7 1.4-.1.2.2.4-.2.3.2.2v.5.2l.1.3.1.2v.2.3.1l.5.5-.3.5v.1.2.3.1l.2.2.2.3v.3.5 1l-.2 6.7v4.9 11 3.5 4.8 2.8 5.6 1h-1-2.2-.8-1.8-5.7-1-8.1-.6-1.3-.2-.4l-.3-.3h-.2l-.2-.2h-.2l-.2-.2h-.2l-.3-.3h-.3l-.3-.3-.2-.2-.2-.2-.3-.3v-.2l-.2-.2v-.2-.2-.2-.2-.2-.2-.2-.1l-.3-.3v-.2l-.2-.2h.2l-.3-.3v-.2h-.5v-.5l-.2-.2-.2-.2-.2-.2h-.3l-.2-.2h-.1-.2-.4-.1-.2-.2-1.5l.5-.9-.3-.4-.1-.1-.2-.2-.4-.2v-.2l-.5-.3v-.2h-.1l-.1-.1-.2-.2-.2-.2h-.1l-.3-.3-.3-.1h-.3l-.3-.3-.2-.2-.2-.2h-.3l-.2-.1-.3-.2-.1-.1-.1-.1-.2-.2-.2-.2h-.2l-.3-.4-1.1-1.5h-.2l-.2-.3-.2-.2-.3-.3-.2-.2-.2-.2-.3-.3v-.4-.2-.2-.2-.2-.2-.2l.1-.2h.1v-.1-.2-.2-.2-.3l-.1-.1-.1-.2v-.2-.3-.2-.2-.2-.2-.2-.2-.2-.1l-.3-.3v-.3l-.1-.1v-.4-.2-.2-.2-.2-.2-.2-.2-.1-.1l1.4-11v-.1.1-.4l.2-.2v-.3l.2-.2v-.2l.1-.2 1-1.7v-.1-.2-.2-.2-.2l.1-.2.2-.3.1-.1v-.1-.1-.1-.2-.3l.2-.3 2.9-4 .9-1.2-.1-.3.3-.3v-.1l.1-.2v-.1-.2l.1-.2 3.3-7.2v-.1-.2-.6-.2-.2-.1-.2-.2l-.2-.2v-.2l-.3-.2v-.4-.2-1h.2v-.1-.2-.1-.2-.2-.2-.2-.2-.2-.2-.2-.2-.2-.1h-.1-.2v-1h-.8v-.2h.8v-.8h.2v.8h.1v-1h1 .2.3 2.5 1.1.8.3 1.3.3 1.3.8.2.3 1.4z"/></g><path clip-path="url(#a)" d="m60 84.8 1.9 3.7 4.1.6-3 3 .8 4.2-3.8-1.9-3.7 1.9.6-4.2-3-3 4.3-.6z"/></g></svg>